<?xml version="1.0" encoding="UTF-8"?>
<!DOCTYPE svg PUBLIC "-//W3C//DTD SVG 1.1//EN" "http://www.w3.org/Graphics/SVG/1.1/DTD/svg11.dtd">
<!-- Creator: CorelDRAW X7 -->
<svg xmlns="http://www.w3.org/2000/svg" xml:space="preserve" width="63.4661mm" height="11.5132mm" version="1.1" style="shape-rendering:geometricPrecision; text-rendering:geometricPrecision; image-rendering:optimizeQuality; fill-rule:evenodd; clip-rule:evenodd"
viewBox="0 0 647 117"
 xmlns:xlink="http://www.w3.org/1999/xlink">
 <defs>
  <style type="text/css">
   <![CDATA[
    .fil0 {fill:#622522}
   ]]>
  </style>
 </defs>
 <g id="Capa_x0020_1">
  <metadata id="CorelCorpID_0Corel-Layer"/>
  <path class="fil0" d="M0 35l8 0 0 34 42 -1 0 -34 8 0 0 82 -8 0 0 -40 -42 1 0 40 -8 0 0 -82zm70 -1l8 -1 0 50c0,6 1,10 1,11 0,3 1,6 3,8 1,2 3,4 6,5 4,2 7,3 10,3 3,-1 5,-1 8,-2 2,-2 4,-3 6,-5 2,-2 3,-5 4,-8 0,-2 0,-6 0,-13l0 -49 9 0 0 49c0,8 -1,13 -2,18 -2,5 -5,9 -9,12 -4,3 -10,5 -16,5 -6,0 -12,-1 -17,-4 -5,-3 -8,-7 -9,-13 -1,-3 -2,-8 -2,-17l0 -49zm66 -2l48 0 0 8 -39 0 0 26 38 -1 0 8 -38 1 0 32 38 0 0 8 -47 1 0 -83zm53 -1l9 0 0 74 31 0 0 8 -40 1 0 -83zm45 0l8 0 0 74 32 -1 -4 8 -36 1 0 -82zm78 -2l38 82 -9 0 -13 -27 -35 1 -13 27 -9 0 39 -83 2 0zm-1 18l-14 30 28 -1 -14 -29zm74 -19l8 0 0 82 -8 0 0 -82zm19 0l16 -1c6,0 11,1 15,2 3,2 6,4 8,7 2,3 3,7 3,11 0,4 -1,7 -2,10 -2,3 -5,5 -8,7 4,2 7,3 10,5 2,2 4,5 5,7 1,3 2,6 2,9 0,7 -3,13 -7,17 -5,5 -12,7 -20,7l-22 1 0 -82zm8 7l0 27 4 0c6,0 10,-1 13,-2 3,-1 5,-3 6,-5 2,-3 3,-5 3,-8 0,-4 -2,-7 -4,-9 -3,-2 -7,-3 -13,-3l-9 0zm0 35l0 32 10 -1c6,0 10,0 13,-2 3,-1 5,-3 7,-5 2,-3 2,-5 2,-8 0,-4 -1,-7 -3,-10 -3,-3 -6,-4 -10,-5 -3,-1 -8,-1 -15,-1l-4 0zm49 -43l47 -1 0 8 -39 0 0 26 39 0 0 8 -39 0 0 33 39 -1 0 8 -47 1 0 -82zm53 -1l17 -1c9,0 15,0 18,1 5,1 9,3 12,7 3,4 5,8 5,14 0,4 -1,8 -4,11 -2,4 -5,6 -9,8 -4,2 -9,3 -16,3l30 38 -10 0 -30 -38 -5 0 0 39 -8 0 0 -82zm8 7l0 28 15 0c5,0 9,0 12,-2 2,-1 4,-2 6,-5 1,-2 2,-5 2,-7 0,-3 -1,-6 -2,-8 -2,-2 -4,-4 -6,-5 -2,0 -6,-1 -12,-1l-15 0zm86 -9l39 81 -9 1 -13 -27 -36 0 -12 28 -10 0 39 -83 2 0zm-1 17l-14 30 28 0 -14 -30zm4 -41l12 0 -17 17 -7 1 12 -18z"/>
 </g>
</svg>
