<?xml version="1.0" encoding="UTF-8"?>
<!DOCTYPE svg PUBLIC "-//W3C//DTD SVG 1.1//EN" "http://www.w3.org/Graphics/SVG/1.1/DTD/svg11.dtd">
<!-- Creator: CorelDRAW X7 -->
<svg xmlns="http://www.w3.org/2000/svg" xml:space="preserve" width="34.1738mm" height="29.6546mm" version="1.1" style="shape-rendering:geometricPrecision; text-rendering:geometricPrecision; image-rendering:optimizeQuality; fill-rule:evenodd; clip-rule:evenodd"
viewBox="0 0 168 146"
 xmlns:xlink="http://www.w3.org/1999/xlink">
 <defs>
  <style type="text/css">
   <![CDATA[
    .fil0 {fill:#FFFFE7}
   ]]>
  </style>
 </defs>
 <g id="Capa_x0020_1">
  <metadata id="CorelCorpID_0Corel-Layer"/>
  <path class="fil0" d="M88 20c-11,-2 -20,0 -30,7l0 0c-1,1 -3,2 -5,2 -9,5 -14,12 -18,21 2,-2 3,-4 5,-6 3,-3 14,-15 18,-17l0 0c8,-3 21,-6 30,-7zm-43 55c-6,1 -11,2 -15,3 2,-19 12,-37 28,-48l1 0c11,-7 24,-9 35,-7 -4,14 -8,30 -9,37 -1,4 -2,8 -3,12 -4,1 -8,3 -12,4 1,-1 1,-3 2,-4 -2,1 -5,1 -7,2 -1,1 -1,3 -1,4 -15,3 -28,6 -31,8 -3,2 1,8 1,9 1,2 1,6 0,10 -1,-3 -2,-7 -3,-10 -1,-4 -1,-8 -1,-12 -1,0 -2,1 -2,1l0 0c-1,0 -1,0 -2,0 1,8 3,17 7,24 0,0 0,1 1,2 -1,2 -1,4 -2,5 -4,4 4,21 20,2 6,-8 13,-23 18,-39 4,-1 8,-2 12,-3 -1,2 -1,4 -2,7 -11,4 -8,3 0,2 -2,11 -4,22 -6,35 0,7 1,14 4,2 3,-14 6,-26 9,-39 8,-2 20,-5 28,-7 7,-2 13,-3 17,-4 0,4 0,9 -1,13 0,0 0,0 1,1 0,0 0,0 0,1 0,0 1,-1 1,-1 0,0 0,0 0,0 0,0 0,0 0,0 1,-5 2,-9 2,-13l-1 0c0,0 0,-1 0,-1l0 0c0,0 0,0 0,0 -1,0 -1,0 -1,0 0,0 0,0 0,0l0 0c0,0 0,0 0,0 0,0 0,0 0,0l0 0 0 0 -1 0 0 0 0 0 0 0 0 0 0 0 0 0 0 0 0 0 0 0 0 0 0 0 0 0 0 -1 0 0 0 0 0 0 0 0 0 0 0 0 0 0 0 0 0 0 0 0 0 0 0 0 0 0 0 0 0 0 0 0 0 0 0 0 0 0 0 0 0 0 0 0 0 0c0,0 -1,0 -1,-1 0,-1 -1,-1 -1,-2 0,0 0,0 0,0 0,0 0,0 0,0 0,0 0,0 -1,0 -10,3 -22,6 -31,9 -4,1 -8,2 -11,3 1,-2 1,-4 1,-6 4,-1 11,-3 16,-5 10,-3 14,-7 -1,-3 -6,2 -13,4 -14,4 2,-8 4,-17 6,-26 2,-6 9,-36 9,-41 0,-3 0,-2 -3,-1 -1,4 -4,12 -6,20 -1,0 -2,0 -3,0 1,0 2,0 3,1l0 0c-12,-2 -25,1 -36,8l-1 0c-11,7 -19,16 -25,28 -2,5 -3,10 -4,14 0,-6 2,-12 4,-18 -4,8 -6,16 -7,25 -8,1 3,0 -11,1 -2,1 -13,1 -15,5 -1,4 2,2 3,2 19,-3 39,-7 57,-12 26,-9 23,-9 12,-6 6,-21 9,-41 6,-42 -2,0 -4,11 -6,20 -1,5 -2,9 -3,10 -1,5 -2,9 -3,13 -7,2 -15,3 -21,5zm-3 11c4,-1 12,-3 21,-6 0,1 -1,2 -1,3 -4,11 -10,27 -20,35 -1,-2 -2,-3 -3,-5l0 0 0 0 0 0c-1,1 -1,2 -1,3 0,0 0,0 0,1 1,1 1,1 2,2 -3,1 -4,-2 -3,-5 4,-22 -2,-24 -2,-25 0,-2 5,-2 7,-3zm95 -1c0,-1 -1,0 -1,0 -1,0 -2,0 -2,1 -1,0 -1,0 -1,1 -1,0 -1,0 -1,0 0,0 0,0 0,0 0,1 -1,0 -1,0 0,-1 0,-2 0,-2 -1,0 -1,-1 -1,-1l0 0c-1,0 -2,2 -2,3 0,0 0,1 0,1 0,1 0,1 0,1 0,1 0,1 0,3 0,0 0,0 0,1 -1,0 0,0 0,1 0,0 0,1 0,1 1,0 2,0 2,1 1,0 0,0 1,0 1,1 1,1 1,1 1,-1 1,0 1,-1 0,0 0,0 0,0 1,0 1,0 1,0 0,-1 0,-1 1,-1 0,0 0,-1 0,-1 1,0 1,0 1,0 1,-1 3,-1 3,-2 0,0 1,-1 1,-1 0,0 1,-1 0,-1 -1,0 -1,0 -1,0 -1,0 -1,0 -2,0 0,0 0,0 0,0 0,0 0,0 0,0 -1,0 -1,-1 -1,-1 1,-1 1,-2 1,-2 0,0 0,-1 0,-1 0,-1 0,-1 0,-1zm-49 48c-1,0 0,0 -1,1 0,0 0,0 0,0 0,0 0,0 0,0 0,0 0,0 0,0 0,0 0,0 0,0 0,0 0,0 0,0 0,0 0,0 0,0 0,0 0,0 0,0 0,0 0,0 0,0 0,0 0,0 0,0 0,0 0,0 0,0 0,0 0,0 0,0 0,0 0,0 0,0 0,0 0,0 0,0 0,0 0,0 0,0 0,0 0,0 0,0 0,0 0,0 0,0 0,0 0,0 0,0 0,0 0,0 0,0 0,0 0,0 0,0 0,0 0,1 0,1 0,0 0,0 0,0 -1,0 -1,0 -1,0 0,0 0,0 0,0 0,0 0,0 0,0 0,0 0,0 0,0 0,0 0,0 0,0 0,0 0,0 0,0 0,0 0,0 0,0 0,0 0,0 0,0 0,0 0,0 0,0 0,-1 0,-1 0,-1 0,0 -1,0 -1,0 0,0 0,0 0,0 0,0 0,0 0,0 0,0 0,0 0,0 0,0 0,0 0,0 0,0 0,0 0,0 0,0 0,0 0,1 0,0 0,0 0,0 0,0 0,0 0,0 0,0 0,0 0,0 0,0 0,0 0,0 0,0 0,0 0,0 0,0 0,0 0,0 0,0 0,0 0,0 0,0 -1,0 -1,0 0,0 0,0 0,0 0,0 0,0 0,0 0,0 0,0 0,0 0,0 0,0 0,0 0,0 0,0 0,0 0,0 0,0 0,0 0,0 0,0 0,0 0,1 -1,1 -1,1 0,0 0,0 0,0 0,0 0,0 0,0 0,0 0,0 0,0 0,0 0,0 0,0 0,0 0,0 0,0 0,0 0,0 0,0 0,0 0,0 0,0 0,0 0,0 0,0 0,0 0,0 0,0 0,0 0,0 0,0 0,0 0,0 0,0 0,0 0,0 0,0 0,0 0,0 0,0 0,0 0,0 0,0 0,0 0,0 0,1 0,0 0,0 0,0 0,0 0,0 0,0 0,0 0,0 0,0 0,0 0,0 0,0 0,0 0,0 0,0 0,0 0,0 0,0 0,0 0,0 0,0 0,0 0,0 0,0 0,0 0,0 0,0 0,0 0,0 0,0 0,0 0,0 0,0 0,0 0,0 0,0 0,0 0,0 0,0 0,0 0,0 0,0 0,0 0,0 0,1 0,0 0,0 0,0 0,0 0,0 0,0 0,0 0,0 0,0 0,0 0,0 0,0 0,0 0,0 0,0 0,0 0,0 0,0 0,0 0,0 0,0 0,0 0,0 0,0 0,0 0,1 0,1 1,0 1,0 1,0 0,0 0,0 0,0 0,0 0,0 0,0 0,0 0,0 0,0 0,0 0,0 0,0 0,0 0,0 0,0 0,0 0,0 0,0 0,0 0,0 0,0 0,0 0,0 0,0 0,0 0,0 0,0 0,0 0,0 0,0 0,0 0,0 0,0 0,0 0,0 0,0 0,0 0,0 0,0 0,0 0,0 0,0 0,0 0,0 0,0 0,0 0,0 0,1 0,0 0,0 0,-1 0,1 0,0 0,1 0,0 0,0 0,0 0,0 0,0 0,0 0,0 0,0 0,0 0,0 0,0 0,0 1,0 0,0 1,0 0,0 0,0 0,0 0,0 0,0 0,0 0,0 0,0 0,0 0,0 0,0 0,0 0,0 0,-1 0,-1 0,0 0,0 0,0 0,0 0,0 0,0 0,0 0,0 0,0 0,0 0,0 0,0 0,0 0,0 0,0 0,0 0,0 0,0 0,0 0,0 0,0 0,0 0,0 0,0 1,0 1,0 1,0 0,0 0,0 0,0 0,0 0,0 0,0 0,0 0,0 0,0 0,0 0,0 0,0 0,0 0,0 0,0 0,0 0,0 0,0 0,0 0,0 0,0 0,0 0,0 0,0 0,0 0,0 0,0 0,0 0,0 0,0 0,0 0,0 0,0 0,0 0,0 0,0 0,0 0,0 0,0 0,0 0,0 0,0 0,0 0,0 0,0 0,0 0,0 0,0 0,0 0,0 0,0 0,0 0,0 0,0 0,0 0,0 0,0 0,0 0,0 0,0 0,0 0,0 0,0 0,0 0,0 0,0 0,0 0,0 0,0 0,0 0,0 0,0 0,0 0,0 0,0 0,0 0,0 0,0 0,0 0,0 0,0 1,0 1,0 1,0 0,0 0,0 0,0 0,0 0,0 0,0 0,0 0,0 0,0 0,0 0,0 0,0 0,0 0,0 0,0 0,0 0,0 0,0 0,0 0,0 0,0 0,0 0,0 0,0 0,0 0,0 0,0 0,0 0,0 0,0 0,0 0,0 0,0 0,0 0,0 0,0 0,0 0,0 0,0 0,0 0,0 0,1 1,0 1,0 1,-1 0,1 0,1 0,1 0,0 0,0 0,0 0,0 0,0 0,0 0,0 0,0 0,0 0,0 0,0 0,0 0,0 0,0 0,0 0,0 0,0 0,0 0,0 0,0 0,0 0,0 0,0 0,0 0,0 0,0 0,0 0,0 0,0 0,0 0,0 0,0 0,0 0,0 0,0 0,0 0,0 0,0 0,0 1,0 1,0 1,0 0,0 0,0 0,0 0,0 0,0 0,0 0,0 0,0 0,0 0,0 0,0 0,0 0,0 0,0 0,0 0,0 0,0 0,0 0,0 0,0 0,0 0,1 0,1 0,1 0,0 0,0 0,0 0,0 0,0 0,0 0,0 1,0 1,0 0,0 0,0 0,0 0,0 0,0 0,0 0,0 0,0 0,0 0,0 0,0 0,0 0,0 0,0 0,0 0,0 0,0 0,0 0,0 0,0 0,0 0,0 0,0 0,0 0,0 0,0 0,0 0,0 0,0 0,0 0,0 0,0 0,0 0,0 0,0 0,0 0,0 0,0 0,0 0,0 0,0 0,0 0,0 0,0 0,0 0,0 0,0 0,0 0,0 0,0 0,0 0,0 0,0 0,0 0,0 0,0 0,0 0,0 0,0 0,0 0,0 0,0 0,0 0,0 0,0 0,0 0,0 0,0 0,0 0,0 0,0 0,0 1,0 1,0 1,0 0,0 0,0 0,0 0,0 0,0 0,0 0,1 0,0 0,0 0,0 0,0 0,0 1,0 1,0 1,0 0,0 0,0 0,0 0,0 0,0 0,0 0,0 0,0 0,0 0,0 0,0 0,0 0,0 0,0 0,0 0,0 0,0 0,0 0,0 0,0 0,0 0,0 0,0 0,0 0,0 0,0 0,0 0,0 0,0 0,0 0,0 0,0 0,0 0,0 0,-1 0,-1 0,0 0,0 0,0 0,0 0,0 0,0 0,0 0,0 0,0 0,0 0,0 0,0 0,0 0,0 0,0 0,0 0,0 0,0 0,0 0,0 0,0 0,0 0,0 0,0 0,0 0,0 0,0 0,0 0,0 0,0 0,0 0,0 0,0 0,0 0,0 0,0 0,0 0,0 0,0 0,0 0,0 0,0 0,0 0,0 0,0 0,-1 0,-1 0,-1 1,0 0,0 0,0 0,0 0,0 0,0 1,0 1,0 1,0 0,0 0,0 0,0 0,0 0,0 0,0 0,0 0,0 0,0 0,0 0,0 0,0 0,0 0,0 0,0 0,0 0,0 0,0 0,0 0,0 0,0 0,0 0,0 0,0 0,0 0,0 0,0 0,0 0,0 0,0 0,0 0,0 0,0 0,0 0,0 0,0 0,0 0,0 0,0 0,-1 0,-1 -1,-1 0,0 0,0 0,0 0,0 0,0 0,0 0,0 0,0 0,0 0,0 0,0 0,0 0,0 0,0 0,0 0,0 0,0 0,0 0,0 0,0 0,0 0,0 0,0 0,0 0,0 0,0 0,0 0,0 0,0 0,0 0,0 0,0 0,0 0,0 0,0 0,0 0,0 0,0 0,0 0,0 0,0 0,0 0,0 0,0 0,-1 0,0 0,0 0,0 0,0 0,0 0,0 0,0 0,0 0,0 0,0 0,0 0,0 0,0 0,0 0,0 0,0 0,0 0,0 0,0 0,0 0,0 0,0 0,0 0,0 0,0 0,0 0,0 0,0 0,0 0,0 0,0 0,0 0,0 0,0 0,0 0,0 0,0 0,0 0,0 0,0 0,0 0,0 0,0 0,0 0,0 0,0 0,0 0,0 0,0 0,0 0,0 0,-1 0,-1 0,-1 0,0 0,0 0,0 0,0 0,0 0,0 0,0 0,0 0,0 0,0 0,0 0,0 0,0 0,0 0,0 0,0 0,0 0,0 0,0 0,0 0,0 0,0 0,0 0,0 0,0 0,0 0,0 0,0 0,0 0,0 0,0 0,0 0,0 0,0 0,0 0,0 0,0 0,0 0,0 0,0 0,0 0,0 0,0 0,0 0,0 0,-1 0,0 0,0 0,0 0,0 0,0 0,0 0,-1 0,-1 0,0 0,0 0,0 0,0 0,0 0,0 0,0 0,0 0,0 0,0 0,0 0,0 0,0 0,0 0,0 0,0 0,0 0,0 0,0 0,0 0,0 0,0 0,0 0,0 0,0 0,0 0,0 0,0 0,0 0,0 0,0 0,0 0,0 0,0 0,0 0,0 0,0 0,0 0,0 -1,0 -1,0 -1,-1 0,0 0,0 0,0 0,0 0,0 0,0 0,0 0,0 0,0 0,0 0,0 0,0 0,0 0,0 0,0 0,0 0,0 0,0 0,0 0,0 0,0 0,0 0,0 0,0 0,0 0,0 0,0 0,0 0,0 0,0 0,0 0,0 0,0 0,0 0,0 0,0 0,0 0,0 0,0 0,0 0,0 0,0 0,0 0,0 0,0 0,0 0,0 0,0 0,0 0,0 0,0 0,0 0,0 0,0 0,0 0,0 0,0 0,0 0,0 0,0 0,0 0,0 0,0 0,0 0,0 0,0 0,0 0,0 0,0 0,0 0,0 0,0 0,0 0,0 0,0 0,0 0,0 0,0 0,0 -1,-1 -1,-1 0,0 0,0 0,0 0,0 0,0 0,0 0,0 0,0 0,0 0,0 0,0 0,0 0,0 0,0 0,0 0,0 0,0 0,0 0,0 0,0 0,0 0,0 0,0 0,0 0,0 0,0 0,0 0,0 0,0 0,0 0,0 0,0 0,0 0,0 0,0 0,0 0,0 0,0 0,0 0,0 0,0 0,0 0,0 0,0 0,0 0,0 0,0 0,0 0,0 0,0 0,0 0,0 0,0 0,0 0,0 0,0 0,0 0,0 0,0 0,0 0,0 -1,0 -1,0 0,0 0,0 0,0 0,0 0,0 0,0 0,0 0,0 0,0 0,0 0,0 0,0 0,0 0,0 0,0 0,0 0,0 0,0 0,0 0,0 0,0 0,0 0,0 0,0 0,0 -1,0 -1,0 0,0 0,0 0,0 0,0 0,0 0,0 0,0 0,0 0,0 0,0 0,0 0,0 0,0 0,0 0,0 0,0 0,0 0,0zm-5 -2c0,0 0,0 0,0 0,0 0,0 0,0 0,0 0,0 0,0 0,0 0,0 0,0 0,0 0,0 0,0 0,0 0,0 0,0 0,0 0,0 0,0 0,0 0,0 0,0 0,0 0,0 0,0 0,0 0,0 0,0 0,0 0,0 0,0 0,1 0,1 0,1 0,0 0,0 0,0 0,0 0,0 0,0 0,0 0,0 0,0 0,0 0,0 0,0 0,0 0,0 0,0 0,0 0,0 0,0 0,0 0,0 0,0 0,0 0,0 0,0 0,0 0,0 0,0 0,0 0,0 0,0 0,0 0,0 0,0 0,0 0,0 0,0 0,0 0,0 0,0 0,0 0,0 0,0 0,0 0,0 0,0 0,0 0,0 0,0 0,0 0,0 0,0 0,0 0,0 0,0 0,0 0,0 0,0 0,1 0,1 0,1 0,0 0,0 0,0 0,0 0,0 0,0 0,0 0,0 0,0 0,0 0,0 0,0 0,0 0,0 0,0 0,0 0,0 0,0 0,0 0,0 0,0 0,0 0,0 0,0 0,0 0,0 0,0 0,0 0,0 0,0 0,0 0,0 0,0 0,0 0,1 0,1 0,0 0,0 0,0 0,0 0,0 0,0 0,0 0,0 0,0 0,0 0,0 0,0 0,0 0,0 0,0 0,0 0,0 0,1 0,0 0,0 0,0 0,0 0,0 0,0 0,0 0,0 0,0 0,0 0,0 0,0 0,0 0,0 0,0 0,0 0,0 0,0 0,0 0,0 0,0 0,0 0,0 0,0 0,0 0,0 0,0 0,0 0,0 1,0 0,0 0,0 0,0 0,0 0,0 0,0 0,0 0,0 0,0 0,0 0,0 0,0 0,0 0,0 0,0 0,0 0,0 0,0 0,0 0,0 0,0 0,0 0,0 0,0 0,0 0,0 0,0 0,0 0,0 0,0 0,0 0,0 0,0 0,0 0,0 0,0 0,0 0,0 0,0 0,0 0,0 0,0 0,0 1,0 1,-1 0,0 0,0 0,0 0,0 0,0 0,0 0,0 0,0 0,0 0,0 0,0 0,0 0,0 0,0 0,0 0,0 0,0 0,0 0,0 0,0 0,0 0,0 0,0 0,0 0,0 0,0 0,0 0,0 0,0 0,0 0,0 0,0 0,0 0,0 0,0 0,0 0,0 0,0 0,0 0,0 0,0 0,0 0,0 0,0 0,0 0,0 0,0 0,0 0,0 0,0 0,0 0,0 0,0 0,0 0,0 0,0 0,0 0,0 0,0 0,0 0,0 0,-1 0,-1 0,0 0,0 0,0 0,0 0,0 0,0 0,0 0,0 0,0 0,0 0,0 0,0 0,0 0,0 0,0 0,0 0,0 0,0 0,0 0,0 0,0 0,0 0,0 0,0 0,0 0,0 0,0 0,0 0,-1 0,-1 0,0 0,0 0,0 0,0 0,0 0,0 0,0 0,0 0,0 0,0 -1,0 -1,0 0,0 0,0 0,0 0,0 0,0 0,0 0,0 0,0 0,0 0,0 0,0 0,0 0,0 0,0 0,0 0,0 0,0 0,0 0,0 0,0 0,0l0 0c0,0 0,0 0,0 0,0 0,0 0,-1 0,0 0,0 0,0 0,0 0,0 0,0 0,0 0,0 0,0 0,0 0,0 0,0 0,0 0,0 0,0 0,0 0,0 0,0 0,0 0,0 0,0 0,0 0,0 -1,0 0,0 0,0 0,0zm11 5c0,0 0,0 0,0 0,0 0,0 0,0 0,0 0,0 0,0 0,0 0,0 0,0 0,0 0,0 0,0 0,0 0,0 0,0 0,0 0,0 0,0 0,0 0,0 0,0 0,0 0,0 0,0 0,0 0,0 -1,0 0,0 0,0 0,0 0,0 0,0 0,0 0,1 0,1 0,1 0,0 0,0 0,0 0,0 0,0 0,0 0,0 0,0 0,0 0,0 0,0 0,0 0,0 0,0 0,0 0,0 -1,0 -1,0 0,0 0,0 0,0 0,0 0,0 0,0 0,0 0,0 0,0 0,0 0,0 0,0 0,0 0,0 0,0 0,0 0,0 0,0 0,0 0,0 0,0 0,0 0,0 0,0 0,0 0,0 0,0 0,0 0,0 0,0 0,0 0,0 0,0 0,0 0,0 0,0 0,0 0,0 0,0 0,0 0,0 0,0 0,0 0,0 0,0 0,1 0,1 0,1 0,0 0,0 0,0 0,0 0,0 1,0 0,0 0,0 0,0 0,0 0,0 0,0 0,0 0,0 0,0 0,0 0,0 0,0 0,0 0,0 0,0 0,0 0,0 0,0 0,0 0,0 0,0 0,0 0,0 0,0 0,0 0,0 0,0 0,0 0,0 0,0 0,0 0,0 0,0 0,0 1,0 1,0 0,0 0,0 0,0 0,0 1,0 1,0 0,0 0,0 0,0 0,0 0,0 0,0 0,0 0,0 0,0 0,0 0,0 0,0 0,0 1,-1 1,-1 0,0 0,0 0,0 0,0 0,0 0,0 0,0 0,0 0,0 0,0 0,0 0,0 0,0 0,0 0,0 0,0 0,0 0,0 0,0 0,0 0,0 0,0 0,0 0,0 0,0 0,0 0,0 0,0 0,0 0,0 0,0 0,0 0,0 0,0 0,0 0,0 1,0 1,0 1,0 0,0 0,0 0,0 0,0 0,0 0,0 0,0 0,0 0,0 0,0 0,0 0,0 0,0 0,0 0,0 0,0 0,0 0,0 0,0 0,0 0,0 0,0 0,0 0,0 0,0 0,0 0,0 0,0 0,0 0,0 0,0 0,0 0,0 0,0 0,0 0,-1 0,0 0,0 0,0 0,0 0,0 0,0 0,0 0,0 0,0 0,0 0,0 0,0 0,0 0,0 0,0 0,0 0,0 0,0 0,0 0,0 0,0 0,0 0,0 0,0 0,0 0,0 0,0 0,0 0,0 0,0 0,0 0,0 0,0 0,0 0,0 0,0 0,0 0,0 0,0 0,0 0,0 0,0 0,0 0,0 0,0 0,0 0,0 1,0 0,0 0,0 -1,0 1,0 0,0 1,0 0,0 0,0 0,0 0,0 0,0 0,0 0,-1 0,-1 0,-1 0,0 0,0 0,0 0,0 0,0 0,0 0,0 0,0 0,0 0,0 0,0 0,0 0,0 0,0 0,0 0,0 0,0 0,0 0,0 0,0 0,0 -1,0 -1,0 -1,0 0,0 0,0 0,0 0,0 0,0 0,0 0,0 0,0 0,0 0,0 0,0 0,0 0,0 0,0 0,0 0,0 0,0 0,0 0,0 0,0 0,0 0,0 0,0 0,0 -1,0 0,0 -1,0 0,0 0,0 0,0 0,0 0,0 0,0 0,0 0,0 0,0 0,0 0,0 0,0 0,0 0,0 0,0 0,0 0,0 0,0l-2 1zm-6 -10c0,0 0,0 0,0 0,0 0,0 0,0 0,0 0,0 0,0 0,0 0,0 0,0 0,0 0,0 0,0 0,0 0,0 0,0 0,0 0,0 0,0 0,0 0,0 0,0 0,0 0,0 0,0 0,0 0,0 0,0 0,0 0,0 0,0 0,0 0,1 0,1 0,0 0,0 0,0 0,0 0,0 0,0 0,0 0,0 0,0 0,0 0,0 0,0 0,0 0,0 0,0 0,0 0,0 0,0 0,0 0,0 0,0 0,0 0,0 0,0 0,0 0,0 0,0 0,0 0,0 0,0 0,0 0,0 0,0 0,0 0,0 0,0 0,0 0,0 0,0 0,0 0,0 0,0 0,0 0,0 0,0 0,0 0,0 0,0 0,0 0,0 0,0 0,0 0,0 0,0 0,0 0,0 -1,0 0,0 1,0 1,0 -1,0 -1,0 -1,0 0,0 0,0 0,0 0,0 0,1 0,1 0,0 0,0 0,0 0,0 0,0 0,0 0,0 0,0 0,0 0,0 0,0 0,0 0,0 0,0 0,0 0,0 0,0 0,0 0,0 0,0 0,0 0,0 0,0 0,0 0,0 0,0 0,0 0,0 0,0 0,0 0,0 0,1 0,1 0,0 0,0 0,0 0,0 0,0 0,0 0,0 0,0 0,0 0,0 0,0 0,0 0,0 0,0 0,0 0,0 0,0 0,0 0,0 0,0 0,0 0,0 0,0 0,0 0,0 0,0 0,0 0,0 0,0 0,0 0,0 0,1 0,1 0,0 0,0 0,0 0,0 0,0 0,0 0,0 0,0 0,0 0,0 0,0 0,0 0,0 0,0 0,0 0,0 0,0 0,0 0,0 0,0 0,0 0,0 0,0 0,0 0,0 0,0 0,0 0,0 0,0 0,0 0,0 0,0 0,0 0,0 0,0 0,0 0,1 0,1 0,1 0,0 0,0 0,0 0,0 0,0 0,0 0,0 0,0 0,0 0,0 0,0 0,0 0,0 0,0 0,0 0,0 0,0 0,0 0,0 0,0 0,0 0,0 0,0 0,0 0,0 0,0 0,0 0,0 0,0 0,0 0,0 0,0 0,0 0,0 0,0 0,0 0,0 0,0 0,0 0,1 0,1 0,1 0,0 0,0 0,0 0,0 0,0 0,0 0,0 0,0 0,0 0,0 0,0 0,0 0,0 0,0 0,0 0,0 0,0 0,0 0,0 0,0 0,0 0,0 0,0 0,0 0,0 0,0 0,0 0,0 0,0 0,0 0,0 0,0 0,0 0,0 0,1 0,1 0,0 0,0 0,0 0,0 0,0 0,0 0,0 0,0 0,0 0,0 0,0 0,0 0,0 0,0 0,0 0,0 0,0 0,0 0,0 0,0 0,0 0,0 0,0 0,0 0,0 0,0 1,0 -1,0 -1,0 -1,0 1,0 1,0 1,0 0,0 0,0 0,0 0,0 0,0 0,0 0,0 0,0 0,0 0,0 0,0 0,0 0,0 0,0 0,0 0,0 0,0 0,0 0,0 1,0 1,0 0,0 0,0 0,0 0,0 0,0 0,0 0,0 0,0 0,0 0,-1 0,-1 0,-1 0,0 0,0 0,0 0,0 0,0 0,0 0,0 0,0 0,0 0,0 0,0 0,0 0,0 0,0 0,0 0,0 0,0 0,0 0,0 0,0 0,0 0,0 0,0 0,0 0,0 0,0 0,0 0,0 0,0 0,0 0,0 0,0 0,0 0,-1 0,-1 0,-1 0,0 0,0 0,0 0,0 0,0 0,0 0,0 0,0 0,0 0,0 0,0 0,0 0,0 0,0 0,0 0,0 0,0 0,0 0,0 0,0 0,0 0,0 0,0 0,0 0,0 0,0 0,0 0,0 0,0 0,0 0,0 0,0 0,0 0,0 0,0 0,0 0,0 0,0 0,0 0,0 0,-1 0,-1 0,0 0,0 0,0 0,0 0,0 0,0 0,0 0,0 0,0 0,0 0,0 0,0 0,0 0,0 0,0 0,0 0,0 0,0 0,0 0,0 0,0 0,0 0,0 0,0 0,0 0,0 0,0 0,0 0,0 0,0 0,0 0,0 0,0 0,-1 0,-1 0,-1 0,0 0,0 0,0 0,0 0,0 0,0 0,0 0,0 0,0 0,0 0,0 0,0 0,0 0,0 0,0 0,0 0,0 0,0 0,0 0,0 0,0 0,0 0,0 0,0 0,0 0,0 0,0 0,0 0,0 0,0 0,0 0,0 0,0 0,0 0,0 0,0 0,0 0,0 0,0 0,0 0,0 0,0 0,0 0,0 0,0 0,-1 0,-1 0,-1 0,0 0,0 0,0 0,0 0,0 0,0 0,0 0,0 0,0 0,0 0,0 0,0 0,0 0,0 0,0 0,0 0,0 0,-1 0,0 0,0 0,0 0,0 0,0 0,0 0,0 0,0 0,0 0,0 0,0 0,0 0,0 0,0 0,0 0,0 0,0 0,0 0,0 0,0 0,0 0,0 -1,-1 -1,-1 0,0 0,0 0,0 0,0 0,0 0,0 0,0 0,0 0,0 0,0 0,0 0,0 0,0 0,0 0,0 0,0 0,0 0,0 0,0 0,0 0,0 0,0 0,0 0,0zm8 5c0,0 0,0 -1,0 0,0 0,0 0,0 0,0 0,0 0,0 0,0 0,0 0,0 0,0 0,0 0,0 0,0 0,0 0,0 0,0 0,0 0,0 0,0 0,0 0,0 0,0 0,0 0,0 0,0 0,0 0,0 0,0 0,0 0,0 0,0 0,0 0,0 0,0 0,0 0,0 0,0 0,0 0,0 0,0 0,0 0,0 0,0 0,0 0,0 0,0 0,0 0,0 0,0 0,0 0,1 0,0 0,0 0,0 0,0 0,0 0,0 -1,0 -1,0 -1,0 0,0 0,0 0,0 0,0 0,0 0,0 0,0 0,0 0,0 0,0 0,0 0,0 0,0 0,0 0,0 0,0 0,0 0,0 0,0 0,0 0,0 0,0 0,0 0,0 0,0 0,0 0,0 0,0 0,0 0,0 0,0 0,0 0,0 0,0 0,0 0,0 0,0 0,0 0,0 0,0 0,0 0,0 0,0 0,0 0,0 0,0 0,0 0,0 0,0 0,0 0,0 0,0 0,0 0,0 0,0 0,0 0,0 0,0 0,1 0,1 0,0 0,0 0,0 0,0 0,0 0,0 0,0 0,0 0,0 0,0 0,0 0,0 0,0 -1,0 -1,0 0,0 0,0 0,0 0,0 0,0 0,0 0,0 0,0 0,0 0,0 0,0 0,0 0,0 0,0 0,0 0,0 0,0 0,0 0,0 0,0 0,0 0,0 0,0 0,0 0,0 0,0 0,0 0,0 0,0 0,0 0,0 0,0 0,0 0,0 0,0 0,1 0,0 0,0 0,0 0,0 0,0 -1,0 0,0 0,0 1,0 -1,0 -1,0 -1,0 0,0 0,0 0,0 0,0 0,0 0,0 0,0 0,0 0,0 0,0 0,0 0,0 0,0 0,0 0,0 0,0 0,0 0,0 0,0 0,0 0,0 0,0 0,0 0,0 0,0 0,0 0,0 0,0 0,0 0,0 0,0 0,0 0,0 0,0 0,0 0,0 0,0 0,0 0,0 0,0 0,0 0,0 0,0 0,0 0,0 0,0 0,0 0,0 0,0 0,0 0,0 0,0 0,0 0,0 0,0 0,1 0,1 0,0 0,0 0,0 0,0 0,0 0,0 0,0 0,0 0,0 0,0 0,0 0,0 0,0 0,0 0,0 0,0 0,0 0,0 0,0 0,0 0,0 0,0 0,0 0,0 0,0 0,0 0,0 0,0 0,0 0,0 0,0 0,0 0,0 0,0 0,0 0,0 0,0 0,0 0,0 1,0 1,0 1,0 0,0 0,0 0,0 0,0 0,0 0,0 0,0 0,0 0,0 0,0 0,0 0,0 0,0 0,0 0,0 0,0 0,0 0,0 0,0 0,0 0,0 0,0 0,0 1,0 -1,0 -1,0 -1,0 1,0 1,0 1,0 0,0 0,0 0,0 0,0 0,0 0,0 0,0 0,0 0,0 0,0 0,-1 0,-1 0,0 0,0 0,0 0,0 0,0 0,0 0,0 0,0 0,0 1,0 1,0 1,0 0,0 0,0 0,0 0,0 0,0 0,0 0,0 0,0 0,0 0,0 0,0 0,0 0,0 0,0 0,0 0,0 0,0 0,0 0,0 0,0 0,0 0,0 0,0 0,0 0,0 0,0 0,0 0,0 0,0 0,0 0,0 0,0 0,0 0,0 0,0 0,0 0,0 0,0 0,0 0,0 1,0 1,-1 0,0 0,0 0,0 0,0 0,0 0,0 0,0 0,0 0,0 0,0 0,0 0,0 0,0 0,0 0,0 0,0 0,0 0,0 0,0 0,0 0,0 0,0 0,0 0,0 0,0 0,0 0,0 0,0 0,0 0,0 0,0 0,0 0,0 0,0 0,0 0,0 1,0 1,0 1,0 0,0 0,0 0,0 0,0 0,0 0,0 0,0 0,0 0,0 0,0 0,0 0,0 0,0 0,-1 0,-1 0,0 0,0 0,0 0,0 0,0 0,0 0,0 0,0 0,0 0,0 0,0 0,0 0,0 0,0 0,0 0,0 0,0 0,0 0,0 0,0 0,0 0,0 0,0 0,0 0,0 0,0 0,0 0,0 0,0 0,0 0,0 0,0 0,0 0,0 0,0 0,0 0,0 0,0 0,0 0,0 0,0 0,0 0,0 0,0 0,0 0,0 0,0 0,0 0,0 0,0 0,0 0,0 0,0 0,0 0,0 0,0 0,0 0,0 0,0 0,0 0,0 0,0 0,0 0,0 0,0 0,0 0,0 0,0 0,0 0,0 0,0 0,-1 0,0 0,0 0,0 0,0 0,0 0,0 0,0 0,0 0,0 0,0 0,0 0,0 0,0 1,0 1,0 0,0 0,0 0,0 0,0 0,0 0,0 0,0 0,0 0,0 0,0 0,0 0,0 0,0 0,0 0,0 0,0 0,0 0,0 0,0 0,0 0,0 0,0 0,0 0,0 0,0 0,0 0,0 0,0 0,0 0,0 0,0 0,0 0,0 0,0 0,0 0,0 0,0 0,-1 0,-1 0,0 0,0 0,0 0,0 0,0 -1,0 0,0 0,0 0,0 0,0 0,0 0,0 0,0 0,0 0,1 0,0 0,0 0,0l0 0c0,0 0,0 0,0 -1,0 0,0 -1,0 0,0 0,0 0,0 0,0 0,0 0,0 0,0 0,0 0,0 0,0 0,0 0,0 0,0 0,0 0,0 0,0 0,0 0,0 0,0 0,0 0,0 0,0 0,0 0,0 0,0 0,0 0,0 0,0 0,0 0,0zm-2 -4c0,0 0,0 0,0 0,0 0,0 0,0 0,0 0,0 0,0 0,0 0,0 0,0 0,0 0,0 0,0 -1,0 0,0 -1,0 0,0 0,0 0,0 0,0 0,0 0,0 0,0 0,0 0,0 0,0 0,0 0,0 0,0 0,0 0,0 0,0 0,0 0,0 0,0 0,0 0,0 0,0 0,0 0,0 0,0 0,0 0,0 0,0 0,0 0,0 0,0 0,0 0,0 0,0 0,0 0,0 0,0 0,0 0,0 0,0 0,0 0,0 0,0 0,0 0,0 0,0 0,0 0,0 0,0 0,0 0,0 0,0 0,1 -1,1 0,0 0,0 0,0 0,0 0,0 0,0 0,0 0,0 0,0 0,0 0,0 0,0 0,0 0,0 0,0 0,0 0,0 0,0 0,0 0,0 0,0 0,0 0,0 0,0 0,0 0,0 0,0 0,0 0,0 0,0 0,0 0,0 0,0 0,0 0,0 0,0 0,0 0,0 0,0 0,0 0,0 0,0 0,0 0,0 0,0 0,0 0,0 0,0 0,0 0,0 0,0 0,0 0,0 0,0 0,0 0,0 0,1 0,0 0,0 0,0 0,0 0,0 0,0 0,0 0,0 0,0 0,0 0,0 0,0 0,0 0,0 0,0 0,0 0,0 0,0 0,0 0,0 0,0 0,0 0,0 0,0 0,0 0,0 0,0 0,0 0,0 0,0 0,0 0,0 0,0 0,0 0,0 0,0 0,0 0,0 0,0 0,0 0,0 0,0 0,0 0,0 0,0 0,0 0,0 0,0 0,0 0,0 0,0 0,0 0,0 0,0 0,0 -1,0 -1,0 0,0 0,0 0,0 0,0 0,0 0,0 0,0 0,0 0,0 0,1 0,0 0,1 0,0 0,0 0,0 0,0 0,0 0,0 0,0 0,0 0,0 0,0 0,0 0,0 0,0 0,0 0,0 0,0 0,0 0,0 0,0 0,0 0,0 0,0 0,0 0,0 0,0 0,0 0,0 0,0 0,0 0,0 0,0 0,0 0,0 0,0 0,0 0,0 0,0 0,0 0,0 0,0 0,0 0,0 0,0 0,0 0,0 0,0 0,0 0,0 0,0 0,0 0,0 0,0 0,0 0,0 0,0 0,0 0,0 0,0 0,0 0,0 0,0 0,0 0,0 0,0 0,0 0,1 0,0 0,0 0,0 0,0 0,0 0,0 0,0 0,0 0,0 0,0 0,0 0,0 0,0 0,0 0,0 0,0 0,0 0,0 0,0 0,0 0,0 0,0 0,0 0,0 0,0 0,0 0,0 0,0 0,0 0,0 0,0 0,0 0,0 0,0 0,0 0,0 0,0 0,0 0,0 0,0 0,0 0,0 0,0 0,0 0,0 0,0 0,0 0,0 0,0 0,0 0,0 0,0 0,0 0,0 0,0 0,0 0,0 0,0 0,0 0,0 0,0 0,0 0,0 0,0 0,0 0,0 0,0 0,0 0,0 0,0 0,0 0,0 0,0 0,0 0,0 0,0 0,0 0,0 0,0 0,0 0,0 0,0 0,1 0,1 0,0 0,0 0,0 0,0 0,0 -1,0 0,0 1,0 1,0 -1,0 -1,0 -1,0 0,0 0,0 0,0 0,0 0,0 0,0 0,0 0,0 0,0 0,0 0,0 0,0 0,0 0,0 0,0 0,0 0,0 0,0 0,0 0,0 0,0 0,0 0,0 0,0 0,0 0,0 0,0 0,0 0,0 0,0 0,0 0,0 0,0 0,0 0,0 0,0 0,0 0,0 0,0 0,0 0,0 0,0 0,0 0,0 0,0 0,0 0,0 0,0 0,0 0,0 0,0 0,0 0,0 0,0 0,0 0,0 0,0 0,0 0,0 0,0 0,0 0,0 0,0 0,0 0,0 0,0 0,0 0,1 0,1 0,0 0,0 0,0 0,0 0,0 0,0 0,0 0,0 0,0 0,0 0,0 0,0 0,0 0,0 0,0 0,0 0,0 0,0 0,0 0,0 0,0 0,0 0,0 0,0 0,0 0,0 0,0 0,0 0,0 0,0 0,0 0,0 0,0 0,0 0,0 0,0 0,0 0,0 0,0 0,0 0,0 0,0 0,0 0,0 0,0 0,0 0,0 0,0 0,0 0,0 0,0 0,0 0,0 0,0 0,0 0,0 0,0 0,0 0,0 0,0 0,0 1,0 1,0 0,0 0,0 0,0 0,0 0,0 0,0 0,0 0,0 0,0 0,0 0,0 0,0 0,0 0,0 0,0 0,0 0,0 0,0 0,0 0,0 0,0 0,0 0,0 0,0 0,0 0,0 0,0 0,0 0,0 0,0 0,0 0,1 0,1 0,-1 0,0 0,0 0,0 0,0 0,0 0,0 0,0 0,0 0,0 0,0 0,0 0,0 0,0 0,-1 0,0 0,0 0,0 0,0 0,0 0,0 0,0 0,0 0,0 0,0 0,0 0,0 0,0 0,0 1,0 0,0 -1,0 -1,0 1,0 1,0 1,0 0,0 0,0 0,0 0,0 0,0 0,0 0,0 0,0 0,0 0,0 0,0 0,0 0,0 0,0 0,0 0,0 0,0 0,0 0,0 0,0 0,0 0,0 0,0 0,0 0,0 0,0 0,0 0,0 0,0 0,0 0,0 0,0 0,0 0,0 0,0 0,0 0,0 0,0 0,0 0,0 0,0 0,0 0,0 0,0 0,0 0,0 0,0 0,0 0,0 0,0 0,0 0,0 0,0 0,0 0,0 0,0 0,0 0,0 0,0 0,0 0,0 0,0 0,0 0,0 0,0 0,0 0,0 0,0 0,0 0,0 0,0 0,0 0,-1 0,-1 0,-1 0,0 0,0 0,0 0,0 0,0 0,0 0,0 0,0 0,0 0,0 0,0 0,0 0,0 0,0 0,0 0,0 0,0 0,0 0,0 0,0 0,0 0,0 0,0 0,0 0,0 0,0 0,0 0,0 0,0 0,0 0,0 0,0 0,0 0,0 0,0 0,0 0,0 0,0 0,0 0,0 0,0 0,0 0,0 0,0 0,0 0,0 0,0 0,0 0,0 0,0 0,0 0,0 0,0 0,0 0,0 0,0 0,0 0,0 0,0 0,0 0,0 0,0 0,0 0,0 0,0 0,0 0,0 0,0 1,0 0,0 0,0 0,0 0,0 0,0 0,0 0,-1 0,-1 0,-1 0,0 0,0 0,0 0,0 0,0 0,0 0,0 0,0 0,0 0,0 0,0 0,0 0,0 0,0 0,0 0,0 0,0 0,0 0,0 0,0 0,0 0,0 0,0 0,0 0,0 0,0 0,0 0,0 0,0 0,0 0,0 0,0 0,0 0,0 0,0 0,0 0,0 0,0 0,0 0,0 0,0 0,0 0,0 0,0 0,0 0,0 0,0 0,0 0,0 0,0 0,0 0,0 0,0 0,0 0,0 0,0 0,0 0,0 0,0 0,0 0,0 0,0 0,0 0,0 0,0 0,0 0,0 0,0 0,0 0,0 0,0 0,0 0,0 0,0 0,0 0,0 0,0 0,0 0,0 0,-1 0,-1 0,0 0,0 1,0 0,0 0,0 0,0 0,0 0,0 0,0 0,0 0,0 0,0 0,0 0,0 0,0 0,0 0,0 0,0 0,0 0,0 0,0 0,0 0,0 0,0 0,0 0,0 0,0 0,0 0,0 0,0 0,0 0,0 0,0 0,0 0,0 0,0 0,0 0,0 0,0 0,0 0,0 0,0 0,0 0,-1 0,-1 0,0 0,0 0,0 0,0 0,0 0,0 0,0 0,0 0,0 0,0 0,0 0,0 0,0 0,0 0,0 0,0 0,0 0,0 0,0 0,0 0,0 0,0 0,0 0,0 0,0 0,0 0,0 0,0 0,0 0,0 0,0 0,0 0,0 0,0 0,0 0,0 0,0 0,0 0,0 0,0 0,0 0,0 0,0 0,0 0,0 0,-1 0,-1 0,-1 0,0 0,0 0,0 0,0 0,0 0,0 0,0 0,0 0,0 0,0 0,0 0,0 0,0 0,0 0,0 0,0 0,0 0,0 0,0 0,0 0,0 0,0 0,0 0,0 0,0 0,0 0,0 0,0 0,0 0,0 0,0 0,0 0,0 0,-1 0,-1 0,-1 0,0 0,0 0,0 0,0 0,0 0,0 0,0 0,0 0,0 0,0 0,0 0,0 0,0 0,0 0,0 0,0 0,0 0,0l0 -1c0,0 0,0 0,1zm44 -56c0,0 0,0 0,0 0,0 0,0 0,0zm-6 -5c0,0 0,0 0,0 0,0 0,1 0,1 0,0 0,0 0,0 1,0 1,1 1,1l1 1c0,0 0,0 0,0 0,0 0,0 0,0l-1 0c0,0 0,0 0,0 0,-1 0,-1 0,-1 -1,-1 -1,-1 -1,-2 0,0 0,0 0,0zm14 -2c0,0 0,0 0,0l0 0c0,0 0,1 0,1 -1,0 -1,0 -1,0l-2 0c0,0 0,0 0,0 0,0 0,0 0,0l-1 1c0,0 0,0 -1,0l0 0c0,0 0,0 1,0l0 -1c1,0 1,0 1,0 0,0 0,0 0,0 0,0 0,0 0,0 0,0 -1,0 -1,0 -1,0 -1,0 -2,0 0,0 -1,0 -1,0 0,0 0,0 -1,0 0,0 0,0 0,0 0,0 0,0 0,0 0,0 1,0 1,-1 0,0 0,0 1,0 0,0 0,0 0,0l1 0c0,0 1,0 1,0 0,0 0,0 0,0 0,0 0,0 1,0 0,0 0,0 0,0 1,0 1,0 2,0 0,0 1,0 1,0zm-14 2c1,0 1,0 1,0 0,0 0,0 1,0 0,0 0,0 0,0 1,0 1,0 2,0 0,0 0,0 0,0 1,0 1,0 1,0 0,0 0,0 0,0 0,1 0,0 0,1 0,0 1,1 1,1 0,0 0,0 0,1 0,0 0,1 0,1 0,0 0,0 0,0 0,1 0,1 0,1 0,-1 0,0 0,-1 0,0 0,1 0,1 0,0 0,0 0,0 0,0 -1,0 -1,0l0 -1c0,0 0,0 0,0 -1,0 -1,0 -1,0 0,0 0,0 0,0l-1 -1c-1,-1 -1,-1 -1,-2l-1 0c0,0 0,0 0,-1 0,0 0,0 0,0 -1,0 -1,0 -1,0zm10 -4l0 0c0,0 0,0 0,0 0,-1 1,-1 1,-1 0,-1 0,-1 0,-1 0,0 0,-1 0,-1 0,0 0,0 1,0 0,0 0,0 0,0 0,0 0,0 1,0 0,0 0,0 1,0 0,0 1,1 1,1 0,0 0,0 0,0l0 0 0 0 0 0 0 0c0,0 0,0 0,0l-1 0c0,1 0,1 -1,1 0,0 0,0 0,0 -1,1 -1,1 -2,1 0,0 0,1 0,1l0 0c-1,0 -1,0 -1,0 0,0 0,0 0,0 0,0 0,0 0,0 0,0 0,0 0,0 0,0 0,0 0,0 0,0 0,0 0,0l1 -1c0,0 0,0 0,0l1 -1c0,0 0,0 0,0 0,0 0,0 0,0 0,0 -1,0 -1,1l-1 0zm-5 1c0,0 0,0 0,0 0,0 0,0 0,0 0,0 0,0 0,0 0,0 0,0 0,0 0,0 0,1 -1,1 0,0 0,0 -1,0 0,0 0,0 0,0 0,0 0,0 0,0 0,0 0,0 0,0 0,0 0,0 -1,1 0,0 0,0 0,0 0,0 0,0 0,0 0,0 0,0 0,0l0 -1c0,0 0,0 -1,0 1,0 1,-1 2,-1 0,0 0,0 1,0 0,0 1,-1 1,-1 1,0 2,0 2,1 0,0 -1,0 -1,1 0,0 0,0 -1,0 0,1 0,1 0,1 0,0 0,0 -1,0 0,0 0,0 0,0 0,0 0,0 0,0 0,0 0,0 0,0 1,-1 1,-1 1,-1 1,-1 0,-1 1,-1 -1,0 -1,0 -1,0zm-8 -1l0 0 0 0c0,0 0,0 0,0 0,0 0,0 1,1 0,0 0,0 0,0 1,0 1,1 2,1 0,0 0,0 0,0 0,0 0,0 0,0 0,0 0,0 1,0 0,0 0,1 0,1 0,0 0,0 0,0 0,0 0,0 -1,0l-1 0c0,0 0,0 0,0 -1,0 0,0 -1,0 0,0 0,0 0,-1 -1,0 -1,0 -1,-1 0,0 0,-1 0,-1 0,0 0,0 0,0 0,0 0,0 0,0zm14 -7l1 0c0,0 0,1 0,1l0 0c0,1 -1,1 -1,2l0 0c0,0 0,0 0,0l0 0c0,0 0,0 0,0 0,0 0,0 0,0 -1,0 -1,0 -1,0l0 1c-1,0 -1,0 -1,0 0,0 1,-1 1,-1 0,0 0,-1 0,-1 0,0 0,0 0,0l0 0c0,-1 0,-1 1,-1 0,0 0,0 0,-1 0,0 0,0 0,0 0,0 0,0 0,0zm-4 8c0,-1 0,-1 0,-1 0,0 0,-1 0,-1 0,0 0,0 1,0 0,0 1,-1 2,-2 0,0 0,0 0,0 0,0 0,0 0,0 0,1 0,2 0,2 -1,0 -1,1 -1,1 -1,0 -1,0 -1,0 0,0 0,1 -1,1zm2 -4l0 0c0,0 0,0 0,0l0 -2c0,0 0,0 0,0 0,0 0,0 0,0 0,0 0,1 -1,1l-1 2c0,0 0,-1 0,-1 0,0 1,0 0,0 0,-1 0,-1 0,-1 0,0 0,0 1,0 0,0 0,0 0,0 0,0 0,-1 0,-1 0,0 -1,0 -1,0 0,0 0,0 -1,0l0 0c0,0 0,0 0,0l1 0c0,0 -1,-1 -1,0 0,0 0,0 0,0l0 0c0,0 0,0 0,0l0 -1c0,0 0,0 0,0 1,0 1,0 1,0 0,0 0,0 0,0 0,0 0,0 1,-1 0,0 0,0 0,0 0,0 0,0 0,0 0,0 0,0 0,0 0,0 1,-1 2,-1 0,0 0,0 0,0 0,0 0,1 0,2 0,0 0,0 0,0 0,0 0,0 0,1l0 0c-1,0 -1,0 -1,0 0,0 0,1 0,2 0,0 0,0 0,0 0,0 0,0 0,0l0 0zm0 -2l0 0c0,0 0,0 0,0zm-16 -3c0,0 0,0 0,0 0,0 0,0 0,0 0,-1 1,0 1,0 0,0 0,0 0,0 1,0 1,1 1,1 0,0 0,0 0,0 1,1 1,1 2,2 0,0 0,0 0,0l0 0c0,0 0,0 0,0 0,0 1,1 1,1 0,0 0,1 1,2 0,1 1,2 1,3 0,0 0,0 0,0 -1,0 -1,0 -1,0 0,-1 0,-1 0,-1 0,0 -1,0 -1,0l0 -1c0,0 0,0 0,0l0 0 0 0c0,0 0,0 0,0l-1 0 0 -1 0 0c0,0 0,0 0,0 0,0 0,0 0,0l0 0c0,0 0,0 0,0l0 0c0,0 0,0 0,0l-1 -1c0,-1 -1,-2 -1,-2l-1 -1c0,0 0,0 0,0 0,0 0,0 0,0 0,0 0,0 0,0l0 0c0,0 0,0 0,0 0,0 0,0 0,0 0,0 0,1 0,1 1,0 1,1 1,1 0,1 0,1 1,1l0 1c0,0 0,1 1,1 0,0 0,0 0,0 0,0 0,0 0,0 0,0 0,0 0,0l0 0c0,0 -1,0 -1,0 0,0 0,0 0,0 0,0 0,-1 0,-1 -1,0 -1,-1 -1,-1l-1 -2c0,0 0,-1 -1,-1l0 0c0,-1 0,-1 0,-1 0,0 0,0 0,0 0,0 0,0 0,-1zm1 2l0 0c0,0 0,0 0,0zm0 0l0 0c0,0 0,0 0,0zm0 0c0,0 0,0 0,0 0,0 0,0 0,0zm10 3c0,0 1,0 1,0 0,0 1,0 1,-1 0,1 0,1 1,1 0,0 0,1 0,1 0,0 0,0 0,0l0 0c-1,1 -1,1 -1,1 0,0 0,0 0,0l0 0 0 0 0 0 0 0 0 0c0,0 0,0 0,0l0 0c0,0 0,0 0,0 0,0 0,0 0,0 0,1 0,1 -1,1 0,0 0,0 -1,0 0,0 0,0 0,0l1 -1c0,0 0,0 0,0 0,0 -1,0 -1,0 0,0 0,0 0,-1 0,0 0,0 0,0 0,0 0,-1 0,-1zm-16 1c0,0 0,1 0,1 0,0 0,0 1,0 0,0 0,0 0,1 0,0 0,0 1,0 0,0 0,0 0,0l0 0c0,0 0,1 1,1l0 0c0,0 1,0 1,1 0,0 0,0 0,0 0,0 0,0 0,0l1 0c0,0 0,0 0,0 0,0 0,0 0,0 0,0 1,1 2,1 1,1 2,1 3,1 0,0 0,0 0,0 0,0 0,0 1,0 0,0 0,0 0,0 0,0 0,1 0,1 1,1 1,1 1,2 1,0 1,1 2,1 0,0 0,0 0,0l0 0c0,0 0,0 0,0 0,0 0,0 0,0 0,0 0,0 0,0l1 1c0,0 0,0 0,0 0,0 0,0 0,0l2 1c0,0 0,0 1,0 0,0 0,0 0,-1 0,0 0,0 1,-1l0 0c0,-1 0,-1 0,-2 0,-1 0,-1 -1,-1 0,0 0,0 0,0 0,0 0,0 0,0 0,0 0,0 1,0 0,0 0,0 0,0 1,0 1,0 2,0l2 -1c0,0 1,0 1,0 0,0 0,0 0,0 1,0 1,0 2,-1 0,0 1,0 1,-1 0,0 0,0 0,0 -1,0 -1,0 -1,0l0 0 0 0 0 0 0 0 0 0 0 0c0,0 0,0 -1,0 0,-1 0,-1 -1,-1 0,0 -1,0 -1,0l0 0c0,0 0,0 0,0 1,0 1,0 2,-1 0,0 0,0 1,0 0,0 0,-1 1,-1 0,0 0,0 0,0l0 0c0,-1 1,-1 1,-1 0,-1 -1,-1 -1,-1 0,0 0,0 -1,0 -1,0 -1,-1 -2,0 -1,0 0,0 -1,0 0,0 0,-1 1,-1 0,0 0,0 0,-1 1,-1 1,-1 1,-2 0,0 0,0 0,-1 -1,0 -1,0 -1,0 0,0 -1,0 -1,0 0,1 0,1 0,1l0 0c0,-1 0,-1 -1,-2 0,0 0,0 0,0 0,0 -1,0 -1,0 0,1 -1,1 -1,1 0,0 0,0 0,0 0,0 0,-1 -1,-1 0,-1 0,-1 0,-1 0,0 0,0 0,0 -1,-1 -1,0 -2,0 0,0 0,-1 0,-1 -1,-1 -1,0 -1,0 0,0 -1,0 -1,0 0,0 0,1 0,1 0,0 -1,0 -1,0 0,0 0,0 0,0l0 1c0,0 -1,-1 -1,-2 0,0 0,0 -1,0 0,-1 0,-1 -1,0 0,0 0,0 0,0 -1,0 -1,0 -1,0 0,1 0,1 0,1 0,0 0,0 0,0 0,0 0,0 0,0 0,0 -1,-1 -1,0 0,0 0,1 0,1 0,1 0,2 0,2l0 0c0,0 -1,0 -1,-1l0 0c-1,0 -1,0 -1,-1 -1,0 -1,0 -2,0 0,0 -1,0 -1,0 0,0 0,1 0,1 0,1 0,1 0,2 0,0 1,1 1,1 1,1 1,2 1,3l1 0c0,0 0,0 0,1 0,0 0,0 0,0l0 0 0 0c0,0 0,0 0,0 -1,0 -1,-1 -1,-1 -1,0 -1,0 -2,0 0,0 -1,0 -1,0l-1 0c0,0 0,0 0,0 0,0 -1,0 -2,0zm19 -2c0,0 0,0 0,0 0,0 0,0 0,0 0,0 0,0 0,0 0,0 0,0 0,0 0,0 0,0 0,0l0 0c0,0 0,0 0,0 0,0 0,0 0,0zm-7 2c0,-1 0,-1 0,-1 -1,0 -1,0 0,-1 0,0 0,0 0,0 1,1 1,1 2,0 0,0 0,0 0,0 1,1 1,2 1,3 0,0 0,0 0,0l0 1c0,0 0,0 0,0 -1,0 -1,0 -1,1 0,0 -1,0 -1,0l0 -1c0,0 0,-1 0,-1 0,-1 0,-1 0,-1 0,0 0,-1 0,-1 0,0 0,0 0,0 0,0 0,0 0,0 0,0 0,0 0,0l-1 0c0,0 1,0 0,0 0,1 0,1 0,1 0,0 0,0 0,0 0,0 0,0 0,-1 0,0 0,0 0,0l0 0c0,0 0,0 0,0 0,0 0,0 0,0l0 0c0,0 0,0 0,1zm-10 1c0,0 0,0 0,0l2 0c0,0 1,0 1,0 0,0 1,0 1,0 0,0 0,0 1,0 0,0 0,1 0,1l1 0c0,0 0,0 0,0 0,1 0,1 0,1 0,0 0,0 0,0 0,0 0,0 0,0 0,0 -2,0 -2,-1l-1 0c0,0 0,0 0,0 0,0 0,0 0,0 0,0 0,0 -1,0l1 0c-1,0 -1,0 -1,0 0,0 0,0 1,0 0,0 0,0 0,0 0,0 0,0 0,1 0,0 1,0 1,0 0,0 0,0 0,0l1 1c0,0 0,0 0,0l0 0 0 0 0 0 0 0 0 0c0,0 0,0 0,0l0 0c0,0 0,0 0,0l0 0 0 0 0 0c0,0 0,0 0,0l0 0c1,0 0,0 1,0l0 0 0 0 0 0 0 0 0 0c0,0 0,0 0,0l0 0 0 0 0 0 0 0 1 0c0,0 0,1 0,1 0,0 -1,-1 -1,-1 0,0 0,0 0,0l-1 0 -2 -1c0,0 0,0 0,0l0 0c0,0 -1,-1 -1,-1 0,0 -1,0 -1,-1l0 0c0,0 -1,0 -1,0 0,0 0,0 0,0zm16 -3l0 0c0,0 0,0 0,0 0,-1 0,-1 0,-1 0,0 0,0 0,1zm-5 0c0,-1 0,0 0,-1l0 0c0,0 0,0 0,0 0,0 0,0 0,1zm3 -1l0 0c0,0 0,0 0,0l0 0c0,0 0,0 0,-1 0,1 0,1 0,1l0 0c0,0 0,0 0,1l0 0c0,0 0,0 0,0l0 0 0 0c0,0 0,0 0,0l0 0c0,0 0,0 0,0 0,0 0,0 0,0 0,0 0,0 0,-1l0 0c0,0 0,0 0,0l0 0 0 0 0 0c0,0 0,0 0,0 0,0 0,0 1,0 0,0 0,0 0,0 0,0 0,0 0,0 0,0 0,0 1,-1 0,0 0,0 0,0 0,1 0,0 0,1l-1 0 1 0 -1 0c0,0 0,0 0,0l0 0c0,0 0,0 0,0l0 0c0,0 0,0 0,0l0 0c0,0 0,0 0,0 0,0 0,0 0,0l0 1c0,0 0,0 0,0 0,0 0,0 0,0 0,0 0,0 0,-1l0 1c-1,0 -1,0 -1,0 0,0 0,0 0,0 0,1 0,0 0,1 0,0 0,0 0,0 0,0 0,0 0,0 0,0 0,0 0,0 0,0 0,0 0,0 0,-1 0,0 0,0l0 -1c0,0 0,0 0,0 0,0 0,0 0,0l0 0c0,0 0,0 0,0l0 0c0,0 0,0 0,0l0 0 0 0 -1 0c1,0 0,0 0,1 0,0 0,0 0,-1 0,0 0,0 0,0 0,0 1,0 1,0 0,-1 0,-1 -1,-1 0,0 0,0 0,0 0,0 0,0 0,0 0,0 0,1 0,1 0,0 0,0 0,0 0,0 0,0 0,0l0 -1c0,0 0,0 0,0l0 0 0 0 0 0c0,0 0,0 0,0 0,0 0,0 0,0l0 0c0,0 0,0 0,0l0 0c0,0 0,0 0,0 0,0 0,0 0,0l0 0c0,-1 0,0 0,-1l0 0c0,0 0,0 1,0l0 0c0,1 0,1 0,1zm-2 0c0,0 0,0 0,0 0,0 0,0 0,0l0 0 0 0 0 0c0,0 0,0 0,0 0,0 0,0 0,0 0,0 0,0 0,0 0,-1 0,-1 0,-1 0,1 0,1 0,1zm0 -1l0 0 0 0 0 0 0 0zm0 1l0 0c0,0 0,0 0,0l0 0c0,0 0,0 0,0 0,0 0,0 0,0 0,0 0,0 0,0l0 0c0,0 0,0 0,0l0 -1c0,0 0,0 0,0l0 0c0,0 0,0 0,0l0 0c0,0 0,0 0,0 0,0 0,0 0,1l0 0zm-4 0c0,0 0,-1 0,-1 0,0 0,0 0,0 0,0 0,-3 0,-3l0 0c0,0 1,1 1,1 0,1 0,1 1,1 0,0 0,0 0,1 0,0 0,0 0,0 0,0 0,1 0,1 0,0 0,0 0,0 0,0 -1,0 -1,1l0 0c0,0 0,0 0,0 0,0 0,0 0,0 0,0 -1,-1 -1,-1l0 0c0,0 0,0 0,0zm4 -1l0 0c0,0 0,0 0,-1 0,0 0,0 0,0 -1,0 -1,1 -1,1 0,0 0,0 0,0 0,0 0,0 0,0l0 0c0,0 0,0 0,0 0,0 0,0 0,1 0,-1 0,-1 0,-1l0 -1c0,0 0,0 1,0l0 -1c0,0 0,0 0,-1 0,0 0,0 0,0 1,0 1,0 1,0l0 1c0,0 0,0 0,0 1,1 1,1 1,1l0 0c0,0 0,0 0,0 0,1 0,1 0,1 0,0 0,0 0,0 0,0 0,0 0,0 0,0 0,0 0,0 0,-1 0,-1 0,-1 0,0 0,0 0,0 0,0 0,0 0,0 0,0 0,0 0,0 0,0 0,0 0,0 0,-1 0,0 0,-1 0,0 1,0 1,0 0,0 0,0 0,0 0,0 0,0 0,0l1 -1c0,0 0,0 0,0l0 0c1,1 1,1 1,1 0,0 0,0 0,0l0 1c0,0 0,0 -1,0 0,0 0,0 0,1 0,0 0,0 0,0 0,0 0,0 0,0 -1,0 -1,0 -1,0 0,0 0,0 0,0 0,0 -1,0 -1,0 0,0 0,0 0,0 0,0 0,0 0,0 0,0 0,0 0,0 0,0 0,0 -1,0 0,0 0,0 0,0 0,0 0,0 0,0 0,0 0,0 0,0 0,-1 0,-1 0,-1 0,0 0,0 -1,0 0,0 0,0 0,1 0,0 0,0 0,0zm2 -4c0,0 0,0 0,0l0 -1c0,0 0,0 1,1 0,0 0,0 0,0 0,0 0,0 0,1 0,0 0,0 0,0 -1,0 -1,0 -1,0 0,0 0,0 0,0 0,0 0,-1 0,-1zm-5 0c0,0 0,0 0,0 0,0 0,-1 1,-1 0,0 0,1 1,1 0,1 0,1 0,1 0,1 0,1 0,1 0,0 0,0 0,0l-1 1c0,0 0,-1 0,-1 0,0 0,0 0,0 0,-1 -1,-1 -1,-1 0,0 0,0 0,0l0 -1c0,0 0,0 0,0zm-11 -19l0 0c0,0 0,0 0,0l0 1c0,0 0,0 0,0 0,0 0,0 0,0l0 0c0,0 0,0 0,0l0 0c0,0 0,0 0,0 0,0 0,0 0,0l-1 0c0,0 0,0 0,0 0,0 0,0 0,0 0,0 0,0 0,0 0,0 0,0 0,0 0,0 0,0 0,0 0,0 0,0 0,0 0,0 0,0 0,0 0,0 0,0 0,0 0,1 0,0 0,1 0,0 0,0 0,0 0,0 0,0 0,0l0 0c0,0 0,0 0,0l0 0c0,0 0,0 0,0 0,0 0,0 0,0 0,0 0,0 0,0 0,0 0,0 0,0 0,0 0,0 0,0 -1,0 0,0 0,0 -1,0 -1,0 -1,0l0 0c0,0 0,0 0,0l0 0c0,0 0,0 0,0 0,0 0,0 0,0 0,0 0,0 0,0l0 0c0,0 0,0 0,0 0,0 0,1 0,1l0 0c0,0 0,0 0,0l0 0c0,0 -1,0 -1,0 0,0 0,0 0,0 0,0 0,0 0,0l0 0c0,0 0,0 0,0l0 0 0 1 0 0c0,0 0,1 0,1 0,0 0,0 0,0l0 0c0,0 0,0 0,0 0,0 0,0 0,0 0,0 0,0 0,0l0 0c0,1 0,1 0,1l1 0c0,0 0,0 0,0l0 0c0,0 0,0 0,0l0 0 0 0c0,1 0,1 0,1 0,0 0,0 0,0 0,0 0,0 0,0 0,0 0,0 0,0l0 0 0 0c1,0 1,0 1,0 0,0 0,0 0,0l0 0c0,0 0,0 0,0l0 0c0,0 0,0 0,0 0,0 0,0 0,0l0 -1c1,0 1,0 1,0l0 1c0,0 0,0 0,0l0 0c0,0 0,0 0,0l0 0c0,0 0,0 0,0l0 0c0,0 0,0 0,0l0 0c0,0 0,0 0,0l0 0c0,0 1,0 1,0l0 0c0,0 0,0 0,0 0,0 0,0 0,0l1 0c0,0 0,0 0,0l0 0c0,0 0,0 0,0l0 0c0,0 0,0 0,0l0 0 0 0c0,0 0,0 0,0l0 0c0,0 0,0 0,0l1 0 0 1 0 0c0,0 0,0 0,0 0,-1 0,-1 0,-1 0,0 0,0 0,0 0,0 0,0 0,0 0,0 0,0 0,0 0,0 0,0 0,0 0,0 0,0 0,0l0 0c0,0 0,0 0,0 0,0 0,0 0,0l1 0c0,0 0,0 0,0 0,0 0,0 0,0 0,0 0,0 0,0l0 0c0,0 0,0 0,0 0,0 0,0 0,0 0,0 0,0 0,0 0,0 0,0 0,0 0,0 0,0 0,0 0,0 0,0 0,0 0,0 0,0 0,0 0,0 0,0 0,0l0 -1c0,0 0,0 0,0 0,0 0,0 1,0l0 0c0,0 0,0 0,0 0,0 0,0 0,0 0,0 0,0 0,0l0 0 0 0c0,0 0,0 0,0 0,0 0,0 0,0l0 0c0,0 0,0 0,0l0 0 0 0c0,0 0,0 0,0l0 -1c0,0 0,0 0,0 0,0 0,0 0,0 0,0 0,0 0,0 0,0 0,0 0,-1 0,0 0,0 0,0l0 0c0,0 0,0 0,0l0 0c0,0 0,0 0,0 0,0 0,0 0,0l0 0c0,0 0,0 0,0l0 0c0,0 0,0 0,0l0 0c0,0 0,0 0,0l0 -1c0,0 0,0 0,0l0 0 -1 -1c0,0 0,0 0,0l0 0c0,0 0,0 0,0 0,0 0,0 0,0 0,0 0,0 0,-1l0 0 0 0c0,0 0,0 0,0l0 0c-1,0 -1,0 -1,0l0 0c0,0 0,0 0,0l-1 0 0 0c0,0 0,0 0,0l0 0c0,0 0,0 0,0l0 -1 0 0c0,0 0,0 0,0 0,0 0,0 0,0 0,0 0,0 0,0l-1 0c0,0 0,0 0,0 0,0 0,0 0,0 0,0 0,0 0,0 0,0 0,0 0,0l0 0c0,0 0,0 0,0l-1 0c0,0 0,0 0,0zm7 0l0 0 0 0c-1,0 -1,0 -1,0l0 0c0,0 0,0 0,0 0,0 0,0 0,0l0 0c0,0 0,0 0,0l0 0c0,0 0,0 0,0 0,0 0,0 0,0l0 0c0,0 0,0 0,0 0,0 0,0 0,0 0,0 0,0 0,0 0,0 0,0 0,0l0 0 0 0 0 0c0,0 0,0 0,0l-1 1c0,0 0,0 0,0 0,0 0,0 0,0l0 0 0 0c0,0 0,0 0,0l0 0c0,1 0,0 0,1 0,0 0,0 0,0 0,0 0,0 0,0 0,0 0,0 0,0l0 0c0,0 0,0 0,0l0 1c0,0 0,0 0,0l0 0c0,0 0,0 1,0l0 0c0,0 0,0 0,0l0 0c0,0 0,0 0,0 0,0 0,0 0,0l1 0c0,0 0,0 0,0 0,0 0,0 0,0l0 0c0,0 0,0 0,0l0 0c0,0 0,0 0,0 0,0 0,0 0,0 0,0 0,0 0,0l0 0c0,0 0,0 0,0l0 -1c0,0 0,0 0,0l0 0 0 0 0 0 0 0c0,0 0,0 0,0 0,0 0,0 0,0 0,0 0,0 0,0l0 0c1,0 0,0 1,0 0,0 0,-1 0,-1 0,0 0,0 0,0l0 0c0,0 0,0 0,0 0,0 -1,0 -1,0l0 0c0,0 0,0 0,0 0,-1 0,0 0,0 0,-1 0,-1 0,-1l0 0c0,0 0,0 0,0l0 0c0,0 0,0 0,0 0,0 0,0 0,0l0 0 0 0c0,0 0,0 0,0l0 0c0,0 0,0 0,0 0,0 0,0 0,0 0,0 0,0 0,0zm-3 -4l0 0c0,0 0,0 0,0 0,0 0,0 0,0 0,0 0,0 0,0 0,0 0,0 0,0l0 0c0,0 0,0 -1,0l0 1c0,0 0,0 0,0l0 0c0,0 0,0 0,0l0 0c0,0 0,0 0,0 0,0 0,0 0,0l0 0c0,0 0,0 0,0l0 0c0,0 0,0 0,0 0,0 0,0 0,0l0 0 0 0c0,0 0,0 0,0l0 1c0,0 0,0 0,0 0,0 0,0 0,0l0 0c0,0 0,0 0,0 0,0 0,0 0,0l0 0 0 0 -1 0c0,0 0,0 0,0l0 0c0,0 0,0 0,0l0 0c0,0 0,0 0,0 0,0 0,0 0,1l0 0c0,0 0,0 0,0 0,0 0,0 0,0l0 1c0,0 0,0 0,0 0,0 0,0 0,0l1 0c0,0 0,0 0,0l0 0c0,0 0,0 0,0l0 0 0 0 0 0c0,0 0,0 0,0 0,0 0,0 0,0l0 0c0,0 0,0 0,0 0,0 0,0 0,0l0 0c0,0 0,0 0,0l0 0c0,0 0,0 0,0 0,0 0,0 0,0l0 0c0,0 0,0 0,0 0,0 0,0 0,0l1 0c0,0 -1,0 0,0l0 0c0,0 0,0 0,0 0,0 0,0 0,0l0 0c0,0 0,0 0,0 0,0 0,0 0,0 0,0 0,0 0,0l0 0c1,0 1,0 1,0 0,0 0,0 0,0l0 0c0,0 0,0 0,0l0 0c0,0 0,-1 0,-1 0,0 0,0 0,0 0,0 0,0 0,0 0,0 0,0 0,0l0 0 0 0c0,0 0,0 0,0 0,0 0,0 0,0l0 0c0,0 0,0 0,0l0 0c0,0 0,0 0,0l0 0c0,0 0,0 0,0l0 0c0,0 0,0 0,-1l0 0c0,0 0,0 0,0 0,0 0,0 0,0 0,0 0,0 0,0l0 -1 0 0c0,0 0,0 0,0l0 0c0,0 0,0 0,0l0 0c0,0 0,0 0,0l0 0c0,0 0,0 0,0 0,0 0,0 0,0l0 0 0 0c0,0 0,0 0,0 0,0 0,0 0,0l0 0c0,0 0,0 0,0l0 -1c0,0 0,0 0,0 -1,0 -1,0 -1,0l0 0c0,0 0,0 0,0 0,0 0,0 0,0l0 0c0,0 0,0 0,0l0 0c0,0 0,0 0,0zm-4 -1c0,0 0,0 0,0 0,0 0,0 0,1 0,0 0,0 0,0 0,0 0,0 0,0 0,0 0,0 0,0l0 0 0 0c0,0 0,0 0,0l0 0c0,0 0,0 0,0 0,0 0,0 0,0l0 0c0,0 0,0 0,0 0,0 0,0 0,0l0 0c0,0 0,0 -1,0 0,0 0,1 0,1l0 0c0,0 0,0 0,0l0 0c0,0 0,0 0,0l0 0 0 0c0,0 0,0 0,0l0 0c0,0 0,0 0,0l0 0c0,0 0,0 0,0 0,0 0,1 0,1 0,0 0,0 0,0 0,0 0,0 0,0 0,0 0,0 0,0l0 0c0,0 0,0 0,0 0,0 0,0 0,0l0 1 0 0c0,0 0,0 0,0 0,0 0,0 0,0l0 0c0,0 0,0 0,0l0 0c0,0 0,0 0,0l0 0c0,0 0,0 0,0l1 0c0,0 0,0 0,0l0 0 0 0c0,0 0,0 0,0l0 1c0,0 0,0 0,-1 0,0 0,0 1,0l0 0c0,0 0,0 0,0 0,0 0,0 0,0l0 0c0,0 0,0 0,0 0,0 0,0 0,0l0 0c0,0 0,0 0,0 0,0 0,0 0,0l0 0c0,0 0,0 0,0l0 0c0,0 0,0 0,0l0 0c0,0 0,0 0,0l0 0 0 0c0,0 0,0 0,0 0,0 0,0 0,-1 0,0 0,0 0,0l1 0c0,0 0,0 0,0 0,0 0,0 0,0l0 0c0,0 0,0 0,0 0,0 0,0 0,0 0,0 0,0 0,0l0 0c0,0 0,0 0,0l0 0c0,-1 0,0 0,-1 0,0 0,0 0,0 0,0 0,0 0,0 0,0 0,0 0,0 0,0 0,0 0,0 0,0 0,0 0,0 0,0 0,0 0,0l0 0c0,-1 0,-1 0,-1l0 0c0,0 0,0 0,0 0,0 0,0 0,0l-1 0c0,0 0,0 0,0 0,0 0,0 0,0 0,0 0,0 0,0 0,0 0,0 0,0l0 0c0,0 0,0 0,0l0 -1c0,0 0,0 0,0 0,0 0,0 0,0l0 0c0,0 0,0 -1,0 0,0 0,0 0,0zm-3 3l0 0 0 0c0,0 0,0 0,0 0,0 0,0 0,1l0 0c0,0 0,0 0,0 0,0 0,0 0,0 0,0 0,0 0,0l0 0 0 0 0 0c0,0 0,0 0,0l0 0 0 0c0,1 0,1 -1,1l0 0c0,0 0,0 0,0 0,0 0,0 0,0 0,0 0,0 0,0 0,1 0,0 0,0 0,1 0,1 0,1 0,0 0,0 0,0l0 0c0,0 0,0 0,0l0 0 1 0c0,0 0,0 0,0l0 0c0,0 0,0 0,0l0 0c0,0 0,0 0,0 0,0 0,0 0,0l0 0c0,0 0,0 0,1 0,0 0,0 0,0 0,0 0,0 0,0 0,0 0,0 0,0 0,0 0,0 0,0l0 0c0,-1 0,0 0,-1 1,0 0,1 1,0l0 0 0 0 0 0c0,0 0,0 0,0 0,0 0,0 0,0l0 0c0,0 0,0 0,0 0,0 0,0 0,0 0,0 0,0 0,0 0,0 0,0 0,0 0,0 0,0 0,0 0,0 0,0 0,0l0 0 0 0c0,0 0,0 0,0l0 0c0,0 0,0 0,0l0 -1c1,0 1,0 1,0l0 0c0,0 0,0 0,0 0,0 0,0 0,0l0 0c0,0 0,-1 0,-1l0 0 0 0c0,0 0,0 0,0l0 0c0,0 0,0 -1,0l0 0c0,0 0,0 0,0l0 0c0,0 0,0 0,0 0,0 0,0 0,0 0,0 0,0 0,0 0,-1 0,-1 0,-1 0,0 0,0 0,0l0 0c0,0 0,0 0,0l0 0c0,0 0,0 0,0l0 0c0,0 -1,0 -1,0l0 0c0,0 0,0 0,0 0,0 0,0 0,0zm2 94c0,0 0,-1 0,-1 0,1 0,0 0,1 0,0 0,0 0,0 0,0 0,-1 0,-1 0,0 0,0 0,0 0,0 0,0 0,0 0,-1 0,-1 0,-1 0,-1 0,-1 0,-1 0,0 0,0 0,0 -1,0 0,0 0,0 0,0 0,1 0,1 -1,0 -1,0 0,0l0 1c0,0 -1,-1 -1,-1 0,0 0,0 0,0 0,0 0,0 0,0 0,0 0,0 0,1 0,0 0,0 0,0 0,1 0,1 0,1l0 0c0,0 0,0 0,0 0,0 0,0 0,0 0,0 0,0 0,0 0,0 0,0 0,-1 0,1 0,1 0,1 0,1 1,1 1,1 0,0 0,0 0,0 0,0 0,0 0,0 0,0 -1,-1 0,-1zm-1 2l0 0c0,0 0,0 0,0zm-1 3c0,0 -1,0 -1,1l0 0c0,-1 0,-1 0,-1l1 0zm2 2c0,0 0,-2 0,-2 0,0 0,0 0,0 0,0 0,2 0,2zm0 0l0 0c0,0 0,0 0,0zm-4 -4l0 0c0,0 0,0 0,0zm-1 3c0,0 0,0 0,0l0 -1c0,0 0,0 0,0 0,-1 0,-1 0,-1l1 -1 0 1c0,0 -1,1 -1,1 0,1 0,1 0,1l0 0zm4 -1c0,0 0,1 0,1 0,0 0,0 0,0 0,1 0,0 0,1 0,0 0,0 -1,0 0,0 1,0 1,0l-1 0c0,0 0,1 -1,1l0 0c0,0 1,-1 1,-1 1,-1 1,-1 1,-1 0,-1 0,-1 0,-1zm-1 2l0 0c0,0 0,0 0,0zm9 -24c0,0 0,0 0,0 -1,0 -1,0 -1,0l0 0c0,0 1,0 1,0 0,0 0,0 0,0 0,0 0,0 0,0 0,1 0,1 -1,1 -1,0 -1,0 -1,0l-1 0c0,0 0,0 1,0 1,-1 0,0 1,-1 0,0 0,0 1,0zm-14 11l0 0c0,1 -1,1 -1,1 -1,1 -1,1 -2,2l0 0c0,0 -2,1 -2,2l0 0c1,-1 3,-2 3,-2 2,-2 1,-3 5,-4l0 0c1,0 1,0 1,0 0,0 0,0 0,0 0,-1 0,-1 0,-1 0,-1 0,-1 1,-1 0,0 -1,-1 0,-1 0,0 0,0 0,0l0 0c1,0 1,-1 1,-1 0,0 0,-1 0,-1l0 -1c0,0 0,0 0,0 0,0 0,0 0,0 -1,-1 -1,0 -1,-1 -1,0 -1,-1 -1,-1 0,0 0,-1 0,-1 0,-1 1,-1 1,-1 0,0 1,0 1,0 1,-1 1,-1 0,-1 0,-1 0,-1 -1,-2 0,0 0,-1 1,-2 0,0 0,0 1,0 0,0 0,0 0,0 0,0 0,0 1,0 0,0 1,-1 1,0l0 0c1,0 1,0 2,0 0,0 0,0 0,0 0,0 0,0 0,0 0,0 1,0 1,0 0,0 0,-1 0,-1 1,0 1,1 1,1 0,1 1,1 1,2 0,0 0,1 -1,1 0,0 0,0 0,0 1,0 1,0 1,0 0,0 1,0 1,0 0,0 0,1 0,1 0,0 0,0 1,0 0,0 0,0 0,1 0,0 0,0 0,0l0 1c0,0 0,1 0,1 0,0 0,1 0,1 -1,0 -1,0 -1,0 -1,0 -2,-1 -2,0 0,0 0,0 -1,0 0,0 0,0 0,0 0,0 0,0 0,0 0,1 0,1 0,2 0,0 -1,0 -1,0 -1,0 -1,0 -1,0 -1,0 -1,0 -1,0 0,0 0,1 0,1 -1,1 -1,1 -2,2 0,0 0,0 0,1 0,0 0,0 -1,0 0,0 0,1 0,1 0,0 -1,0 -1,0 1,0 1,0 1,0 1,0 1,0 1,0 0,0 0,0 0,0 0,0 0,0 0,0l1 0c0,0 0,0 0,0 1,0 1,1 1,1 0,0 -1,0 -1,0l0 0c1,0 1,0 1,0 0,0 1,1 1,0 1,0 1,0 2,0 0,0 0,0 0,0 0,0 0,0 0,0 0,0 0,0 0,0 0,0 0,0 0,0 0,0 0,0 0,0 0,-1 1,-1 1,0l0 0c0,0 0,0 1,0 0,0 0,0 0,1 0,0 0,0 0,0 1,1 1,0 1,0 0,-1 0,0 1,-1 0,0 0,0 0,0 0,0 0,0 0,0 0,0 0,1 0,1 0,0 1,0 1,0 0,0 0,0 0,0 0,1 0,1 0,1l0 0c1,1 1,1 1,1 0,0 0,0 0,1 0,0 0,0 0,0 0,1 0,1 0,1 0,0 0,0 0,0 0,0 0,1 0,1 0,0 -1,0 -1,-1 0,1 0,1 0,1 0,0 0,1 0,1 -1,0 -1,0 -1,0 -1,0 -1,0 -1,0 0,-1 0,-1 0,-1 0,1 0,1 0,1 0,1 0,1 -1,1 0,0 0,0 0,0 0,0 0,0 0,0 0,0 0,0 -1,0 0,0 0,0 0,0 0,0 0,0 -1,0 0,0 0,-1 0,-1 -1,-1 -1,-1 -1,-1 0,0 0,0 0,-1 0,0 0,1 -1,0 0,0 -1,0 -1,-1l0 -1c0,0 0,0 0,0 0,-1 0,-1 -1,-1l0 -1c0,0 0,0 0,0 0,0 0,0 0,0 0,0 0,0 0,0 0,0 1,1 1,1 0,0 1,0 1,0 0,1 1,0 1,0l0 0c0,0 0,0 0,0l-1 0c0,0 -1,-1 -1,-1l0 0c0,0 0,0 0,0l0 0c0,0 1,0 1,0 0,0 0,0 0,0l0 0c0,0 0,0 0,0 0,0 0,0 0,0 -1,0 -1,-1 -1,-1 0,0 0,0 -1,0 0,0 0,0 0,0 0,1 0,0 0,1l0 0c0,0 0,0 0,0 1,0 1,0 2,1 -1,0 -2,-1 -2,-1 0,0 0,0 0,0 0,0 0,0 0,0 -1,1 -1,0 -1,0 0,0 0,1 -1,0 0,0 -1,-1 -1,-1 0,0 0,0 0,0 0,0 0,0 -1,0 0,0 1,1 1,1 0,0 1,0 1,0 0,1 0,1 1,1 0,0 0,0 0,0 0,1 0,1 0,1 0,0 0,0 0,0 0,1 0,1 1,1l0 1c0,0 0,0 0,0 1,0 1,0 1,0 0,0 0,0 1,0 0,0 0,1 0,1 0,0 0,0 1,0 0,0 0,0 0,0 0,1 0,0 1,1 0,0 0,1 0,1 0,1 0,1 0,1 -1,0 -1,0 -1,0 0,0 0,0 0,1 0,0 0,0 0,0 0,0 0,0 0,0 0,0 0,0 0,0 0,0 0,0 0,0l1 0c0,0 0,0 0,0 0,0 0,1 0,1 1,0 1,0 0,0 0,1 0,1 0,2 0,0 0,0 0,0 0,0 0,0 0,0 0,0 0,0 -1,0 0,0 0,0 0,0 -1,0 -1,0 -1,1 0,0 0,0 0,0 0,-1 0,0 0,0 -1,0 -1,0 -1,0 0,0 0,0 0,0 0,0 0,0 -1,1l0 0c0,0 -1,0 -1,0 0,1 0,1 -1,1l0 -1c0,0 -1,0 -1,0 0,0 0,0 0,0 0,0 -1,0 -1,0 0,0 0,0 0,0 0,0 0,0 0,0 0,0 0,0 0,0 -1,1 -1,1 -1,1 -1,0 -1,0 -1,0 -1,-1 -1,-1 -1,-1 0,0 0,0 -1,0 0,0 0,0 0,0 -1,0 0,-1 0,-1 -1,1 -1,2 -2,1 0,0 0,0 0,-1l0 0c0,0 -1,1 -1,0 0,0 0,0 0,-1 0,0 0,0 0,0l0 0c0,0 -1,-1 0,-1 0,-1 0,-1 1,-1 0,0 0,0 0,-1l1 0c0,-1 0,-1 0,-2 1,-1 0,0 2,-2l0 -1c1,0 1,0 1,-1 0,0 0,0 0,-1 1,0 1,0 1,0 0,0 0,0 0,-1 0,0 -1,-1 -1,-1 0,0 0,0 0,0 -1,0 -1,1 -2,2 -1,1 -3,2 -4,2 0,0 0,0 0,0 0,0 0,0 -1,1 -2,2 -5,3 -8,5 -1,-1 -1,-1 -2,-1 0,0 0,0 0,0 0,0 0,0 0,0 0,0 0,0 -1,0 0,0 0,0 0,0 0,0 0,0 0,0 0,0 0,0 0,0 0,0 0,0 0,1l-1 0c0,0 0,0 0,0l0 0c0,0 0,0 0,0 0,0 0,-1 0,-1 0,0 0,0 0,0 0,0 0,0 0,0 0,0 0,0 0,0 0,0 0,0 0,0 0,0 0,0 0,0 0,0 0,0 0,0l0 0c5,-2 10,-5 14,-8 0,0 0,0 0,0 0,0 0,0 0,0l1 0c1,-1 1,-1 2,-2zm15 3c0,0 0,0 0,0l1 1c0,0 0,0 0,0 0,0 0,0 0,0 0,0 0,0 0,0 -1,0 -1,0 -2,-1 0,0 0,0 0,0 -1,0 -1,1 -1,1 0,0 0,0 1,0l0 0c0,0 0,0 0,0l1 1c0,0 0,0 0,0 0,0 1,0 1,0l0 0c0,0 0,0 -1,0 0,0 0,0 0,0 0,0 0,0 0,0 0,0 0,0 0,0 0,0 -1,0 -1,-1 -1,0 -1,0 -1,0l0 0 0 0c0,0 0,0 0,0 0,0 0,0 0,0 0,0 0,1 0,1l0 0c0,0 0,0 0,-1 0,1 -1,1 -1,1 0,0 1,0 1,0 0,0 0,0 0,1 0,0 0,0 0,0 0,0 0,0 0,0 1,0 1,0 1,0 0,0 0,0 0,0 0,0 0,0 0,1 0,-1 0,-1 -1,-1l0 0c0,0 1,1 0,1 0,0 0,-1 0,-1 0,0 0,0 0,0 0,-1 0,-1 -1,-1 0,0 0,0 0,0 0,0 0,0 0,0 0,0 0,0 0,1 0,0 0,0 0,0 0,0 0,0 0,0l0 -1c0,0 0,0 0,0 0,0 0,0 0,-1 0,0 0,0 0,0 0,0 0,0 -1,0 0,0 0,0 0,0 0,0 0,0 0,0 0,0 0,0 0,0l0 0c0,0 0,0 0,0l0 0c0,0 0,0 1,0 0,0 0,0 0,0 0,0 0,0 1,-1 0,0 0,0 0,0 0,0 0,0 0,0 0,0 0,-1 0,-1 -1,0 -1,-1 -1,-1 1,1 1,1 1,1 0,0 0,1 0,1 0,0 1,-1 1,-1 0,0 0,0 0,0 1,0 1,0 1,0 0,0 0,0 0,0 0,0 1,0 1,0 0,0 0,0 0,-1 0,1 0,1 0,1 -1,0 -1,0 -1,0 0,0 0,0 0,0 0,1 -1,1 -1,1 0,0 0,0 0,0l0 0c0,0 1,0 1,0 0,0 0,0 0,0 1,0 1,0 1,0l0 0c0,0 0,0 -1,0 0,0 0,0 0,0zm-9 6c1,0 1,1 1,1 1,0 0,0 1,0 0,-1 0,-1 0,-1 0,0 0,0 0,0 0,0 0,0 0,-1 0,0 0,0 0,-1l0 1c0,1 0,1 0,1 0,0 1,0 1,0 0,0 0,0 0,0 0,-1 1,-1 1,-1l0 0c0,0 0,0 0,1 -1,0 -1,0 -1,0 0,0 0,0 0,0 1,0 1,0 1,0l0 -1c0,0 0,0 0,0 0,1 0,1 0,1 0,1 0,1 0,1 0,0 0,0 0,0 0,0 0,0 0,1l0 0c-1,0 -1,0 -1,0l1 0c0,0 0,0 0,0 0,0 0,1 1,1 -1,0 -1,0 -1,0 0,0 0,0 0,0 -1,-1 -1,-1 -1,-2 0,0 0,0 0,0l0 0c0,0 0,0 0,0 0,0 0,0 0,0l-1 0c-1,1 -1,0 -1,0 1,1 1,1 1,2 0,0 0,0 0,0 0,0 0,0 0,0l-1 0c0,-1 0,-1 0,-2 0,0 0,0 0,0 0,0 0,1 0,1 -1,0 -1,-1 -1,0 -1,0 -1,1 -1,1 0,0 0,0 -1,0 0,0 1,0 1,-1 0,0 0,0 0,0 0,0 0,-1 1,-1 -1,0 -1,0 -1,0 0,0 0,0 1,0 0,0 0,0 0,0 0,0 -1,0 -1,-1 0,0 0,0 0,0 0,0 0,0 1,1 0,0 0,0 0,0 0,0 0,0 0,0 0,0 0,0 1,0 0,0 0,0 -1,0 0,-1 0,-2 0,-2 0,0 0,0 0,1 0,0 0,0 0,0zm2 -2l0 0c0,0 0,0 0,0zm4 -22l0 0c0,1 -1,1 -1,1 0,0 0,0 0,1 0,0 0,0 0,0 0,1 -1,2 -1,2l0 1c0,0 0,0 1,0 0,-1 0,-1 0,-1 1,0 1,-1 2,-1 0,0 0,0 0,0 0,0 0,0 0,1 -1,0 -1,0 -1,0l-1 1c0,0 0,0 -1,0 1,0 1,0 1,0 0,1 0,1 0,1 -1,1 -1,-1 -2,-1l0 0c0,0 -1,0 -1,0 0,0 0,0 0,-1l0 0c0,0 0,0 -1,0 0,0 0,2 -1,1 0,0 0,0 0,0 0,0 0,0 0,0 0,0 0,0 0,0l0 0c0,0 0,0 0,0 0,0 0,0 1,-1 0,0 0,0 0,0 0,0 0,0 0,0 1,0 1,0 1,0 0,0 0,0 0,-1 0,0 0,0 0,0 0,0 0,0 0,0 0,0 0,0 0,0 0,-1 0,-1 -1,-1 0,0 0,0 0,-1 0,0 0,0 0,0 0,0 0,0 0,0 0,0 0,1 0,1l0 -1c0,0 0,0 0,0 0,0 1,0 1,0 0,2 0,2 0,3 0,0 0,0 0,0 1,0 1,0 1,0 0,0 0,-1 0,-1 0,-1 0,-1 0,-1 0,-1 0,-1 0,-1l0 0 0 0c0,0 0,0 0,0 0,0 0,1 0,1 0,-1 0,-1 1,-1 0,0 0,0 0,0 -1,1 -1,0 -1,1 0,0 0,0 0,0 0,0 0,0 0,1 0,0 0,0 0,0 0,0 0,1 0,1l1 0c0,0 0,-1 0,-1 0,0 0,0 0,0l0 -1c0,0 0,0 0,0l1 -1c0,0 0,1 0,1l0 -1c0,0 0,0 0,-1 1,0 1,0 1,0 0,0 0,0 0,0zm-1 1l0 0c0,0 0,0 0,0zm-7 23c-1,0 0,1 0,1l-1 1c1,0 1,-1 1,-1 0,0 0,0 0,0 0,-1 0,-1 0,-1zm0 0c0,0 0,0 0,0 0,0 1,1 1,1 0,1 -1,1 -1,1 -1,0 0,0 -1,1 0,0 -1,0 0,1l0 1c0,0 0,0 1,1 0,-1 0,-1 0,-1 0,0 0,0 0,0 0,0 0,0 0,0 0,0 0,0 0,0 0,1 0,1 0,1 0,0 1,-1 1,-1 0,0 0,1 0,1 0,0 0,0 1,0 0,0 0,0 0,0 1,0 0,0 1,0 0,0 0,0 0,0 0,0 0,0 0,0 1,0 1,0 1,-1 0,0 0,0 1,0 0,-1 0,-1 0,-1 0,0 -1,0 -1,0 0,-1 0,-2 0,-2l1 0c0,1 0,1 0,1 0,0 0,0 0,1 0,0 0,0 0,0 0,0 0,0 0,0 0,0 0,0 1,0 0,0 0,0 0,0 0,0 0,0 1,0l0 0c0,0 0,0 0,0 0,0 0,-1 0,-1l1 -1 -1 0c0,0 0,-1 -1,-1 0,0 0,0 0,0 0,0 0,0 1,-1 0,0 0,0 0,0 0,0 0,0 0,0 0,0 1,0 1,0 0,-1 -1,-1 -1,-1 0,-1 0,-1 0,-1 0,0 0,0 0,0 0,0 0,-1 -1,-1 0,0 0,0 0,0 -1,0 -1,0 -1,0 0,0 0,0 0,0 0,0 0,0 -1,0 0,0 0,0 0,0 0,0 0,0 0,0 0,0 0,0 0,0 0,0 -1,0 -1,0 0,1 0,1 0,1l0 1c0,0 0,0 0,0 0,0 0,0 0,1 0,0 0,0 0,-1 0,0 0,0 -1,0 0,0 0,0 0,-1 0,0 0,0 0,0 -1,0 -1,0 -1,0 -1,0 -1,0 -1,0 0,1 0,0 -1,1 0,1 1,0 1,1zm8 -7c0,1 -1,1 -1,1 0,0 0,0 0,0 0,0 -1,0 -1,0 0,0 0,0 0,0l0 1c0,0 0,0 0,1 0,0 1,0 2,0 0,0 0,1 0,1 0,0 0,0 0,0 0,1 0,1 1,1 0,0 0,0 0,1 0,0 0,0 0,0 1,0 1,0 1,0 0,0 0,0 1,0 -1,-1 -1,-1 -1,-1 0,0 0,0 0,0 0,-1 0,-1 0,-1 0,-1 0,-1 0,-1 0,0 0,0 0,1 1,0 0,0 1,0l0 0c0,0 1,0 1,0 0,0 0,0 0,0 0,0 0,0 0,0 1,0 1,0 1,0 0,0 0,0 0,0 0,0 0,0 0,-1 0,0 0,0 1,0 0,-1 0,-1 0,-1 0,0 0,0 0,0 0,0 -1,0 -1,0 0,0 0,-1 0,-1 0,0 -1,0 -1,0 0,0 0,0 0,0 0,-1 0,-1 1,-1 0,0 0,0 0,0 0,0 0,0 0,0 -1,0 -1,-1 -1,-1 0,0 0,0 0,0 0,0 0,0 0,0 0,0 -1,0 -1,0 0,0 0,0 0,1 -1,0 -1,0 -1,0 -1,0 -1,-1 -1,-2 0,0 0,0 0,0 0,0 -1,0 -1,0 0,0 0,0 0,0 0,1 0,0 -1,0 0,1 0,1 0,1l0 0c0,0 0,0 0,0 0,0 0,0 0,0 0,0 0,0 0,0 0,1 0,1 0,1 0,0 0,0 1,0zm-7 2c0,0 0,0 0,0 0,1 0,1 0,2 0,0 0,0 0,0l0 0c0,0 0,0 0,0l0 0c1,-1 1,-1 1,-1 -1,0 -1,-1 -1,-1zm2 -1c0,0 0,0 0,0l0 0c0,0 0,0 0,0 0,0 0,0 0,0zm-4 0l0 1c0,0 0,0 -1,0 0,0 0,0 0,1 0,0 0,0 0,0 1,-1 1,-1 1,0 0,0 0,0 0,0 0,0 0,0 0,0 0,0 0,1 -1,2 0,0 0,0 0,0 0,0 0,1 0,1 0,0 0,0 0,0 0,0 0,-1 0,-1 0,0 0,0 0,-1 0,0 0,0 1,-1 0,0 0,0 0,0 0,0 0,0 0,0 -1,0 -1,0 -1,1 0,0 0,1 0,1l-1 1c0,0 0,0 0,0l0 -1c0,0 0,0 1,0 0,-1 0,-1 0,-2l1 0c-1,0 -1,0 -1,0 0,0 0,1 0,1 -1,0 -1,0 -1,1 0,0 0,0 0,1 0,0 -1,0 -1,1 0,0 0,1 -1,1 0,1 0,1 -1,2 0,0 -1,0 -1,0 0,0 0,1 0,1 0,0 0,0 0,0 0,0 0,0 0,0l3 -3c0,0 0,0 0,0 0,0 -1,1 -1,1 0,0 0,0 0,1 0,0 0,0 0,0 -1,0 -1,1 -2,1 1,0 0,1 0,1 0,0 0,0 0,0 1,0 1,0 1,-1 1,0 1,0 1,1 0,0 0,0 -1,0 0,1 0,0 0,1 0,0 1,0 1,0 0,0 1,-1 1,-2 0,0 0,0 0,0 0,-1 0,-1 0,-1 0,0 0,0 1,0l0 -1c0,0 0,-1 0,-1 0,0 0,1 0,1l0 1c0,0 0,1 -1,1 0,0 0,0 0,1 0,0 0,0 0,0l0 0c0,0 0,1 0,1l0 0c0,0 1,0 1,0 0,0 0,0 0,0 0,0 0,0 0,0 0,-1 0,-1 0,-1l0 0c0,-1 0,-1 0,-1l0 -1c0,0 0,0 0,0 1,1 1,2 1,2 -1,0 -1,1 -1,1 1,0 1,0 1,0 0,1 0,0 1,0l0 0 -1 -2c0,0 0,-1 0,-1 0,0 0,0 1,0 0,-1 0,-1 0,-1 0,0 0,0 0,0 0,0 0,0 0,-1 0,0 0,0 0,0 0,0 0,-1 0,-1 0,-1 0,-1 0,-2 0,-1 0,-1 0,-2 0,0 0,0 0,0 0,0 0,1 0,1l0 1c0,0 0,0 0,0 1,0 1,0 1,0 0,-1 -1,-1 -1,-2 1,0 0,0 0,0 0,0 1,0 1,0 0,0 0,-1 0,0l0 -2c0,0 0,-1 -1,-1 0,0 0,-1 0,-1 0,0 0,0 0,-1 0,0 0,0 0,0 0,0 0,0 0,0 1,0 1,0 1,1l0 0c0,0 0,-1 0,-1 0,0 0,0 0,0 0,0 0,0 0,0 0,0 0,0 -1,0 0,0 0,0 0,0 0,0 -1,0 -1,0 0,0 0,0 0,0 0,0 0,0 1,1 0,0 0,1 0,1 0,1 0,1 0,1 0,0 0,1 0,1 0,0 0,0 0,-1 0,0 0,0 0,0l0 0zm-2 7c0,0 0,0 0,0l0 0c0,0 0,0 0,0zm0 -2l0 0c0,0 0,0 0,0zm1 0l0 0c0,0 0,0 0,0zm3 -6c0,1 0,1 0,1 0,0 0,0 0,0 0,0 0,0 0,0l0 1c0,-1 0,-1 1,-1 0,0 0,1 0,1 0,-1 0,-1 0,-1 0,0 0,0 1,-1l-1 0c-1,0 -1,0 -1,-1 0,0 0,0 0,0l0 0c0,1 0,1 0,1zm-1 0c0,1 0,1 0,2 1,0 1,1 0,1 0,0 0,0 0,0 0,0 0,0 0,1 0,0 0,0 0,0l0 1c0,-1 1,-1 1,-1 0,0 0,1 0,0l0 0c0,0 0,-1 0,-1 0,0 0,0 0,0l0 -1c0,0 0,0 0,0 0,0 0,0 0,-1 0,0 0,0 0,0l0 -1c-1,-1 -1,-1 -2,-1 0,0 0,0 0,0 0,0 0,0 0,0 1,1 1,1 1,1zm1 -3l0 0c0,0 0,0 0,0zm0 0l0 0c0,0 0,0 0,0 0,0 0,0 0,0zm-1 0l0 0c0,0 0,0 0,0zm0 0c0,0 0,0 0,0 0,0 0,0 0,0 0,1 0,1 0,1 0,0 0,0 0,0 0,0 0,0 0,0 0,0 0,0 0,0 0,0 1,0 1,0l1 0c0,0 0,0 1,1 0,0 0,0 0,0 0,0 0,0 -1,0 1,0 1,0 1,0 0,0 0,0 0,0 0,0 0,0 0,0 1,-1 1,-1 1,-1 0,0 0,0 0,0 0,0 -1,0 -1,0 0,0 0,0 0,0 -1,0 -1,0 -1,0 0,0 0,0 0,0 0,0 0,0 -1,0 0,-1 0,-1 -1,-1 0,0 0,0 0,0 1,0 1,0 1,0 1,-1 1,-1 1,-1l0 0c0,-1 0,-1 0,-1 0,0 0,0 0,0 0,0 0,0 0,0 0,0 0,0 -1,-1 0,0 0,0 0,1 0,0 0,0 0,0 0,0 0,0 0,0 0,0 0,1 0,1 0,0 0,1 -1,1l0 0c0,0 1,0 0,0zm8 -8c0,0 0,0 0,0 0,0 0,0 1,0 0,0 0,0 0,0 1,0 1,0 2,0 0,0 0,0 0,0 0,0 1,0 1,-1 0,0 0,0 -1,0 0,-1 0,-1 0,-1 0,0 0,0 0,-1 0,0 0,0 -1,0 0,0 0,0 0,0l0 0c-1,0 -1,-1 -1,-1 0,0 0,0 0,0 0,-1 0,-1 0,-1 0,-1 0,-1 0,-1 -1,-1 -1,-1 -1,-1 0,0 0,0 0,1 -1,0 -1,0 -1,0 -1,0 -1,-1 -1,-1 -1,1 -1,1 -1,1l0 -1c0,0 -1,0 -1,0 -1,0 -1,0 -1,0 -1,1 -1,1 -1,1 0,0 0,1 0,1 0,1 1,1 1,2 0,0 0,1 0,1 0,0 0,0 -1,0 0,0 0,0 0,0 0,0 -1,1 -1,1 0,0 0,0 0,1 0,0 0,0 0,0 0,1 1,1 1,1 0,1 0,1 0,1 1,0 1,0 1,0 0,-1 0,-1 0,-1 1,-1 1,0 1,0 0,0 0,0 0,-1l1 0c0,0 0,0 0,0 0,0 0,0 0,0l0 0c0,0 0,0 0,0 0,0 0,0 0,0 0,1 0,0 0,1 0,1 0,1 0,1 0,1 0,0 0,0 0,0 0,0 0,0 0,0 0,0 1,0 0,-1 0,-1 0,-2 0,0 0,0 0,0 0,0 0,0 0,0 0,0 0,1 0,1 0,0 0,0 0,0 0,1 0,1 -1,1 1,0 2,1 2,1l0 0c0,-1 0,-1 0,-1 0,-1 0,-1 -1,-1 0,0 0,0 0,0 0,0 0,0 0,0 1,1 1,1 1,1 0,0 0,0 0,0 0,0 0,0 0,0 1,0 0,-1 0,-1 0,-1 0,-1 1,-1zm-2 0c0,0 0,0 0,0 0,0 0,0 0,0zm-2 1c0,0 0,0 0,0 0,1 0,1 0,1l-1 1c0,0 0,0 0,0 0,0 0,0 0,-1 0,0 0,0 0,0 0,0 0,0 0,0 0,1 0,1 0,1 -1,0 0,0 0,-1 -1,0 -1,0 -1,0 0,1 0,1 0,2 0,0 0,0 0,0l0 0c0,0 0,1 0,1 0,0 0,0 0,0 0,0 0,-1 0,-1 1,0 1,-1 1,-1 0,0 0,0 0,0 0,1 0,1 -1,2 0,0 0,0 0,0l0 0c0,0 0,0 1,0 0,0 0,0 0,-1 0,0 0,0 1,-1 0,1 -1,2 -1,2 0,0 0,0 -1,0l1 0c0,0 0,0 0,0 0,0 0,0 0,1 0,-1 0,-1 0,-1l1 -1c0,0 1,-1 1,-1 0,0 0,0 -1,0 0,0 0,0 0,0 0,0 0,0 0,0 0,0 0,0 0,-1 0,1 0,1 0,1 -1,0 -1,0 -1,0l0 0c1,0 1,-1 1,-1 0,0 0,0 0,-1l0 0zm-67 30c0,0 0,0 0,0 0,0 0,0 0,0 0,0 0,0 0,0zm9 -13l0 0c0,0 0,0 0,0zm-3 3l0 0c0,0 0,0 0,0zm6 1l0 0c0,0 0,0 0,0zm-6 -2c0,0 0,-1 0,0 0,0 -1,0 0,0zm0 -4l0 0c0,0 0,0 0,0l0 0zm0 4c0,0 -1,0 -1,0 0,0 0,0 0,0 0,0 0,0 -1,0 0,0 0,0 1,0 0,0 0,0 0,0 1,0 0,0 1,0zm0 0c0,0 0,0 0,0 0,0 0,0 0,0zm1 3l0 0c0,0 0,0 0,0l0 0c0,0 0,0 0,0l1 0c0,0 0,0 0,0l0 -1c-1,1 -1,1 -1,1 0,0 0,0 0,0zm-1 0c1,0 1,0 1,-1 0,0 0,0 -1,1 0,0 0,0 0,0zm5 -2c1,0 0,0 1,0 0,0 0,0 0,0 0,0 0,0 1,0 0,0 0,0 0,0 0,0 -1,0 -1,0 0,0 0,0 0,0 0,0 0,0 0,0 -1,0 -1,0 -1,0l0 0zm1 0c0,0 0,0 0,0 0,0 0,0 -1,0 0,0 0,0 0,0 0,0 0,0 1,0 0,0 0,1 0,0zm-6 1c0,0 0,1 1,0 0,0 0,0 0,0 -1,0 -1,0 -1,0 0,0 0,0 0,0zm3 1l0 0c0,0 0,0 0,0 0,0 0,0 0,0 0,0 0,0 0,0 1,0 0,0 0,-1 0,0 0,0 0,1l0 0c0,0 0,0 0,0zm-1 -5c0,0 0,0 0,0 0,0 0,0 0,0 0,0 0,0 0,0 0,0 0,-1 -1,-1 0,0 1,0 1,0l0 1c0,0 0,0 0,0zm-3 4l0 0c0,0 1,0 1,0l0 -1c0,0 0,0 0,0l0 0c0,0 0,0 0,0 0,0 0,0 0,0 -1,0 -1,1 -1,1zm0 -1l0 0c0,0 1,0 1,0l0 0c0,0 0,0 0,0l0 0c0,0 0,0 0,0l0 0c-1,0 0,0 -1,0 0,0 0,0 0,0zm-1 0c1,0 1,0 1,0 1,0 1,0 1,0 0,0 0,0 0,0 0,0 0,0 0,0 0,-1 0,-1 0,-1l0 0c0,0 0,0 0,0 0,0 0,0 0,0l-1 0c0,0 0,0 0,0l0 0c0,0 0,0 0,0 0,0 0,0 0,0l-1 1zm7 1c0,0 0,0 -1,0 0,0 1,0 1,0 0,0 0,0 0,0 0,0 0,0 0,0 1,0 1,0 0,-1 0,0 0,0 0,0 0,1 0,1 0,1zm-3 1c0,0 0,0 0,0 0,0 0,0 0,0 0,0 0,0 0,0 0,0 0,0 0,0l0 0c1,0 0,0 1,0 0,0 0,0 0,0 0,0 0,0 0,0 0,0 0,0 0,0 -1,0 -1,0 -1,0l0 0c0,0 0,0 0,-1 0,1 0,1 0,1l0 0c0,0 0,0 0,0 0,0 0,0 0,0zm2 0c0,0 0,0 0,0 0,0 0,0 0,0 0,0 0,0 0,0 1,0 1,-1 0,-1 0,0 0,0 0,0 0,0 0,0 0,0l0 0c0,0 0,0 0,0 0,0 0,1 0,1zm-4 -12c0,1 0,1 0,1 0,0 0,1 0,1l0 1c0,0 0,0 0,0 1,0 1,0 1,0 -1,-1 -1,-2 -1,-3 0,0 0,0 0,0 0,0 0,0 0,0zm5 3c1,0 1,-1 1,-1 1,-1 1,-1 1,-1 -1,0 -1,0 -1,0l0 1c-1,0 -1,0 -1,1zm-3 -2c0,1 0,1 0,1 0,0 0,0 0,0 1,0 0,0 0,-1 0,0 0,-1 0,-1 0,0 0,0 0,0 0,1 0,1 0,1zm1 1c0,0 0,0 0,0 1,0 0,0 1,0 0,0 0,0 0,-1 0,0 0,0 0,-1 0,0 0,0 0,0 0,0 0,0 0,0l-1 1c0,0 0,1 0,1zm4 2c0,0 0,0 0,0 0,0 0,0 1,0 0,0 0,0 1,-1 0,0 0,0 0,0 0,0 0,0 0,0 -1,0 -1,0 -1,0l0 1c0,0 0,0 0,0 0,0 0,0 0,0 -1,0 -1,0 -1,0 0,0 0,0 0,0zm2 3l1 0c0,0 0,0 0,0 0,0 0,0 0,0 0,0 1,0 1,0 0,-1 0,0 0,-1 0,0 0,0 0,0 -1,0 -1,0 -2,1 0,0 0,0 0,0 0,0 0,0 0,0zm-1 -2c0,0 0,0 0,0 1,0 0,0 1,0 0,0 0,0 0,-1 0,0 1,0 1,0 -1,0 -1,0 -2,0 0,0 0,1 0,1zm-4 -3c0,0 0,0 0,0 0,0 1,0 1,0 0,-1 0,-1 0,-2 0,0 0,0 0,0l0 1c-1,0 -1,0 -1,1l0 0c0,0 0,0 0,0zm3 2c0,0 0,0 0,0l0 -1c0,0 0,0 0,0 0,0 0,0 0,0 0,0 0,0 0,0 1,0 1,-1 1,-1 0,0 0,0 -1,0 0,0 0,0 0,1 0,0 -1,0 -1,1 0,0 0,0 1,0zm1 2l0 0c0,0 0,0 0,0zm0 0l0 0c0,0 0,0 0,0zm0 0c0,1 0,1 1,0 1,0 1,0 2,-1 0,0 0,0 0,0 -1,0 -1,0 -1,0l-1 0c0,0 0,1 -1,1 0,0 0,0 0,0 0,0 0,0 0,0zm0 4c0,0 0,0 0,0 0,0 1,0 1,0l2 0c0,0 0,0 0,0 0,0 0,0 0,0 1,0 1,0 1,0 0,0 0,0 -1,0 0,0 0,0 0,0 0,0 0,0 0,0 0,0 -1,0 -1,0 0,0 -2,-1 -2,-1 0,0 0,1 0,1zm1 -2c0,0 0,0 1,0 0,0 0,0 0,0l-1 0c1,0 1,0 1,0 0,0 1,0 1,0l1 0c0,0 0,0 0,0 -1,0 -1,0 -1,0l0 0c0,0 0,0 0,0l1 -1c0,0 -1,0 -1,0 -1,0 -1,0 -1,1 0,0 0,0 0,0 -1,0 -1,0 -1,0zm-10 -6c0,0 0,0 0,0 0,0 0,0 0,1 0,0 0,1 0,1 0,0 1,0 1,0 0,0 0,0 0,1 0,0 0,0 0,0 0,0 0,-1 0,-1 0,-1 -1,-2 -1,-3 0,0 0,0 -1,0 0,0 0,0 0,0 0,1 0,1 1,1zm12 10c1,-1 0,-1 0,-1 0,0 0,0 -1,0l-1 -1c0,0 0,0 0,0 -1,0 -1,0 -2,0 0,0 1,0 1,0l1 1c0,0 0,0 0,0 0,0 0,0 0,0 0,0 0,0 0,0 0,0 0,0 0,0 0,0 0,0 0,0 0,0 0,0 0,0 1,0 1,0 1,0l1 0c0,0 0,1 0,1zm-11 -7c-1,-1 -1,-1 -1,-1l0 0c0,-1 0,-1 0,-1l0 0c-1,0 -1,0 -1,0l0 0c0,-1 0,-1 0,-1 -1,0 -1,0 -1,0 0,0 0,0 0,0 0,1 1,2 1,2l1 1c1,0 0,0 1,0zm5 1c0,0 0,0 1,0 0,0 0,0 0,-1 0,0 0,0 1,0 0,0 0,0 0,0 0,0 0,1 0,1 -1,0 -1,0 -1,0l0 0c0,0 0,0 0,0 0,0 0,0 0,0l1 0c0,0 0,-1 0,-1 0,0 0,0 0,-1 0,0 0,0 -1,0 0,0 0,1 0,1 0,0 0,0 -1,0 0,0 0,0 0,1 0,0 0,0 -1,0 0,0 1,0 1,0 0,0 0,0 0,0 0,0 0,0 0,0zm-10 -3c0,0 1,1 2,1l1 1c0,0 0,1 0,1 0,0 1,0 1,0 0,0 0,0 0,0 -1,-1 0,0 -1,-1 0,0 -1,-1 -1,-2l-1 0c0,0 0,0 0,0 0,0 -1,-1 -1,0 0,0 0,0 0,0zm15 12c1,-1 -2,-2 -2,-3l-1 0c0,0 0,-1 0,-1 -1,0 -1,0 -1,0 0,0 0,1 0,1l1 0c0,0 1,1 2,1l0 0c0,0 0,0 0,0l0 1c0,0 0,0 0,0 0,0 0,0 0,0 0,0 0,0 0,0 0,0 0,0 0,0l0 0c1,0 1,0 1,0 0,1 0,0 0,1 0,0 0,0 0,0zm-14 0c0,1 1,1 1,1 1,-1 1,-1 2,-2 0,0 1,-1 1,-1 0,0 0,0 0,0 0,-1 0,-1 0,-1 0,0 0,0 0,0 0,0 0,0 0,0 0,0 -1,1 -2,2 0,0 0,0 -1,1 0,0 0,0 0,0 0,0 -1,0 -1,0zm-3 -10c0,1 0,1 0,1 1,0 3,1 3,1l1 0c0,0 0,0 0,0 1,1 1,0 1,1 0,-1 0,0 0,-1l0 0c0,0 0,0 0,0l-1 0c0,0 -1,0 -1,-1l-1 0c0,0 0,0 0,0l0 0c0,0 -1,0 -1,-1 0,0 0,0 0,0 0,0 0,0 0,0 -1,0 -1,0 -1,0zm-1 1c0,0 0,0 0,1 1,0 1,0 1,0l1 0c0,1 0,0 1,1 0,0 0,0 1,0 0,0 1,0 1,0 0,0 1,0 1,0 0,0 -1,0 -1,0 0,0 0,0 0,0 0,-1 0,-1 0,-1 -2,0 -2,0 -4,0 0,0 -1,-1 -1,-1 0,0 0,0 0,0zm12 11l1 1c0,1 0,1 0,0l0 -1c0,0 0,-1 0,-2 0,0 0,0 0,0l-1 -1c0,-1 0,-1 0,-1 0,0 0,0 0,0 0,0 0,0 0,0l0 0c0,0 0,0 0,0 0,1 0,1 0,2l0 1c0,0 0,1 0,1 0,0 0,0 0,0zm-4 1c0,0 0,0 0,0 0,0 0,0 1,0l0 -1c0,0 0,0 0,0l0 0c0,0 0,0 0,0 0,-1 0,-1 1,-1l0 -1c0,0 0,0 0,0 0,-1 0,-1 0,-1 0,0 1,-1 0,-1 0,0 0,0 0,0 0,0 0,0 0,0 0,0 0,0 0,1 -1,0 0,0 -1,0l0 1c0,1 0,1 -1,2l0 1c0,0 0,0 0,0zm5 -7c0,0 0,0 1,1 0,0 0,0 0,0 0,0 1,1 1,2 0,0 0,0 0,0 0,0 0,0 0,0l0 0c0,0 0,0 0,0 0,0 0,0 0,0l1 0c0,0 0,0 0,0 0,1 0,1 0,1 0,0 0,0 0,0l0 0c0,0 0,0 0,0 0,0 0,0 0,0 2,2 1,-1 0,-1 0,0 0,-1 0,-1 -1,0 -1,0 -1,-1 0,0 0,0 0,0l-1 0c0,0 0,0 0,-1 -1,0 -1,0 -1,0zm-2 -8c0,0 0,0 0,0 1,0 2,0 2,1 0,0 0,0 0,0 0,0 0,0 -1,0 0,0 0,0 0,0 0,0 0,0 0,-1 -1,0 -1,0 -1,0 0,0 0,0 0,0zm0 0c0,0 0,1 0,1 0,0 0,0 0,1 0,0 0,0 0,0l0 0c0,0 0,0 0,0l0 0c0,1 0,0 0,1 1,0 1,0 1,-1 0,0 0,0 0,0 0,0 0,0 0,-1 1,0 1,1 2,1 0,-1 0,-1 0,-1 0,0 0,0 0,0 -1,-1 -1,-1 -1,-1 -1,0 -1,0 -1,0l0 0c-1,-1 -1,-1 -1,0zm-3 2l1 0c0,0 0,-1 0,-1 0,0 0,0 0,0 0,0 0,1 0,1 0,0 0,0 0,0l0 0c0,0 0,0 0,0 0,0 0,0 0,0l-1 0zm-1 1c0,1 0,1 1,1 0,0 0,0 0,-1 0,0 0,0 0,0l1 0c0,0 0,0 0,0 0,0 0,0 0,0 0,0 0,0 0,0l1 0c0,0 0,0 0,0l0 0c0,0 0,0 0,0 0,0 0,0 0,0 0,0 0,0 0,0 0,-1 0,-1 0,-1l0 0c0,0 0,0 0,0 0,0 0,0 0,-1 0,0 0,0 0,0 -1,0 -1,0 -1,0 0,0 0,0 -1,0 0,1 0,1 0,1l0 0c0,0 0,0 0,0l0 1c0,0 0,0 0,0 0,0 0,0 0,0 -1,0 -1,0 -1,0zm2 -3c0,0 0,0 1,0 0,1 0,1 0,2 0,0 0,0 1,1 0,0 0,0 0,0 0,0 0,0 0,0 0,0 0,0 0,-1 0,0 0,0 0,0 0,-1 0,-1 0,-1 0,-1 0,-1 -1,-2 0,0 0,-1 -1,0 0,0 0,0 0,0 0,0 0,0 0,1zm-8 8c0,0 0,0 0,0 0,0 0,0 0,0 0,1 1,1 1,1 1,0 2,0 3,-1 1,0 1,0 2,0 0,0 0,0 0,0 0,-1 0,-1 0,-1 0,0 0,0 -1,0 0,0 0,0 0,0 0,0 0,0 0,0 -1,0 -2,1 -2,1 0,0 0,0 0,0l-1 0c-1,0 -1,0 -1,0 -1,0 -1,0 -1,0zm11 -5c0,1 0,1 0,1 1,0 1,0 1,0 0,0 0,0 0,0 0,0 0,0 0,0l1 0c0,0 1,1 1,1l0 0c1,1 0,0 1,1 0,0 0,0 0,0 0,0 0,0 0,0 1,-1 1,-1 1,-1 0,0 0,-1 0,-1 -1,0 -1,0 -1,0 0,0 -1,0 -1,0 -1,0 -1,0 -1,-1l0 0c-1,0 -1,0 -2,0zm-1 4c0,0 0,0 1,0 0,0 0,0 0,0 0,0 0,0 0,0l-1 0zm2 -1c-1,0 0,0 0,0 0,-1 0,-1 0,-1 0,0 0,0 0,0l0 1c0,0 0,0 0,0 0,0 1,-1 1,-1 0,0 0,1 0,1 0,0 -1,0 -1,0 0,0 0,0 -1,0l1 0zm-2 -1c0,0 1,0 1,0 0,0 0,0 0,0 0,0 0,1 0,1 0,0 0,0 -1,0 0,0 0,1 0,1 0,0 0,1 0,1 1,0 1,-1 1,-1l0 0c0,0 0,0 0,0 1,0 1,0 1,-1 0,0 0,0 0,0 1,0 1,0 1,0 0,-1 0,-1 0,-1 0,0 0,0 -1,0 0,0 0,-1 -1,-1 0,0 0,0 0,0 0,0 0,0 0,0 -1,0 -1,0 -1,0 0,1 0,1 0,1zm-3 0l0 0c0,0 0,0 0,0zm-1 0c0,0 0,0 0,0 1,0 1,0 1,1l1 0c0,0 0,0 0,0 0,0 0,1 0,2 0,0 1,0 1,0 0,0 0,0 0,0l0 0c1,-1 1,-1 1,-1 0,0 0,0 0,0l0 0c0,-1 0,-1 0,-1 0,0 0,0 0,-1l0 0c0,0 0,0 0,0 0,0 0,0 0,0l0 0c0,0 0,0 0,0 0,-1 0,-1 0,-1 0,0 0,0 0,0 0,0 0,0 0,0 0,0 0,0 0,0 0,0 0,-1 0,-1 0,0 0,1 0,1 0,0 0,0 -1,1 0,0 0,0 -1,1 0,0 0,0 0,0 0,0 0,-1 0,-1 0,0 0,0 0,0l1 0c0,0 0,0 0,0l0 -1c0,0 0,0 0,0 0,0 -1,0 -1,0 0,0 0,0 -1,1 0,0 0,0 0,0l0 -1c0,1 0,0 0,0l0 0c-1,0 -1,0 -1,0 0,0 0,0 0,0 0,0 0,0 0,-1 0,0 -1,0 -1,0l-1 -1c0,0 0,0 -1,0l-1 -1c0,0 0,0 0,0 -1,0 0,1 0,1 1,0 1,0 2,1 0,0 0,0 0,0 0,0 1,0 1,1 0,0 0,0 0,0 0,0 0,0 0,0l-1 -1c0,0 0,0 0,0 0,0 0,0 0,0 0,0 -1,0 -1,0l0 -1c0,0 0,0 0,0 -1,0 -1,0 -1,0 0,0 0,0 0,1l0 0c0,0 0,0 1,0 0,0 0,0 0,0 1,0 1,0 1,0 0,1 0,1 0,1 0,0 0,0 1,0 0,0 0,0 0,0 0,0 0,0 0,0 0,0 0,0 0,0 0,0 1,0 1,0 0,0 0,0 0,0 0,0 0,0 0,0 0,1 0,1 1,1 -1,0 0,0 -1,0l0 0c0,0 0,0 0,0 0,0 0,0 0,0 0,0 0,0 0,0 0,0 0,0 0,0l0 0c0,0 0,0 0,0l0 0c0,1 0,1 0,1 0,0 0,0 0,0l1 0c-1,-1 -1,-1 -1,-1l0 0zm0 0l0 0c0,0 0,0 0,0zm1 0c0,0 0,0 0,0 0,0 1,0 1,0 0,0 0,0 0,0 0,0 0,0 0,0 0,1 0,1 0,1 0,0 0,0 0,0 0,0 0,0 0,0l0 0c-1,-1 -1,-1 -1,-1zm-6 12c0,0 0,0 0,0l0 0zm0 0c0,-1 0,0 0,-1 0,1 0,1 0,1 0,0 0,0 0,0zm6 -8c0,1 0,1 0,1l-1 3c-1,0 -1,1 -1,1 0,0 0,0 -1,1 0,0 0,0 0,0l0 0c0,0 0,0 -1,0l0 1c0,0 0,0 0,0 0,0 -1,0 -1,0 0,0 0,0 -1,0 0,0 1,0 1,0 0,0 0,0 0,0l0 0c0,0 0,0 0,0l0 0c0,0 0,0 0,0l0 -1c0,0 0,0 0,0 0,0 0,0 0,0l0 0c0,0 0,0 0,0l0 0c0,-1 0,0 0,-1 0,1 0,1 0,1l0 0c0,0 0,0 0,0l0 0c0,0 0,0 -1,0 0,0 0,0 0,0 0,0 0,0 0,0l0 1c0,0 0,-1 0,0 0,0 0,0 0,0l0 0c0,0 0,0 0,0 0,0 0,0 0,0 0,0 0,0 0,0 0,0 0,0 0,0 0,0 0,0 0,0l0 0c0,0 0,0 0,0l0 1c0,0 0,-1 0,-1 0,0 0,0 0,0 0,0 0,0 0,0 0,0 0,0 0,0l0 -1c0,0 0,0 0,0l0 0c0,0 0,0 0,0l0 -1c0,0 0,0 0,0l0 -1c0,0 0,0 0,0l1 -1c0,0 0,0 0,-1 0,0 0,0 0,0 0,0 0,0 0,0 0,0 0,0 0,0 0,0 0,0 -1,0 1,-1 1,0 2,-1 1,0 1,0 1,0 1,-1 1,-1 1,-1l1 0 -1 0c0,0 0,0 0,0l-1 0c0,0 0,0 -1,0 0,0 0,0 0,1 -1,0 -1,0 -2,0 0,0 0,0 0,0 0,0 0,0 0,1 0,0 0,0 0,-1 0,1 0,0 -1,1 0,0 0,0 -1,0 0,0 0,0 0,0 0,0 -1,0 -1,0l0 0c0,0 0,0 0,-1 0,0 0,0 0,0l0 0c0,0 0,0 0,0 0,0 0,0 0,0 0,0 0,0 1,0 0,0 0,0 0,0 0,0 0,0 0,0 0,-1 0,-1 0,-1l0 0c0,0 0,0 0,0 0,0 0,0 0,0 0,0 -1,0 -1,1 0,0 0,0 0,0l0 0c0,0 0,0 0,0 0,0 0,0 0,0 0,0 0,0 0,0l0 -1c0,0 0,0 0,0 0,0 0,0 0,0 0,0 0,0 0,0 0,0 0,0 0,0 0,0 0,0 0,0 0,0 0,0 0,0 1,0 1,0 1,-1l1 -1c0,0 0,0 0,0 1,0 1,0 1,0l1 0 1 0c0,0 0,0 1,0 0,0 0,0 0,0 0,0 0,0 1,0 0,0 0,0 0,0 -1,-1 -1,0 -1,0 -1,-1 -2,-1 -2,-1l-1 1c0,0 0,0 0,0 0,-1 0,-1 0,-1 -1,0 -1,0 -1,0 0,0 0,0 0,0 0,0 0,0 0,-1 0,0 0,0 0,0l1 0c0,0 0,0 0,0l0 1c0,0 0,0 0,0l1 0c0,0 0,0 0,0 0,0 0,0 0,0 0,0 0,0 0,0 0,0 0,0 0,0 1,0 1,0 1,0 1,0 1,0 1,0 0,0 1,0 1,0 0,0 -1,0 -1,0 -2,-1 -2,-1 -3,-1 0,0 -1,0 -1,0 0,0 0,0 0,0 0,0 0,0 0,0l0 0c0,0 0,0 0,0 0,0 0,0 -1,0 0,0 1,0 0,0 0,0 0,0 0,0l0 0c0,0 0,0 0,0 0,0 0,0 0,0l0 0c0,0 0,0 0,0 0,0 0,0 0,0l0 -1c-1,0 -1,0 -1,0 0,0 0,0 0,0 0,-1 0,-1 0,-1 0,0 0,0 -1,-1l0 0c0,0 0,0 0,0l0 0c0,0 0,0 0,0 0,0 0,0 0,0 0,0 0,0 0,0l0 0c0,0 0,0 0,0 0,0 1,0 1,0 0,0 0,0 0,0l0 0c0,0 1,0 1,1 0,0 0,0 0,0 0,0 1,0 1,0 0,-1 -1,-1 -1,-1 0,0 -1,0 -1,-1 1,0 2,1 3,1l0 0c0,0 0,0 0,-1 0,0 0,0 0,0 -1,0 -1,0 -1,0 -1,0 -1,0 -1,0 -1,0 -1,0 -2,0 0,0 -1,0 -1,0 0,0 0,0 0,0 0,0 -1,0 -1,0 0,0 0,0 0,1 0,0 1,0 1,0 0,0 1,1 1,1l0 1c0,0 0,0 0,0l1 0c0,1 0,1 1,1 0,0 0,1 1,1 0,0 0,0 0,0 0,0 0,0 0,0 0,0 0,0 0,1 0,0 0,0 0,0 -1,0 -1,0 -1,0l0 1c0,0 0,0 -1,0l0 0c0,0 0,0 0,0 0,1 -1,1 -1,1 -1,1 -1,1 0,2 0,0 1,0 1,0l0 0c0,0 1,0 1,0 0,0 0,0 0,0l0 0c1,0 1,0 1,0 0,0 1,0 1,0 0,0 0,0 0,0 0,0 0,0 0,0l1 0c-1,0 -1,1 -1,1 0,1 -1,2 -1,3 0,1 0,2 0,3 0,0 0,0 0,0 0,1 0,1 1,1 0,-1 0,-1 0,-1 0,0 0,-1 1,-1 0,0 1,0 2,-1 0,0 0,0 0,0 0,0 0,1 0,1 0,1 0,2 0,3l0 0c0,1 0,1 0,1 0,0 1,0 1,0 0,-1 1,-1 1,-1l1 -1c0,0 0,-1 1,-1 0,0 0,0 0,0 0,-1 1,-1 1,-1l0 0c0,-1 0,-1 0,-1 0,0 0,0 1,0l0 1c0,0 0,0 0,0 0,0 0,0 0,0 0,1 0,1 1,1 0,0 0,1 0,1 0,0 1,0 1,0l1 1c0,0 0,0 0,0 0,0 0,1 0,1 0,0 0,0 0,1 0,0 1,0 1,-1 0,0 0,0 0,0 0,0 0,0 0,-1 0,0 0,-1 0,-1l0 -2c0,-1 0,-1 0,-1l0 -1c0,0 0,0 0,0 0,0 0,0 0,0 1,0 1,0 1,0 0,0 0,-1 0,-1 1,0 1,0 1,0 0,0 0,0 0,0 0,0 0,0 0,-1l1 1c0,0 1,0 1,0 1,0 1,1 2,1l0 0c1,0 1,0 1,0 0,0 0,0 0,0 0,0 0,0 0,0 0,0 0,0 0,0 0,-1 0,-1 0,-1l0 0c-1,0 -1,0 -1,0 -1,-1 -1,-2 -2,-3 0,0 0,0 0,0 0,0 0,0 0,0 0,0 1,0 1,-1 -1,0 -1,0 -1,-1 0,0 0,0 0,0 0,0 0,0 0,0 0,0 0,0 0,0l1 0c0,0 0,0 0,0 0,0 0,0 0,0l0 0c0,-1 1,-1 1,-1 1,0 1,0 2,0 0,-1 1,-1 1,-1 0,0 -1,0 -1,0l0 0c0,0 0,0 0,0 0,0 0,0 0,0 -1,0 -1,0 -1,0 0,0 0,0 0,0l0 0c-1,-1 -1,-1 -1,-1 -1,0 -1,0 -1,0 0,0 -1,0 -1,0 -1,-1 -2,0 -2,0 0,0 0,0 0,0 1,0 1,0 1,0 0,0 1,0 1,0l0 0c0,0 0,0 0,0l1 0c0,0 0,0 0,0 0,0 1,1 1,1l0 0c0,0 0,0 0,0 0,0 0,0 0,0l0 0c1,0 1,0 1,0 0,0 -1,1 -1,1l0 0c0,0 0,0 0,0 -1,0 -1,0 -1,0 -1,0 0,0 -1,0 0,1 0,1 0,1 0,0 0,0 0,0 0,0 -1,0 -1,-1 -1,0 -1,0 -1,0 -1,0 -1,0 -1,0 0,0 0,0 0,0 1,0 1,1 1,1 1,0 1,0 1,0 0,0 0,0 1,0 -1,0 -1,0 -1,1 0,0 0,0 0,-1l-2 -1c0,0 -1,0 -2,0 0,0 0,0 0,0 0,0 0,0 0,0l0 0c0,0 0,0 0,0l0 0c0,0 0,0 0,0 0,0 0,0 0,0l1 0c0,0 0,0 0,0 0,1 0,1 0,1 1,0 1,0 1,0 0,0 0,0 0,0 0,0 0,0 0,0 0,0 0,0 0,0l2 1c0,0 0,0 0,0 0,1 0,1 0,1 1,1 1,1 1,2 0,0 1,0 1,0 -1,0 -1,0 -2,0 0,0 0,0 -1,0 0,0 0,0 0,0l0 0c0,0 0,0 0,0 0,0 -1,0 -1,1 0,0 0,0 0,0l0 -1c0,0 0,0 0,0 0,0 -1,-1 -1,-1 0,-1 0,-1 -1,-2l0 0c0,0 -1,-1 -1,-1 0,0 0,0 0,0 0,0 0,1 0,1 1,0 1,1 1,1 0,1 1,2 1,2 0,0 0,1 0,1 1,0 1,0 1,0 -1,0 -1,0 -1,0 0,0 0,0 0,1 0,-1 -1,-1 -1,-2 0,0 0,0 0,0 0,-1 0,-1 0,-2 0,0 -1,0 -1,-1 0,0 0,0 0,-1 0,0 0,0 0,0 -1,0 -1,0 -1,0 0,1 0,0 1,2 0,0 0,0 0,1 0,0 0,0 0,0 0,0 0,1 1,2 0,0 0,0 0,1 0,0 0,0 0,1l1 0c0,0 0,0 0,0 0,0 0,0 0,0l0 0c0,0 0,0 0,0 0,1 0,1 0,1l-1 2c0,0 0,0 0,0 0,0 0,0 0,0 0,0 0,0 0,0l0 0c0,0 0,0 -1,0 0,-1 0,0 0,-1l0 0c0,0 0,0 0,0 0,0 0,0 -1,0 0,0 0,0 0,0l0 0c0,0 0,0 0,0l0 -1c0,0 -1,-1 -1,-1 0,0 0,0 0,0 0,-1 0,-1 0,-1 0,-1 0,-1 0,-2 0,-1 0,-2 0,-2 0,-1 0,-1 0,-1 0,0 0,0 0,0 0,0 0,0 0,0l-1 1c0,0 0,3 0,3 0,0 0,1 0,1 0,0 0,0 0,0 0,1 0,0 0,1 0,0 -1,0 -1,0l0 0c0,0 0,0 0,0l0 0c0,0 0,1 0,1l0 0c0,0 0,0 -1,0l0 0c0,0 0,0 0,0l0 0c0,0 0,0 0,0l0 1c0,0 0,0 0,0 0,0 0,0 0,0l0 0c0,0 0,0 -1,0 0,0 0,0 0,0l0 0c0,0 0,0 0,0 0,0 0,0 0,0l-1 1c0,0 0,0 0,-1 0,0 0,0 0,0 0,0 0,0 0,-1 0,0 0,0 0,0 0,0 0,0 0,0 0,0 0,0 0,0l0 -1c0,0 0,0 0,0 0,-1 0,-1 0,-1 1,0 1,-1 1,-1 0,-1 0,-1 1,-1 0,0 0,0 0,-1l0 0c0,0 0,0 0,0 0,0 0,-1 0,-1 0,0 0,-1 0,-1l0 0c1,0 1,0 0,0 0,0 0,0 0,0 0,0 0,0 0,-1zm1 1l0 0c0,0 0,0 0,0zm9 0c0,0 0,0 0,0 0,0 0,0 0,0 0,0 0,0 0,0zm-17 -5l0 0c0,0 0,0 0,0zm12 13l0 0c0,0 0,0 0,0zm46 -14c0,0 0,0 1,0l0 0c-1,0 -1,0 -1,0zm11 -9c2,-2 4,-5 6,-7 0,0 -1,0 -1,0 -2,2 -3,4 -5,6 0,0 0,0 0,1 0,0 0,0 0,0zm8 -10c3,-4 5,-9 7,-14 0,0 0,0 0,0 0,0 0,0 0,0 -1,1 -1,1 -1,1 0,0 0,0 0,0 0,1 0,1 0,1 -1,0 -1,0 -1,0 0,0 0,0 0,0l-1 0c-1,4 -2,7 -4,10 0,1 0,2 0,2 0,0 0,0 0,0 0,0 0,0 0,0zm9 -20c0,0 0,-1 0,-1 0,0 0,1 -1,1 0,0 0,0 0,0 0,0 0,0 0,0l1 0zm0 -3c1,-5 2,-10 1,-15l0 0c0,0 0,0 0,1 0,0 -1,0 -1,1 -1,0 -1,0 -1,0 0,3 0,7 0,11 0,0 0,0 1,0 0,0 0,1 0,1 0,1 0,1 0,1zm-4 -35c-2,-5 -5,-9 -8,-13 0,0 0,0 0,0 0,0 0,0 0,0l-1 1c0,0 0,0 0,0 0,0 0,0 0,0 0,0 0,0 0,0 0,0 0,0 0,0 0,0 0,0 0,0 0,0 0,1 0,1 0,0 0,0 0,0 0,0 0,0 0,0 0,0 0,0 0,0 0,0 0,0 0,0l0 0c0,0 0,0 0,0 0,0 -1,0 -1,0 0,0 0,0 0,0 0,0 0,0 0,0l0 0c3,3 5,7 7,10 1,0 2,0 3,1 0,0 0,0 0,0l0 0zm-16 -20c-5,-4 -10,-6 -16,-8l-1 2c2,1 4,1 6,2 3,2 6,5 9,7l0 0c0,0 0,0 0,0 0,0 0,0 0,0 0,0 0,0 0,0 0,0 0,0 0,-1 0,0 0,0 0,0 0,0 0,0 0,0 0,0 0,0 0,0l0 0 0 0 0 0 0 0c0,0 0,0 0,0l0 -1c0,0 0,0 0,0 0,0 0,0 0,0 0,0 0,0 0,0 0,0 1,0 1,0 0,0 0,0 0,0 0,0 0,0 0,0 0,0 0,-1 0,-1 0,0 0,0 0,0 0,0 0,0 0,0 0,0 0,0 0,0l0 0c0,0 0,0 0,0 0,0 0,0 1,0 0,0 0,0 0,0zm-72 94c1,1 2,2 2,3 0,-1 0,-1 0,-1l-1 -1c0,0 0,0 0,0 0,0 -1,0 -1,0l0 -1c0,0 0,0 0,0 0,0 0,0 0,0zm26 12c4,1 7,1 11,1l0 0c0,0 0,0 0,0 0,0 0,0 0,0 0,-1 0,-1 0,-1 0,0 0,0 0,0 0,0 0,0 0,0 0,0 0,0 0,0 0,0 0,0 0,0 0,0 0,0 0,0 0,0 0,0 0,0l-1 0c-3,0 -7,-1 -11,-1 0,0 0,0 0,0 1,1 1,1 1,1zm26 -2c3,-2 6,-3 9,-5 -3,2 -6,3 -11,4 1,0 1,0 1,1 0,0 0,0 0,0 0,0 0,0 0,0 0,0 0,-1 0,-1 0,0 0,0 0,0 0,0 0,0 0,0 0,0 1,0 1,0 0,0 0,0 0,0 0,0 0,0 0,0l0 1zm-4 0l0 0c0,0 0,0 0,0 0,0 0,0 0,0 0,0 0,0 0,0 0,0 0,0 0,0l0 0zm-46 -11l0 0 0 0 0 0 1 0c0,0 0,0 0,0 0,0 -1,0 -1,0l0 0 0 0 0 0c-1,0 -1,0 -1,0 0,0 1,0 1,0l0 0zm78 -21c1,-2 2,-4 3,-7 0,0 0,0 -1,0 -1,2 -1,5 -2,7l0 0zm3 -52c-1,-2 -1,-4 -2,-6 -1,-2 -2,-3 -3,-5 0,0 0,0 0,0 0,0 0,0 0,0 0,1 0,1 0,1l0 0c0,0 0,0 -1,0 0,0 0,0 0,0 0,0 0,0 0,0 0,0 0,0 0,0l0 0c-1,0 -1,0 -1,0 3,3 6,7 7,10l0 0zm-12 -16l0 0c0,0 0,0 1,0 0,0 0,0 0,0l0 0c0,0 -1,0 -1,0 0,0 0,0 0,0l0 0zm-8 -9c-2,-1 -5,-2 -7,-3l0 0c2,1 5,2 7,3zm-38 108c4,1 7,1 11,0 0,0 0,0 0,0 0,0 0,0 0,0 0,0 0,0 0,0 0,0 0,-1 0,-1 0,0 0,0 0,0 0,0 0,0 0,0 0,0 0,0 0,0 0,0 0,0 0,0 0,0 0,0 0,-1 0,0 0,0 0,0 0,0 0,0 0,0 0,0 -1,0 -1,0 -2,0 -5,0 -8,0 0,0 0,0 0,1 -1,0 -1,0 -1,0 -1,0 -1,0 -1,0 0,0 0,0 0,0 0,1 0,1 0,1 0,0 0,0 0,0zm44 -16c0,0 0,0 1,-1 0,0 0,0 0,0 0,0 0,0 0,0 0,-1 0,0 0,-1 0,0 0,0 0,-1 -1,1 -2,2 -3,3 0,0 1,0 1,0 0,0 1,0 1,0zm2 -4l0 1c0,0 0,0 0,0 0,-1 0,-1 0,-1zm-31 17c0,0 0,0 0,0l0 0c0,1 0,1 0,1l0 0c0,0 0,0 0,0 0,0 0,0 0,1 0,0 0,0 0,0 0,0 0,0 0,0 0,0 0,0 0,0l0 0 0 0c0,0 0,0 0,0 0,0 0,-1 0,-1 0,0 0,0 0,0 0,0 0,0 0,0 0,0 0,0 0,0 0,0 0,0 0,0l0 0c0,0 0,-1 0,-1 0,0 0,0 0,0zm54 -62c7,-1 25,-3 27,-8 3,-6 -1,-3 -3,-3 -8,3 -12,4 -17,5 0,1 0,1 0,2 0,1 0,1 -1,1 -1,1 -1,1 -2,1 0,0 0,0 0,0 -1,0 -1,1 -2,1l-1 0c0,0 0,0 0,0 0,0 -1,0 -1,0 0,0 0,1 0,1z"/>
 </g>
</svg>
