<?xml version="1.0" encoding="UTF-8"?>
<!DOCTYPE svg PUBLIC "-//W3C//DTD SVG 1.1//EN" "http://www.w3.org/Graphics/SVG/1.1/DTD/svg11.dtd">
<!-- Creator: CorelDRAW X7 -->
<svg xmlns="http://www.w3.org/2000/svg" xml:space="preserve" width="63.4661mm" height="19.719mm" version="1.1" style="shape-rendering:geometricPrecision; text-rendering:geometricPrecision; image-rendering:optimizeQuality; fill-rule:evenodd; clip-rule:evenodd"
viewBox="0 0 647 201"
 xmlns:xlink="http://www.w3.org/1999/xlink">
 <defs>
  <style type="text/css">
   <![CDATA[
    .fil0 {fill:#FFFFE7}
   ]]>
  </style>
 </defs>
 <g id="Capa_x0020_1">
  <metadata id="CorelCorpID_0Corel-Layer"/>
  <path class="fil0" d="M0 35l8 0 0 34 42 -1 0 -34 8 0 0 82 -8 0 0 -40 -42 1 0 40 -8 0 0 -82zm70 -1l8 -1 0 50c0,6 1,10 1,11 0,3 1,6 3,8 1,2 3,4 6,5 4,2 7,3 10,3 3,-1 5,-1 8,-2 2,-2 4,-3 6,-5 2,-2 3,-5 4,-8 0,-2 0,-6 0,-13l0 -49 9 0 0 49c0,8 -1,13 -2,18 -2,5 -5,9 -9,12 -4,3 -10,5 -16,5 -6,0 -12,-1 -17,-4 -5,-3 -8,-7 -9,-13 -1,-3 -2,-8 -2,-17l0 -49zm66 -2l48 0 0 8 -39 0 0 26 38 -1 0 8 -38 1 0 32 38 0 0 8 -47 1 0 -83zm53 -1l9 0 0 74 31 0 0 8 -40 1 0 -83zm45 0l8 0 0 74 32 -1 -4 8 -36 1 0 -82zm78 -2l38 82 -9 0 -13 -27 -35 1 -13 27 -9 0 39 -83 2 0zm-1 18l-14 30 28 -1 -14 -29zm74 -19l8 0 0 82 -8 0 0 -82zm19 0l16 -1c6,0 11,1 15,2 3,2 6,4 8,7 2,3 3,7 3,11 0,4 -1,7 -2,10 -2,3 -5,5 -8,7 4,2 7,3 10,5 2,2 4,5 5,7 1,3 2,6 2,9 0,7 -3,13 -7,17 -5,5 -12,7 -20,7l-22 1 0 -82zm8 7l0 27 4 0c6,0 10,-1 13,-2 3,-1 5,-3 6,-5 2,-3 3,-5 3,-8 0,-4 -2,-7 -4,-9 -3,-2 -7,-3 -13,-3l-9 0zm0 35l0 32 10 -1c6,0 10,0 13,-2 3,-1 5,-3 7,-5 2,-3 2,-5 2,-8 0,-4 -1,-7 -3,-10 -3,-3 -6,-4 -10,-5 -3,-1 -8,-1 -15,-1l-4 0zm49 -43l47 -1 0 8 -39 0 0 26 39 0 0 8 -39 0 0 33 39 -1 0 8 -47 1 0 -82zm53 -1l17 -1c9,0 15,0 18,1 5,1 9,3 12,7 3,4 5,8 5,14 0,4 -1,8 -4,11 -2,4 -5,6 -9,8 -4,2 -9,3 -16,3l30 38 -10 0 -30 -38 -5 0 0 39 -8 0 0 -82zm8 7l0 28 15 0c5,0 9,0 12,-2 2,-1 4,-2 6,-5 1,-2 2,-5 2,-7 0,-3 -1,-6 -2,-8 -2,-2 -4,-4 -6,-5 -2,0 -6,-1 -12,-1l-15 0zm86 -9l39 81 -9 1 -13 -27 -36 0 -12 28 -10 0 39 -83 2 0zm-1 17l-14 30 28 0 -14 -30zm4 -41l12 0 -17 17 -7 1 12 -18z"/>
  <path class="fil0" d="M56 184c0,-1 1,-3 2,-5 1,-1 2,-3 3,-5 2,-1 3,-3 5,-4 2,-1 5,-2 8,-2 3,0 5,0 6,2 2,1 3,2 3,4 0,2 0,3 -1,5 0,2 -1,4 -1,5 -1,1 -2,2 -3,4 -1,2 -3,3 -4,5 -2,1 -4,3 -6,4 -3,1 -5,2 -7,2 -3,0 -4,-1 -5,-2 -1,-1 -2,-2 -2,-4 0,-2 0,-3 0,-5 1,-2 1,-3 2,-4zm344 -21c1,0 1,0 2,1 2,0 2,0 2,0 1,0 1,1 1,1 -1,0 -1,1 -2,1 0,0 -1,0 -2,0 0,0 -1,0 -1,0 -1,-1 -1,-1 -2,-1 -1,0 -3,0 -4,1 -2,0 -3,1 -5,1 -1,1 -2,2 -3,2 -1,1 -2,2 -2,2 -1,1 0,1 1,2 1,0 2,0 4,1 2,0 4,0 6,1 2,0 3,0 5,1 2,0 3,1 4,2 1,0 1,1 0,2 -1,1 -2,2 -4,3 -1,1 -3,2 -5,2 -3,1 -5,2 -7,2 -3,0 -5,1 -7,1 -3,0 -5,-1 -6,-1 -2,-1 -3,-1 -3,-2 -1,0 -1,-1 0,-2 0,-1 0,-2 1,-3 1,-1 2,-1 3,-1 2,0 2,0 2,1 0,0 0,1 -1,2 0,1 0,2 0,2 0,1 2,1 4,1 2,0 4,0 6,0 1,0 3,-1 5,-1 1,0 3,-1 4,-2 1,0 2,-1 3,-2 0,-1 0,-1 -1,-2 -1,0 -2,-1 -4,-1 -2,0 -4,-1 -6,-1 -2,0 -4,-1 -5,-1 -2,0 -3,-1 -4,-2 -1,0 -1,-1 0,-2 0,-1 1,-2 3,-3 1,-1 3,-2 5,-3 2,0 4,-1 7,-1 2,-1 4,-1 6,-1zm-50 10c0,-1 1,-2 2,-4 1,-1 2,-2 3,-4 2,-1 3,-2 5,-3 2,-1 5,-1 8,-1 3,0 5,1 6,2 2,1 2,2 3,4 0,1 0,3 -1,4 0,2 -1,3 -1,4 -1,1 -2,2 -3,3 -1,1 -3,3 -4,4 -2,1 -4,2 -6,3 -3,1 -5,1 -7,1 -3,0 -5,0 -6,-2 -1,-1 -1,-2 -1,-3 0,-2 0,-3 0,-5 1,-1 1,-2 2,-3zm20 1c1,-1 1,-1 1,-3 1,-1 1,-2 1,-3 0,-1 -1,-2 -2,-3 -1,-1 -2,-1 -4,-1 -2,0 -3,0 -4,1 -1,0 -2,1 -3,2 -1,1 -2,2 -3,3 0,1 -1,2 -1,2 0,1 -1,1 -1,3 -1,1 -1,2 -1,3 0,2 0,3 0,4 0,1 1,1 3,1 2,0 4,0 5,-1 2,-1 3,-1 4,-2 2,-1 3,-2 3,-3 1,-1 2,-2 2,-3zm-41 14c0,0 -1,0 -1,0 0,0 0,-1 0,-1 0,-1 0,-1 0,-2 1,0 1,0 1,-1 0,0 1,-1 1,-1 2,-3 3,-6 4,-10 2,-3 2,-7 2,-10 0,0 0,0 0,0 -1,-1 -1,-1 0,-1 0,-1 1,-1 3,-1 0,0 1,0 1,1 1,1 1,2 1,3 0,1 0,2 -1,3 0,1 0,2 0,2 1,-1 2,-2 3,-3 1,-1 3,-2 4,-3 2,-1 4,-2 6,-3 2,-1 4,-1 6,-1 0,0 1,0 1,1 1,0 1,0 1,1 -1,0 -1,0 -1,0 -1,0 -1,0 -2,1 -2,0 -4,1 -6,2 -2,1 -4,2 -5,3 -2,2 -4,3 -5,5 -2,2 -3,3 -4,5 -1,2 -2,3 -3,5 -1,1 -2,3 -2,4 -1,0 -1,1 -1,1 -1,0 -2,0 -3,0zm-21 -14c-1,0 -1,0 -1,0 0,-1 0,-1 0,-1 0,-1 1,-1 1,-1 3,-5 4,-8 10,-11 2,-1 4,-1 6,-1 1,0 3,1 4,1 1,1 2,1 2,2 1,1 1,2 1,3 0,1 0,2 -1,2 0,1 -1,2 -2,3 -1,1 -2,2 -3,2 -2,1 -3,2 -5,2 -1,1 -3,1 -5,1 -1,0 -2,0 -3,-1 0,1 0,2 0,3 0,1 0,2 0,3 0,1 1,1 1,2 1,1 2,1 3,1 2,0 3,0 4,-1 1,0 2,-1 3,-1 1,-1 2,-1 3,-2 1,0 2,0 2,0 2,0 3,0 2,1 0,0 -1,1 -2,2 -1,0 -3,1 -4,2 -1,0 -3,1 -5,1 -1,1 -3,1 -4,1 -3,0 -5,-1 -6,-2 -1,-1 -2,-2 -2,-3 0,-2 0,-3 0,-5 0,-1 0,-3 0,-4 0,0 1,1 1,1zm-14 14c0,1 7,-4 6,0 -1,3 -6,5 -8,5 -15,0 17,-40 33,-53 2,-2 2,-1 4,-1 0,0 0,0 0,1 -6,6 -10,10 -16,16 -8,9 -17,21 -19,32zm28 -25c-1,0 -2,1 -3,1 -1,1 -1,2 -2,2 -1,1 -1,2 -2,3 0,1 -1,1 -1,2 0,0 -1,1 0,2 0,0 1,0 2,0 2,1 3,0 4,0 1,0 1,-1 2,-1 1,-1 1,-2 2,-2 0,-1 1,-1 1,-2 0,0 0,-1 1,-1 0,-1 0,-1 0,-2 -1,-1 -1,-1 -1,-1 -1,-1 -2,-1 -3,-1zm-39 -6c1,0 2,1 3,1 1,0 1,0 2,1 0,0 0,0 0,0 0,1 -1,1 -1,1 -1,1 -2,1 -2,1 -1,0 -1,0 -2,-1 -1,0 -1,0 -2,0 -1,0 -3,0 -4,1 -2,0 -3,1 -5,2 -1,1 -2,2 -3,3 -1,1 -2,1 -2,2 0,1 0,1 1,2 1,0 2,1 4,1 2,0 4,0 6,1 2,0 4,0 5,1 2,0 3,1 4,2 1,1 1,2 0,3 -1,1 -2,2 -3,4 -2,1 -4,2 -6,3 -2,0 -5,1 -7,2 -3,0 -5,0 -7,0 -3,1 -5,0 -6,0 -1,-1 -2,-1 -3,-2 -1,1 -3,1 -4,1 -3,1 -6,1 -9,1 -3,1 -5,0 -6,-1 -2,0 -3,-1 -4,-2 -1,-2 -1,-3 -1,-5 0,-1 0,-3 1,-4 0,-2 1,-3 2,-5 0,-1 1,-3 2,-4 -1,0 -1,0 -1,0 -1,-1 -1,-1 0,-1 0,-1 1,-1 2,-1 2,-3 3,-6 5,-8 1,-3 3,-6 4,-8 -1,0 -2,0 -2,-1 -1,0 -1,0 -1,-1 1,0 1,0 2,-1 0,0 1,0 1,0 1,0 3,0 5,0 3,-1 6,-1 9,-1 3,0 6,0 8,0 3,0 5,0 6,0 1,0 1,0 2,1 0,0 0,0 0,1 0,0 -2,0 -4,1 -2,0 -4,0 -7,0 -3,0 -5,1 -8,1 -3,0 -4,0 -5,0 0,0 -1,0 -2,2 -1,1 -2,3 -3,5 -1,2 -2,3 -3,5 -1,2 -2,3 -2,3 3,0 5,0 8,-1 3,0 6,0 8,0 1,0 2,0 2,0 1,1 1,1 0,1 0,1 -1,1 -3,1 -2,1 -4,1 -6,1 -2,1 -5,1 -7,1 -2,0 -3,0 -3,0 -1,1 -1,2 -2,3 0,1 -1,3 -2,4 0,1 0,3 -1,4 0,1 0,3 0,4 1,1 1,2 2,3 1,0 3,1 5,1 1,0 3,0 5,-1 2,0 3,-1 5,-1 1,0 1,0 2,-1 0,0 0,0 0,0 0,-1 1,-2 1,-3 1,-1 2,-2 4,-2 1,0 1,0 1,1 0,1 0,2 -1,3 0,0 0,0 0,1 0,0 0,0 1,0 0,0 0,0 0,1 0,0 -1,0 -1,0 0,0 0,1 0,1 1,1 2,1 4,1 2,0 4,0 6,-1 2,0 3,0 5,-1 2,-1 3,-2 4,-2 2,-1 2,-2 3,-3 0,-1 0,-2 -1,-2 -1,-1 -2,-1 -4,-1 -1,-1 -3,-1 -5,-1 -3,-1 -4,-1 -6,-1 -2,-1 -3,-2 -4,-2 -1,-1 -1,-2 0,-4 1,-1 2,-2 3,-3 2,-1 3,-2 5,-3 2,-1 5,-2 7,-3 2,0 4,-1 6,-1zm-99 21c0,0 0,0 0,0 0,0 -1,-1 -1,-1 1,0 1,-1 2,-1 0,-1 1,-2 2,-4 1,-1 2,-3 3,-4 1,-2 3,-3 4,-4 2,-1 4,-2 6,-2 2,0 3,1 4,1 1,1 2,2 3,3 0,1 0,2 0,3 0,1 0,2 0,2 -1,1 -1,2 -2,3 -1,1 -2,2 -4,3 -1,1 -3,2 -4,2 -2,1 -4,1 -5,1 -2,0 -3,0 -4,0 0,1 0,1 0,2 0,2 0,3 1,4 0,1 0,2 1,2 1,1 2,2 3,2 1,0 2,-1 3,-1 1,-1 2,-2 3,-2 1,-1 2,-2 3,-2 1,-1 2,-1 3,-1 2,0 2,0 2,1 -1,1 -1,2 -3,3 -1,0 -2,1 -4,2 -1,0 -3,1 -4,2 -2,0 -3,0 -4,0 -3,0 -5,0 -6,-1 -2,-1 -2,-3 -3,-4 0,-2 0,-3 0,-5 1,-2 1,-3 1,-4 0,0 0,0 0,0zm14 -12c-1,0 -2,0 -2,1 -1,1 -2,2 -3,3 0,1 -1,2 -2,2 0,1 0,2 -1,3 0,0 0,1 0,2 0,0 1,1 3,1 1,0 2,-1 3,-1 1,-1 2,-1 3,-2 0,0 1,-1 1,-2 1,0 1,-1 1,-1 1,-1 1,-2 1,-2 0,-1 0,-2 0,-2 0,-1 -1,-1 -1,-2 -1,0 -1,0 -3,0zm-23 -3c1,0 2,0 3,1 0,0 1,0 2,1 0,-1 1,-2 1,-4 1,-1 3,-3 4,-5 1,-2 2,-3 4,-5 2,-1 3,-2 5,-2 1,0 2,1 2,1 0,1 0,1 0,2 0,1 0,1 0,2 0,1 0,1 -1,2 0,1 -1,3 -2,4 -1,2 -3,4 -4,6 -1,1 -3,3 -4,5 -2,2 -3,3 -5,5 0,1 0,2 0,4 0,2 0,4 -1,6 0,2 0,4 0,6 0,1 -1,3 -1,3 0,1 0,1 -1,2 -1,0 -1,0 -2,0 -1,0 -1,0 -2,-1 0,0 0,-1 0,-2 0,-1 0,-2 0,-4 0,-1 0,-2 0,-3 0,-1 1,-2 1,-3 0,-1 0,-2 0,-2 -1,1 -2,2 -3,3 -2,1 -3,2 -4,2 -2,1 -3,2 -5,3 -2,0 -3,1 -5,1 -2,0 -3,-1 -4,-2 -1,-1 -1,-2 -1,-3 0,-2 1,-3 1,-5 1,-1 2,-2 2,-3 1,-1 1,-3 2,-4 1,-2 2,-4 3,-5 2,-2 3,-3 5,-5 2,-1 5,-1 8,-1 1,0 2,0 2,0 0,0 0,0 0,0zm-16 25c1,0 2,-1 4,-2 2,-1 3,-2 5,-4 2,-1 3,-2 5,-3 1,-2 2,-3 2,-3 1,-1 1,-2 1,-3 0,-1 1,-2 1,-3 0,0 0,0 1,-1 -1,0 -1,-1 -2,-2 -1,-1 -3,-1 -4,-1 -2,0 -3,0 -5,1 -1,1 -2,2 -3,4 -1,1 -2,2 -3,3 0,2 -1,3 -1,3 0,1 0,1 -1,3 0,1 -1,2 -1,3 -1,1 -1,2 -1,3 0,1 1,2 2,2zm17 -12c0,0 0,0 -1,0 1,0 1,0 1,0zm8 -11c0,1 0,1 0,2 -1,0 -1,1 -1,1 0,0 0,0 0,-1 1,0 1,-1 1,-2zm0 0c2,-1 3,-3 4,-4 0,-2 1,-3 2,-5 0,0 0,0 1,-1 0,0 0,0 0,-1 -1,2 -2,3 -3,5 -1,1 -2,3 -3,4 0,1 0,2 -1,2zm-5 14c0,0 0,0 1,0 -1,0 -1,0 -1,0zm-34 -27c-1,2 -2,5 -3,7 -2,2 -3,5 -4,7 -2,5 -4,9 -6,14 -2,4 -4,9 -5,13 -1,1 -2,1 -3,2 -1,0 -1,-1 -1,-2 0,-1 0,-2 0,-4 1,-1 1,-3 2,-5 1,-2 2,-4 3,-6 1,-2 2,-4 2,-6 1,-2 2,-3 2,-5 2,-2 3,-5 4,-7 0,-1 1,-1 1,-2 1,-1 1,-2 2,-3 0,-2 1,-2 2,-3 1,-1 1,-2 2,-2 0,0 1,0 1,0 0,0 1,1 1,1 0,0 0,0 0,1zm-44 28c-1,0 -1,0 -1,0 0,0 0,-1 0,-1 0,0 1,-1 1,-1 1,-1 1,-2 2,-4 3,-4 3,-8 14,-10 1,0 3,0 4,1 1,0 1,1 2,2 0,1 1,2 1,3 0,1 0,2 -1,3 0,1 -1,2 -2,3 -1,1 -2,2 -3,3 -2,1 -3,2 -5,2 -1,1 -3,1 -5,1 -1,0 -2,0 -3,0 0,1 0,1 0,3 0,1 0,2 0,3 0,1 1,2 1,3 1,0 2,1 3,1 2,0 3,-1 4,-1 1,-1 2,-2 3,-2 1,-1 2,-2 3,-2 1,-1 1,-1 2,-1 2,0 3,0 2,1 0,1 -1,2 -2,2 -1,1 -3,2 -4,3 -2,1 -3,1 -5,2 -1,0 -3,1 -4,1 -3,0 -5,-1 -6,-2 -1,-1 -2,-2 -2,-4 0,-2 -1,-3 0,-5 0,-2 0,-3 0,-4 0,0 0,0 1,0zm-12 10c-1,1 -1,3 -1,5 0,1 3,-1 3,0 1,3 -4,6 -5,6 -1,0 -1,0 -1,0 -3,-2 -2,-10 -1,-12 4,-10 20,-35 28,-42 2,-2 6,-4 4,-2 0,2 -2,4 -4,8 -7,7 -21,28 -23,37zm26 -23c-1,1 -2,1 -3,2 -1,1 -2,2 -2,2 -1,1 -2,2 -2,3 -1,1 -1,2 -1,3 -1,0 -1,1 0,2 0,0 1,1 2,1 1,0 3,-1 3,-1 1,-1 2,-1 3,-2 1,-1 1,-1 2,-2 0,-1 1,-1 1,-2 0,0 0,-1 0,-2 1,0 1,-1 0,-2 0,0 0,-1 -1,-1 0,-1 -1,-1 -2,-1zm-39 16c1,0 1,-2 2,-3 0,-1 0,-3 0,-4 0,-1 -1,-3 -2,-4 0,0 -2,-1 -4,-1 -1,0 -3,1 -4,2 -1,1 -2,2 -3,3 -1,1 -2,2 -2,4 -1,1 -1,2 -2,2 0,1 0,2 -1,3 -1,2 -1,3 -1,5 0,1 0,3 0,4 1,1 2,2 3,1 2,0 4,0 5,-1 2,-1 3,-2 5,-4 1,-1 2,-2 3,-3 0,-2 1,-3 1,-4z"/>
 </g>
</svg>
