<?xml version="1.0" encoding="UTF-8"?>
<!DOCTYPE svg PUBLIC "-//W3C//DTD SVG 1.1//EN" "http://www.w3.org/Graphics/SVG/1.1/DTD/svg11.dtd">
<!-- Creator: CorelDRAW X7 -->
<svg xmlns="http://www.w3.org/2000/svg" xml:space="preserve" width="7.7532mm" height="13.7523mm" version="1.1" style="shape-rendering:geometricPrecision; text-rendering:geometricPrecision; image-rendering:optimizeQuality; fill-rule:evenodd; clip-rule:evenodd"
viewBox="0 0 26 46"
 xmlns:xlink="http://www.w3.org/1999/xlink">
 <defs>
  <style type="text/css">
   <![CDATA[
    .fil0 {fill:#FFFFE7}
   ]]>
  </style>
 </defs>
 <g id="Capa_x0020_1">
  <metadata id="CorelCorpID_0Corel-Layer"/>
  <path class="fil0" d="M0 15l6 0 0 -3c0,-3 0,-5 1,-7 0,-1 2,-3 3,-4 2,-1 5,-1 7,-1 3,0 6,0 9,1l-2 7c-1,0 -3,0 -4,0 -2,0 -3,0 -3,1 -1,0 -1,2 -1,4l0 2 7 0 0 8 -7 0 0 22c-4,1 -7,1 -10,0l0 -22 -6 0 0 -8z"/>
 </g>
</svg>
