<?xml version="1.0" encoding="UTF-8"?>
<!DOCTYPE svg PUBLIC "-//W3C//DTD SVG 1.1//EN" "http://www.w3.org/Graphics/SVG/1.1/DTD/svg11.dtd">
<!-- Creator: CorelDRAW X7 -->
<svg xmlns="http://www.w3.org/2000/svg" xml:space="preserve" width="12.4508mm" height="12.4508mm" version="1.1" style="shape-rendering:geometricPrecision; text-rendering:geometricPrecision; image-rendering:optimizeQuality; fill-rule:evenodd; clip-rule:evenodd"
viewBox="0 0 140 140"
 xmlns:xlink="http://www.w3.org/1999/xlink">
 <defs>
  <style type="text/css">
   <![CDATA[
    .fil0 {fill:#FFFFE7}
   ]]>
  </style>
 </defs>
 <g id="Capa_x0020_1">
  <metadata id="CorelCorpID_0Corel-Layer"/>
  <path class="fil0" d="M26 0l88 0c14,0 26,12 26,26l0 88c0,14 -12,26 -26,26l-88 0c-14,0 -26,-12 -26,-26l0 -88c0,-14 12,-26 26,-26zm79 21l0 0c6,0 11,4 11,10l0 0c0,5 -5,10 -11,10l0 0c-5,0 -10,-5 -10,-10l0 0c0,-6 5,-10 10,-10zm-35 15l0 0c18,0 34,15 34,34l0 0c0,18 -16,34 -34,34l0 0c-19,0 -34,-16 -34,-34l0 0c0,-19 15,-34 34,-34zm0 10l0 0c13,0 23,11 23,24l0 0c0,13 -10,23 -23,23l0 0c-13,0 -24,-10 -24,-23l0 0c0,-13 11,-24 24,-24zm-38 -36l76 0c12,0 21,10 21,22l0 76c0,12 -9,21 -21,21l-76 0c-12,0 -22,-9 -22,-21l0 -76c0,-12 10,-22 22,-22z"/>
 </g>
</svg>
