<?xml version="1.0" encoding="UTF-8"?>
<!DOCTYPE svg PUBLIC "-//W3C//DTD SVG 1.1//EN" "http://www.w3.org/Graphics/SVG/1.1/DTD/svg11.dtd">
<!-- Creator: CorelDRAW X7 -->
<svg xmlns="http://www.w3.org/2000/svg" xml:space="preserve" width="52.0035mm" height="10.224mm" version="1.1" style="shape-rendering:geometricPrecision; text-rendering:geometricPrecision; image-rendering:optimizeQuality; fill-rule:evenodd; clip-rule:evenodd"
viewBox="0 0 428 84"
 xmlns:xlink="http://www.w3.org/1999/xlink">
 <defs>
  <style type="text/css">
   <![CDATA[
    .fil0 {fill:#622522}
   ]]>
  </style>
 </defs>
 <g id="Capa_x0020_1">
  <metadata id="CorelCorpID_0Corel-Layer"/>
  <path class="fil0" d="M81 2c-8,21 -16,47 -21,68 0,3 -1,5 -1,8l0 0c0,1 0,3 1,3 0,0 1,-1 2,-1 1,-1 1,-3 2,-4 0,0 0,-1 -1,-1l-1 0 0 -1c5,-21 14,-50 22,-71l0 0 0 0c0,0 0,-1 -1,-1 -1,0 -2,0 -2,0z"/>
  <path class="fil0" d="M428 64c0,0 -1,-3 -2,-3l-1 1 0 -1c-16,-10 -62,-12 -82,-13 -22,0 -44,0 -66,0 -24,0 -48,1 -72,2 -49,2 -94,3 -152,9l-2 0 1 -1c4,-13 11,-35 13,-48 0,-1 0,-1 -1,-1 -1,0 -1,0 -1,1l0 0 0 0c-2,12 -11,36 -15,49l0 0 -9 1 0 -1c-12,-16 -30,-7 -36,-2 -15,13 27,6 35,6l0 1c2,3 4,5 5,8 -8,14 9,18 4,1l0 -1 0 0c1,-4 2,-4 3,-9l0 0 1 0c63,-7 141,-10 206,-12 36,-1 141,-7 167,13 0,0 0,0 1,0l0 0 0 1c1,0 1,0 2,0 0,0 1,0 1,-1zm-384 11c1,4 0,5 -1,4 0,-2 1,-4 1,-4zm-10 -15c-17,1 -22,1 -25,1 -10,0 15,-15 26,-2l1 1 -2 0zm12 3l-1 6c-2,-4 -2,-4 -3,-6l4 0z"/>
  <path class="fil0" d="M82 37c0,-1 1,-2 1,-4 1,-1 2,-2 3,-4 1,-1 2,-2 4,-3 2,-1 4,-2 6,-2 2,0 4,0 5,1 1,1 2,2 2,4 0,1 0,3 0,4 0,2 -1,3 -1,4 -1,1 -2,2 -3,3 0,2 -2,3 -3,4 -2,2 -3,3 -5,4 -2,1 -4,1 -6,1 -2,0 -3,0 -4,-1 -1,-1 -1,-2 -1,-4 0,-1 0,-2 0,-4 1,-1 1,-2 2,-3zm278 -17c0,0 1,0 1,1 1,0 2,0 2,0 0,0 0,1 0,1 0,0 0,0 -1,0 0,0 -1,0 -1,0 -1,0 -1,0 -2,0 0,0 -1,0 -1,0 -1,0 -2,0 -4,0 -1,1 -2,1 -3,2 -1,0 -2,1 -3,1 -1,1 -1,1 -2,2 0,0 0,1 1,1 1,0 2,1 4,1 1,0 2,0 4,1 2,0 3,0 5,1 1,0 2,0 2,1 1,0 1,1 1,2 -1,1 -2,2 -3,2 -2,1 -3,2 -5,2 -2,1 -4,1 -5,2 -2,0 -4,0 -6,0 -2,0 -4,0 -5,-1 -1,0 -2,0 -2,-1 -1,0 -1,-1 0,-2 0,-1 0,-1 1,-2 0,-1 1,-1 2,-1 1,0 2,0 2,1 0,0 -1,1 -1,1 0,1 0,2 0,2 0,1 1,1 3,1 2,0 3,0 5,0 1,0 3,-1 4,-1 1,0 2,-1 3,-1 1,-1 2,-1 3,-2 0,-1 0,-1 -1,-2 -1,0 -2,0 -3,-1 -2,0 -3,0 -5,0 -2,-1 -3,-1 -4,-1 -2,-1 -3,-1 -3,-2 -1,0 -1,-1 -1,-2 1,0 2,-1 3,-2 1,-1 3,-1 4,-2 2,-1 4,-1 5,-1 2,-1 4,-1 6,-1zm-41 8c0,-1 1,-2 2,-3 0,-1 1,-2 2,-3 1,-1 3,-2 4,-3 2,0 4,0 6,0 3,0 5,0 6,1 1,1 1,2 2,3 0,1 0,3 -1,4 0,1 0,2 -1,3 0,0 -1,1 -2,2 -1,1 -2,2 -4,3 -1,1 -3,2 -5,3 -1,0 -3,1 -5,1 -2,0 -4,-1 -4,-2 -1,0 -2,-1 -2,-2 0,-2 0,-3 1,-4 0,-1 1,-2 1,-3zm16 1c1,0 1,-1 1,-2 1,-1 1,-2 1,-3 0,-1 -1,-1 -2,-2 0,-1 -1,-1 -3,-1 -1,0 -2,0 -3,0 -1,1 -2,2 -3,2 -1,1 -1,2 -2,3 0,0 -1,1 -1,1 0,1 0,2 -1,3 0,1 -1,2 -1,3 0,1 0,1 1,2 0,1 1,1 2,1 2,1 3,0 4,0 1,-1 3,-2 4,-2 0,-1 1,-2 2,-3 1,-1 1,-1 1,-2zm-33 11c0,0 0,0 -1,0 0,0 0,0 0,-1 0,0 1,0 1,-1 0,0 0,0 0,-1 0,0 1,0 1,-1 1,-2 2,-5 3,-8 1,-3 2,-5 2,-8 0,0 0,0 -1,0 0,0 0,-1 0,-1 1,0 2,-1 3,-1 1,0 1,1 1,1 0,1 1,2 1,3 0,1 0,1 -1,2 0,1 0,2 0,2 1,-1 1,-2 2,-3 1,-1 3,-1 4,-2 1,-1 3,-2 4,-2 2,-1 4,-1 5,-1 1,0 1,0 1,0 1,0 1,1 1,1 -1,0 -1,0 -1,0 -1,1 -1,1 -1,1 -2,0 -4,1 -5,1 -2,1 -3,2 -5,3 -1,2 -2,3 -3,4 -2,2 -3,3 -4,4 -1,2 -1,3 -2,4 -1,1 -1,2 -2,3 0,1 0,1 -1,1 0,0 -1,1 -2,0zm-17 -11c0,0 0,0 0,0 -1,-1 -1,-1 -1,-1 1,0 1,-1 1,-1 3,-4 3,-6 8,-8 2,-1 3,-1 5,-1 1,0 2,0 3,1 1,0 2,1 2,1 0,1 1,2 1,3 0,0 0,1 -1,2 0,0 -1,1 -1,1 -1,1 -2,2 -3,2 -1,1 -3,2 -4,2 -1,0 -3,1 -4,1 -1,0 -2,-1 -3,-1 0,1 0,1 0,2 0,1 0,2 0,2 1,1 1,2 2,2 0,1 1,1 2,1 1,0 2,0 3,0 1,-1 1,-1 2,-2 1,0 2,-1 3,-1 0,0 1,-1 2,-1 1,0 2,1 1,1 0,1 -1,1 -2,2 -1,1 -2,1 -3,2 -1,0 -2,0 -4,1 -1,0 -2,0 -3,0 -2,0 -4,0 -5,-1 -1,-1 -2,-2 -2,-3 0,-1 0,-2 0,-3 0,-2 1,-3 1,-4 0,1 0,1 0,1zm-11 11c-1,1 6,-3 5,0 -1,2 -5,4 -7,4 -12,0 14,-32 27,-43 1,-1 2,0 3,0 0,0 0,0 0,0 -5,6 -8,9 -13,14 -6,7 -13,17 -15,25zm23 -20c-1,0 -2,1 -3,1 0,1 -1,1 -2,2 0,0 -1,1 -1,2 -1,0 -1,1 -1,1 0,1 0,1 0,2 0,0 1,1 2,1 1,0 2,-1 3,-1 0,0 1,0 2,-1 0,0 1,-1 1,-1 0,-1 1,-1 1,-2 0,0 0,0 0,-1 0,0 1,-1 0,-1 0,-1 0,-1 0,-1 -1,-1 -2,-1 -2,-1zm-32 -4c1,0 1,0 2,0 1,0 1,0 2,0 0,1 0,1 0,1 0,1 -1,1 -1,1 -1,0 -1,0 -2,0 0,0 -1,0 -1,0 -1,0 -1,0 -2,0 -1,0 -2,0 -3,0 -1,1 -2,1 -4,2 -1,1 -2,2 -2,2 -1,1 -2,2 -2,2 0,1 0,1 1,2 1,0 2,0 3,0 2,1 3,1 5,1 1,0 3,1 4,1 1,0 2,1 3,2 1,0 1,1 0,2 0,1 -1,2 -2,3 -2,1 -3,2 -5,3 -2,0 -4,1 -6,1 -2,1 -4,1 -5,1 -3,0 -4,0 -5,-1 -1,0 -2,0 -2,-1 -2,0 -3,1 -4,1 -3,1 -5,1 -7,1 -2,0 -4,0 -5,-1 -2,-1 -3,-1 -3,-2 -1,-1 -1,-2 -1,-4 0,-1 0,-2 1,-3 0,-2 1,-3 1,-4 1,-1 1,-2 2,-3 -1,0 -1,0 -1,-1 0,0 0,0 0,0 0,-1 1,-1 2,-1 1,-3 2,-5 4,-7 1,-2 2,-4 3,-6 -1,0 -1,0 -2,0 0,-1 0,-1 0,-1 0,-1 0,-1 1,-1 0,0 1,0 1,-1 1,0 2,0 4,0 3,0 5,0 7,0 3,0 5,0 7,0 2,0 4,0 5,0 0,0 1,0 1,0 0,1 0,1 0,1 0,0 -1,1 -3,1 -2,0 -3,0 -6,0 -2,1 -4,1 -6,1 -2,0 -4,0 -4,0 0,0 -1,0 -2,2 0,1 -1,2 -2,3 -1,2 -2,3 -3,5 0,1 -1,2 -1,2 2,0 4,0 7,0 2,-1 4,-1 6,-1 1,0 1,0 1,1 1,0 1,0 1,0 0,1 -1,1 -3,1 -1,1 -3,1 -5,1 -2,0 -4,0 -5,0 -2,1 -3,1 -3,1 -1,0 -1,1 -1,2 -1,1 -1,2 -2,3 0,1 -1,2 -1,3 0,2 0,3 0,4 1,1 1,1 2,2 1,0 2,1 3,1 2,0 3,0 4,-1 2,0 3,0 5,-1 0,0 1,0 1,0 0,0 0,0 0,0 0,-1 1,-2 1,-3 1,-1 2,-2 3,-2 1,0 2,1 1,1 0,1 0,2 0,3 0,0 0,0 0,0 0,0 0,0 0,0 0,0 0,1 0,1 0,0 0,0 0,0 0,1 0,1 0,1 0,1 1,1 3,1 1,0 3,0 4,-1 2,0 3,0 5,-1 1,0 2,-1 3,-2 1,0 2,-1 2,-2 1,-1 0,-1 0,-2 -1,0 -2,0 -4,-1 -1,0 -3,0 -4,0 -2,-1 -3,-1 -5,-1 -1,-1 -2,-1 -3,-2 -1,0 -1,-1 0,-2 0,-1 1,-2 2,-3 2,-1 3,-2 5,-3 1,0 3,-1 5,-2 2,0 4,0 5,0zm-80 16c0,0 0,0 0,0 0,0 0,0 -1,-1 1,0 1,0 2,0 0,-1 0,-2 1,-3 1,-2 2,-3 3,-4 1,-1 2,-2 3,-3 2,-1 3,-1 5,-1 1,0 2,0 3,0 1,1 2,2 2,2 1,1 1,2 1,3 0,1 0,1 -1,2 0,1 0,1 -1,2 -1,1 -2,2 -3,3 -1,0 -2,1 -4,1 -1,1 -2,1 -4,1 -1,0 -2,0 -3,0 0,0 0,1 0,2 0,1 0,2 1,2 0,1 0,2 1,3 0,0 1,1 2,1 1,0 2,-1 3,-1 1,-1 2,-1 2,-2 1,0 2,-1 3,-1 0,-1 1,-1 2,-1 1,0 2,0 1,1 0,1 -1,1 -2,2 0,1 -2,1 -3,2 -1,0 -2,1 -3,1 -2,1 -3,1 -4,1 -2,0 -4,-1 -5,-1 -1,-1 -1,-2 -2,-4 0,-1 0,-2 0,-4 1,-1 1,-2 1,-3 0,0 0,0 0,0zm12 -10c-1,0 -2,1 -3,1 0,1 -1,2 -2,3 0,0 -1,1 -1,2 0,0 -1,1 -1,1 0,1 0,2 0,2 0,1 1,1 2,1 1,0 2,0 3,-1 0,0 1,0 2,-1 0,0 1,-1 1,-2 1,0 1,-1 1,-1 0,0 0,-1 1,-1 0,-1 0,-2 0,-2 -1,-1 -1,-1 -1,-1 -1,-1 -1,-1 -2,-1zm-19 -2c1,0 1,0 2,1 0,0 1,0 1,1 1,-1 1,-2 2,-3 1,-2 2,-3 3,-5 1,-1 2,-2 3,-3 1,-1 3,-2 4,-2 1,0 1,0 2,1 0,0 0,1 0,1 0,1 0,1 0,2 -1,0 -1,1 -1,1 0,1 -1,3 -2,4 -1,1 -2,3 -3,4 -1,2 -2,3 -3,4 -2,2 -3,3 -4,4 0,1 0,2 0,4 -1,2 -1,3 -1,5 0,1 0,3 0,4 0,2 -1,3 -1,3 0,1 0,1 -1,1 0,1 -1,1 -1,1 -1,0 -1,0 -2,-1 0,-1 0,-1 0,-2 0,-1 0,-2 0,-3 0,-1 0,-2 0,-3 0,-1 1,-1 1,-2 0,-1 0,-1 0,-2 -1,1 -2,2 -3,3 -1,0 -2,1 -3,2 -1,1 -3,1 -4,2 -1,0 -3,1 -4,1 -1,0 -3,-1 -3,-2 -1,0 -1,-1 -1,-2 0,-2 1,-3 1,-4 1,-1 1,-2 2,-3 0,-1 0,-2 1,-3 1,-2 2,-3 3,-4 1,-2 2,-3 4,-4 2,-1 4,-1 6,-1 1,0 1,0 2,0 0,0 0,0 0,0zm-14 20c1,0 2,0 4,-1 1,-1 3,-2 4,-3 1,-1 3,-2 4,-3 1,-1 2,-2 2,-2 0,-1 0,-2 1,-3 0,-1 0,-1 1,-2 0,0 0,0 0,-1 -1,0 -1,-1 -2,-2 -1,0 -2,-1 -3,-1 -1,0 -3,1 -4,2 -1,0 -2,1 -2,2 -1,1 -2,2 -2,3 -1,1 -1,2 -1,3 -1,0 -1,1 -1,1 -1,1 -1,2 -1,3 0,1 -1,2 -1,3 0,1 1,1 1,1zm14 -10c0,0 0,0 0,1 0,-1 0,-1 0,-1zm7 -8c0,0 0,1 0,1 0,1 -1,1 -1,1 0,0 0,0 1,0 0,-1 0,-1 0,-2zm0 0c1,-1 2,-3 3,-4 1,-1 1,-2 2,-3 0,-1 0,-1 0,-1 0,0 0,-1 0,-1 0,1 -1,3 -2,4 -1,1 -1,2 -2,3 0,1 0,1 -1,2zm-4 11c0,0 0,0 0,0 0,0 0,0 0,0zm-27 -22c-1,2 -2,4 -3,6 -1,2 -2,4 -3,6 -2,4 -4,7 -5,11 -2,3 -3,7 -4,11 -1,0 -2,0 -2,1 -1,0 -1,-1 -1,-1 -1,-1 0,-2 0,-4 0,-1 1,-3 1,-4 1,-2 2,-3 3,-5 0,-2 1,-3 2,-5 0,-1 1,-2 1,-3 1,-2 2,-5 3,-7 0,0 1,-1 1,-1 0,-1 1,-2 1,-3 1,-1 2,-1 2,-2 1,-1 1,-1 2,-1 0,0 0,0 1,0 0,0 0,0 0,0 1,1 1,1 1,1zm-36 23c-1,0 -1,0 -1,0 0,0 0,-1 0,-1 0,0 1,0 1,-1 0,-1 1,-2 2,-3 2,-3 2,-7 11,-8 1,0 2,0 3,1 1,0 1,1 2,1 0,1 0,2 0,3 0,1 0,2 0,2 0,1 -1,2 -2,2 -1,1 -1,2 -3,3 -1,1 -2,1 -3,2 -2,0 -3,1 -4,1 -1,0 -2,0 -3,-1 0,1 0,2 0,3 0,0 0,1 0,2 0,1 1,2 1,2 1,1 2,1 3,1 1,0 2,0 2,-1 1,0 2,-1 3,-1 1,-1 1,-1 2,-2 1,0 2,0 2,0 2,0 2,0 2,1 0,0 -1,1 -2,1 -1,1 -2,2 -3,2 -1,1 -3,2 -4,2 -1,0 -2,1 -3,1 -3,0 -4,-1 -5,-2 -1,0 -2,-2 -2,-3 0,-1 0,-2 0,-4 0,-1 0,-2 0,-3 0,0 0,0 1,0zm-10 8c0,1 -1,3 -1,4 0,0 2,-1 3,0 1,2 -3,5 -5,5 0,0 0,0 0,0 -3,-2 -2,-8 -1,-10 3,-8 16,-28 23,-34 2,-1 4,-3 3,-1 0,1 -1,3 -4,6 -5,6 -16,22 -18,30zm21 -19c-1,1 -1,1 -2,2 -1,1 -1,1 -2,2 -1,1 -1,1 -1,2 -1,1 -1,2 -1,2 -1,1 -1,1 -1,2 1,0 1,1 3,0 1,0 1,0 2,0 1,-1 2,-1 2,-1 1,-1 1,-2 2,-2 0,-1 0,-1 1,-2 0,0 0,-1 0,-1 0,-1 0,-1 0,-2 0,0 0,-1 -1,-1 0,0 -1,-1 -2,-1zm-31 14c0,-1 1,-2 1,-3 0,-1 0,-2 0,-3 0,-2 0,-2 -1,-3 -1,-1 -2,-1 -4,-1 -1,0 -2,0 -3,1 -1,1 -1,2 -2,3 -1,1 -2,2 -2,3 -1,1 -1,1 -1,2 0,0 -1,1 -1,2 -1,1 -1,3 -1,4 0,1 0,2 0,3 0,1 1,1 3,1 1,0 3,0 4,-1 1,-1 2,-2 3,-3 1,-1 2,-2 3,-3 0,-1 1,-2 1,-2z"/>
  <path class="fil0" d="M273 8c-1,-2 -9,0 -2,3 3,1 9,1 18,1 3,-1 54,-9 66,-2 4,2 4,3 3,5 -1,1 -8,0 -8,-1 0,-1 1,-1 2,-1 0,0 2,1 2,1 1,0 2,0 1,-2 -5,-7 -61,2 -66,3 -24,1 -28,-5 -25,-8 3,-4 13,-2 11,2 -1,1 -4,1 -2,-1z"/>
  <path class="fil0" d="M88 21c17,-6 64,-17 57,-7 -1,2 -4,2 -6,2 -1,0 -2,0 -2,-1 0,-1 1,-2 2,-2 0,0 1,0 1,0 -10,-1 -45,8 -52,10 -9,3 -3,-3 -1,-3 1,0 1,0 1,1z"/>
 </g>
</svg>
