<?xml version="1.0" encoding="UTF-8"?>
<!DOCTYPE svg PUBLIC "-//W3C//DTD SVG 1.1//EN" "http://www.w3.org/Graphics/SVG/1.1/DTD/svg11.dtd">
<!-- Creator: CorelDRAW X7 -->
<svg xmlns="http://www.w3.org/2000/svg" xml:space="preserve" width="34.1738mm" height="29.6546mm" version="1.1" style="shape-rendering:geometricPrecision; text-rendering:geometricPrecision; image-rendering:optimizeQuality; fill-rule:evenodd; clip-rule:evenodd"
viewBox="0 0 165 143"
 xmlns:xlink="http://www.w3.org/1999/xlink">
 <defs>
  <style type="text/css">
   <![CDATA[
    .fil0 {fill:#FFFFE7}
   ]]>
  </style>
 </defs>
 <g id="Capa_x0020_1">
  <metadata id="CorelCorpID_0Corel-Layer"/>
  <path class="fil0" d="M86 20c-11,-2 -19,-1 -29,6l0 1c-1,0 -3,1 -4,2 -9,4 -14,11 -18,20 1,-2 3,-4 4,-6 3,-3 14,-14 18,-16l0 -1c8,-3 21,-6 29,-6zm-42 54c-6,1 -11,2 -14,3 1,-19 11,-37 27,-47l1 0c11,-7 23,-9 34,-7 -4,14 -7,29 -9,35 -1,5 -1,9 -2,13 -4,1 -8,2 -12,3 0,-1 1,-2 1,-3 -2,0 -4,1 -6,2 -1,1 -1,2 -1,3 -15,4 -28,6 -31,9 -2,1 2,8 2,8 0,2 0,6 0,10 -2,-3 -3,-6 -4,-10 0,-4 -1,-8 -1,-11 0,0 -1,0 -2,0l0 0c0,0 -1,0 -1,0 0,9 2,17 6,24 0,1 1,1 1,2 0,2 -1,4 -1,5 -4,4 3,21 19,2 6,-8 12,-23 17,-38 4,-1 8,-2 12,-3 0,2 -1,4 -1,6 -11,4 -8,4 -1,2 -2,11 -4,22 -5,35 -1,7 1,14 4,1 3,-12 5,-25 8,-37 9,-3 20,-5 28,-8 7,-1 12,-3 17,-4 0,5 0,9 -1,13 0,1 0,1 0,1 0,0 1,1 1,1 0,0 0,0 1,0 0,0 0,0 0,0 0,-1 0,-1 0,-1 1,-4 1,-8 1,-13l0 0c0,0 0,0 -1,0l0 0c0,0 0,0 0,0 0,0 0,0 0,0 0,0 0,0 0,0l0 0c0,0 0,0 0,0 -1,0 -1,-1 -1,-1l0 0 0 0 0 0 0 0 0 0 0 0 0 0 0 0 0 0 0 0 0 0 0 0 0 0 0 0 0 0 0 0 0 0 0 0 0 0 0 0 0 0 0 0 0 0 0 0 0 0 0 0 0 0 0 0 0 0 0 0 0 0 0 0 0 0 0 0 0 0 0 0 0 0 0 0 0 0c-1,0 -1,-1 -1,-1 -1,-1 -1,-1 -1,-2 0,0 0,0 0,0 0,0 0,0 0,0 -1,0 -1,0 -1,0 -10,2 -22,6 -31,8 -4,2 -7,3 -10,4 0,-2 0,-4 1,-6 4,-2 10,-3 15,-5 10,-3 14,-7 0,-3 -7,2 -13,4 -14,4 1,-8 3,-17 6,-26 1,-6 8,-35 9,-40 -1,-3 -1,-2 -4,-1 -1,4 -4,11 -6,20 -1,0 -2,-1 -3,-1 1,1 2,1 3,1l0 0c-12,-1 -24,1 -35,9l-1 0c-11,7 -19,15 -24,27 -2,5 -4,9 -5,14 1,-6 2,-12 5,-18 -4,8 -7,16 -7,24 -8,2 2,0 -11,2 -3,0 -13,1 -15,5 -1,3 2,2 3,2 18,-4 38,-7 56,-13 26,-8 23,-8 12,-6 6,-20 9,-39 5,-40 -1,-1 -3,10 -5,19 -1,5 -2,9 -3,10 -1,4 -2,9 -3,13 -7,1 -15,3 -21,5zm-2 10c3,-1 11,-3 20,-5 0,1 -1,2 -1,2 -4,11 -10,27 -20,35 -1,-2 -2,-3 -3,-5l0 0 0 0 0 0c0,1 0,2 -1,3 0,0 0,0 0,1 1,1 2,1 2,2 -2,1 -3,-2 -3,-5 4,-21 -1,-24 -1,-25 0,-2 4,-2 7,-3zm92 -1c0,0 0,0 -1,0 0,1 -1,1 -2,1 0,1 0,1 -1,1 0,1 0,1 0,1 0,0 0,0 0,0 -1,0 -1,0 -1,0 0,-1 -1,-2 -1,-2 0,0 0,-1 -1,-1l0 0c0,0 -2,2 -1,2 0,1 -1,1 0,2 0,0 0,0 0,0 0,2 0,2 -1,3 0,0 0,1 0,1 0,0 0,1 0,1 0,0 1,1 1,1 0,0 2,1 2,1 0,0 0,0 1,1 0,0 1,0 1,0 1,0 0,0 1,0 0,0 0,0 0,0 0,-1 0,-1 1,-1 0,0 0,0 0,-1 0,0 1,-1 1,-1 0,0 1,0 1,0 1,0 2,-1 3,-1 0,0 0,-1 0,-1 0,-1 1,-1 0,-1 0,0 0,0 -1,0 0,0 -1,0 -1,0 0,0 0,0 0,0 0,0 -1,0 -1,0 -1,-1 0,-1 0,-2 0,0 1,-1 1,-2 0,0 0,0 0,-1 0,0 0,-1 -1,-1zm-48 48c0,0 0,0 0,0 0,0 0,0 0,0 0,0 0,0 0,0 0,0 0,0 0,0 0,0 0,0 0,0 0,0 0,0 0,0 0,0 0,0 0,0 0,1 0,1 -1,1 0,0 1,0 1,0 -1,0 -1,0 -1,0 0,0 0,0 0,0 0,0 0,0 0,0 0,0 0,0 0,0 0,0 0,0 0,0 0,0 0,0 0,0 0,0 0,0 0,0 0,0 0,0 0,0 0,0 0,0 0,0 0,0 0,0 0,0 0,0 0,0 0,0 0,0 0,0 0,0 0,0 0,0 0,0 0,0 0,0 0,0 0,0 0,0 0,0 0,0 0,0 0,0 0,0 0,0 -1,0 0,0 0,0 0,0 0,0 0,0 0,0 0,0 0,0 0,0 0,0 0,0 0,0 0,0 0,0 0,0 0,0 0,0 0,0 0,0 0,0 0,0 0,0 0,0 0,0 0,0 0,0 0,0 0,0 0,0 0,0 0,0 0,0 0,0 0,0 0,0 0,0 0,0 0,0 -1,0 0,0 0,0 0,0 0,0 0,0 0,0 0,0 0,0 0,0 0,0 0,0 0,0 0,0 0,0 0,0 0,0 0,0 0,0 0,0 0,0 0,0 0,0 0,0 0,1 0,0 0,0 0,0 0,0 0,0 0,0 0,0 0,0 0,0 0,0 0,0 0,0 0,0 -1,0 -1,0 0,0 0,0 0,0 0,0 0,0 0,0 0,0 0,0 0,0 0,0 0,0 0,0 0,0 0,0 0,0 0,0 0,0 0,0 0,0 0,0 0,0 0,0 0,0 0,0 0,0 0,0 0,0 0,0 0,0 0,0 0,0 0,0 0,0 0,0 0,0 0,0 0,0 0,0 0,0 0,0 0,1 0,1 0,0 0,0 0,0 0,0 0,0 0,0 0,0 0,0 0,0 0,0 0,0 0,0 0,0 0,0 0,0 0,0 0,0 0,0 0,0 0,0 0,0 0,0 0,0 0,0 0,0 0,0 0,1 0,0 0,0 0,0 0,0 0,0 0,0 0,0 0,0 0,0 0,0 0,0 0,0 0,0 0,0 0,0 0,0 0,0 0,0 0,0 0,0 0,0 0,0 0,0 0,0 0,0 0,0 0,0 0,0 0,0 0,0 0,0 0,0 0,0 0,0 0,0 0,0 0,0 0,0 0,0 0,0 0,0 0,0 0,0 0,0 0,0 0,0 0,0 0,0 0,0 0,0 0,0 0,1 0,1 0,1 0,0 0,0 0,0 0,0 0,0 0,0 0,0 0,0 0,0 0,1 0,1 0,1 0,0 0,0 0,0 0,0 0,0 0,0 0,0 0,0 0,0 0,0 0,0 0,0 0,0 0,0 0,0 0,0 0,0 0,0 0,0 0,0 0,0 0,0 0,0 0,0 0,0 0,0 1,0 0,0 0,0 0,0 0,0 0,0 0,0 0,0 0,0 0,0 0,0 0,0 0,0 0,0 0,0 0,0 0,0 0,0 0,0 0,0 0,0 0,0 0,0 0,0 0,0 0,0 0,0 0,0 0,0 0,0 0,0 0,0 0,0 0,0 0,0 0,0 0,0 0,0 0,0 0,0 0,0 0,0 0,0 0,0 0,0 0,0 0,0 0,0 1,0 0,0 0,0 0,0 0,0 0,0 0,0 0,0 0,0 0,0 0,0 0,0 0,0 0,0 0,0 0,0 0,0 0,0 0,0 0,0 0,0 0,0 0,0 0,0 0,0 0,0 0,0 0,0 0,0 0,0 0,0 0,0 0,0 0,0 0,0 0,0 0,0 0,0 0,0 0,0 0,0 0,0 0,0 0,0 0,0 0,0 0,0 0,0 0,0 0,-1 0,-1 0,-1 0,0 0,0 0,0 0,0 0,0 0,0 0,0 0,0 0,0 0,0 0,0 0,0 0,0 0,0 0,0 0,0 0,0 0,0 0,0 0,0 0,0 0,0 0,0 0,0 1,0 1,0 1,0 0,0 0,0 0,0 0,0 0,0 0,0 0,0 0,0 0,0 0,0 0,0 0,0 0,0 0,0 0,0 0,0 0,0 0,0 0,0 0,1 0,1 0,-1 0,0 0,0 0,0 0,0 0,0 0,0 0,0 0,0 0,0 0,0 0,0 0,0 0,0 0,0 0,0 0,0 0,0 0,0 0,0 0,0 0,0 0,0 0,0 0,0 0,0 0,0 0,0 0,0 0,0 0,0 0,0 0,0 0,0 0,0 0,0 1,0 1,0 1,0 0,0 0,0 0,0 0,0 0,0 0,0 0,0 0,0 0,0 0,0 0,0 0,0 0,0 0,0 0,0 0,0 0,0 0,0 0,0 0,0 0,0 0,0 0,0 0,0 0,0 0,0 0,0 0,0 0,0 0,0 0,0 0,0 0,0 0,0 0,0 0,0 0,0 0,0 0,0 0,0 0,0 0,0 0,0 0,0 1,0 0,0 0,0 0,0 0,0 0,0 0,0 0,0 0,0 0,0 0,0 0,0 0,0 0,0 0,0 0,0 0,0 0,0 0,0 0,0 0,0 0,0 0,0 0,0 0,0 0,0 0,0 0,0 0,0 0,0 0,0 0,0 0,0 0,0 0,0 0,0 0,0 0,1 1,1 1,1 0,0 0,0 0,0 0,0 0,0 0,0 0,0 0,0 0,0 0,0 0,0 0,0 0,0 0,0 0,0 0,0 0,0 0,0 0,0 0,0 0,0 0,0 0,0 0,0 0,0 0,0 0,0 0,0 0,1 0,1 0,0 0,0 0,0 0,0 0,0 0,0 0,0 0,0 0,0 0,0 0,0 0,0 0,0 0,0 0,0 0,0 0,0 0,0 0,0 0,0 0,0 0,0 0,0 0,0 0,0 0,0 0,0 0,0 0,0 1,0 0,0 0,0 0,0 0,0 0,0 0,0 0,0 0,0 0,0 0,0 0,0 0,0 0,0 0,0 0,0 0,0 0,0 0,0 0,0 0,0 0,0 0,0 0,0 0,0 0,0 0,0 0,0 0,0 0,0 0,0 0,0 0,0 0,0 0,0 0,0 0,0 0,0 1,0 1,0 0,0 0,0 0,0 0,0 0,0 0,0 0,0 0,0 0,0 0,0 0,0 0,-1 0,0 0,0 0,0 0,0 0,0 0,0 0,0 0,0 0,0 0,0 0,0 0,0 0,0 0,0 0,0 0,0 0,0 0,0 0,0 0,0 0,0 0,0 0,0 0,0 0,0 0,0 0,0 0,0 0,0 0,0 0,0 1,0 1,0 0,0 0,0 0,0 0,0 0,-1 0,-1 0,0 0,0 0,0 0,0 0,0 0,0 0,0 0,0 0,0 0,0 0,0 0,0 0,0 0,0 0,0 0,0 0,0 0,0 0,0 0,0 0,0 0,0 0,0 0,0 0,0 0,0 0,0 0,0 0,0 0,0 0,0 0,0 0,0 0,0 0,0 0,0 0,0 0,0 0,0 0,0 0,0 0,0 0,0 0,0 0,0 0,0 0,0 0,0 0,0 0,0 0,0 0,0 0,0 0,0 0,0 0,0 0,0 0,0 0,0 0,0 0,0 0,0 0,0 0,-1 0,-1 0,-1 0,0 0,0 0,0 0,0 0,0 0,0 0,0 0,0 0,0 0,0 0,0 0,0 0,0 0,0 0,0 0,0 0,0 0,0 0,0 0,0 0,0 0,0 0,0 0,0 0,0 0,0 0,0 0,0 0,0 0,0 0,0 0,0 0,0 0,0 0,0 0,0 0,0 0,0 0,0 0,0 0,0 0,0 0,0 0,0 0,0 0,0 0,0 0,-1 0,0 0,0 0,0 0,0 0,0 -1,0 0,0 0,0 0,0 0,0 0,0 0,0 0,0 0,0 0,0 0,0 0,0 0,0 0,0 0,0 0,0 0,0 0,0 0,0 0,0 0,0 0,0 0,0 0,0 0,0 0,0 0,0 0,0 0,0 0,0 0,0 0,0 0,0 0,0 0,0 0,0 0,0 0,0 0,0 0,0 0,0 0,0 0,0 0,0 1,-1 0,-1 1,0 1,0 1,0 0,0 0,0 0,0 0,0 0,0 0,0 0,0 0,0 0,0 0,0 0,0 0,0 0,0 0,0 0,0 0,0 0,0 0,0 0,0 0,0 0,0 0,0 0,0 0,0 0,0 0,0 0,0 0,0 0,0 0,0 0,0 0,0 0,0 0,0 0,0 0,0 0,0 0,0 0,0 0,0 0,0 0,0 0,0 0,0 0,0 0,0 0,0 0,0 0,0 0,0 0,0 0,0 0,0 0,0 0,-1 0,-1 0,-1 0,0 0,0 0,0 0,0 0,0 0,0 0,0 0,0 0,0 -1,0 0,0 -1,0 0,0 0,0 0,0 0,0 0,0 0,0 0,0 0,0 0,0 0,0 0,0 0,0 0,0 0,0 0,0 0,0 0,0 0,0 0,0 0,0 0,0 0,0 0,0 0,0 0,0 0,0 0,0 0,0 0,0 0,0 0,0 0,0 0,0 0,0 0,0 0,0 0,0 0,0 0,0 0,0 0,0 0,-1 0,0 0,0 0,0 0,0 0,0 0,0 0,0 0,0 0,0 0,0 0,0 0,0 0,0 0,0 0,0 0,0 0,0 0,0 0,0 0,0 0,0 0,0 0,0 0,0 0,0 0,0 0,0 0,0 0,0 0,-1 0,1 0,1 0,1 0,0 0,-1 0,-1 0,0 0,0 0,0 0,0 0,0 0,0 -1,0 -1,0 -1,0 0,0 0,0 0,0 0,0 0,0 0,0 0,0 0,0 0,0 0,0 0,0 0,0 0,0 0,0 0,0 0,0 0,0 0,0 0,0 0,0 0,0 0,0 0,0 0,0 0,0 0,0 0,0 0,0 0,0 0,0 0,0 0,0 0,0 0,0 0,0 0,0 0,0 0,0 0,0 0,0 0,0 0,0 0,0 0,0 0,0 0,0 0,0 0,0 0,0 0,0 0,0 0,0 0,0 0,0 0,0 0,0 0,0 0,0 0,0 0,0 0,0 0,0 -1,0 0,0 0,0 0,0 0,0 0,0 0,0 0,0 0,0 0,0 0,0 0,0 0,0 0,0 0,0 0,0 0,0 0,0 0,0 0,0 0,0 0,0 0,0 0,0 0,0 0,0 0,0 0,0 0,0 0,0 0,0 0,0 0,0 0,0 0,0 0,0 0,0 0,0 0,0 0,0 0,0 0,0 0,0 0,0 0,0 0,0 0,0 0,0 0,0 0,0 0,0 0,0 -1,0 -1,0 -1,0 0,0 0,0 0,0 0,0 0,0 0,0 0,0 0,0 0,0 0,0 0,0 0,0 0,0 0,0 0,0 0,0 0,0 0,0 0,0 0,0 0,0 0,0 0,0 0,0 0,0 0,0 0,0 -1,0 -1,0 -1,0 0,0 0,0 0,0zm-4 -2c0,0 0,0 0,0 0,0 0,0 0,0 0,0 0,0 0,0 0,0 0,0 0,0 0,0 0,0 0,0 0,0 0,0 0,0 0,0 0,0 0,0 0,0 0,0 0,0 0,0 0,0 0,0 0,0 0,0 0,0 0,0 0,0 0,0 0,0 0,0 0,0 0,0 0,0 0,0 0,0 0,0 0,0 0,0 0,0 0,0 0,0 0,0 0,1 0,0 0,0 0,0 0,0 0,0 0,0 0,0 0,0 0,0 0,0 0,0 0,0 0,0 0,0 0,0 0,0 0,0 0,0 0,0 0,0 0,0 0,0 0,0 0,0 0,0 0,0 0,0 0,0 0,0 0,0 0,0 0,0 -1,0 0,0 1,0 1,0 0,0 -1,0 -1,0 0,0 0,0 0,0 0,0 0,0 0,0 0,0 0,0 0,0 0,0 0,0 0,0 0,0 0,0 0,0 0,0 0,0 0,1 0,0 0,0 0,0 0,0 0,0 0,0 0,0 0,0 0,0 0,0 0,0 0,0 0,0 0,0 0,0 0,0 0,0 0,0 0,0 0,0 0,0 0,0 0,0 0,0 0,0 0,0 1,0 0,0 -1,0 -1,0 0,0 1,0 1,0 0,0 0,0 0,0 0,0 0,1 0,1 0,0 0,0 0,0 0,0 0,0 0,0 0,0 0,0 0,0 0,0 0,0 0,0 0,0 0,0 0,0 0,0 0,0 0,0 0,0 0,0 0,0 0,0 0,0 0,0 0,0 0,0 0,0 0,0 0,0 0,0 0,0 0,0 0,0 0,0 0,0 0,0 0,0 0,0 0,0 0,0 0,0 0,0 0,0 0,0 0,0 0,0 0,0 0,0 0,0 0,0 0,0 0,0 0,0 0,0 0,0 0,0 0,0 0,0 0,0 0,0 0,0 0,1 0,0 0,0 0,0 0,0 1,0 1,0 1,0 0,0 0,0 0,0 0,0 0,0 0,0 0,0 0,0 0,0 0,0 0,0 0,0 0,0 0,0 0,0 0,0 0,0 0,0 0,0 0,0 0,0 0,0 0,0 0,0 0,0 0,0 0,0 0,0 0,0 0,0 0,0 0,0 0,0 0,0 0,0 0,0 0,0 0,0 0,0 0,0 0,0 0,0 0,0 0,0 0,0 0,0 0,0 0,0 0,0 0,0 0,0 0,0 0,0 0,0 0,0 0,0 0,0 0,0 0,0 0,0 0,0 0,0 0,0 0,0 0,0 0,-1 0,0 0,0 0,0 0,0 0,0 0,0 0,0 0,0 0,0 0,0 0,0 0,0 0,0 0,0 0,0 0,0 0,0 0,0 0,0 0,0 0,0 0,0 0,0 0,0 0,0 0,0 0,-1 0,0 0,0 0,0 0,0 0,0 0,0 0,0 0,0 0,0 0,0 0,0 0,0 0,0 0,0 0,0 0,0 0,0 0,0 0,0 0,0 0,0 0,0 0,0 0,0 0,0 0,0 0,0 0,0 0,0 0,0 0,0 0,0 0,0 0,0 0,-1 0,-1 0,0 0,0 0,0 0,0 0,0 0,0 0,0 0,0 0,0l0 0c0,0 0,0 0,0 0,0 0,0 0,0 0,0 -1,0 -1,0 0,0 0,0 0,0 0,0 0,0 0,0 0,0 0,0 0,0 0,0 0,0 0,0 0,0 0,0 0,0 0,0 0,0 0,0 0,0 0,0 0,0 0,0 0,0 0,0zm11 4c0,0 0,0 0,0 0,0 0,0 0,0 0,0 0,0 0,1 -1,0 -1,0 -1,0 0,0 0,0 0,0 0,0 0,0 0,0 0,0 0,0 0,0 0,0 0,0 0,0 0,0 0,0 0,0 0,0 0,0 0,0 0,0 0,0 0,0 0,0 0,0 0,0 0,0 -1,0 -1,0 0,0 0,0 0,0 0,0 0,0 0,0 0,0 0,0 0,0 0,0 0,0 0,0 0,0 0,0 0,0 0,0 0,0 0,0 0,0 0,0 0,0 0,0 0,0 0,0 0,0 0,0 0,0 0,0 0,0 0,0 0,0 0,0 0,0 0,0 0,0 0,0 0,0 0,0 0,0 0,1 0,1 0,1 0,0 0,0 0,0 0,0 0,0 0,0 0,0 0,0 0,0 0,0 0,0 0,0 0,0 0,0 0,0 0,0 0,0 0,0 0,0 0,0 0,0 0,0 0,0 0,0 0,0 0,0 0,0 0,1 0,1 0,1 0,0 0,0 0,0 0,0 0,0 0,0 0,0 0,0 0,0 0,0 0,0 0,0 0,0 0,0 0,0 0,0 0,0 0,0 0,0 0,0 0,0 0,0 0,0 0,0 0,0 0,0 0,0 0,0 1,0 1,0 0,0 0,0 0,0 0,0 1,-1 1,-1 0,0 0,0 0,0 0,0 0,0 0,0 0,0 0,0 0,0 0,0 0,0 0,0 0,0 0,0 0,0 0,0 0,0 0,0 0,0 1,0 1,0 0,0 0,0 0,0 0,0 0,0 0,0 0,0 0,0 0,0 0,0 0,0 0,0 0,0 0,0 0,0 0,0 0,0 0,0 0,0 0,0 0,0 0,0 1,0 1,0 0,0 0,0 0,0 0,0 0,0 0,0 0,0 0,0 0,0 0,0 0,0 0,0 0,-1 0,-1 0,-1 0,0 0,0 0,0 0,0 0,0 0,0 0,0 0,0 0,0 0,0 0,0 0,0 0,0 0,0 0,0 0,0 0,0 0,0 0,0 0,0 0,0 0,0 0,0 0,0 0,0 0,0 0,0 0,0 0,0 0,0 0,0 0,0 0,0 0,0 0,0 0,0 0,0 0,0 0,0 0,0 0,0 0,0 0,0 0,0 0,0 0,0 0,0 0,0 0,0 0,0 0,0 0,0 0,0 0,0 0,0 0,0 0,0 0,0 1,0 1,0 0,0 0,0 0,0 0,0 0,0 0,0 0,-1 0,-1 0,-1 0,0 0,0 0,0 0,0 0,0 0,0 0,0 0,0 0,0 0,0 0,0 0,0 0,0 0,0 0,0 0,0 0,0 0,0 0,0 0,0 0,0 0,0 0,0 0,0 0,0 0,0 0,0 0,0 0,0 0,0 0,0 0,0 0,0 0,0 0,0 0,0 0,0 0,0 0,0 0,0 0,0 0,0 0,0 0,0 0,0 0,0 0,0 0,0 0,0 0,0 0,0 0,0 0,0 0,0 0,0 0,0 0,0 0,0 -1,0 -1,0 0,0 0,0 0,0 0,0 0,0 0,0 0,0 0,0 0,0 0,0 0,0 0,0 0,0 0,0 0,0 0,0 0,0 0,0 0,0 0,0 0,0 0,0 0,0 0,0 0,0 0,0 0,0 0,0 -1,0 -1,0 0,0 0,0 0,0 0,0 0,0 0,0 0,0 0,0 0,0l-1 0zm-7 -9c0,0 0,0 0,0 0,0 0,0 0,0 0,0 0,0 0,0 0,0 0,0 0,0 0,0 0,0 0,0 0,0 0,0 0,0 0,0 0,0 0,0 0,0 0,0 0,0 0,0 0,0 0,0 0,0 0,0 0,0 0,0 0,0 0,0 0,0 0,0 0,0 0,0 0,0 0,0 0,0 0,0 0,0 0,0 0,0 0,0 0,0 0,0 0,1 0,0 0,0 0,0 0,0 0,0 0,0 0,0 0,0 0,0 0,0 0,0 0,0 0,0 0,0 0,0 0,0 0,0 0,0 0,0 0,0 0,0 0,0 0,0 0,0 0,0 0,0 0,0 0,0 0,0 0,0 0,0 0,0 0,0 0,0 0,0 0,0 0,0 0,0 0,0 0,0 0,0 0,0 0,0 0,0 0,0 0,0 0,0 0,0 0,0 0,0 0,0 0,0 0,0 0,0 0,0 0,0 0,0 0,0 0,0 0,0 0,0 0,0 0,0 0,0 0,0 0,0 0,0 0,0 0,1 0,0 0,0 0,0 0,0 0,0 0,0 0,0 0,0 0,0 0,0 0,0 0,0 0,0 0,0 0,0 0,0 0,0 0,0 0,0 0,0 0,0 0,0 0,0 0,0 0,0 0,0 0,0 0,0 0,1 0,1 0,0 0,0 0,0 0,0 0,0 0,0 0,0 0,0 0,0 0,0 0,0 0,0 0,0 0,0 0,0 0,0 0,0 0,0 0,0 0,0 0,0 0,0 0,0 0,0 0,0 0,0 0,0 0,0 0,0 0,0 0,0 0,0 0,0 0,0 0,1 0,1 0,0 0,0 0,0 0,0 0,0 0,0 0,0 0,0 0,0 0,0 0,0 0,0 0,0 0,0 0,0 0,0 0,0 0,0 0,0 0,0 0,0 0,0 0,0 0,0 0,0 0,0 0,0 0,0 0,0 0,0 0,1 0,1 0,1 0,0 0,0 0,0 0,0 0,0 0,0 0,0 0,0 0,0 0,0 0,0 0,0 0,0 0,0 0,0 0,0 0,0 0,0 0,0 0,0 0,0 0,0 0,0 0,0 0,0 0,0 0,0 0,0 0,0 0,0 0,0 0,0 0,0 0,0 0,0 0,0 0,0 0,0 0,0 0,0 0,1 0,1 0,0 0,0 0,0 0,0 0,0 0,0 0,0 0,0 0,0 0,0 0,0 0,0 0,0 0,0 0,0 0,0 0,0 0,0 0,0 0,0 0,0 0,0 0,0 0,0 0,0 0,0 0,0 0,0 0,0 0,0 0,0 0,0 0,0 0,0 0,0 0,0 0,0 0,0 0,0 0,0 0,0 0,0 0,0 0,0 0,0 0,0 0,0 0,0 0,0 0,0 0,0 0,0 0,0 0,0 0,0 0,0 0,0 0,0 0,0 0,0 0,0 0,0 0,0 0,0 0,0 0,0 0,0 0,0 0,0 0,0 0,0 0,0 1,0 1,0 1,0 0,0 0,0 0,0 0,0 0,0 0,0 0,0 0,0 0,0 0,0 0,0 0,0 0,0 0,0 0,0 0,0 0,0 0,0 0,0 0,0 0,0 0,0 0,0 0,0 0,0 0,0 0,0 0,0 0,0 0,0 0,0 0,0 0,0 0,0 0,0 0,0 0,0 0,0 0,-1 0,0 0,0 0,0 0,0 0,0 0,0 0,0 0,0 0,0 0,0 0,0 0,0 0,0 0,0 0,0 0,0 0,0 0,0 0,0 0,0 0,0 0,0 0,0 0,0 0,0 0,0 0,0 0,0 0,0 0,0 0,0 0,0 0,0 0,0 0,0 0,-1 0,0 0,0 0,0 0,0 0,0 0,0 0,0 0,0 0,0 0,0 0,0 0,0 0,0 0,0 0,0 0,0 0,0 0,0 0,0 0,0 0,0 0,0 0,0 0,0 0,0 0,0 0,0 0,0 0,0 0,0 0,0 0,0 0,0 0,0 0,0 0,0 0,0 0,0 0,0 0,0 0,0 0,0 0,0 0,0 1,0 -1,0 0,-1 0,-1 0,0 0,0 0,0 0,0 0,0 0,0 0,0 0,0 0,0 0,0 0,0 0,0 0,0 0,0 0,0 0,0 0,0 0,0 0,0 0,0 0,0 0,0 0,0 0,0 0,0 0,0 0,0 0,0 0,0 0,0 0,0 0,0 0,0 0,0 0,0 0,0 0,0 0,0 0,0 0,0 0,0 0,0 0,0 0,0 0,0 0,-1 0,-1 0,-1 0,0 0,0 0,0 0,0 0,0 0,0 0,0 0,0 0,0 0,0 0,0 0,0 0,0 0,0 0,0 0,0 0,0 0,0 0,0 0,0 0,0 0,0 0,0 0,0 0,0 0,0 0,0 0,-1 -1,-1 -1,-1 0,0 0,0 0,0 0,0 0,0 0,0 0,0 0,0 0,0 0,0 0,0 0,0 0,0 0,0 0,0 0,0 0,0 0,0 0,0 0,0 0,0 0,0 0,-1 0,-1 0,0 0,0 0,0 0,0 0,0 0,0 0,0 0,0 0,0 0,0 0,0 0,0 0,0 0,0 0,0 0,0 0,0 0,0 0,0 -1,0 -1,0 0,0 0,0 0,0zm8 4c0,0 0,0 0,0 0,0 0,0 0,0 0,0 0,1 0,1 0,0 0,0 0,0 0,0 0,0 -1,0 0,0 0,0 0,0 0,0 0,0 0,0 0,0 0,0 0,0 0,0 0,0 0,0 0,0 0,0 0,0 0,0 0,0 0,0 0,0 0,0 0,0 0,0 0,0 0,0 0,0 0,0 0,0 0,0 0,0 0,0 0,0 0,0 0,0 0,0 0,0 0,0 0,0 0,0 0,0 0,0 0,0 0,0 0,0 0,0 0,0 0,0 0,0 0,0 0,0 0,0 0,0 0,0 0,0 0,0 0,0 0,0 0,0 0,0 0,0 0,0 0,0 0,0 0,0 0,1 0,1 -1,1 0,0 0,0 0,0 0,0 0,0 0,0 0,0 0,0 0,0 0,0 0,0 0,0 0,0 0,0 0,0 0,0 0,0 0,0 0,0 0,0 0,0 0,0 0,0 0,0 0,0 0,0 0,0 0,0 0,0 0,0 0,0 0,0 0,0 0,0 0,0 0,0 0,0 0,0 0,0 0,0 0,0 0,0 0,0 0,0 0,0 0,0 0,0 0,0 0,0 0,0 0,0 0,0 0,0 0,0 0,0 0,1 0,1 0,0 0,0 0,0 0,0 0,0 0,0 0,0 0,0 0,0 0,0 -1,0 -1,0 0,0 0,0 0,0 0,0 0,0 0,0 0,0 0,0 0,0 0,0 0,0 0,0 0,0 0,0 0,0 0,0 0,0 0,0 0,0 0,0 0,0 0,0 0,0 0,0 0,0 0,0 0,0 0,0 0,0 0,0 0,0 0,0 0,0 0,0 0,0 0,0 0,0 0,0 0,0 0,0 0,0 0,0 0,0 0,0 0,0 0,0 0,0 0,0 0,0 0,0 0,1 0,0 -1,0 -1,0 0,0 0,0 0,0 0,0 0,0 0,0 0,0 0,0 0,0 0,0 0,0 0,0 0,0 0,0 0,0 0,0 0,0 0,0 0,0 0,0 0,0 0,0 0,0 0,0 0,0 0,0 0,0 0,0 0,0 0,0 0,0 0,0 0,0 0,0 0,0 0,0 0,0 0,0 0,0 0,0 0,1 0,1 0,0 0,0 0,0 0,0 0,0 0,0 0,0 0,0 0,0 0,0 0,0 1,0 0,0 0,0 0,0 0,0 0,0 0,0 0,0 0,0 0,0 0,0 0,0 0,0 0,0 0,0 0,0 0,0 0,0 0,0 0,0 0,0 0,0 0,0 0,0 0,0 0,0 0,0 0,0 0,0 0,0 0,0 0,0 0,0 1,0 0,0 0,0 0,0 0,0 0,0 0,0 0,0 0,0 0,0 0,0 0,0 0,0 0,0 0,0 0,0 0,0 0,0 0,0 0,-1 0,-1 0,-1 0,0 0,0 0,0 0,0 0,0 0,0 0,0 0,0 0,0 0,0 0,0 0,0 0,0 0,0 0,0 0,0 1,0 1,0 0,0 0,0 0,0 0,0 0,0 0,0 0,0 0,0 0,0 0,0 0,0 0,0 0,0 0,0 0,0 0,0 0,0 0,0 0,0 0,0 0,0 0,0 0,0 0,0 0,0 0,-1 0,-1 0,0 0,0 0,0 0,0 0,0 1,0 0,0 0,0 0,0 0,0 0,0 0,0 0,0 0,0 0,0 0,0 0,0 0,0 0,0 0,0 0,0 0,0 0,0 0,0 0,0 0,0 0,0 0,0 0,0 0,0 0,0 0,0 0,0 0,0 0,0 0,0 0,0 0,0 0,0 0,0 0,0 0,0 0,0 0,0 1,0 0,0 0,0 0,0 0,0 0,0 0,0 0,0 0,0 0,0 0,0 0,0 0,0 0,-1 0,-1 0,-1 0,0 0,0 0,0 0,0 0,0 0,0 0,0 0,0 0,0 0,0 0,0 0,0 0,0 0,0 0,0 0,0 0,0 0,0 0,0 0,0 0,0 0,0 0,0 0,0 0,0 0,0 0,0 0,0 0,0 0,0 0,0 0,0 0,0 0,0 0,0 0,0 0,0 0,0 0,0 0,0 0,0 0,0 0,0 0,0 0,0 0,0 0,0 0,0 0,0 0,0 0,0 0,0 0,0 0,0 0,0 0,0 0,0 0,0 0,0 0,0 0,0 0,0 0,0 0,0 0,0 0,0 0,0 0,0 0,0 0,0 0,0 0,0 0,0 0,0 0,0 0,0 0,0 0,0 0,-1 0,-1 0,-1 0,0 0,0 0,0 0,0 0,0 0,0 0,0 0,0 0,0 0,0 0,0 0,0 0,0 0,0 0,0 0,0 0,0 0,0 0,0 0,0 0,0 1,0 1,0 1,-1 0,0 0,0 0,0 0,0 0,0 0,0 0,0 0,0 0,0 0,0 0,0 0,0 0,0 0,0 0,0 0,0 0,0 0,0 0,0 0,0 0,0 0,0 0,0 0,0 0,0 0,0 0,0 0,0 0,0 0,0 0,0 0,0 0,0 0,0 0,0 0,0 0,0 0,0 0,0 0,0 0,0 0,0 0,0 0,0 0,0 0,0 0,0 0,0 0,0 0,0 -1,0 0,0 0,0 0,0 0,0 0,0 0,0l0 0c0,0 0,0 0,0 0,0 0,0 0,0 0,0 0,0 0,0 0,0 0,0 0,0 0,0 0,0 0,0 0,0 0,0 0,0 -1,0 -1,0 -1,0 0,0 0,0 0,0 0,0 0,0 0,0 0,0 0,0 0,0 0,0 0,0 0,0 0,0 0,0 0,0zm-2 -4c0,0 0,0 0,0 0,0 0,0 0,0 0,0 0,0 0,0 0,0 0,0 0,0 0,0 0,0 0,0 0,1 0,1 0,1 0,0 0,0 0,0 0,0 0,0 0,0 0,0 0,0 0,0 0,0 0,0 0,0 0,0 0,0 0,0 0,0 0,0 0,0 0,0 0,0 0,0 0,0 0,0 0,0 0,0 0,0 0,0 0,0 0,0 -1,0 0,0 0,0 0,0 0,0 0,0 0,0 0,0 0,0 0,0 0,0 0,0 0,0 0,0 0,0 0,0 0,0 0,0 0,0 0,0 0,0 0,0 0,0 0,0 0,0 0,0 0,0 0,0 0,0 0,0 0,0 0,0 0,0 0,0 0,0 0,0 0,0 0,0 0,0 0,0 0,1 0,1 0,1 0,0 0,0 0,0 0,0 0,0 -1,0 1,0 0,0 0,0 0,0 0,0 0,0 0,0 0,0 0,0 0,0 0,0 0,0 0,0 0,0 0,0 0,0 0,0 0,0 0,0 0,0 0,0 0,0 0,0 0,0 0,0 0,0 0,0 0,0 0,0 0,0 0,0 0,0 0,0 0,0 0,0 0,0 0,0 0,0 0,0 0,0 0,0 0,0 0,0 0,0 0,0 0,0 0,0 0,0 0,0 0,0 0,0 0,0 0,0 0,0 0,0 0,0 0,1 0,0 0,0 0,0 0,0 0,0 0,0 0,0 0,0 0,0 0,0 0,0 0,0 0,0 0,0 0,0 0,0 0,0 0,0 0,0 0,0 0,0 0,0 0,0 0,0 0,0 0,0 0,0 0,0 0,0 0,0 0,0 0,0 0,0 0,0 0,0 0,0 0,0 0,0 0,0 0,0 0,0 0,0 0,0 0,0 0,0 0,0 0,0 0,0 0,0 0,0 0,0 0,0 0,0 0,0 0,0 0,0 0,0 0,0 0,0 0,0 0,0 0,0 0,0 0,0 0,1 0,1 0,0 0,0 0,0 0,0 0,0 0,0 0,0 0,0 0,0 0,0 0,0 0,0 0,0 0,0 0,0 0,0 0,0 0,0 0,0 0,0 0,0 0,0 -1,0 -1,0 0,0 0,0 0,0 0,0 0,0 0,0 0,0 0,0 0,0 0,0 0,0 0,0 0,0 0,0 0,0 0,0 0,0 0,0 0,0 0,0 0,0 0,0 0,0 0,0 0,0 0,0 0,0 0,0 0,0 0,0 0,0 0,0 0,0 0,0 0,0 0,0 0,0 0,0 0,0 0,0 0,0 0,0 0,0 0,0 0,1 0,0 0,0 0,0 0,0 0,0 0,0 0,0 0,0 0,0 0,0 0,0 0,0 0,0 0,0 0,0 0,0 0,0 0,0 0,0 0,0 0,0 0,0 0,0 0,0 0,0 0,0 0,0 0,0 0,0 0,0 0,0 0,0 0,0 0,0 0,0 0,0 0,0 0,0 0,0 0,0 0,0 0,0 0,0 0,0 0,0 0,0 0,0 0,0 0,0 0,0 0,0 0,0 0,0 0,0 0,0 0,0 0,0 0,0 0,0 0,0 0,0 0,0 0,0 0,0 0,0 0,0 0,0 0,0 0,0 0,0 0,1 0,1 0,0 0,0 0,0 0,0 0,0 0,0 0,0 0,0 0,0 0,0 0,0 0,0 0,0 0,0 0,0 0,0 0,0 0,0 0,0 0,0 0,0 0,0 0,0 0,0 0,0 0,0 0,0 0,0 0,0 0,0 0,0 0,0 0,0 0,0 0,0 0,0 0,0 0,0 0,0 0,0 0,0 0,0 0,0 0,0 0,0 0,0 0,0 0,0 0,0 0,0 0,0 0,0 0,0 0,0 0,0 0,0 0,0 0,0 0,0 0,0 0,0 0,0 0,0 0,0 0,0 0,0 0,0 0,0 0,0 0,0 0,0 0,0 0,0 0,0 0,0 0,0 0,0 0,0 0,0 0,0 0,0 -1,0 -1,0 -1,0 0,0 0,0 0,0 0,0 0,0 0,0 0,0 0,0 0,0 0,0 0,0 0,0 0,1 0,1 1,1 0,0 0,0 0,0 0,0 0,0 0,0 0,0 0,0 0,0 0,0 0,0 0,0 0,0 0,0 0,0 0,0 0,0 0,0 0,0 0,0 0,0 0,0 0,0 0,0 0,0 0,0 0,0 0,0 0,0 0,0 0,0 0,0 0,0 0,0 0,0 0,0 0,0 0,0 0,0 0,0 0,0 0,0 0,0 0,0 0,0 0,0 0,0 0,0 0,0 0,0 0,0 0,0 0,0 0,0 0,0 0,0 0,0 0,0 0,0 0,0 0,0 0,0 0,0 0,0 0,0 0,0 0,0 0,0 0,0 0,0 0,0 0,0 1,0 1,0 1,0 0,0 0,0 0,0 0,0 0,0 0,0 0,0 0,0 0,0 0,0 0,0 0,0 0,0 0,0 0,0 0,0 0,0 0,0 0,0 0,0 0,0 0,0 0,0 0,0 0,0 0,0 0,0 0,0 0,0 0,0 0,0 0,0 0,0 0,0 0,0 0,0 0,0 0,0 0,0 0,0 0,0 0,0 0,0 0,0 0,0 0,0 0,0 0,0 0,0 0,0 0,0 0,0 0,0 0,0 0,0 0,0 0,0 0,0 0,0 0,0 0,0 0,0 0,0 0,0 0,-1 0,-1 0,0 0,0 0,0 0,0 0,0 0,0 0,0 0,0 0,0 0,0 0,0 0,0 0,0 0,0 0,0 0,0 0,0 0,0 0,0 0,0 0,0 0,0 0,0 0,0 0,0 0,0 0,0 0,0 0,0 0,0 0,0 0,0 0,0 0,0 0,0 0,0 0,0 0,0 0,0 0,0 0,0 0,0 0,0 0,0 0,0 0,0 0,0 0,0 0,0 0,0 0,0 0,0 0,0 0,0 0,0 0,0 0,0 0,0 0,0 0,0 0,0 0,0 1,0 0,0 0,0 -1,0 1,0 1,0 1,0 0,0 0,0 0,0 0,0 0,0 0,0 0,0 0,0 0,0 0,0 0,0 0,0 0,0 0,0 0,0 0,0 0,0 0,0 0,0 0,0 0,0 0,0 0,0 0,0 0,0 0,0 0,0 0,0 0,0 0,0 0,0 0,0 0,0 0,-1 0,-1 0,-1 0,0 0,0 0,0 0,0 0,0 0,0 0,0 0,0 0,0 0,0 0,0 0,0 0,0 0,0 0,0 0,0 0,0 0,0 0,0 0,0 0,0 0,0 0,0 0,0 0,0 0,0 0,0 0,0 0,0 0,0 0,0 0,0 0,0 0,0 0,0 0,0 0,0 0,0 0,0 0,0 0,0 0,0 0,0 0,0 0,0 0,0 0,0 0,0 0,0 0,0 1,0 -1,0 -1,0 -1,0 1,0 1,-1 1,-1 0,0 0,0 0,0 0,0 0,0 0,0 0,0 0,0 0,0 0,0 0,0 0,0 0,0 0,0 0,0 0,0 0,0 0,0 0,0 0,0 0,0 0,0 0,0 0,0 0,0 0,0 0,0 0,0 0,0 0,0 0,0 0,0 0,0 0,0 0,0 0,0 0,0 0,0 0,0 0,0 0,0 0,0 0,0 0,0 0,0 0,0 0,0 0,0 0,0 0,0 0,0 0,0 0,0 0,0 0,0 0,0 0,-1 0,0 0,0 0,0 0,0 0,0 0,0 0,0 0,0 0,0 0,0 0,0 0,0 0,0 0,0 0,0 0,0 0,0 0,0 0,0 0,0 0,0 0,0 0,0 0,0 0,0 0,0 0,0 0,0 0,0 0,0 0,0 0,0 0,0 0,0 0,0 0,0 0,0 0,0 0,0 0,0 0,0 0,0 0,0 0,0 0,-1 0,0 0,0 0,0 0,0 0,0 0,0 0,0 0,0 0,0 0,0 0,0 0,0 0,0 0,0 1,0 -1,0 -1,0 -1,0 0,0 1,0 1,0 0,0 0,0 -1,0 1,0 1,0 1,0 0,0 0,0 0,0 0,0 0,0 0,0 0,0 0,0 0,0 0,0 0,0 0,0 0,0 0,0 0,0 0,0 0,0 0,0 0,0 -1,0 -1,-1 0,0 1,0 1,0 0,0 0,0 0,0 0,0 0,0 0,0 0,0 0,0 0,0 0,0 0,0 0,0 0,0 0,0 0,0 0,0 0,0 0,0 0,0 0,0 0,0 0,0 0,0 0,-1 0,0 0,0 0,0l-1 0c0,0 0,0 0,0zm44 -55c0,0 0,0 0,0 0,0 0,0 0,0zm-7 -4c1,0 1,0 1,0 0,0 0,0 0,0 0,1 0,1 0,1 0,0 1,1 1,1l1 1c0,0 0,0 0,0 0,0 0,0 -1,0l0 0c0,0 0,0 0,-1 0,0 -1,0 -1,0 0,-1 0,-2 0,-2 -1,0 -1,0 -1,0zm14 -2c0,0 0,0 0,0l0 0c0,0 0,0 0,0 0,1 -1,1 -1,1l-1 0c0,0 -1,0 -1,0 0,0 0,0 0,0l-1 0c0,0 0,0 0,0l0 0c0,0 0,0 0,0l1 0c0,0 0,0 0,-1 0,0 0,0 0,0 0,0 0,0 0,1 0,0 0,0 0,0 -1,0 -1,0 -2,0 0,0 -1,0 -1,0 -1,0 -1,0 -1,0 0,0 0,0 -1,0 1,0 1,0 1,0 0,0 0,-1 0,-1 0,0 0,0 1,0 0,0 0,0 1,0l1 0c0,0 0,0 0,0 0,0 0,0 0,0 1,0 1,0 1,0 0,0 0,0 0,0 1,0 2,0 2,0 1,0 1,0 1,0zm-13 2c0,0 1,0 1,0 0,0 0,0 0,0 0,0 1,0 1,0 0,0 1,0 1,0 1,0 1,0 1,0 0,0 0,0 0,0 0,0 0,0 0,0 0,0 0,0 1,1 0,0 0,0 1,1 0,0 0,0 0,1 0,0 0,0 0,1 0,0 0,0 0,0 0,0 0,0 0,0 0,0 0,0 0,0 0,0 0,0 -1,0 0,0 0,0 0,0 0,0 0,0 0,0l-1 0c0,0 0,0 0,0 0,0 0,0 0,0 0,0 -1,-1 -1,-1l-1 -1c0,0 0,0 -1,-1l0 0c0,-1 -1,-1 -1,-1 0,0 0,0 0,0 0,0 0,0 0,0zm9 -4l0 0c0,0 0,0 0,0 1,-1 1,-1 1,-2 0,0 0,0 0,0 0,0 1,-1 1,-1 0,0 0,0 0,0 0,0 0,0 1,0 0,0 0,0 0,0 0,0 1,0 1,0 0,0 1,1 1,1 0,0 0,0 0,0l0 0 0 0 0 0 0 0c0,0 0,0 0,0l0 0c-1,1 -1,1 -2,1 0,0 0,0 0,0 0,0 -1,1 -1,1 0,0 -1,0 -1,1l0 0c0,0 0,0 0,0 0,0 0,0 0,0 0,0 0,0 0,0 -1,0 0,0 -1,0 0,0 0,0 0,0 0,0 0,0 0,0l1 -1c1,0 1,0 1,0l0 -1c0,0 1,0 1,0 -1,0 -1,0 -1,0 0,0 0,0 -1,0l-1 1zm-4 1c0,0 0,0 0,0 0,0 0,0 0,0 0,0 0,0 0,0 0,0 0,0 -1,0 0,0 0,0 0,1 0,0 -1,0 -1,0 0,0 0,0 0,0 0,0 0,0 0,0 0,0 0,0 -1,0 0,0 0,0 0,0 0,0 0,1 0,1 0,0 0,0 0,0 0,-1 0,-1 0,-1l-1 0c0,0 0,0 0,0 0,-1 1,-1 1,-1 1,0 1,0 1,0 1,-1 2,-1 2,-1 0,0 1,0 1,1 0,0 0,0 0,1 0,0 -1,0 -1,0 0,0 0,0 0,1 -1,0 -1,0 -2,0 0,0 0,0 0,0 0,0 0,0 1,0 0,0 0,0 0,-1 0,0 1,0 1,-1 0,0 0,0 0,0 0,0 0,0 0,0zm-9 -1l1 0 0 0c0,0 0,0 0,0 0,0 0,0 1,1 0,0 0,0 0,0 0,0 1,1 1,1 1,0 1,0 1,0 0,0 0,0 0,0 0,0 0,0 0,0 0,0 1,1 1,1 0,0 0,0 -1,0 0,0 0,0 0,0l-1 0c0,0 0,0 -1,0 0,0 0,0 0,0 0,0 -1,-1 -1,-1 0,0 0,0 0,-1 0,0 -1,-1 -1,-1 0,0 0,0 0,0 0,0 1,0 0,0zm15 -7l0 0c0,0 0,1 0,1l0 0c0,1 0,1 0,1l0 1c0,0 0,0 0,0l0 0c0,0 0,0 0,0 -1,0 -1,0 -1,0 0,0 0,0 0,0l-1 1c0,0 0,0 0,0 0,0 0,-1 0,-1 0,0 0,-1 0,-1 0,0 0,0 0,0l1 0c0,-1 0,-1 0,-1 0,0 0,0 0,-1 0,0 0,0 0,0 1,0 1,0 1,0zm-4 7c0,0 0,0 -1,0 0,0 1,-1 1,-1 0,0 0,0 0,0 1,0 2,-1 2,-2 0,0 1,0 1,0 0,0 0,0 0,0 0,1 -1,1 -1,2 0,0 -1,0 -1,1 0,0 0,0 -1,0 0,0 0,0 0,0zm1 -3l0 0c0,0 0,0 0,0l1 -2c0,0 0,0 0,0 0,0 0,0 0,0 -1,0 -1,1 -1,1l-1 2c0,0 0,-1 0,-1 0,0 0,0 0,-1 0,0 0,0 0,0 0,0 0,0 0,0 0,0 0,0 0,0 0,0 0,-1 0,-1 0,0 0,0 -1,0 0,0 0,0 0,0l0 0c0,0 0,0 0,0l0 0c0,0 0,-1 -1,0 0,0 0,0 0,0l0 0c0,0 0,0 0,0l0 -1c1,0 1,0 1,0 0,0 0,0 0,0 0,0 0,0 1,0 0,0 0,0 0,-1 0,0 0,0 0,0 0,0 0,0 1,0 0,0 0,0 0,0 0,0 1,-1 1,-1 0,0 0,0 0,0 1,0 1,1 1,2 -1,0 -1,0 -1,0 0,0 0,0 0,1l0 0c0,0 0,0 0,0 0,0 -1,1 -1,1 0,1 0,1 0,1 0,0 0,0 0,0l0 0zm1 -2l0 0c0,0 0,0 0,0zm-16 -3c0,0 0,0 0,0 0,0 0,0 0,0 0,0 1,0 1,0 0,0 0,0 0,0 0,0 0,1 0,1 1,0 1,0 1,0 0,1 1,1 1,2 0,0 0,0 0,0l1 0c0,0 0,0 0,0 0,0 0,1 0,1 1,0 1,1 1,2 1,1 1,2 2,3 -1,0 -1,0 -1,0 0,0 0,0 0,-1 0,0 0,0 -1,0 0,0 0,-1 0,-1l0 0c0,0 0,0 0,0l-1 0 0 0c0,0 0,0 0,0l0 0 0 -1 0 0c0,0 0,0 0,0 0,0 0,0 0,0l0 0c0,0 0,0 0,0l0 0c0,0 0,0 0,0l-1 -1c0,-1 -1,-2 -1,-2l-1 -1c0,0 0,0 0,0 0,0 0,0 0,0 0,0 0,0 0,0l0 0c0,0 0,0 0,0 0,0 0,0 0,0 0,0 0,1 0,1 0,0 0,1 1,1 0,0 0,1 0,1l1 1c0,0 0,0 0,1 0,0 0,0 0,0 1,0 1,0 1,0 0,0 0,0 0,0l-1 0c0,0 0,0 0,0 0,0 0,0 0,0 0,0 0,-1 -1,-1 0,-1 0,-1 0,-1l-1 -2c-1,0 -1,-1 -1,-1l0 0c0,-1 0,-1 0,-1 0,0 0,0 0,0 0,0 0,0 0,-1zm1 2l0 0c0,0 0,0 0,0zm0 0l0 0c0,0 0,0 0,0zm0 0c0,0 0,0 0,0 0,0 0,0 0,0zm9 3c1,0 1,0 1,0 1,0 1,0 1,-1 1,1 1,1 1,1 0,0 0,1 0,1 0,0 0,0 0,0l0 0c0,1 0,1 0,1 0,0 0,0 0,0l0 0 0 0 0 0 0 0 0 0c0,0 0,0 0,0l0 0c0,0 0,0 0,0 0,0 0,0 0,0 -1,1 0,0 -1,0 0,0 -1,1 -1,1 0,-1 0,-1 0,-1l0 0c0,0 0,0 0,0 0,0 0,0 0,0 0,0 0,0 0,-1 0,0 0,0 0,0 -1,0 -1,-1 -1,-1zm-15 1c0,0 0,1 0,1 0,0 0,0 0,0 1,0 1,0 1,1 0,0 0,0 0,0 0,0 0,0 0,0l1 0c0,0 0,0 1,1l0 0c0,0 1,0 1,1 0,0 0,0 0,0 0,0 0,0 0,0l0 0c0,0 1,0 1,0 0,0 0,0 0,0 0,0 1,1 2,1 0,0 1,1 2,1 0,0 1,0 1,0 0,0 0,0 0,0 0,0 1,0 1,0 0,0 0,1 0,1 0,0 1,1 1,1 0,1 1,1 1,2 0,0 0,0 1,0l0 0c0,0 0,0 0,0 0,0 0,0 0,0 0,0 0,0 0,0l0 0c0,0 1,1 1,1 0,0 0,0 0,0l1 0c0,0 1,1 1,1 0,-1 0,-1 1,-1 0,0 0,0 0,-1l0 0c1,-1 1,-1 0,-2 0,-1 0,-1 0,-1 0,-1 0,-1 0,-1 0,0 0,0 0,0 0,0 0,0 0,0 0,0 0,0 1,0 0,1 1,1 2,0l1 0c0,0 1,0 1,0 0,0 1,0 1,0 1,-1 1,-1 2,-1 0,0 0,0 0,-1 0,0 0,0 0,0 0,0 0,0 0,0l0 0 0 0 0 0 0 0 0 0 0 0c-1,0 -1,0 -1,-1 -1,0 -1,0 -1,0 -1,0 -2,0 -2,0l0 0c0,0 1,0 1,0 1,0 1,-1 1,-1 1,0 1,0 1,0 0,-1 1,-1 1,-1 0,0 0,0 0,0l1 0c0,-1 0,-1 0,-1 0,-1 0,-1 -1,-1 0,0 0,0 0,0 -1,-1 -1,-1 -2,-1 -1,0 -1,1 -1,1 0,0 0,-1 0,-1 0,0 1,-1 1,-1 0,-1 0,-1 0,-2 0,0 0,0 0,-1 0,0 -1,0 -1,0 0,0 0,0 0,1 0,0 -1,0 -1,0l0 0c0,-1 0,-1 0,-2 0,0 0,0 0,0 -1,0 -1,0 -2,0 0,1 -1,1 -1,1 0,0 0,0 0,0 0,0 0,-1 0,-1 0,-1 0,-1 -1,-1 0,0 0,0 0,0 0,-1 -1,0 -1,0 0,0 -1,-1 -1,-1 0,0 0,0 -1,0 0,0 0,0 0,0 0,1 0,1 0,1 -1,0 -1,0 -1,0 0,0 0,0 0,0l-1 1c0,0 0,-1 0,-2 -1,0 -1,0 -1,0 0,-1 -1,-1 -1,0 0,0 -1,0 -1,0 0,0 0,0 0,1 0,0 0,0 0,0 0,0 0,0 0,0 0,0 0,0 0,0 -1,0 -1,0 -1,0 0,0 0,1 0,1 0,1 0,2 0,2l0 0c-1,0 -1,0 -1,-1l-1 0c0,0 0,0 -1,-1 0,0 -1,0 -1,0 0,0 -1,0 -1,0 0,0 0,1 0,1 0,1 0,1 0,2 0,0 1,1 1,1 0,1 1,2 1,3l1 0c0,0 0,0 0,0 0,0 0,1 0,1l0 0 0 0c0,0 0,0 -1,0 0,-1 0,-1 0,-1 -1,0 -1,0 -2,0 0,0 -1,0 -1,0l-1 0c0,0 0,0 0,0 0,0 -1,0 -2,0zm18 -2c0,0 0,0 0,0 0,0 0,0 0,0 0,0 0,0 0,0 1,0 1,0 1,0 0,0 0,0 0,0l0 0c0,0 -1,0 -1,0 0,0 0,0 0,0zm-7 1c0,0 0,0 0,0 0,0 0,0 1,-1 0,0 0,0 0,0 0,0 1,1 1,0 0,0 0,0 1,0 0,1 1,2 1,2 0,1 0,1 0,1l0 1c0,0 0,0 -1,0 0,0 0,0 -1,0 0,1 0,1 0,1l0 -1c0,0 0,-1 0,-1 0,-1 0,-1 -1,-1 0,0 0,-1 0,-1 0,0 0,0 0,0 0,0 0,0 0,0 0,0 0,0 0,0l0 0c0,0 0,0 0,0 0,1 0,1 0,1 0,0 0,0 0,0 0,0 0,0 0,-1 0,0 0,0 0,0l0 0c0,0 0,0 0,0 0,0 0,0 -1,0l0 0c0,0 0,0 0,0zm-9 2c0,0 0,0 0,0l1 0c1,0 1,0 2,0 0,0 1,0 1,0 0,0 0,0 0,0 1,0 1,0 1,0l1 1c0,0 0,0 0,0 0,0 0,1 0,1 0,0 0,0 0,0 0,0 0,0 0,0 0,0 -2,-1 -2,-1l-1 0c0,0 0,0 0,0 0,0 0,0 -1,0 0,0 0,0 0,0l0 0c0,0 0,0 0,0 0,0 0,0 0,0 0,0 0,0 1,0 0,0 0,0 0,0 0,1 1,1 1,1 0,0 0,0 0,0l0 0c1,0 0,0 1,0l0 0 0 0 0 1 0 -1 0 1c0,0 0,0 0,0l0 0c0,0 0,0 0,0l0 0 0 0 0 0c0,0 0,0 0,0l0 0c0,0 0,0 0,0l0 0 0 0 0 0 1 0 0 0c0,0 0,0 0,0l0 0 0 0 0 0 0 0 0 0c0,0 0,0 0,0 0,0 0,0 0,0 0,0 0,0 0,0l-2 0 -1 -1c0,0 0,0 0,0l-1 0c0,-1 0,-1 0,-1 0,0 -1,0 -1,-1l-1 0c0,0 0,0 0,0 0,0 0,0 0,0zm15 -3l0 0c0,0 0,0 0,-1 0,0 0,0 1,0 -1,0 -1,0 -1,1zm-4 0c0,-1 0,0 0,-1l0 0c0,0 0,0 0,0 0,0 0,0 0,1zm2 -1l0 0c0,0 0,0 0,0l0 0c0,0 1,0 1,-1 0,1 0,1 0,1l0 0c-1,0 -1,0 -1,1l0 0c0,0 0,0 0,0l0 0 0 0c1,0 1,0 1,0l0 0c0,0 0,0 0,0 0,0 0,0 0,0 0,0 0,0 0,-1l0 0c0,0 0,0 0,0l0 0 0 0 0 0c0,0 0,0 0,0 0,0 0,0 0,0 0,0 0,0 0,0 1,0 0,0 1,0 0,0 0,0 0,-1 0,0 0,0 0,0 0,1 0,0 0,1l0 0 0 0 0 0c0,0 0,0 0,0l0 0c0,0 0,0 0,0l0 0c0,0 0,0 0,0l0 0c0,0 0,0 0,0 0,0 0,0 0,0l0 1c0,0 0,0 0,0 0,0 0,0 -1,0 0,0 0,-1 0,-1l0 1c0,0 0,0 0,0 0,0 0,0 0,0 0,0 0,0 -1,1 0,0 0,0 0,0 0,0 0,0 0,0 0,0 0,0 0,0 0,0 0,0 0,0 0,-1 0,-1 0,-1l0 0c0,0 0,0 0,0 0,0 0,0 0,0l0 0c0,0 0,0 0,0l0 0c0,0 0,0 0,0l0 0 0 0 0 0c0,0 0,0 0,1 0,-1 0,0 0,-1 0,0 0,0 0,0 0,0 0,0 0,-1 0,0 0,0 0,0 0,0 0,0 0,0 0,0 0,0 0,0 0,0 0,1 0,1 0,0 -1,0 -1,0 0,0 0,0 0,0l0 -1c0,0 0,0 0,0l0 0 0 0 0 0c0,0 0,0 0,0 0,0 0,0 0,0l1 0c0,0 0,0 0,0l0 0c0,0 0,0 0,0 0,0 0,0 0,0l0 0c0,-1 0,0 0,-1l0 0c0,0 0,0 0,0l0 0c0,1 0,1 0,1zm-2 0c0,0 0,0 0,0 0,0 0,0 0,0l0 0 0 0 0 0c0,0 0,0 0,0 0,0 0,0 0,0 0,0 0,0 0,0 0,-1 0,-1 0,-1 1,1 0,1 0,1zm0 -1l0 0 0 0 0 0 0 0zm1 1l0 0c0,0 0,0 0,0l0 0c0,0 0,0 0,0 0,0 0,0 0,0 0,0 0,0 0,0l0 0c0,0 0,0 0,0l0 -1c0,0 0,0 0,0l0 0c0,0 0,0 0,0l0 0c0,0 0,0 0,0 0,0 0,0 0,1l0 0zm-5 0c1,0 1,-1 1,-1 0,0 0,0 0,0 0,0 0,-3 0,-3l0 0c0,0 1,1 1,1 0,1 0,1 0,1 0,0 0,0 0,1 1,0 1,0 1,0 0,0 0,1 0,1 0,0 0,0 0,0 -1,0 -1,0 -1,1l0 0c0,0 0,0 0,0 0,0 -1,0 -1,0 0,0 0,-1 0,-1l0 0c0,0 0,0 -1,0zm5 -1l0 0c0,0 0,0 -1,-1 0,0 0,0 0,0 0,0 0,1 0,1 0,0 0,0 0,0 0,0 0,0 0,0l0 0c0,0 0,0 0,0 0,0 -1,0 -1,1 0,-1 0,-1 0,-1l0 -1c1,0 1,0 1,0l0 -1c1,0 1,0 1,0 0,-1 0,-1 0,-1 0,0 0,0 0,0l1 1c0,0 0,0 0,0 0,1 0,1 0,1l1 0c0,0 0,0 0,0 0,1 0,1 0,1 0,0 0,0 0,0 0,0 0,0 0,0 0,0 0,0 0,0 0,-1 0,-1 0,-1 0,0 0,0 0,0 0,0 0,0 0,0 0,0 0,0 0,0 0,0 0,0 0,0 0,-1 0,0 0,-1 0,0 0,0 0,0 0,0 0,0 0,0 0,0 0,0 1,0l1 -1c0,0 0,0 0,0l0 0c0,1 0,1 0,1 0,0 0,0 0,0l0 1c0,0 0,0 0,0 0,0 0,0 0,1 0,0 0,0 0,0 -1,0 -1,0 -1,0 0,0 0,0 0,0 0,0 -1,0 -1,0 0,0 0,0 0,0 0,0 0,0 0,0 0,0 0,0 -1,0 0,0 0,0 0,0 0,0 0,0 0,0 0,0 0,0 0,0 0,0 0,0 0,0 -1,0 0,0 0,0 -1,-1 -1,-1 -1,-1 0,0 0,0 0,0 0,0 0,0 0,1 0,0 0,0 0,0zm1 -4c0,0 0,0 1,0l0 -1c0,1 0,1 0,1 0,0 1,0 1,0 0,1 -1,1 -1,1 0,0 0,0 0,0 0,0 0,0 0,0 0,0 0,0 -1,1 0,-1 0,-2 0,-2zm-5 0c0,0 0,0 1,0 0,0 0,0 0,-1 1,1 1,1 1,1 0,1 1,1 1,1 0,1 0,1 0,1 0,0 0,0 0,0l-1 1c0,0 0,-1 0,-1 0,0 0,0 -1,0 0,-1 0,-1 0,-1 0,0 0,0 0,0l-1 0c0,-1 0,-1 0,-1zm-10 -18l0 0c0,0 0,0 0,0l0 0c0,0 0,0 0,0 0,0 0,0 0,0l0 0c0,0 0,0 0,0l0 0c0,0 0,0 0,0 0,0 0,0 -1,0l0 0c0,0 0,0 0,0 0,0 0,0 0,1 0,0 0,-1 0,0 0,0 0,0 0,0 0,0 0,0 0,0 0,0 0,0 0,0 0,0 0,0 0,0 0,0 0,0 0,0 0,0 0,0 0,0 0,0 0,0 0,0 0,0 0,0 0,0l0 0c0,0 0,0 0,0l0 0c0,0 0,0 0,0 0,0 0,0 0,0 -1,0 0,0 -1,0 0,0 0,0 0,0 0,0 0,0 0,0 0,0 0,0 0,0 0,0 0,0 0,0l0 1c0,0 0,0 0,0l0 0c0,0 0,0 0,0 0,0 0,0 0,0 0,0 0,0 0,0l0 0c0,0 0,0 0,0 0,0 0,0 0,0l0 0c0,0 0,0 0,0l0 0c0,0 -1,0 -1,0 0,0 0,0 0,0 0,0 0,0 0,0l0 0c0,0 0,0 0,0l0 0 0 1 0 1c0,0 0,0 0,0 0,0 0,0 0,0l0 0c0,0 0,0 0,0 0,0 0,0 0,0 0,1 0,1 0,1l0 0c0,0 0,0 0,0l1 0c0,0 0,0 0,1l0 0c0,0 0,0 0,0l0 0 0 0c0,0 0,0 0,0 0,0 0,0 0,0 0,0 0,0 0,0 0,0 0,0 0,0l0 0 0 0c0,0 0,0 1,0 0,0 0,0 0,0l0 0c0,0 0,0 0,0l0 0c0,0 0,0 0,0 0,0 0,0 0,0l0 0c0,0 0,0 1,0l0 0c0,0 0,0 0,0l0 0c0,0 0,0 0,0l0 0c0,0 0,0 0,0l0 0c0,0 0,0 0,0l0 0c0,0 0,0 0,0l0 0c0,0 0,0 0,0l1 0c0,0 0,0 0,0 0,0 0,0 0,0l0 0c0,0 0,0 0,0l0 0c1,0 1,0 1,0l0 0c0,1 0,1 0,1l0 0 0 0c0,0 0,0 0,0l0 0c0,0 0,0 0,0l0 0 0 0 1 0c0,0 0,0 0,0 0,0 0,0 0,0 0,0 0,0 0,0 0,0 0,0 0,0 0,0 0,0 0,0 0,0 0,0 0,0 0,0 0,0 0,0l0 0c0,0 0,0 0,0 0,0 0,0 0,0l0 0c0,-1 0,-1 0,-1 0,0 0,0 0,0 0,0 0,0 0,0l0 0c1,0 1,0 1,0 0,0 0,0 0,0 0,0 0,0 0,0 0,0 0,0 0,0 0,0 0,0 0,0 0,0 0,0 0,0 0,0 0,0 0,0 0,0 0,0 0,0l0 0c0,0 0,0 0,0 0,0 0,0 0,0l0 0c0,0 0,0 0,0 0,0 0,0 0,0 0,0 0,0 0,-1l0 0 0 0c1,0 1,0 1,0 0,0 0,0 0,0l0 0c0,0 0,0 0,0l0 0 0 0c0,0 0,0 0,0l0 0c0,-1 0,0 0,-1 0,0 0,0 0,0 0,0 0,0 0,0 0,0 0,0 0,0 0,0 0,0 0,0l0 -1c0,0 0,0 0,0l0 0c0,0 0,0 0,0 0,0 0,0 0,0l0 0c0,0 0,0 0,0l0 0c0,0 0,0 -1,0l0 0c0,0 0,0 0,0l0 0c0,0 0,0 0,0l0 0 0 -1c0,0 0,0 0,0l0 0c0,0 0,-1 0,-1 0,0 0,0 0,0 0,0 0,0 0,0l0 0 -1 -1c0,0 0,0 0,0l0 0c0,0 0,0 0,0l0 0c0,0 0,0 0,0l-1 0 0 0c0,0 0,0 0,0l0 0c0,0 0,0 0,0l0 0 0 0c0,0 0,0 -1,0 0,0 0,0 0,0 0,0 0,0 0,0l0 0c0,0 0,0 0,0 0,0 0,0 0,0 0,0 0,0 0,0 0,0 0,0 0,0l-1 0c0,0 0,0 0,0l0 0c0,0 0,0 0,0zm6 -1l0 0 0 0c0,0 0,0 0,0l0 0c0,0 0,0 0,0 0,0 0,0 0,0l0 0c0,0 0,0 0,0l0 0c0,0 0,0 0,0 0,0 0,0 0,0l0 0c0,0 0,0 0,0 0,0 0,0 0,0 0,0 0,0 0,1 0,0 0,-1 0,0l0 0 0 0 -1 0c0,0 0,0 0,0l0 0c0,0 0,0 0,0 0,0 0,0 0,0l0 0 0 0c0,0 0,0 0,0l0 1c0,0 0,0 0,0 0,0 0,0 0,0 0,0 0,0 0,0 0,0 0,0 0,0l0 1c0,0 0,0 0,0l0 0c0,0 0,0 0,0l0 0c0,0 0,1 0,1l0 0c0,0 0,0 0,0l1 0c0,0 0,0 0,0 0,0 0,0 0,0l0 0c0,0 0,0 0,0 0,0 0,0 0,0l0 -1c1,0 1,0 1,0l0 0c0,0 0,0 0,0 0,0 0,0 0,0 0,0 0,0 0,0l0 0c0,0 0,0 0,0l0 0c0,0 0,0 0,0l0 0 0 0 0 0 0 0c0,0 0,0 0,0 0,-1 0,-1 0,-1 0,0 0,0 0,0l0 0c0,0 0,0 0,0 0,0 0,0 0,0 0,0 0,0 0,0l0 0c0,0 0,0 0,0 0,-1 0,-1 0,-1l0 0c0,0 0,0 0,0 0,0 0,0 0,0 0,0 0,0 0,0l0 0c0,0 0,0 0,-1l0 0c0,0 0,0 0,0 0,0 0,0 0,0l0 0 0 0c0,0 0,0 0,0l0 0c0,0 0,0 0,0 0,0 0,0 -1,0 0,0 0,0 0,0zm-2 -3l0 0c-1,0 0,0 -1,0 0,0 0,0 0,0 0,0 0,0 0,0 0,0 0,0 0,0l0 0c0,0 0,0 0,0l0 0c0,0 0,0 0,0l0 0c0,0 0,0 0,0l0 0c0,0 0,0 0,0 0,0 0,0 0,0l0 0c0,0 0,0 0,0l0 1c0,0 0,0 0,0 0,0 0,0 0,0l0 0 0 0c0,0 0,0 0,0l0 0c0,0 0,0 -1,0 0,0 0,0 0,0l0 0c0,0 0,0 0,0 0,0 0,0 0,0l0 0 0 1 0 0c0,0 0,0 0,0l0 0c0,0 0,0 0,0l0 0c0,0 0,0 0,0 0,0 0,0 0,0l0 0c0,0 0,0 0,0 0,1 0,1 0,1l0 0c0,0 0,0 0,0 0,0 0,0 0,0l0 0c0,0 0,0 0,0l0 0c0,0 0,0 0,0l0 0 0 0 1 0c0,0 0,0 0,0 0,1 0,0 0,1l0 0c0,0 0,0 0,0 0,0 0,0 0,0l0 0c0,0 0,0 0,0l0 0c0,0 0,0 0,0 0,0 0,0 0,0l0 0c0,0 0,0 0,0 0,0 0,0 0,0l0 0c0,0 0,0 0,0l1 0c0,0 0,0 0,0 0,0 0,0 0,0l0 0c0,0 0,0 0,0 0,0 0,0 0,0 0,0 0,0 0,0l0 -1c0,0 0,0 0,0 0,0 0,0 0,0l0 0c0,0 0,0 0,0l1 0c0,0 0,0 0,0 0,0 0,0 0,0 0,0 0,0 0,0 0,0 0,0 0,0l0 0 0 0c0,0 0,0 0,0 0,0 0,0 0,0l0 0c0,0 0,0 0,0l0 -1c0,0 0,0 0,0l0 0c0,0 0,0 0,0l0 0c0,0 0,0 0,0l0 0c0,0 0,0 0,0 0,-1 0,-1 0,-1 0,0 0,0 0,0l0 0 0 0c0,0 0,0 0,0l0 -1c0,0 0,0 0,0l0 0c0,0 0,0 0,0l0 0c0,0 0,0 0,0 0,0 0,0 0,0l-1 0 0 0c0,0 0,0 0,0 0,0 0,0 0,0l0 0c0,0 0,0 0,0l0 0c0,0 0,0 0,0 0,0 0,0 0,0l0 0c0,0 0,0 0,0 0,0 0,0 0,0l0 0c0,0 0,0 0,0l0 0c0,0 0,0 0,0zm-4 -1c0,0 0,0 0,0 0,0 0,0 0,0 0,0 0,0 0,0 0,0 0,0 0,0 0,0 0,0 0,0l0 0 0 0c0,0 0,0 0,0l0 0c0,0 0,0 0,0 0,0 0,0 0,0l0 0c0,0 0,0 0,0 0,0 0,0 0,0l-1 1c0,0 0,0 0,0 0,0 0,0 0,0l0 0c0,0 0,0 0,0l0 0c0,0 0,0 0,0l0 0 0 1c0,0 0,0 0,0l0 0c0,0 0,0 0,0l0 0c0,0 0,0 0,0 0,0 0,0 0,0 0,0 0,0 0,0 0,0 0,0 0,0 0,0 0,0 0,0l0 1c0,0 0,0 0,0 0,0 0,0 0,0l0 0 0 0c0,0 0,0 0,0 0,0 0,0 0,1l0 0c0,0 0,0 0,0l0 0c0,0 0,0 0,0l0 0c0,0 0,0 0,0l0 0c0,0 0,0 1,0l0 0 0 0c0,0 0,0 0,0l0 0c0,0 0,0 0,0 0,0 0,0 0,0l0 0c0,0 0,0 0,0 1,0 0,0 1,0l0 0c0,0 0,0 0,0 0,0 0,0 0,0l0 0c0,0 0,0 0,0 0,0 0,0 0,0l0 0c0,-1 0,-1 0,-1l0 0c0,0 0,0 0,0l0 0c0,0 0,0 0,0l0 0 0 0c0,0 0,0 0,0 0,0 0,0 0,0 0,0 0,0 0,0l0 0c0,0 0,0 0,0 0,0 0,0 0,0l0 0c0,0 0,0 0,0 0,0 0,0 0,0 0,0 0,0 0,0l1 -1c0,0 0,0 0,0l0 0c0,0 0,0 0,0 0,0 0,0 0,0 0,-1 0,-1 0,-1 0,0 0,0 0,0 0,0 0,0 0,0 0,0 0,0 0,0 0,0 0,0 0,0l0 0c0,0 0,0 0,0l-1 0c0,0 0,0 0,0 0,-1 0,-1 0,-1l0 0c0,0 0,0 0,0 0,0 0,0 0,0 0,0 0,0 0,0 0,0 0,0 0,0l0 0c0,0 0,0 0,0l0 0c0,0 0,0 0,0 0,0 0,0 0,0l0 0c-1,0 -1,0 -1,0 0,0 0,0 0,0zm-3 3l0 0 0 0c0,0 0,0 0,0 0,0 0,0 0,0l0 0c0,0 0,0 0,0 0,0 0,0 0,0 0,0 0,0 0,0l0 0 0 0 0 0c0,0 0,0 0,1l-1 0 0 0c0,0 0,0 0,0l0 0c0,0 0,0 0,0 0,0 0,1 0,1 0,0 0,0 0,0 0,0 0,0 0,0 0,0 0,0 0,0 0,0 0,0 0,0l0 0c0,0 0,0 0,0l0 1 0 0c0,0 0,0 0,0l1 0c0,0 0,0 0,0l0 0c0,0 0,0 0,0 0,0 0,0 0,0l0 0c0,0 0,0 0,0 0,0 0,0 0,0 0,0 0,0 0,0 0,0 0,0 0,0 0,0 0,0 0,0l0 0c0,0 0,0 0,0 0,0 0,0 0,0l1 0 0 0 0 0c0,0 0,0 0,0 0,0 0,0 0,0l0 0c0,0 0,0 0,0 0,0 0,0 0,-1 0,0 0,0 0,0 0,0 0,0 0,0 0,0 0,0 0,0 0,0 0,0 0,0l0 0 0 0c0,0 0,0 0,0l0 0c0,0 0,0 0,0l0 0c0,0 0,0 0,0l0 0c0,0 0,0 0,0 0,0 0,0 0,0l1 -1c0,0 0,0 0,0l0 0 -1 0c0,-1 0,-1 0,-1l0 0c0,0 0,0 0,0l0 0c0,0 0,0 0,0l0 0c0,0 0,0 0,0 0,0 0,0 0,0 0,0 0,0 0,0 0,0 0,0 0,0 0,0 0,0 0,0l0 0c0,0 0,0 0,0l0 0c0,0 0,0 0,0l-1 0c0,0 0,0 0,0l0 0c0,0 0,0 0,0 0,0 0,0 0,0zm2 92c0,-1 0,-1 0,-1 0,0 0,0 0,1 0,-1 0,-1 0,-1 0,0 0,0 0,0 0,0 0,0 0,0 0,0 0,0 0,-1 0,0 0,0 0,0 0,-1 0,-1 0,-1 0,0 0,0 0,0 -1,0 -1,0 -1,0 0,0 0,0 0,0 0,1 0,0 0,1l1 1c-1,-1 -1,-1 -1,-1 0,0 0,0 0,0 0,0 0,0 -1,0 1,0 1,0 1,1 0,0 0,0 0,0 0,0 0,0 0,1l0 0c0,0 0,0 0,0 0,0 0,0 0,0 0,0 0,0 0,0 0,0 0,-1 0,-1 0,0 0,1 0,1 0,0 0,0 0,1 0,0 1,0 1,0 0,0 0,0 0,0 0,-1 -1,-1 0,-1zm-1 2l-1 0c1,0 1,0 1,0zm-1 3c0,0 -1,0 -1,0l0 0c0,0 0,0 0,0l1 0zm2 2c-1,0 0,-2 0,-2 0,-1 0,-1 0,-1 0,1 0,2 0,3zm0 0l0 0c0,0 0,0 0,0zm-4 -4l0 0c0,0 0,0 0,0zm-1 3c0,0 0,0 0,0l0 -1c0,0 0,-1 0,-1 0,0 0,0 0,-1l1 0 0 0c-1,1 -1,2 -1,2 0,0 0,0 0,0l0 1zm4 -1c0,0 0,0 0,1 0,0 0,0 0,0 0,0 0,0 0,0 0,1 0,1 -1,1 0,0 1,-1 1,-1l-1 1c0,0 0,0 -1,0l0 0c0,0 1,-1 1,-1 0,0 1,-1 1,-1 0,0 0,0 0,0zm-1 2l0 0c0,0 0,0 0,0zm8 -24c0,0 0,0 0,0 0,0 0,0 0,0l0 1c0,-1 0,-1 0,-1 1,0 1,0 1,0 0,0 0,0 0,0 0,1 -1,1 -1,1 -1,0 -1,0 -2,0l0 0c0,0 0,0 1,0 0,0 0,0 1,-1 0,0 0,0 0,0zm-13 11l0 0c0,1 -1,1 -1,1 -1,1 -1,1 -2,2l0 0c0,0 -2,1 -2,1l0 0c1,0 3,-1 3,-1 2,-2 1,-3 5,-4l0 0c1,0 1,0 1,0 0,0 0,0 0,0 0,-1 0,-1 0,-1 0,-1 0,-1 0,-1 1,0 0,-1 1,-1 0,0 0,0 0,0l0 0c1,0 1,-1 1,-1 0,0 0,-1 0,-1l0 -1c0,0 0,0 0,0 0,0 0,0 -1,0 0,-1 0,0 -1,-1 0,0 0,-1 0,-1 0,0 0,-1 0,-1 0,-1 1,-1 1,-1 0,0 0,0 1,0 1,0 0,-1 0,-1 0,-1 0,-1 -1,-1 0,-1 0,-2 1,-3 0,0 0,0 1,0 0,0 0,0 0,0 0,0 0,0 1,0 0,0 1,0 1,0l0 0c1,0 1,0 1,0 1,0 1,0 1,0 0,0 0,0 0,0 0,0 0,0 0,0 1,0 1,0 1,0 1,0 1,0 1,1 0,0 1,0 1,1 0,1 -1,1 -1,1 0,0 0,0 0,0 0,0 0,0 1,0 0,0 0,0 0,0 1,0 1,1 1,1 0,0 0,0 0,0 1,0 1,1 1,1 0,0 0,0 0,0l0 1c0,0 0,1 0,1 0,0 0,1 -1,1 0,0 0,0 -1,0 0,0 -1,-1 -1,0 -1,0 -1,0 -1,0 0,0 0,0 0,0 0,0 0,0 0,0 0,1 0,1 0,2 -1,0 -1,0 -1,0 -1,0 -1,0 -2,0 0,0 0,0 0,0 0,0 0,1 -1,1 0,1 -1,1 -1,2 0,0 0,0 0,0 0,1 -1,1 -1,1 0,0 0,1 0,1 -1,0 -1,0 -1,0 0,0 1,0 1,0 0,0 1,0 1,0 0,0 0,0 0,0 0,0 0,0 0,0l1 0c0,0 0,0 0,0 0,0 1,0 1,1 -1,0 -1,0 -1,0l0 0c0,0 1,0 1,0 0,0 1,1 1,0 1,0 1,0 1,0 1,0 1,0 1,0 0,0 0,0 0,0 0,0 0,0 0,0 0,0 0,0 0,0 0,0 0,-1 0,-1 0,0 0,0 0,0l1 0c0,1 0,1 0,1 1,0 1,0 1,1 0,0 0,0 0,0 0,0 0,0 1,-1 0,0 0,0 0,0 1,0 1,0 1,0 0,0 0,0 0,0 0,0 0,0 0,1 0,0 0,0 0,0 1,0 1,0 1,0 0,0 0,1 0,1l0 0c0,1 0,1 0,1 0,0 1,0 1,1 0,0 0,0 0,0 0,0 0,1 0,1 0,0 0,0 0,0 0,0 -1,0 -1,0 0,0 0,0 0,0 0,0 0,1 0,1 0,0 0,0 -1,0 0,1 0,1 -1,0 0,0 0,0 0,0 0,0 -1,0 -1,0 1,1 1,1 1,1 0,1 0,1 -1,1 0,0 0,0 0,0 0,0 0,0 -1,0 0,0 0,0 0,0 0,0 0,0 0,0 -1,-1 0,0 -1,-1 0,0 0,0 -1,-1 0,0 0,0 0,0 0,0 0,-1 0,-1 0,0 0,0 -1,0 0,0 -1,0 -1,-1l0 -1c0,0 0,0 0,0 0,-1 -1,-1 -1,-1l0 -1c0,0 0,0 0,0 0,0 0,0 0,0 0,0 0,0 0,0 0,0 0,0 1,1 0,0 0,0 1,0 0,0 0,0 1,0l0 0c0,0 0,0 -1,0l0 0c-1,-1 -1,-1 -1,-1l0 0c0,0 0,0 0,0l0 0c0,0 1,0 1,0 0,0 0,0 0,0l0 0c0,0 0,0 0,0 0,0 0,0 -1,0 0,0 0,-1 0,-1 0,0 -1,0 -1,0 0,0 0,0 0,0 0,0 0,0 0,0l0 1c0,0 0,0 0,0 1,0 1,0 1,1 0,0 -1,-1 -1,-1 0,0 0,0 0,0 0,0 0,0 -1,0 0,0 0,0 0,0 0,0 0,1 -1,0 0,0 -1,-1 -1,-1 0,0 0,0 0,0 0,0 -1,0 -1,0 0,0 1,0 1,1 0,0 0,0 1,0 0,0 0,1 0,1 1,0 1,0 1,0 0,0 0,1 0,1 0,0 0,0 0,0 0,0 0,0 0,1l1 1c0,0 0,0 0,0 0,0 1,0 1,0 0,0 0,0 1,0 0,0 0,0 0,1 0,0 0,0 0,0 1,0 1,0 1,0 0,0 0,0 0,1 1,0 1,0 1,1 0,0 0,1 -1,1 0,0 0,0 0,0 0,0 0,0 0,0 0,0 0,0 -1,0 1,1 1,0 1,1 0,0 0,0 0,0 0,0 0,0 0,0l0 0c0,0 0,0 1,0 0,0 0,0 0,0 0,1 0,1 0,1 0,1 0,0 0,1 0,0 0,0 0,0 0,0 0,0 0,0 -1,1 0,1 -1,1 0,0 0,0 -1,0 0,0 0,0 0,0 0,0 0,0 0,0 -1,0 0,0 -1,0 0,0 0,0 0,0 0,0 0,1 0,1 0,0 -1,0 -1,0l0 1c0,0 -1,0 -1,0 0,0 0,0 -1,0l0 0c-1,0 -1,0 -1,0 0,0 0,0 0,0 -1,0 -1,0 -1,0 0,0 0,-1 0,-1 0,0 0,0 0,1 -1,0 0,0 -1,0 0,0 0,0 0,0 -1,0 -1,1 -1,0 -1,0 -1,0 -1,0 0,0 0,0 -1,0 0,0 0,0 0,0 -1,0 0,-1 0,-1 -1,0 -1,1 -2,1 0,-1 0,-1 0,-1l0 0c0,0 -1,1 -1,0 0,0 0,-1 0,-1 0,0 0,0 0,0l0 0c0,-1 -1,-1 0,-1 0,-1 0,-1 1,-1 0,0 0,-1 0,-1l1 -1c0,0 0,0 1,-1 0,-1 -1,0 1,-2l0 -1c1,-1 1,0 1,-1 0,0 0,0 0,-1 0,0 1,0 1,0 0,0 0,-1 0,-1 0,0 -1,-1 -1,-1 0,0 0,0 0,0 -1,0 -1,1 -2,1 -1,1 -3,3 -4,3 0,0 0,0 0,0 0,0 0,0 0,0 -3,2 -6,4 -9,5 0,0 -1,0 -1,0 0,0 -1,0 -1,0 0,0 0,0 0,0 0,0 0,0 0,0 0,0 0,0 0,0 0,0 0,0 0,0 0,0 -1,0 -1,0 0,0 0,0 0,0l0 0c0,0 -1,0 -1,0l0 0c0,0 0,0 0,0 0,0 0,0 0,0 0,0 0,0 1,0 0,0 0,0 0,0 0,0 0,0 0,0 0,0 0,0 0,0 0,0 0,-1 0,-1 0,0 0,0 0,0l0 0c4,-1 9,-4 13,-7 0,0 0,0 0,0 0,0 0,0 0,0l1 -1c1,0 1,-1 2,-1zm15 3c0,0 0,0 0,0l0 0c1,0 1,0 1,0 0,0 0,0 0,0 0,1 0,1 -1,1 0,0 -1,-1 -1,-1 0,0 0,0 -1,0 0,0 0,0 0,1 0,0 0,0 0,0l1 0c0,0 0,0 0,0l0 0c1,1 1,0 1,0 0,0 0,0 0,0l1 1c0,0 -1,0 -1,0 0,0 0,0 0,0 0,0 0,0 0,0 0,0 0,0 0,0 -1,0 -1,-1 -2,-1 0,0 0,0 0,0l0 0 -1 0c0,0 0,0 0,0 0,0 0,0 0,0 1,0 1,1 1,1l0 0c0,0 0,0 -1,-1 0,0 0,0 0,1 0,0 0,0 0,0 1,0 1,0 1,0 0,0 0,0 0,0 0,1 0,0 0,1 0,0 1,0 1,0 0,0 0,0 0,0 0,0 0,0 0,0 -1,0 -1,0 -1,0l0 0c0,0 0,0 0,1 0,-1 0,-1 0,-1 0,0 0,0 0,-1 -1,0 -1,0 -1,0 0,0 0,0 0,0 0,0 0,0 0,0 0,0 0,0 0,0 0,1 0,1 0,1 0,0 0,0 0,0l0 -1c0,0 0,0 0,0 0,-1 0,-1 0,-1 0,0 0,0 0,0 0,0 0,0 -1,0 0,0 0,0 0,0 0,0 0,0 0,0 0,0 0,0 0,0l0 0c0,0 0,0 0,0l0 0c0,0 0,0 0,0 1,0 1,0 1,0 0,0 0,-1 0,-1 1,0 1,0 1,0 0,0 0,0 0,-1 0,0 -1,0 -1,0 0,0 0,-1 0,-1 0,1 1,1 1,1 0,0 0,0 0,1 0,-1 0,-1 1,-1 0,0 0,0 0,0 0,0 0,0 0,0 1,0 1,0 1,0 0,0 0,0 0,-1 1,0 1,0 1,0 0,0 0,1 0,1 -1,0 -1,0 -1,0 -1,0 0,0 0,0 -1,1 -1,1 -1,1 -1,0 -1,0 -1,0l1 0c0,0 0,0 0,0 1,0 1,0 1,0 0,0 1,0 1,0l0 0c0,0 -1,0 -1,0 0,0 0,0 0,0zm-9 6c0,0 1,0 1,0 0,0 0,1 1,0 0,0 0,0 0,0 0,0 0,0 0,0 0,-1 0,-1 0,-1 0,0 0,-1 0,-1l0 1c0,0 0,1 0,1 0,0 1,0 1,0 0,0 0,0 0,-1 0,0 0,0 1,0l0 0c-1,0 -1,0 -1,0 0,0 0,1 0,1 0,0 0,0 0,0 0,-1 0,-1 1,-1l0 0c0,0 0,0 0,0 0,0 0,1 -1,1 1,0 0,1 0,1 0,0 1,0 1,0 0,0 0,0 0,0l-1 0c0,0 0,0 0,0l0 0c1,1 1,1 1,1 0,0 0,1 0,1 0,0 0,0 0,0 0,0 0,0 0,-1 -1,0 -1,0 -1,-1 0,0 0,0 0,0l0 0c0,0 0,0 0,-1 0,1 0,1 0,1l-1 0c-1,0 -1,0 -1,0 1,1 1,1 1,2 0,0 0,0 0,0 0,0 0,0 0,0l-1 0c0,-1 0,-2 0,-2 0,0 0,0 0,0 0,0 0,0 -1,0 0,1 0,0 -1,1 0,0 0,1 0,1 0,0 0,0 -1,0 0,0 1,-1 1,-1 -1,0 -1,0 0,-1 0,0 0,0 0,0 0,0 0,0 0,0 0,0 0,0 1,0 0,0 0,0 0,0 0,-1 -1,0 -1,-1 0,-1 0,-1 0,-1 0,1 0,1 1,1 0,0 0,1 0,1 0,0 0,0 0,0 0,0 0,0 1,-1 -1,0 -1,0 -1,0 0,0 0,-1 -1,-1 1,0 1,0 1,0 0,0 0,1 0,1zm2 -2l0 0c0,0 0,0 0,0zm4 -22l0 0c0,1 -1,1 -1,1 0,1 0,1 0,1 0,0 0,0 0,1 -1,0 -1,1 -2,1l1 1c0,0 0,0 0,0 1,-1 1,-1 1,-1 0,0 1,-1 1,-1 1,0 1,0 1,0 0,0 0,1 -1,1 0,0 0,0 -1,0l-1 1c0,0 0,0 0,0 0,0 0,0 0,0 1,1 1,1 1,1 -1,1 -1,-1 -2,-1l0 0c-1,0 -1,0 -1,0 0,0 0,0 0,0l0 -1c0,0 -1,0 -1,0 0,1 -1,2 -1,1 0,0 0,0 0,0 0,0 0,0 0,0 0,0 0,0 0,0l0 0c0,0 0,0 0,0 0,0 0,0 1,-1 0,0 0,0 0,0 0,0 0,0 0,0 0,0 1,0 1,0 0,0 0,0 0,0 0,-1 0,-1 0,-1 0,0 0,0 0,0 0,0 0,0 0,0 0,0 -1,0 -1,-1 0,0 0,0 0,-1 0,0 0,0 0,0 0,0 0,0 0,0 0,1 0,1 0,1l0 0c0,-1 0,-1 0,-1 0,0 0,0 1,1 0,1 0,2 0,2 0,0 0,0 0,0 0,0 0,0 1,0 -1,0 0,-1 0,-1 0,0 0,-1 -1,-1 0,-1 0,-1 0,-1l1 0 0 0c0,0 0,0 0,0 0,1 0,1 0,1 0,-1 0,-1 0,-1 0,0 0,0 0,0 0,1 0,0 0,1 0,0 0,0 0,0 0,0 0,1 0,1 0,0 0,0 0,0 0,1 0,1 0,1l0 0c0,0 1,-1 1,-1 0,0 0,0 0,0l0 -1c0,0 0,0 0,0l0 -1c0,0 1,1 0,1l1 0c0,-1 0,-1 0,-1 0,-1 0,-1 1,-1 0,0 0,0 0,0zm-2 1l0 0c0,0 0,0 0,0zm-7 23c0,0 1,0 0,1l0 0c1,0 1,0 1,0 0,-1 0,-1 0,-1 0,0 0,0 -1,0zm1 0c0,0 0,0 0,0 0,0 1,0 1,1 0,0 -1,1 -1,1 -1,0 0,0 -1,1 0,0 -1,-1 0,1l0 1c0,0 0,0 1,0 0,0 0,0 0,0 0,0 0,0 0,0 0,0 0,0 0,0 0,0 0,0 0,0 0,0 0,0 0,0 0,0 0,0 1,0 0,0 0,0 0,0 0,0 0,0 0,0 1,0 1,0 1,1 1,0 0,0 1,0 0,0 0,0 0,0 0,-1 0,0 0,-1 0,0 0,0 1,0 0,0 0,0 0,-1 0,0 1,0 1,0 0,0 -1,0 -1,-1 0,0 0,-1 0,-1l0 0c0,0 1,0 1,1 0,0 0,0 0,0 0,0 0,0 0,1 0,0 0,0 0,0 0,0 0,0 0,0 1,0 1,0 1,0 0,-1 0,-1 1,0l0 0c0,0 0,0 0,0 0,-1 0,-1 0,-1l1 -1 -1 0c0,-1 0,-1 -1,-1 0,0 0,0 0,-1 0,0 0,0 0,0 1,0 1,0 1,0 0,0 0,0 0,0 0,0 0,-1 0,-1 1,0 0,0 0,-1 0,0 0,0 0,0 0,-1 0,0 0,-1 -1,0 -1,0 -1,0 0,0 0,0 -1,0 0,0 0,0 0,0 0,0 0,-1 0,-1 0,0 -1,0 -1,0 0,0 0,0 0,0 0,0 0,0 0,0 0,0 0,1 0,1 0,0 -1,0 -1,0 0,0 0,0 0,1l0 1c0,0 0,0 0,0 0,0 0,0 0,0 0,0 0,0 0,0 0,0 -1,0 -1,0 0,-1 0,-1 0,-1 0,0 0,0 0,0 -1,0 -1,0 -1,0 -1,0 -1,0 -1,0 0,0 0,0 -1,0 0,1 1,1 1,2zm7 -7c1,1 0,1 0,1 0,0 0,0 0,0 -1,0 -1,0 -1,0 0,0 0,0 0,0l0 1c0,0 0,0 0,1 0,0 1,-1 1,0 1,0 1,0 1,1 0,0 0,0 0,0 0,0 0,1 0,1 0,0 1,0 1,0 0,0 0,1 0,1 0,0 0,0 1,0 0,0 0,0 0,0 0,-1 0,-1 0,-1 0,0 0,0 0,-1 0,0 0,0 0,0 -1,-1 0,-1 -1,-1 1,0 1,0 1,1 0,0 0,0 0,0l1 0c0,0 1,0 1,0 0,0 0,0 0,0 0,0 0,0 0,0 0,0 0,0 0,0 0,0 0,0 0,0 0,-1 0,-1 1,-1 0,0 0,0 1,-1 0,0 0,0 0,0 -1,0 0,0 -1,0 0,0 0,0 0,0 0,-1 0,-1 0,-1 -1,0 -1,-1 -1,-1 0,0 0,1 -1,0 1,0 1,0 1,0 0,0 0,0 0,0 1,0 1,0 1,-1 -1,0 -1,0 -1,0 0,0 0,0 0,0 0,0 0,0 0,0 -1,0 -1,0 -1,0 0,0 0,0 -1,1 0,0 0,0 0,0 -1,-1 -1,-2 -1,-2 0,0 0,0 0,0 -1,0 -1,0 -1,0 0,0 0,0 0,0 0,0 -1,0 -1,0 0,1 0,0 -1,1l0 0c0,0 0,0 0,0 0,0 0,0 0,0 0,0 0,0 0,0 0,0 1,1 1,1 0,0 0,0 0,0zm-6 2c0,0 0,0 0,0 0,1 0,1 0,2 0,0 0,0 0,0l0 0c0,0 0,0 0,0l0 0c0,-1 1,-1 1,-1 -1,-1 -1,-1 -1,-1zm2 -2c0,0 0,0 0,0l0 0c0,0 0,0 0,1 0,0 0,-1 0,-1zm-4 1l0 0c0,1 0,1 -1,1 0,0 0,0 0,0 0,0 0,0 0,0 1,0 1,0 1,0 0,0 0,0 0,0 0,1 0,1 0,1 0,0 0,1 -1,1 0,1 0,1 0,1 0,0 0,1 0,1 0,0 0,0 0,0 0,-1 0,-1 0,-1 0,-1 0,-1 0,-1 0,0 0,0 1,-1 0,0 0,0 0,0 0,0 0,0 0,0 -1,0 -1,0 -1,1 0,0 0,0 0,1l-1 1c0,0 0,0 0,0l0 -1c0,0 0,0 1,-1 0,0 0,-1 0,-1l0 0c0,0 0,0 0,0 0,0 0,0 0,1 -1,0 -1,0 -1,0 0,1 0,1 0,1 0,1 -1,1 -1,1 0,1 0,1 -1,2 0,0 0,1 -1,1 0,0 -1,1 -1,1 0,0 0,0 0,1 0,0 0,-1 0,-1 1,0 0,0 1,0l2 -2c0,0 0,0 0,0 0,0 -1,1 -1,1 0,0 0,0 0,0 0,0 0,0 0,1 -1,0 -1,0 -2,1 1,0 0,0 0,1 0,0 0,0 1,0 0,0 0,-1 1,-1 0,0 0,0 0,0 0,1 0,1 -1,1 0,0 0,0 0,0 1,0 1,0 1,0 0,0 1,-1 1,-1 0,0 0,0 0,-1 0,0 0,0 0,0 0,0 0,0 1,0l0 -1c0,-1 0,-1 0,-1 0,0 0,1 0,1l0 0c0,1 0,1 -1,2 0,0 0,0 0,0 0,0 0,0 0,0l0 1c0,0 0,0 0,0l0 0c0,0 1,0 1,1 0,0 0,0 0,0 0,-1 0,-1 0,-1 0,0 0,0 0,0l0 0c0,-1 0,-1 0,-2l0 0c0,0 0,0 0,0 1,0 1,1 1,2 -1,0 -1,0 -1,1 1,0 1,0 1,0 0,0 0,0 1,0l0 -1 -1 -2c0,0 0,0 0,0 0,-1 0,-1 0,-1 1,0 1,0 1,0 0,0 0,0 0,-1 0,0 0,0 0,0 0,0 0,0 0,0 0,-1 0,-1 0,-1 0,-1 0,-1 0,-2 0,-1 0,-1 0,-2 0,0 0,0 0,0 0,0 0,1 0,1l0 1c0,0 0,0 0,0 1,0 0,0 1,0 0,-1 -1,-1 -1,-2 0,0 0,0 0,0 0,0 0,-1 1,0 0,0 0,-1 0,-1l0 -1c0,0 -1,-1 -1,-1 0,0 0,-1 0,-1 0,0 0,-1 0,-1 0,0 0,0 0,0 0,0 0,0 0,0 1,0 1,0 1,0l0 1c0,-1 0,-1 0,-1 0,0 0,0 0,0 0,0 0,0 0,0 0,0 0,0 -1,0 0,0 0,0 0,0 0,0 -1,0 -1,0 0,0 0,0 0,0 0,0 0,0 1,1 0,0 0,1 0,1 0,0 0,1 0,1 0,0 0,1 0,1 0,0 0,-1 0,-1 0,0 0,0 0,0l0 0zm-2 7c0,0 0,0 0,0l0 0c0,0 0,0 0,0zm0 -2l0 0c0,0 0,0 0,0zm1 0l0 0c0,0 0,0 0,0zm3 -6c0,0 0,1 0,1 0,0 0,0 0,0 0,0 0,0 0,-1l0 1c0,0 0,0 0,0 1,0 1,0 1,0 0,0 0,0 0,-1 0,0 0,0 0,0l0 0c-1,0 -1,-1 -1,-1 0,0 0,0 0,0l0 0c0,1 0,1 0,1zm-1 0c0,1 0,1 0,2 0,0 1,1 0,1 0,0 0,0 0,-1 0,1 0,1 0,1 0,0 0,1 0,1l0 0c0,0 0,0 1,0 0,0 0,0 0,0l0 -1c0,0 0,0 0,0 0,0 0,0 0,0l0 -1c0,0 0,0 0,0 0,0 0,-1 0,-1 0,0 0,0 0,0l-1 -1c0,-1 0,-1 -1,-2 0,0 0,0 0,0 0,1 0,1 0,1 0,1 1,1 1,1zm1 -3l0 0c0,0 0,0 0,0zm0 0l0 0c0,0 0,0 0,0 0,0 0,0 0,0zm-1 0l0 0c0,0 0,0 0,0zm0 0c0,0 0,0 0,0 0,0 0,0 0,0 0,0 0,0 0,0 0,1 0,0 0,1 0,0 0,0 0,0 0,0 0,0 0,0 0,-1 1,-1 1,0l1 0c0,0 0,0 1,1 0,0 0,0 0,0 0,-1 -1,-1 -1,-1 1,1 1,1 1,1 0,0 0,0 0,0 0,0 0,0 0,-1 0,0 0,0 1,0 0,0 0,0 0,0 0,0 -1,0 -1,0 -1,0 0,0 -1,0 0,0 0,0 0,0 0,0 0,0 0,0 0,0 0,-1 -1,-1 0,0 0,0 -1,0 0,0 0,0 0,0 1,0 1,0 1,-1 1,0 0,0 1,0l0 -1c0,0 0,0 0,0 0,0 0,0 0,0 0,0 0,0 0,0 -1,-1 0,0 -1,-1 0,0 0,0 0,0 0,1 0,1 0,1 0,0 0,0 0,0 0,0 0,0 0,1 0,0 0,1 -1,1l0 0c0,0 1,0 0,0zm7 -8c1,0 1,0 1,0 0,0 0,0 0,0 1,0 1,0 1,0 1,0 1,0 2,0 0,0 0,0 0,0 0,0 0,0 0,-1 0,0 0,0 0,0 0,-1 0,-1 0,-1 0,0 0,0 -1,-1 0,0 0,0 0,0 0,0 0,0 0,0l-1 0c0,0 0,-1 0,-1 0,0 0,0 0,0 0,-1 0,-1 0,-1 0,-1 0,-1 -1,-1 0,-1 0,-1 0,-1 0,1 0,1 -1,1 0,0 0,0 0,0 -1,0 -1,0 -1,0 -1,0 -1,0 -1,0l0 -1c-1,0 -1,1 -1,1 -1,-1 -1,-1 -1,0 -1,0 -1,0 -1,0 0,0 0,1 0,1 0,1 1,1 1,2 0,0 0,1 0,1 0,0 -1,0 -1,0 0,0 0,0 0,0 -1,1 -1,1 -1,1 0,0 0,0 0,1 0,0 0,0 0,0 0,1 1,1 1,1 0,1 0,1 0,1 0,0 0,0 1,0 0,-1 0,-1 0,-1 1,0 1,0 1,0 0,0 0,0 0,-1l1 0c0,0 0,0 0,0 0,0 0,0 0,0l0 0c0,0 -1,0 0,0 0,0 0,0 0,0 0,1 0,0 0,1 0,1 0,1 0,1 0,1 0,0 0,0 0,0 0,0 0,0 0,0 0,0 0,0 0,-1 0,-1 0,-2 0,0 0,0 0,0 0,0 0,0 0,0 1,0 1,1 1,1 0,0 0,0 0,0 0,1 -1,1 -1,1 1,0 1,1 2,1l0 0c0,-1 0,-1 -1,-1 0,-1 0,-1 0,-1 0,0 0,0 0,0 0,0 0,0 0,0 1,1 1,1 1,1 0,0 0,0 0,0 0,0 0,0 0,0 1,0 0,-1 0,-1 0,-1 0,-1 0,-1zm-2 0c0,0 0,0 0,0 0,0 1,0 0,0zm-1 1c0,0 0,0 0,0 0,1 -1,1 -1,1l0 1c0,0 0,0 0,0 0,0 0,0 0,-1 0,0 0,0 0,0 0,0 0,0 0,0 0,1 0,1 -1,1 0,0 1,0 0,-1 0,0 0,0 0,0 0,1 0,1 0,2 0,0 0,0 0,0l0 0c0,0 0,1 0,1 0,0 0,0 0,0 0,0 0,-1 0,-1 0,0 1,-1 1,-1 0,0 0,0 0,0 0,1 0,1 -1,2 0,0 0,0 0,0l0 0c0,0 0,0 0,0 1,0 1,0 1,-1 0,0 0,0 1,-1 0,1 -1,2 -1,2 -1,0 -1,0 -1,0l0 0c0,0 0,0 0,0 1,0 1,0 1,0 0,0 0,0 0,0l1 -1c0,-1 0,-1 1,-1 -1,0 0,0 -1,0 0,0 0,0 0,0 0,0 0,0 0,0 0,0 0,0 0,-1 0,1 0,1 -1,1 0,0 0,0 0,0l0 0c0,0 1,-1 1,-1 0,0 0,0 0,-1l0 0zm-66 29c0,0 0,0 0,0 0,0 0,0 0,1 0,-1 0,-1 0,-1zm9 -13l0 0c0,0 0,0 0,0zm-3 4l0 0c0,0 0,0 0,0zm5 0l0 0c0,0 0,0 0,0zm-5 -2c0,0 0,0 0,0 0,0 -1,0 0,0zm0 -3l0 0c0,0 0,0 -1,0l1 0zm0 4c-1,0 -1,0 -1,0 0,0 0,0 0,-1 0,0 0,0 -1,1 0,0 0,0 1,0 0,0 0,0 0,0 0,0 0,0 1,0zm0 0c0,0 0,0 0,0 0,0 0,0 0,0zm1 3l0 0c0,0 0,0 0,0l0 0c0,0 0,0 0,0l1 -1c0,0 0,0 0,0l0 0c-1,0 -1,0 -1,0 0,0 0,1 0,1zm-1 0c1,-1 1,-1 1,-1 0,0 0,0 -1,0 0,0 0,0 0,1zm5 -3c0,0 0,1 1,1 0,0 0,0 0,0 0,0 0,0 0,0 0,0 0,0 0,0 0,-1 0,-1 0,-1 0,0 0,0 0,0 0,0 -1,0 -1,0 0,0 0,0 0,0l0 0zm1 1c0,0 0,0 0,0 -1,0 0,0 -1,0 0,0 0,0 0,0 0,0 0,0 0,0 0,0 1,0 1,0zm-6 1c0,0 0,0 1,0 0,0 0,0 0,-1 -1,1 -1,1 -1,1 0,0 0,0 0,0zm3 0l0 1c0,0 0,0 0,0 0,0 0,0 0,0 0,0 0,0 0,0 1,-1 0,-1 0,-1 0,0 0,0 0,0l0 0c0,0 0,0 0,0zm-1 -4c0,0 0,0 0,0 0,0 0,0 0,0 0,-1 0,-1 0,-1 0,0 0,0 -1,0 0,0 0,0 1,0l0 0c0,1 0,1 0,1zm-3 3l0 0c0,0 1,1 1,0l0 0c0,0 0,0 0,0l0 0c0,0 0,0 0,0 0,0 0,0 0,0 -1,0 -1,0 -1,0zm0 0l0 0c0,0 1,0 1,0l0 0c0,0 0,0 0,0l0 0c0,0 0,0 0,0l0 0c-1,0 -1,-1 -1,0 0,0 0,0 0,0zm-1 -1c1,1 1,0 1,0 1,0 1,0 1,0 0,0 0,0 0,0 0,0 0,0 0,0 0,0 0,0 0,0l0 0c0,0 0,0 0,0 0,0 0,0 0,0l-1 0c0,0 0,0 0,0l0 0c0,0 0,0 0,0 0,0 0,0 0,0l-1 0zm7 1c0,0 0,0 -1,0 0,1 0,1 1,1 0,0 0,0 0,0 0,0 0,0 0,0 1,0 0,-1 0,-1 0,0 0,0 0,0 0,0 0,0 0,0zm-3 2c0,0 0,0 0,0 0,0 0,0 0,0 0,0 0,0 0,0 0,0 0,0 0,0l0 0c0,0 0,0 0,0 1,0 0,0 1,0 0,-1 0,-1 0,-1 -1,0 -1,0 -1,0 0,0 0,0 0,1l0 -1c0,0 0,0 0,0 0,0 0,0 0,0l0 0c0,0 0,0 0,1 0,0 0,0 0,0zm1 -1c1,0 1,1 1,0 0,0 0,0 0,0 0,0 0,0 0,0 0,0 0,0 0,0 0,0 0,0 0,0 0,0 0,0 0,0l0 0c0,0 0,0 -1,0 0,0 0,0 0,0zm-3 -11c0,1 0,1 0,1 0,0 0,0 0,1l0 0c0,1 0,1 0,1 1,0 1,0 0,-1 0,0 0,-1 0,-2 0,0 0,0 0,0 0,0 0,0 0,0zm5 2c1,0 1,0 1,0 0,-1 1,-1 0,-1 0,0 0,0 0,0l-1 1c0,0 0,0 0,0zm-3 -1c0,1 0,1 0,1 0,0 0,0 0,0 0,0 0,-1 0,-1 0,0 0,-2 0,-1 -1,0 0,0 0,0 0,1 0,1 0,1zm1 1c0,0 0,0 0,0 0,0 0,0 0,0 1,0 1,-1 1,-1 0,0 0,-1 0,-1 0,0 0,0 0,0 0,0 0,0 0,0l-1 1c0,0 0,1 0,1zm4 2c0,0 0,0 0,0 0,0 0,0 0,0 1,0 1,-1 2,-1 0,0 0,0 0,-1 0,1 0,1 0,1 -1,0 -1,0 -1,0l0 0c0,0 0,0 0,0 -1,0 0,0 -1,1 0,0 0,0 0,0 0,0 0,0 0,0zm2 3l0 0c1,0 1,0 1,0 0,0 0,0 0,0 0,-1 1,-1 1,-1 0,0 0,0 0,0 0,0 0,0 0,0 -1,0 -1,0 -2,0 0,0 0,0 0,0 0,0 0,0 0,1zm-2 -2c1,0 1,0 1,0 0,0 0,0 0,-1 1,0 0,1 1,0 0,0 0,0 0,0 0,0 -1,0 -1,0 0,0 -1,0 -1,1zm-3 -3c0,0 0,0 0,0 0,0 0,0 1,0 0,-1 0,-1 0,-2 0,0 0,0 0,0l-1 1c0,0 0,0 0,0l0 1c0,0 0,0 0,0zm2 2c1,0 1,0 1,-1l0 0c0,0 0,0 0,0 0,0 0,0 0,0 0,0 0,0 0,0 0,0 1,-1 1,-1 0,0 -1,0 -1,0 0,0 0,0 0,0 0,1 -1,1 -1,1 0,1 0,1 0,1zm2 2l0 0c0,0 0,0 0,0zm0 0l0 0c0,0 0,0 0,0zm0 0c0,0 0,0 1,0 1,0 1,-1 2,-1 0,0 0,0 -1,0 0,0 0,0 0,0l-1 0c0,0 -1,1 -1,1 0,0 0,0 0,0 0,0 0,0 0,0zm0 3c0,0 0,0 0,0 0,1 0,1 1,1l2 0c0,0 0,0 0,0 0,0 0,0 0,0 0,0 0,0 1,0 -1,0 0,0 -1,0 0,0 0,0 0,0 0,0 0,0 0,-1 0,0 -1,0 -1,0 -1,0 -2,0 -2,0 0,0 0,0 0,0zm1 -1c0,0 0,0 0,0 0,0 1,0 1,0l-1 0c0,0 0,0 1,0 0,0 0,0 1,0l0 0c1,0 1,0 0,0 0,0 0,0 0,0l0 -1c0,0 0,0 0,0l1 0c-1,0 -1,0 -2,0 0,0 0,0 0,0 0,0 -1,0 -1,0 0,1 0,1 0,1zm-10 -6c0,0 0,0 0,0 0,0 0,0 0,0 0,1 0,1 0,2 0,0 0,0 1,0 0,0 0,0 0,0 0,0 0,0 0,1 0,-1 0,-1 0,-1 0,-1 -1,-2 -1,-3 0,0 0,0 -1,0 0,0 0,0 0,0 0,0 0,0 1,1zm12 9c0,0 0,0 0,0 0,-1 -1,-1 -1,-1l-1 0c-1,0 -1,0 -1,0 0,0 -1,0 -1,0 0,0 0,0 1,0l0 0c1,0 0,0 1,0 0,0 0,0 0,0 0,0 0,0 0,0 0,0 0,0 0,1 0,0 0,0 0,0 0,0 0,0 0,0 0,0 0,0 1,0l0 0c1,0 1,0 1,0zm-12 -6c0,-1 0,-1 0,-1l0 -1c0,0 0,0 0,0l-1 0c0,0 0,0 0,0l0 -1c0,0 0,0 0,0 -1,-1 -1,-1 -1,0 0,0 0,0 0,0 0,0 1,1 1,2l1 1c0,0 0,0 0,0zm6 1c0,0 0,0 1,-1 0,0 0,0 0,0 0,0 0,0 0,-1 0,1 1,1 1,1 0,0 0,0 0,1 -1,0 -1,-1 -1,0l0 0c0,0 0,0 0,0 0,0 0,0 0,0l0 0c1,0 1,-1 1,-1 0,-1 0,-1 0,-1 0,0 -1,0 -1,0 0,0 0,0 0,1 -1,0 -1,0 -1,0 0,0 0,0 0,0 0,0 -1,0 -1,1 0,0 1,0 1,0 0,0 0,0 0,0 0,0 0,0 0,0zm-10 -4c0,1 1,2 2,2l1 1c0,0 0,0 0,0 0,1 1,1 1,1 0,0 0,0 0,-1 -1,0 -1,0 -1,0 0,-1 -1,-2 -1,-2l-1 0c0,0 0,0 0,-1 0,0 -1,0 -1,0 0,0 0,0 0,0zm15 12c0,0 -2,-2 -2,-2l-1 -1c0,0 0,0 -1,0 0,0 0,0 -1,0 0,0 1,0 1,0l0 1c1,0 2,1 2,1l0 0c0,0 0,0 0,0l1 0c0,0 0,0 0,0 0,1 0,1 0,1 0,0 0,0 0,0 0,0 0,0 0,0l0 0c0,0 0,0 0,0 0,0 0,0 1,0 0,0 0,0 0,0zm-14 1c0,0 1,0 1,0 1,0 1,-1 2,-1 0,-1 1,-1 1,-2 0,0 0,0 0,0 0,0 0,0 0,0 0,0 0,0 0,0 0,0 0,0 0,0 0,0 -1,1 -2,1 0,1 0,1 -1,1 0,0 0,0 0,1 0,0 -1,0 -1,0zm-3 -10c0,1 0,1 1,1 0,0 2,1 2,1l1 0c0,0 0,0 0,0 1,0 1,0 1,0 0,0 0,0 0,0l0 0c0,0 0,0 0,0l-1 -1c0,0 -1,0 -1,0l-1 0c0,0 0,0 0,0l0 0c0,-1 -1,-1 -1,-1 0,0 0,0 0,0 0,0 0,0 0,0 -1,0 -1,0 -1,0zm-1 1c0,0 0,0 0,0 1,0 1,1 1,1l1 0c0,0 0,0 1,0 0,0 0,1 1,1 0,0 1,0 1,0 0,0 1,0 1,0 0,0 -1,0 -1,-1 0,0 0,0 0,0 0,0 0,0 0,0 -2,-1 -2,0 -3,-1 -1,0 -2,0 -2,0 0,0 0,0 0,0zm12 11l0 1c0,0 1,0 1,0l0 -1c0,-1 0,-2 -1,-2 0,-1 0,-1 0,-1l0 -1c0,0 0,0 0,-1 0,0 0,0 0,0 0,0 0,0 0,0l-1 0c0,0 0,0 0,0 0,1 0,2 1,2l0 2c0,0 0,0 0,0 0,0 0,1 0,1zm-4 1c0,0 0,0 0,0 0,0 0,0 0,-1l1 0c0,0 0,-1 0,-1l0 0c0,0 0,0 0,0 0,0 0,0 1,-1l0 0c0,0 0,-1 0,-1 0,0 0,0 0,0 0,-1 0,-1 0,-1 0,0 0,0 0,0 0,0 0,0 0,0 0,0 0,0 0,0 -1,0 -1,1 -1,1l0 1c0,0 0,1 -1,1l0 1c0,0 0,1 0,1zm5 -7c0,0 0,0 0,0 0,0 0,0 0,0 1,1 2,2 2,2 0,1 0,1 0,1 0,0 0,0 0,0l0 0c0,0 0,0 0,0 0,0 0,0 0,0l0 0c0,0 0,0 0,0 0,0 0,0 1,0 0,0 0,0 0,1l0 0c0,0 0,0 0,0 0,0 0,0 0,0 1,1 0,-1 0,-1 0,-1 0,-1 -1,-1 0,-1 0,-1 0,-1 -1,0 -1,0 -1,0l0 0c0,-1 0,-1 -1,-1 0,0 0,0 0,0zm-2 -8c0,0 0,0 0,0 1,0 2,0 2,0 0,1 0,1 0,1 0,0 0,0 -1,0 0,0 0,0 0,0 0,0 0,-1 -1,-1 0,0 0,0 0,0 0,0 0,0 0,0zm0 0c0,0 0,1 0,1 0,0 0,0 0,0 0,0 0,0 0,1l0 0c0,0 0,0 0,0l0 0c0,0 0,0 0,1 1,-1 0,-1 1,-1 0,0 0,0 0,0 0,0 0,-1 0,-1 1,0 1,0 1,0 1,0 1,0 1,0 0,0 -1,-1 -1,-1 0,0 0,0 -1,0 0,0 0,-1 0,-1l0 0c-1,0 -2,0 -1,1zm-3 2l0 0c1,-1 1,-1 1,-1 0,0 0,0 0,0 0,0 0,0 0,1 0,0 0,0 0,0l0 0c0,0 0,0 0,0 0,0 0,0 0,0l-1 0zm-1 1c0,0 0,1 1,0 0,0 0,0 0,0 0,0 0,0 0,0l1 0c0,0 0,0 0,-1 0,0 0,0 0,0 0,1 0,1 0,1l1 0c0,0 0,0 0,0l0 0c0,0 0,0 0,0 0,0 0,0 0,-1 0,0 0,0 0,0 0,0 0,0 0,0l0 0c0,0 0,0 0,0 0,0 -1,-1 0,-1 0,0 0,0 -1,-1 0,0 0,0 0,1 0,0 0,-1 -1,0 0,0 0,0 0,0l0 1c0,0 0,0 0,0l0 0c0,0 0,0 0,0 0,0 0,0 -1,0 0,1 0,1 0,1zm2 -4c0,1 0,1 0,1 1,0 1,1 1,1 0,1 0,1 0,1 1,1 1,1 1,1 0,0 0,-1 0,-1 0,0 0,0 0,0 0,0 0,0 0,0 0,-1 0,-1 0,-2 -1,0 -1,-1 -1,-1 0,0 0,-1 -1,-1 0,0 0,1 0,1 0,0 0,0 0,0zm-8 9c0,0 0,0 0,0 0,0 0,0 0,0 0,0 1,0 1,0 1,0 2,0 3,0 1,0 1,-1 2,-1 0,0 0,0 0,0 0,0 0,0 0,0 0,0 -1,0 -1,0 0,0 0,0 0,0 0,0 0,0 0,0 -1,0 -2,0 -2,0 0,0 0,0 0,0l-1 0c-1,1 -1,1 -1,1 0,0 -1,0 -1,0zm11 -5c0,0 0,0 0,0 0,0 0,0 1,0 0,0 0,1 0,1 0,0 0,0 0,0l1 0c0,0 0,0 1,1l0 0c1,0 0,0 1,1 0,0 0,0 0,0 0,0 0,-1 0,-1 0,0 1,0 1,0 0,-1 0,-1 -1,-1 0,0 0,0 0,0 -1,0 -1,0 -1,0 -1,-1 -1,-1 -1,-1l-1 0c0,0 -1,0 -1,0zm-1 4c0,0 0,0 0,-1 1,0 0,0 1,0 0,0 0,0 0,1l-1 0zm1 -1c0,-1 0,-1 0,-1 0,0 0,0 0,0 0,0 0,0 0,0l1 0c0,0 0,0 0,0 0,0 0,0 1,0 0,0 0,0 0,0 -1,0 -1,0 -1,0 0,1 -1,1 -1,1l0 0zm-1 -1c0,0 1,0 1,0 0,0 0,0 0,0 0,0 0,0 0,0 0,1 0,1 -1,1 0,0 0,0 0,1 0,0 0,0 0,0 1,0 1,0 1,0l0 0c0,0 0,0 0,0 0,-1 1,-1 1,-1 0,0 0,0 0,0 1,0 1,0 1,-1 0,0 0,0 0,0 0,0 -1,0 -1,0 0,0 0,-1 -1,-1 0,0 0,-1 0,0 0,0 0,0 -1,0 0,0 0,0 0,0 0,0 0,0 0,1zm-4 0l1 0c0,0 -1,0 -1,0zm0 0c0,0 0,0 0,0 1,0 1,0 1,0l1 1c0,0 0,0 0,0 0,0 -1,1 0,1 0,1 1,1 1,0 0,0 0,0 0,0l0 0c0,0 0,0 0,0 0,0 0,0 0,-1l0 0c0,0 0,0 0,0 1,-1 1,-1 1,-1l0 0c0,0 0,0 0,0 0,0 0,0 0,0l0 -1c0,0 0,0 0,0 0,0 0,0 0,0 0,0 0,0 0,0 0,0 0,0 0,0 0,-1 0,0 0,-1 0,0 0,0 0,0 0,0 0,0 0,0 -1,1 -1,1 -1,1 0,1 0,1 -1,1 0,1 0,1 0,1 0,-1 0,-1 0,-1 0,0 0,-1 0,-1l1 0c0,0 0,0 0,0l0 0c0,0 0,0 0,0 0,0 -1,0 -1,0 0,0 0,0 -1,0 0,0 0,0 0,0l0 0c0,0 0,0 0,0l0 0c-1,0 -1,0 -1,0 0,0 0,0 0,-1 0,0 0,0 0,0 0,0 -1,0 -1,0l-1 -1c0,0 0,0 -1,-1l-1 0c0,0 0,0 0,0 -1,0 0,1 0,1 1,0 1,0 2,0 0,0 0,0 0,0 0,1 1,1 1,1 0,0 0,0 0,0 0,0 0,0 0,0l-1 0c0,0 0,0 0,0 0,0 0,0 0,0 0,-1 0,-1 -1,-1l0 0c0,0 0,0 0,0 -1,0 -1,0 -1,0 0,0 0,0 0,0l0 1c0,0 0,0 1,0 0,0 0,0 0,0 1,0 1,0 1,0 0,0 0,0 0,0 0,0 0,1 1,1 0,0 0,0 0,0 0,0 0,0 0,0 0,0 0,0 0,0 0,0 1,0 1,0 0,0 0,0 0,0 0,0 0,0 0,0 0,0 0,1 0,1 0,0 1,0 0,0l0 0c0,0 0,0 0,0 0,0 0,0 0,0 0,0 0,0 0,0 0,0 0,0 0,0l0 0c0,0 0,0 0,0l0 0c0,0 0,0 0,0 0,0 0,0 0,0l0 0c0,0 0,0 0,0l0 0zm0 0l0 0c0,0 0,0 0,0zm1 -1c0,0 0,1 0,1 0,0 1,0 1,0 0,0 0,0 0,0 0,0 0,0 0,0 0,0 0,0 0,0 0,0 0,1 0,1 0,0 0,0 0,0l0 -1c-1,0 -1,0 -1,-1zm-6 12c0,0 0,0 0,0l0 0zm0 0c0,0 0,0 0,0 0,0 0,0 0,0 0,0 0,0 0,0zm6 -7c0,0 0,0 0,0l-1 4c-1,0 -1,1 -1,1 0,0 0,0 -1,0 0,0 0,0 0,0l0 1c0,0 0,0 -1,0l0 0c0,0 0,0 0,0 0,0 -1,1 -1,1 0,0 0,0 0,0 0,0 0,0 0,0 0,0 0,0 0,0l0 -1c0,0 0,0 0,0l0 0c0,0 0,0 0,0l0 0c0,0 0,0 0,0 0,0 0,-1 0,-1l0 0c0,0 0,0 0,0l0 0c0,0 0,0 0,0 0,0 0,0 0,0l0 1c0,0 0,0 0,0l0 0c0,0 0,0 0,0 0,0 0,0 0,0 0,0 0,0 0,0l-1 0c0,0 1,0 0,0 0,0 0,0 0,0l0 0c0,0 0,0 0,0 0,0 0,0 0,0 0,0 0,0 0,0 0,0 0,0 0,0 0,0 0,0 0,0l0 1c0,0 0,0 0,0l0 0c0,0 0,0 0,0 0,0 0,0 0,0 0,0 0,0 0,0 0,0 0,0 0,0l0 -1c0,0 0,0 0,0l0 0c0,0 0,0 0,0l0 -1c0,-1 0,-1 0,-1l0 0c0,0 0,0 0,0l1 -2c0,0 0,0 0,0 0,0 0,0 0,0 0,-1 0,-1 0,-1 0,0 0,0 0,0 0,0 0,0 0,0 0,0 0,0 1,0 1,0 1,0 1,-1 1,0 1,0 1,-1l1 0 -1 0c0,0 0,0 0,1l-1 0c0,0 0,0 -1,0 0,0 0,0 0,0 -1,0 -1,0 -1,0 -1,1 -1,1 -1,1 0,0 0,0 0,0 0,0 0,0 0,0 0,0 0,0 -1,0 0,0 0,0 -1,0 0,0 0,0 0,0 0,0 0,0 -1,0l0 0c0,0 0,0 0,0 0,0 0,0 0,0l0 0c0,0 0,0 0,0 0,0 0,0 0,0 0,0 0,0 1,0 0,0 0,0 0,-1 0,0 0,0 0,0 0,0 0,0 1,0l0 0c-1,0 -1,0 -1,0 0,0 0,0 0,0 0,0 0,0 -1,0 0,0 0,0 0,0l0 0c0,0 0,0 0,0 0,0 0,0 0,0 0,0 0,0 0,0l0 0c0,0 0,0 0,0 0,0 0,0 0,0 0,0 0,0 0,0 0,0 0,0 0,0 1,0 0,0 1,0 0,-1 0,0 0,-1 0,0 0,0 0,0l1 -1c0,0 0,0 0,0 1,0 1,0 1,0l1 0 1 0c0,0 0,0 1,0 0,0 0,0 0,0 0,-1 0,-1 1,-1 0,0 0,0 0,0 -1,0 -1,0 -1,0 -1,0 -2,0 -2,0l-1 0c0,0 0,0 0,0 0,0 0,0 0,0 0,0 -1,-1 -1,-1 0,0 0,0 0,0 0,0 0,0 0,0 0,0 0,0 0,0l1 0c0,0 0,0 0,0l0 0c0,0 0,0 0,0l1 1c0,0 0,0 0,0 0,0 0,0 0,0 0,0 0,0 0,0 0,0 0,0 0,0 1,0 1,0 1,0 1,0 1,0 1,0 0,0 1,0 1,0 0,-1 -1,-1 -1,-1 -2,0 -2,0 -3,0 0,0 -1,0 -1,0 0,0 0,0 0,0 0,0 0,0 0,0l0 0c0,0 0,0 0,0 0,0 0,0 0,0 0,0 0,0 0,0 -1,0 0,0 -1,0l0 0c0,0 0,0 0,-1 0,0 0,0 0,0l0 0c0,0 0,0 0,0 0,0 0,0 0,0l0 0c-1,0 -1,0 -1,0 0,0 0,-1 0,-1 0,0 0,0 0,0 0,0 0,-1 0,-1l-1 0c0,0 0,0 0,0l0 0c0,0 0,0 0,0 0,0 0,0 0,0 0,0 0,0 0,0l0 0c0,0 0,0 0,0 0,0 1,0 1,0 0,0 0,0 0,0l0 0c0,0 1,0 1,0 0,0 0,1 0,1 1,0 1,0 1,-1 0,0 -1,0 -1,0 0,-1 -1,-1 -1,-1 2,0 2,0 3,0l0 0c0,0 0,0 0,0 0,0 0,0 0,0 -1,0 -1,0 -1,0 -1,0 -1,0 -1,0 -1,-1 -1,0 -2,0 0,0 0,0 -1,0 0,0 0,0 0,0 0,0 -1,0 -1,0 0,0 0,0 0,0 0,1 1,1 1,1 0,0 1,0 1,1l0 0c0,1 0,1 1,1l0 0c0,1 0,1 1,1 0,0 1,0 1,1 0,0 0,-1 0,0 0,0 0,0 0,0 0,0 0,0 0,0 0,0 0,0 0,1 0,0 0,0 -1,0l0 0c0,0 0,0 0,0l-1 1c0,0 0,0 0,0 0,0 0,1 -1,1 0,1 -1,1 0,1 1,1 1,1 1,1l0 0c0,0 1,0 1,0 0,0 0,0 0,0l0 0c1,0 1,0 1,0 0,0 1,0 1,0 0,0 0,0 0,0 0,0 0,0 1,0l0 0c-1,0 -1,0 -1,1 0,0 -1,1 -1,2 0,1 0,2 0,3 0,0 0,1 0,1 0,0 0,0 1,0 0,0 0,0 0,0 0,-1 1,-1 1,-1 0,-1 1,-1 2,-1 0,0 0,0 0,-1 0,1 0,1 0,2 0,0 0,2 0,2l0 1c0,0 0,0 0,0 0,1 1,0 1,0 0,0 1,-1 1,-1l1 -1c0,0 0,0 0,0 1,-1 1,-1 1,-1 0,0 1,0 1,-1l0 0c0,0 0,0 0,0 0,0 0,0 0,0l1 0c0,0 0,0 0,1 0,0 0,0 0,0 0,0 0,0 0,1 1,0 1,0 1,0 0,0 1,0 1,1l0 0c1,0 1,0 1,0 0,1 0,1 0,2 0,0 0,0 0,0 0,0 1,0 1,0 0,0 0,-1 0,-1 -1,0 0,0 0,0 0,0 0,-1 0,-2l0 -2c0,0 0,0 0,-1l0 0c0,-1 0,-1 0,-1 0,0 0,0 0,0 0,1 0,1 1,1 0,-1 0,-1 0,-1 1,0 1,0 1,-1 0,0 0,0 0,0 0,0 0,0 0,0l1 0c0,0 0,1 1,1 0,0 1,0 2,0l0 0c0,0 0,0 0,0 1,0 1,0 1,0 0,0 0,1 0,0 0,0 0,0 0,0 0,0 0,0 0,0l-1 0c0,0 0,0 -1,-1 0,0 -1,-1 -1,-2 0,0 0,0 0,-1 0,0 0,0 0,0 0,0 0,0 0,0 0,0 0,-1 0,-1 0,0 0,0 0,0 0,0 0,0 0,0 0,-1 0,-1 0,-1l0 0c0,0 0,0 0,0 1,0 1,0 1,0l0 0c0,0 1,0 1,0 1,-1 1,-1 2,-1 0,0 0,0 0,0 0,0 0,0 0,0l-1 0c0,0 0,0 0,0 0,0 0,0 0,0 0,0 0,0 0,0 0,-1 0,-1 0,-1l-1 0c0,0 0,0 -1,0 0,-1 0,-1 -1,0 0,-1 0,-1 -1,-1 0,0 -1,0 -1,1 0,0 0,0 0,0 0,0 1,0 1,0 0,0 1,0 1,0l0 0c0,0 0,0 0,0l0 0c0,0 1,0 1,0 0,0 0,0 1,1l0 0c0,0 0,0 0,0 0,0 0,0 0,0l0 0c0,0 0,0 0,0 0,0 0,0 0,0l0 0c0,0 0,0 0,0 -1,1 -2,1 -2,1 0,0 0,0 0,0 0,0 0,0 0,0 -1,0 -1,0 -1,1 0,-1 0,-1 0,-1 -1,0 -1,0 -2,0 0,0 0,0 0,0 0,0 0,0 0,0 1,0 1,0 1,0 0,0 1,0 1,1 0,0 0,0 0,0 0,0 0,0 0,0 0,0 0,0 0,0l-2 -1c0,0 -1,0 -2,-1 0,0 0,0 0,0 0,0 0,0 0,0l0 0c0,0 0,0 0,0l0 1c0,0 0,0 0,0 0,0 0,0 0,0l0 0c1,0 1,0 1,0 0,0 0,0 0,0 0,0 1,0 1,1 0,-1 0,0 0,0 0,0 0,0 0,0 0,0 0,0 0,0l2 1c0,0 0,0 0,0 0,0 0,0 0,1 1,0 1,1 1,2 0,0 0,0 0,0 0,0 0,0 -1,0 0,0 -1,-1 -1,-1 0,0 0,0 0,0l0 1c0,0 0,0 -1,0 0,0 0,0 0,0 0,0 0,0 0,0l0 -1c0,0 0,0 -1,0 0,0 0,0 0,-1 0,0 -1,-1 -1,-1l0 -1c0,0 -1,0 -1,0 0,0 0,0 0,0 0,0 0,0 0,1 0,0 1,0 1,1 0,1 1,1 1,2 0,0 0,0 0,0 0,1 1,1 1,1 -1,0 -1,0 -1,0 0,0 0,0 -1,0 0,0 0,-1 0,-1 0,0 0,0 0,0 0,-1 0,-1 0,-2 -1,0 -1,-1 -1,-1 0,0 0,-1 0,-1 -1,0 -1,0 -1,0 0,0 0,0 0,0 0,0 0,0 0,1 1,1 1,1 1,1 0,0 0,1 0,1 0,0 0,1 0,1 1,1 1,1 1,1 0,1 0,1 0,1l0 0c0,0 0,0 0,0 0,0 0,0 0,0l0 1c0,0 0,0 0,0 0,0 0,0 0,1l0 2c0,0 0,0 0,0 0,0 0,0 0,-1 0,0 0,0 0,0l-1 0c0,0 0,0 0,0 0,0 0,0 0,0l0 0c0,0 0,0 0,0 -1,-1 -1,0 -1,-1 0,0 0,0 0,0l0 0c0,0 0,0 0,0l0 0c-1,-1 -1,-1 -1,-2 0,0 0,0 0,0 0,0 0,0 0,-1 0,0 0,-1 0,-1 0,-1 0,-2 0,-3 0,0 0,0 0,0 0,-1 0,-1 0,-1 0,0 0,0 -1,0l0 1c0,1 0,3 0,4 0,0 0,0 0,0 0,0 0,1 0,1 0,0 0,0 0,0 -1,0 -1,0 -1,0l0 1c0,0 0,0 0,0l0 0c0,0 0,0 0,0l0 0c0,0 -1,0 -1,1l0 0c0,0 0,0 0,0l0 0c0,0 0,0 0,0l0 0c0,0 0,0 0,0 0,0 0,0 0,0l-1 0c0,0 0,0 0,0 0,0 0,0 0,0l0 1c0,0 0,0 0,0 0,0 0,0 0,0l-1 1c0,-1 0,-1 0,-1 0,0 0,0 0,0 0,-1 0,-1 0,-1 0,0 0,0 0,0 0,0 0,-1 0,-1 0,0 0,0 0,0l0 0c0,0 0,0 0,-1 0,0 0,0 0,-1 1,0 1,0 1,-1 0,0 0,0 1,-1 0,0 0,0 0,0l0 0c0,0 0,0 0,0 0,-1 0,-1 0,-2 0,0 0,0 0,0l0 0c0,-1 0,-1 0,-1 0,0 0,0 0,0 0,0 0,0 0,0zm0 0l0 0c0,0 0,0 0,0zm10 1c0,0 0,0 0,0 0,0 0,0 0,0 0,0 0,0 0,0zm-17 -5l0 0c0,0 0,0 0,0zm12 12l0 0c0,0 0,0 0,0zm45 -13c0,0 0,0 1,-1l0 0c-1,1 -1,1 -1,1zm11 -9c2,-3 4,-5 6,-7 -1,0 -1,0 -1,0 -2,2 -4,4 -5,6 0,0 0,0 0,0 0,0 0,1 0,1zm8 -10c3,-4 5,-9 7,-14 0,0 0,0 -1,0 0,0 0,1 0,1 0,0 0,0 -1,1 0,0 0,0 0,0 0,0 0,0 0,0 0,0 0,0 0,0 -1,1 -1,1 -1,1l0 0c-1,3 -3,6 -5,9 1,1 0,2 0,2 1,0 1,0 1,0 0,0 0,0 0,0zm8 -19c0,-1 1,-1 1,-2 -1,1 -1,1 -1,2 0,0 0,0 0,0 0,0 0,0 0,0l0 0zm1 -3c1,-5 1,-10 1,-15l0 0c0,0 0,0 0,0 -1,1 -1,1 -2,1 0,0 0,0 0,0 0,4 0,8 -1,11 1,0 1,0 1,0 1,1 1,1 1,2 0,0 0,0 0,1zm-4 -35c-2,-5 -5,-9 -9,-13 0,0 0,0 0,1 0,0 0,0 0,0l0 0c0,0 0,0 0,0 0,0 0,0 0,0 0,0 0,0 0,0 0,0 0,0 0,0 0,1 0,1 0,1 0,0 0,0 0,0 0,0 0,0 0,0 0,0 0,0 0,0 0,0 0,0 -1,0 0,0 0,0 0,0l0 0c0,0 0,0 0,0 0,0 0,0 0,0 0,0 0,0 0,0 0,0 0,0 0,0l0 1c3,2 5,6 7,9 1,0 2,0 2,1 0,0 1,0 1,0l0 0zm-16 -20c-5,-3 -10,-6 -16,-7l0 2c1,0 3,1 5,2 3,2 6,4 9,7l0 -1c0,0 0,0 0,0 0,0 0,0 0,0 0,0 0,0 0,0 0,0 0,0 0,0 0,0 0,0 0,0 0,0 0,0 0,0 0,-1 0,-1 0,-1l0 0 0 0 0 0 0 0c0,0 0,0 0,0l0 0c0,0 0,0 0,0 0,0 0,0 0,-1 0,0 0,0 0,0 0,0 0,0 0,0 1,0 1,0 1,0 0,0 0,0 0,0 0,0 0,0 0,0 0,0 0,0 0,0 0,0 0,0 0,0 0,-1 0,-1 0,-1l0 0c0,0 0,0 0,0 0,0 0,0 0,0 0,0 1,0 1,0zm-71 93c1,1 2,2 3,2 0,0 0,0 -1,0l-1 -1c0,0 0,0 0,0 0,0 -1,0 -1,-1l0 0c0,0 0,0 0,0 0,0 0,0 0,0zm26 12c3,0 7,0 10,0l0 0c0,0 0,0 0,0 0,0 0,0 0,0 0,0 0,0 0,0 0,0 0,0 0,0 0,0 0,0 0,0 0,0 0,0 0,0 0,0 0,0 0,0 0,-1 0,-1 0,-1 0,0 0,0 0,0l0 0c-4,0 -8,0 -11,-1 0,0 0,1 0,1 0,0 1,1 1,1zm25 -3c3,-1 6,-3 10,-5 -4,3 -7,4 -11,5 0,0 0,0 0,0 0,0 0,0 0,0 0,0 0,0 0,0 0,0 0,0 0,0 0,0 0,0 0,0 0,0 1,0 1,0 0,0 0,0 0,0 0,0 0,0 0,0 0,0 0,0 0,0l0 0zm-3 1l0 0c0,0 0,0 0,0 0,0 0,0 0,0 0,0 0,0 0,0 0,0 0,0 0,0l0 0zm-46 -11l0 0 0 0 1 0 0 0c0,0 0,0 0,0 0,0 -1,0 -1,-1l0 1 0 0 0 0c0,0 -1,0 -1,0 0,0 1,0 1,0l0 0zm76 -21c2,-2 3,-4 4,-6 0,0 -1,-1 -1,-1 -1,3 -2,5 -3,7l0 0zm4 -51c-1,-2 -1,-4 -3,-6 0,-2 -1,-3 -2,-4 0,0 0,0 0,0 0,0 0,0 0,0 0,0 0,0 0,0l0 0c-1,0 -1,0 -1,0 0,0 0,0 0,0 0,0 0,0 0,0 0,0 0,0 -1,0l0 0c0,0 0,0 0,0 3,4 5,7 7,10l0 0zm-12 -15l0 0c0,0 0,0 0,0 0,0 0,0 0,0l0 0c0,0 0,0 0,0 0,0 0,0 0,0l0 0zm-8 -10c-2,-1 -4,-2 -7,-3l0 1c3,0 5,1 7,2zm-37 107c3,0 7,0 11,0 -1,0 -1,0 -1,0 0,0 0,0 0,-1 0,0 0,0 0,0 0,0 0,0 0,0 0,0 0,0 0,0 0,0 0,0 0,0 0,0 0,0 0,0 0,0 0,-1 0,-1 0,0 0,0 0,0 0,0 0,0 0,0 0,0 0,0 1,0 -1,0 -1,0 -1,0 -3,0 -5,0 -8,0 0,0 0,0 0,0 -1,1 -1,0 -2,1 0,0 0,0 0,0 0,0 0,0 0,0 0,0 0,0 0,0 0,0 0,1 0,1zm43 -16c0,0 0,-1 0,-1 0,0 0,0 0,0 1,0 1,0 1,0 0,-1 0,0 0,-1 0,0 0,-1 0,-1 -1,1 -2,2 -3,3 0,0 1,0 1,0 0,0 1,0 1,0zm2 -4l-1 1c1,0 1,0 1,0 0,-1 0,-1 0,-1zm-30 17c-1,0 -1,0 -1,0l0 0c0,0 0,0 0,0l0 1c0,0 0,0 0,0 0,0 0,0 0,0 0,0 0,0 0,0 0,0 0,1 0,1 0,0 0,0 0,0l1 0 0 0c-1,-1 -1,-1 -1,-1 0,0 0,0 0,0 0,0 0,0 1,0 0,-1 0,-1 0,-1 0,0 0,0 0,0 0,0 0,0 0,0l0 0c0,0 0,0 0,0 0,0 0,0 0,0zm53 -61c6,-2 25,-3 26,-8 3,-5 -1,-4 -3,-3 -8,3 -12,4 -16,5 0,1 0,1 0,2 0,0 -1,1 -2,1 0,1 -1,1 -1,1 -1,0 -1,0 -1,0 0,0 -1,0 -1,0l-2 1c0,0 0,0 0,0 0,0 0,0 0,0 0,0 0,0 0,1z"/>
 </g>
</svg>
