<?xml version="1.0" encoding="UTF-8"?>
<!DOCTYPE svg PUBLIC "-//W3C//DTD SVG 1.1//EN" "http://www.w3.org/Graphics/SVG/1.1/DTD/svg11.dtd">
<!-- Creator: CorelDRAW X7 -->
<svg xmlns="http://www.w3.org/2000/svg" xml:space="preserve" width="67.8778mm" height="23.7776mm" version="1.1" style="shape-rendering:geometricPrecision; text-rendering:geometricPrecision; image-rendering:optimizeQuality; fill-rule:evenodd; clip-rule:evenodd"
viewBox="0 0 729 255"
 xmlns:xlink="http://www.w3.org/1999/xlink">
 <defs>
  <style type="text/css">
   <![CDATA[
    .fil0 {fill:#622522}
   ]]>
  </style>
 </defs>
 <g id="Capa_x0020_1">
  <metadata id="CorelCorpID_0Corel-Layer"/>
  <path class="fil0" d="M47 37l9 0 0 36 44 -1 0 -36 9 0 0 86 -9 0 0 -41 -44 0 0 42 -9 0 0 -86zm74 -2l9 0 0 53c0,6 0,10 0,11 1,4 2,6 3,9 2,2 4,4 8,5 3,2 6,3 10,3 2,-1 5,-1 8,-2 2,-2 5,-3 6,-6 2,-2 3,-4 4,-8 1,-2 1,-6 1,-13l0 -52 9 -1 0 53c0,7 -1,14 -2,18 -2,5 -5,10 -9,13 -5,4 -11,6 -17,6 -7,0 -13,-2 -18,-5 -5,-3 -8,-8 -10,-13 -1,-3 -2,-9 -2,-18l0 -53zm70 -1l50 -1 0 9 -41 0 0 28 41 -1 0 8 -41 1 0 34 41 -1 0 9 -50 1 0 -87zm56 -1l9 0 0 78 33 0 0 8 -42 1 0 -87zm47 -1l9 0 0 78 33 0 -4 8 -38 1 0 -87zm82 -1l41 86 -10 0 -13 -28 -38 0 -13 29 -10 0 41 -87 2 0zm-1 18l-15 32 30 -1 -15 -31zm78 -20l9 0 0 87 -9 0 0 -87zm20 0l17 0c7,0 12,0 16,2 4,2 7,4 9,7 2,4 3,7 3,11 0,4 -1,8 -3,11 -2,3 -4,6 -8,8 4,1 8,3 10,5 3,2 5,5 6,7 1,3 2,7 2,10 0,7 -3,13 -8,18 -5,5 -12,7 -20,7l-24 1 0 -87zm9 8l0 28 5 0c6,0 10,-1 13,-2 3,-1 5,-3 7,-5 1,-3 2,-5 2,-8 0,-4 -1,-7 -4,-10 -3,-2 -7,-3 -13,-3l-10 0zm0 37l0 33 10 0c7,0 11,-1 14,-2 3,-1 6,-3 7,-6 2,-3 3,-6 3,-9 0,-4 -1,-7 -4,-10 -2,-3 -6,-4 -10,-5 -3,-1 -8,-1 -16,-1l-4 0zm51 -46l50 -1 0 9 -41 0 0 27 41 0 0 8 -41 1 0 34 41 -1 0 9 -50 1 0 -87zm57 -1l17 0c10,0 16,0 19,1 6,1 10,3 13,7 3,4 5,8 5,14 0,5 -1,9 -3,13 -3,3 -6,6 -10,8 -4,2 -10,3 -17,3l31 40 -11 0 -31 -40 -5 0 0 41 -8 0 0 -87zm8 8l0 30 15 0c6,0 10,-1 13,-2 3,-1 5,-3 7,-6 1,-2 2,-5 2,-8 0,-3 -1,-5 -2,-8 -2,-2 -4,-4 -7,-5 -2,-1 -6,-1 -12,-1l-16 0zm91 -10l40 86 -9 0 -13 -28 -38 1 -13 28 -10 1 41 -88 2 0zm-1 18l-15 32 30 0 -15 -32zm4 -43l12 0 -17 18 -8 1 13 -19z"/>
  <path class="fil0" d="M105 149c-10,26 -21,61 -26,88 -1,4 -2,7 -2,10l0 0c0,1 0,4 1,4 1,0 2,-1 3,-1 1,-1 2,-3 2,-5 1,0 0,-1 -1,-1l-1 -1 1 0c5,-28 17,-67 27,-93l0 0 0 0c1,-1 0,-2 -1,-2 -1,0 -2,0 -3,1z"/>
  <path class="fil0" d="M559 230c0,-1 -1,-4 -3,-4l-1 0 -1 0c-20,-14 -81,-16 -106,-17 -29,-1 -57,-1 -86,-1 -31,1 -63,2 -94,3 -65,3 -123,4 -199,12l-2 0 0 -2c6,-17 16,-46 18,-63 0,0 0,-1 -1,-1 -1,0 -2,1 -2,1l0 0 0 0c-3,17 -14,48 -20,64l0 1 -11 1 -1 -1c-15,-21 -38,-10 -46,-3 -20,17 36,8 46,8l0 1c3,4 4,7 6,11 -11,18 11,23 5,0l0 0 0 0c2,-6 2,-6 4,-12l1 -1 0 0c83,-8 185,-12 270,-15 46,-2 183,-8 217,17 1,0 1,0 1,0l1 0 0 1c0,1 1,1 2,1 1,0 2,-1 2,-1zm-501 14c1,5 -1,5 -1,4 -1,-1 0,-4 1,-4zm-14 -20c-21,1 -28,2 -33,2 -12,0 20,-21 35,-3l1 1 -3 0zm16 4l-2 7c-2,-4 -2,-4 -3,-7l5 0z"/>
  <path class="fil0" d="M106 194c1,-1 2,-3 3,-5 0,-2 2,-3 3,-5 1,-2 3,-3 5,-5 3,-1 5,-2 8,-2 3,0 6,1 7,2 2,1 2,3 3,4 0,2 0,4 -1,6 0,2 -1,4 -1,5 -1,1 -2,3 -3,4 -1,2 -3,4 -5,5 -2,2 -4,4 -6,5 -3,1 -5,2 -8,2 -2,0 -4,-1 -5,-2 -1,-1 -2,-3 -2,-4 0,-2 0,-4 1,-6 0,-2 1,-3 1,-4zm363 -22c1,0 2,0 3,0 1,1 2,1 2,1 0,0 0,1 0,1 0,0 -1,1 -1,1 -1,0 -2,0 -2,0 -1,0 -1,0 -2,0 -1,-1 -1,-1 -2,-1 -1,0 -3,0 -4,1 -2,0 -4,1 -5,1 -1,1 -3,2 -4,2 -1,1 -1,2 -2,3 0,0 0,1 1,1 1,1 3,1 5,1 1,1 3,1 5,1 3,1 5,1 6,2 2,0 3,1 4,1 1,1 1,2 0,3 0,1 -2,2 -3,3 -2,1 -4,2 -6,3 -3,0 -5,1 -8,1 -2,1 -5,1 -7,1 -3,0 -5,0 -7,-1 -1,0 -2,-1 -2,-2 -1,0 -1,-1 -1,-2 1,-1 1,-2 2,-3 0,-1 2,-2 3,-2 2,0 2,1 2,2 0,0 0,1 -1,2 0,1 0,2 0,2 0,1 2,2 4,2 2,0 4,-1 6,-1 2,0 4,0 6,-1 1,0 3,-1 4,-2 1,0 2,-1 3,-2 0,-1 0,-2 -1,-2 -1,0 -2,-1 -4,-1 -2,-1 -4,-1 -6,-1 -2,-1 -4,-1 -6,-1 -2,-1 -3,-2 -4,-2 -1,-1 -1,-2 0,-3 0,-1 2,-2 3,-3 2,-1 4,-2 6,-3 2,0 4,-1 7,-2 2,0 4,0 6,0zm-53 10c1,-1 2,-2 3,-3 0,-2 2,-3 3,-5 1,-1 3,-2 5,-3 3,-1 5,-1 8,-1 3,0 6,1 7,2 2,1 2,2 3,4 0,1 0,3 -1,4 0,2 -1,3 -1,4 -1,1 -2,2 -3,4 -2,1 -3,2 -5,4 -2,1 -4,2 -6,3 -3,1 -5,1 -8,1 -2,0 -4,0 -5,-1 -1,-2 -2,-3 -2,-4 0,-2 0,-3 1,-5 0,-1 1,-3 1,-4zm22 2c0,-1 1,-2 1,-3 1,-1 1,-3 0,-4 0,-1 0,-2 -1,-3 -1,-1 -3,-1 -5,-1 -1,0 -3,0 -4,1 -1,0 -2,1 -3,2 -1,1 -2,2 -3,3 0,1 -1,2 -1,2 0,1 -1,2 -1,3 -1,1 -1,3 -2,4 0,1 0,3 1,4 0,1 1,1 3,1 2,0 4,0 5,-1 2,-1 3,-2 5,-3 1,-1 2,-2 3,-3 1,-1 1,-2 2,-2zm-43 14c-1,0 -1,0 -2,0 0,0 0,-1 0,-1 0,0 1,-1 1,-1 0,-1 0,-1 0,-2 1,0 1,-1 1,-1 2,-3 4,-7 5,-11 1,-3 2,-7 2,-10 0,0 0,0 -1,-1 0,0 0,0 0,0 1,-1 2,-1 4,-1 0,0 1,0 1,1 1,1 1,2 1,3 0,1 0,2 -1,3 0,1 0,2 0,2 1,0 2,-2 3,-3 1,-1 3,-2 5,-3 1,-1 3,-2 5,-3 2,-1 5,-1 7,-1 0,0 1,0 1,0 1,1 1,1 1,1 -1,1 -1,1 -1,1 -1,0 -1,0 -2,0 -2,1 -4,2 -6,3 -2,1 -4,2 -6,4 -2,1 -3,3 -5,4 -2,2 -3,4 -4,6 -1,2 -2,3 -3,5 -1,1 -2,3 -3,4 0,0 0,1 -1,1 0,0 -1,0 -2,0zm-23 -15c0,0 0,0 -1,0 0,0 0,-1 0,-1 1,0 1,-1 2,-1 2,-5 3,-8 10,-11 1,-1 4,-1 6,-1 2,0 3,0 4,1 1,1 2,1 3,2 0,1 0,2 0,3 1,1 0,2 0,3 0,0 -1,1 -2,2 -1,1 -3,2 -4,3 -1,1 -3,1 -5,2 -2,0 -3,1 -5,1 -1,0 -3,-1 -4,-1 0,1 0,1 0,2 0,1 0,2 1,3 0,1 0,2 1,3 1,1 2,1 3,1 1,0 3,0 4,-1 1,0 2,-1 3,-1 1,-1 2,-1 3,-2 1,0 2,-1 3,-1 1,0 2,1 2,2 -1,0 -1,1 -3,2 -1,0 -2,1 -4,2 -1,0 -3,1 -5,1 -1,1 -3,1 -4,1 -3,0 -5,-1 -7,-2 -1,-1 -2,-2 -2,-4 0,-1 0,-3 0,-4 0,-2 0,-3 1,-4 0,0 0,0 0,0zm-15 15c0,2 8,-4 7,0 -1,3 -6,5 -9,6 -16,0 18,-43 35,-57 2,-1 3,-1 4,-1 0,1 1,1 0,1 -6,7 -10,11 -16,18 -9,9 -18,22 -21,33zm30 -26c-1,0 -2,0 -3,1 -1,1 -2,2 -2,2 -1,1 -2,2 -2,3 -1,1 -1,1 -2,2 0,1 0,1 0,2 0,1 1,1 3,1 1,0 2,0 3,-1 1,0 2,0 3,-1 1,-1 1,-1 2,-2 1,0 1,-1 1,-2 0,0 1,-1 1,-1 0,-1 0,-1 0,-2 0,-1 -1,-1 -1,-2 -1,0 -2,0 -3,0zm-41 -6c1,0 2,0 3,0 1,1 1,1 2,1 0,0 0,1 0,1 0,1 -1,1 -1,1 -1,0 -2,0 -3,0 0,0 -1,0 -1,0 -1,0 -1,0 -2,0 -2,0 -3,0 -5,1 -1,0 -3,1 -4,2 -2,1 -3,2 -4,3 -1,1 -2,1 -2,2 0,1 0,2 1,2 1,0 3,1 4,1 2,0 4,1 6,1 2,0 4,1 6,1 2,1 3,1 4,2 1,1 1,2 0,4 -1,1 -2,2 -3,3 -2,2 -4,3 -7,4 -2,1 -4,1 -7,2 -2,0 -5,1 -7,1 -3,0 -5,0 -7,-1 -1,0 -2,-1 -2,-2 -2,1 -4,1 -5,2 -3,0 -6,1 -9,1 -3,0 -6,-1 -7,-1 -2,-1 -3,-2 -4,-3 -1,-2 -1,-3 -1,-5 0,-1 1,-3 1,-5 0,-1 1,-3 2,-5 0,-1 1,-2 2,-4 0,0 -1,0 -1,0 0,-1 0,-1 0,-1 0,-1 1,-1 2,-1 2,-3 4,-6 5,-9 2,-3 4,-5 5,-8 -1,0 -2,0 -2,-1 -1,0 -1,0 -1,-1 0,0 1,0 1,-1 1,0 2,0 2,0 1,0 3,0 5,-1 3,0 6,0 9,0 3,0 7,0 9,0 3,0 5,0 6,0 1,0 2,0 2,1 0,0 0,0 0,1 0,0 -1,0 -4,1 -2,0 -4,0 -7,0 -3,0 -6,1 -9,1 -2,0 -4,0 -5,0 0,0 -1,1 -2,2 -1,2 -2,3 -3,5 -1,2 -2,4 -3,6 -1,2 -2,3 -2,3 2,0 5,0 8,-1 4,0 6,0 9,0 1,0 1,0 2,0 0,0 0,1 0,1 0,1 -1,1 -3,1 -2,1 -5,1 -7,1 -2,1 -5,1 -7,1 -2,0 -3,0 -4,0 0,1 -1,2 -1,3 -1,2 -2,3 -2,4 -1,2 -1,3 -1,5 -1,1 -1,3 0,4 0,1 1,2 2,3 1,0 2,1 4,1 2,0 4,0 6,-1 2,0 3,-1 5,-1 1,0 1,0 2,-1 0,0 0,0 0,0 0,-1 1,-2 2,-4 0,-1 1,-1 3,-1 2,0 2,0 2,1 0,1 -1,2 -1,3 0,0 0,0 0,0 0,1 0,1 0,1 1,0 1,0 0,1 0,0 0,0 0,0 0,0 0,1 0,1 0,1 2,1 4,1 2,0 4,0 6,-1 2,0 4,0 5,-1 2,-1 4,-2 5,-2 1,-1 2,-2 3,-3 0,-1 0,-2 -1,-3 -1,0 -3,-1 -4,-1 -2,0 -4,-1 -6,-1 -2,0 -4,-1 -6,-1 -2,-1 -3,-1 -4,-2 -1,-1 -1,-2 0,-3 0,-1 1,-3 3,-4 2,-1 3,-2 6,-3 2,-1 4,-2 6,-3 3,-1 5,-1 7,-1zm-105 22c0,0 0,0 0,0 0,-1 0,-1 0,-1 0,-1 1,-1 1,-2 1,-1 1,-2 2,-3 1,-2 2,-4 4,-5 1,-2 2,-3 4,-4 2,-1 4,-2 7,-2 1,0 3,1 4,1 1,1 2,2 2,3 1,1 1,2 1,3 0,1 0,2 0,3 -1,1 -2,2 -3,3 -1,1 -2,2 -3,3 -2,1 -3,2 -5,2 -2,1 -4,1 -5,1 -2,0 -3,0 -4,0 0,0 0,1 0,2 0,2 0,3 0,4 0,1 1,2 2,3 0,1 1,1 3,1 1,0 2,0 3,-1 2,-1 3,-1 4,-2 1,-1 2,-1 3,-2 1,-1 2,-1 2,-1 2,0 3,0 2,1 0,1 -1,2 -2,3 -1,1 -3,1 -4,2 -2,1 -3,2 -5,2 -2,1 -3,1 -4,1 -3,0 -6,-1 -7,-2 -1,-1 -2,-2 -2,-4 -1,-2 -1,-3 0,-5 0,-2 0,-3 0,-5 0,1 0,1 0,1zm16 -13c-1,0 -2,0 -3,1 -1,1 -2,2 -3,3 -1,1 -1,2 -2,3 0,1 -1,1 -1,2 0,1 0,2 0,2 0,1 1,1 3,1 1,0 2,0 3,0 1,-1 2,-1 3,-2 1,-1 1,-1 2,-2 0,-1 1,-2 1,-2 0,-1 0,-1 0,-2 1,-1 1,-1 0,-2 0,-1 0,-1 -1,-2 0,0 -1,0 -2,0zm-25 -3c1,0 2,0 3,1 1,0 1,0 2,1 0,-1 1,-2 2,-4 1,-2 2,-4 3,-5 2,-2 3,-4 5,-5 1,-2 3,-3 5,-3 1,0 2,1 2,1 0,1 1,1 1,2 0,1 -1,2 -1,2 0,1 0,2 -1,2 0,2 -1,3 -2,5 -2,2 -3,4 -4,6 -2,2 -3,3 -5,5 -1,2 -3,4 -4,5 -1,1 -1,3 -1,5 0,2 0,4 0,6 -1,2 -1,4 -1,6 0,2 0,3 -1,4 0,0 0,1 -1,1 -1,1 -1,1 -2,1 -1,0 -1,0 -2,-1 0,-1 0,-2 0,-3 0,-1 0,-2 0,-3 0,-1 0,-3 0,-4 0,-1 0,-2 1,-3 0,-1 0,-2 0,-2 -1,1 -2,2 -4,3 -1,1 -2,2 -4,3 -1,1 -3,1 -5,2 -2,1 -3,1 -5,1 -2,0 -4,0 -4,-1 -1,-1 -1,-3 -1,-4 0,-2 1,-3 1,-5 1,-1 1,-3 2,-4 0,-1 1,-2 2,-4 1,-2 2,-3 3,-5 2,-2 4,-3 6,-5 2,-1 5,-2 8,-2 1,0 1,1 2,1 0,0 0,0 0,0zm-17 26c1,0 2,-1 4,-2 2,-1 4,-2 6,-4 1,-1 3,-2 4,-4 2,-1 3,-2 3,-2 1,-1 1,-2 1,-4 0,-1 1,-2 1,-3 0,0 1,0 1,0 -1,-1 -1,-2 -2,-3 -1,-1 -3,-1 -4,-1 -2,0 -4,0 -5,1 -2,2 -3,3 -4,4 -1,1 -2,3 -2,4 -1,1 -2,2 -2,3 0,0 0,1 -1,2 0,2 -1,3 -1,4 -1,1 -1,2 -1,3 0,1 1,2 2,2zm18 -13c0,0 0,0 -1,1 1,-1 1,-1 1,-1zm9 -11c0,1 -1,1 -1,2 0,0 0,1 0,1 0,0 0,0 0,0 0,-1 0,-2 1,-3zm0 0c1,-1 2,-3 3,-4 1,-2 2,-4 3,-5 0,0 0,-1 0,-1 1,-1 1,-1 1,-1 -2,1 -3,3 -4,5 -1,1 -1,3 -2,4 -1,1 -1,2 -1,2zm-6 15c1,0 1,0 1,-1 0,1 0,1 -1,1zm-36 -29c-1,2 -2,5 -3,8 -2,2 -3,5 -4,8 -2,4 -5,9 -7,14 -1,4 -3,9 -4,14 -1,0 -3,1 -4,1 -1,0 -1,0 -1,-1 0,-1 0,-3 0,-4 1,-2 2,-4 2,-6 1,-2 2,-5 3,-7 1,-2 2,-4 3,-6 1,-2 2,-3 2,-4 1,-3 3,-6 4,-9 0,0 0,-1 1,-2 1,-1 1,-2 2,-3 1,-1 1,-2 2,-3 1,-1 2,-2 2,-2 1,0 1,0 1,0 1,1 1,1 1,1 0,0 0,1 0,1zm-47 30c0,0 0,0 0,0 0,0 0,-1 0,-1 0,-1 1,-1 1,-1 1,-1 1,-3 2,-4 3,-5 4,-9 15,-11 1,0 2,0 4,1 1,0 2,1 2,2 1,1 1,2 1,3 0,2 0,3 -1,3 0,1 -1,2 -2,3 -1,2 -2,3 -3,4 -2,1 -3,2 -5,2 -2,1 -4,1 -6,1 -1,0 -2,0 -3,0 0,1 0,1 0,3 0,1 0,2 0,3 0,1 1,2 2,3 0,1 1,1 3,1 1,0 2,0 3,-1 1,-1 3,-1 4,-2 1,-1 2,-1 3,-2 1,-1 1,-1 2,-1 2,0 3,0 2,1 0,1 -1,2 -2,3 -1,1 -3,2 -4,2 -2,1 -4,2 -5,2 -2,1 -3,1 -5,1 -3,0 -5,0 -6,-1 -1,-2 -2,-3 -2,-5 -1,-1 -1,-3 0,-5 0,-2 0,-3 0,-4 0,0 0,0 0,0zm-12 10c-1,2 -1,4 -1,6 0,0 3,-1 3,-1 2,3 -3,7 -5,7 -1,0 -1,0 -1,0 -4,-2 -2,-10 -1,-13 4,-10 21,-37 29,-44 3,-2 6,-5 5,-2 0,2 -2,4 -5,8 -6,8 -21,29 -24,39zm28 -24c-1,1 -2,1 -3,2 -1,1 -2,2 -3,3 -1,1 -1,2 -2,3 0,1 -1,2 -1,2 0,1 0,2 0,2 0,1 1,1 3,1 1,0 2,0 3,0 1,-1 2,-2 3,-2 0,-1 1,-2 2,-2 0,-1 0,-2 1,-2 0,-1 0,-2 0,-2 1,-1 0,-2 0,-2 0,-1 0,-2 -1,-2 0,-1 -1,-1 -2,-1zm-41 17c0,0 1,-2 1,-3 1,-2 1,-3 1,-5 -1,-1 -1,-2 -2,-3 -1,-1 -3,-2 -5,-1 -1,0 -3,0 -4,1 -1,1 -2,2 -3,4 -1,1 -2,2 -3,3 0,2 -1,3 -1,3 0,1 -1,2 -1,4 -1,1 -1,3 -2,4 0,2 0,3 1,4 0,2 1,2 3,2 2,0 4,-1 6,-2 1,-1 3,-2 4,-3 1,-1 2,-3 3,-4 1,-2 2,-3 2,-4z"/>
  <path class="fil0" d="M356 156c-2,-3 -12,1 -2,4 4,1 11,2 23,1 4,-1 70,-11 87,-2 4,2 5,4 4,6 -2,2 -11,1 -11,-1 0,-2 1,-2 2,-2 1,0 3,1 3,1 2,0 3,0 2,-1 -7,-10 -80,2 -86,3 -32,2 -38,-6 -34,-11 5,-4 18,-2 15,3 -1,1 -5,2 -3,-1z"/>
  <path class="fil0" d="M115 174c22,-8 83,-23 75,-9 -2,2 -6,2 -8,2 -2,0 -3,-1 -3,-2 0,-1 1,-2 3,-2 0,0 0,0 0,0 -13,-2 -57,10 -67,13 -12,4 -4,-5 -1,-4 1,0 1,0 1,2z"/>
 </g>
</svg>
