<?xml version="1.0" encoding="UTF-8"?>
<!DOCTYPE svg PUBLIC "-//W3C//DTD SVG 1.1//EN" "http://www.w3.org/Graphics/SVG/1.1/DTD/svg11.dtd">
<!-- Creator: CorelDRAW X7 -->
<svg xmlns="http://www.w3.org/2000/svg" xml:space="preserve" width="190.136mm" height="124.672mm" version="1.1" style="shape-rendering:geometricPrecision; text-rendering:geometricPrecision; image-rendering:optimizeQuality; fill-rule:evenodd; clip-rule:evenodd"
viewBox="0 0 4680 3069"
 xmlns:xlink="http://www.w3.org/1999/xlink">
 <defs>
  <style type="text/css">
   <![CDATA[
    .fil1 {fill:white;fill-opacity:0.211765}
    .fil0 {fill:url(#id2)}
   ]]>
  </style>
   <mask id="id0">
  <linearGradient id="id1" gradientUnits="userSpaceOnUse" x1="2340.07" y1="2020.47" x2="2340.07" y2="1040.85">
   <stop offset="0" style="stop-opacity:1; stop-color:white"/>
   <stop offset="0.639216" style="stop-opacity:-101.4; stop-color:white"/>
   <stop offset="1" style="stop-opacity:0; stop-color:white"/>
  </linearGradient>
    <rect style="fill:url(#id1)" x="-2" y="-2" width="4685" height="3066"/>
   </mask>
  <linearGradient id="id2" gradientUnits="userSpaceOnUse" x1="2340.07" y1="673.492" x2="2340.07" y2="2387.83">
   <stop offset="0" style="stop-opacity:1; stop-color:#622522"/>
   <stop offset="1" style="stop-opacity:1; stop-color:black"/>
  </linearGradient>
 </defs>
 <g id="Capa_x0020_1">
  <metadata id="CorelCorpID_0Corel-Layer"/>
  <polygon class="fil0" style="mask:url(#id0)" points="0,3061 4680,3061 4680,0 0,0 "/>
  <g id="_2700007176032">
   <path class="fil1" d="M3401 2073l23 -128c13,-26 45,-23 41,-31 -7,4 -45,-2 -56,-3l-54 -2c-2,16 5,2 -9,25 9,-2 2,-3 9,-2 -5,8 -12,14 -17,22 32,-20 40,-34 70,-26l-3 27c3,90 -48,80 -41,144l1 57c13,-14 23,6 29,10 7,-12 20,0 18,6 -7,14 -11,1 -6,21 5,20 2,55 -3,75l39 10 -29 -106 32 103c8,47 21,63 -17,107 12,21 26,37 32,59l7 67c69,-1 20,116 4,171l19 32c26,-14 31,12 60,-19 7,-8 9,-5 17,-9 -5,-38 -15,-3 -18,-138 4,4 2,3 5,8 23,55 32,74 19,131 36,15 32,-24 64,-11l1 -3c-8,-7 -11,-22 -15,-31l-8 -51c-17,-25 -29,-47 -41,-74l-21 -80 45 86c18,49 9,54 37,79 19,17 55,52 74,62 6,-7 11,-6 16,-14 -5,-6 0,1 -4,-7 -10,-19 -36,-40 -8,-56 20,12 37,34 59,45l0 -66 -98 -71 -57 -74 156 138c3,-12 17,-39 14,-47 -3,-9 -33,-15 -43,-20 -47,-24 -61,-49 -93,-75l-86 -122 -84 -122c-10,1 -14,-1 -27,-8l58 84 44 87 -45 -63 -62 -106c-4,3 -7,5 -11,9l45 72 30 78c-11,-10 -17,-25 -25,-37l-53 -115c-15,0 -19,-3 -27,-14 6,-6 15,-6 24,-4 8,-16 9,-12 25,-4l-40 -72 -2 1 5 44c-17,-9 -20,-31 -19,-49zm120 469l-54 -162 45 87 9 75zm-204 -13c12,6 19,37 38,58 5,6 48,50 54,53l-2 4 -75 -58c1,11 11,21 13,32 -5,-3 -53,-57 -44,-95 8,4 8,2 16,6zm-386 -1266c0,0 0,0 0,1 0,-1 0,-1 0,-1zm109 139l-28 18c-25,17 -46,88 -76,81 -16,-27 14,-61 23,-78l-64 -35c-17,-9 -40,-6 -58,-16 -26,-13 -21,-25 -34,-36l110 42c67,49 29,53 82,7l-95 -132 -58 -78c60,30 48,11 89,88 -5,-10 -8,-56 -6,-66l25 98 50 89 37 -20c-2,-15 -12,-27 -14,-44 -13,-87 -35,-79 -42,-127 20,12 31,28 36,49l8 -58 9 65 5 110 45 -6c-3,-23 -30,-40 1,-130 5,-15 12,-33 16,-47l-4 62 34 -51c8,17 -43,87 -43,103l-1 62c9,0 17,2 26,1l23 18c46,39 35,14 61,28 8,4 7,5 14,9l-8 5c-45,27 -72,-28 -89,-36 -8,-5 -14,1 -26,-5l-21 15c14,8 30,23 33,38 -19,-10 -42,-8 -60,-23zm-100 770c-3,6 -2,9 -1,14 19,9 24,17 21,36l-10 73c-21,-19 12,-66 -8,-83l-26 47 -25 63c-4,-7 1,-19 3,-27l-22 15 20 -45 33 -42c6,-6 12,-9 17,-15 -11,0 -15,-8 -22,-14 -10,20 -15,21 -25,33l-3 -2c6,-12 19,-27 27,-33l-6 -18 -13 -2c-10,15 -87,85 -120,76 5,-4 9,-9 15,-13l-53 4 17 -15 60 -11 52 -38c7,-5 12,-3 17,-9 -12,-7 -16,-18 -21,-28 -35,4 -102,72 -128,34 5,-5 -2,-2 8,-3l43 -16c-4,1 -29,9 -54,-12l1 -3c10,2 22,0 33,2 10,2 26,10 34,9l59 -12c-4,-25 -51,-15 -65,-39 -4,-7 1,-6 -9,-9 -12,-4 -67,4 -59,-32l69 25c6,2 7,0 15,0 10,1 21,7 32,7 18,1 29,10 40,24 5,-10 4,-20 6,-30 6,-23 15,-34 26,-54 4,8 5,40 -2,52l-28 35c11,10 12,21 26,28 15,8 17,14 24,27 36,-25 35,-15 74,-20l-72 21zm356 282c40,11 40,-18 58,-15 -10,7 -20,13 -31,19 13,7 20,18 33,25 26,14 27,26 8,39 14,9 33,32 35,47 -14,-7 -17,-2 -29,-13 -10,-9 -33,-31 -40,-42 -25,-38 -27,-15 -55,-27l-20 -5 -14 -2c-10,25 23,31 -23,112 -1,-47 -8,-59 17,-109 -11,-5 -5,2 -24,-4l-53 -18c-11,-4 -15,-2 -24,-5l7 20c6,10 -3,64 -37,89l-31 12 49 -80 -28 6 19 -30c3,-5 -14,-18 -3,-40 -27,-15 -51,-64 -50,-69l36 32c27,24 12,29 31,29 -2,-9 -17,-23 -22,-33l-17 -35c36,23 47,62 53,64l28 7c1,-6 -3,-30 -2,-50l9 -54c5,9 10,40 11,49l-15 57c8,4 14,4 24,7 43,16 23,10 62,6 6,-13 8,-25 18,-44l36 -48c-2,6 -4,53 -39,87 -4,3 -3,1 -7,5 29,14 23,13 35,-5 22,-31 51,-52 58,-63 2,4 3,2 1,7 -32,62 -48,55 -64,72zm65 -418c15,-28 24,-21 26,-64 1,-12 7,-22 14,-35 -7,1 -3,1 -9,5 -74,59 -53,38 -62,122 -7,70 11,64 -11,76l12 120c19,4 -4,-14 53,0 2,-26 7,-73 -11,-98 -6,10 -12,17 -22,18 -15,-13 -6,-47 -6,-63 2,-45 -3,-42 16,-81zm-57 6c15,-30 25,-2 14,-65l-87 81c28,7 34,30 32,53 17,-2 16,-24 47,2l6 -53c-7,13 -11,18 -18,30l6 -48zm-40 -45l71 -74c-40,1 -58,14 -83,45 -46,57 -43,35 -61,40 -7,2 -11,9 -22,3 -10,-5 -11,-16 -15,-24l-89 64c21,-41 52,-56 86,-75l-2 -8 -26 -18c-32,4 -45,32 -64,44l-22 9 3 20 64 -39c-21,38 -98,72 -111,99 38,-15 52,6 68,-9 20,-18 44,-52 91,-64l-12 22c-15,25 -39,32 -54,60 -10,21 45,119 -40,145 -17,5 -40,0 -50,5 -3,12 -2,20 0,32 4,21 -4,17 -9,27 -9,19 -5,58 -33,65 -28,7 -14,3 -31,23l-69 28c-52,1 -37,-35 -35,-55 2,-24 -5,-27 9,-56 -14,2 -72,48 -107,29l-43 -59c-20,18 -65,-33 -57,-48 8,-16 8,-8 8,-27 -1,-34 21,-35 25,-44 4,-11 -4,-27 25,-49l-10 -15c-33,-47 -3,-66 16,-59 5,-10 13,-17 23,-12 -3,-30 4,-31 14,-36 10,4 11,7 21,12 18,10 28,2 40,8 12,7 24,46 44,33 17,-13 -1,-79 54,-97 47,-16 47,-2 57,14 7,-5 5,-8 14,-11 20,-6 36,15 65,29 23,12 60,-51 107,-31l3 -5c-10,-4 -16,-5 -23,-12 0,-10 4,-15 12,-20 40,-25 94,-10 123,-26 15,-7 26,-4 34,-7 -45,-18 -33,-29 -49,-37 -17,-9 -45,-14 -45,-34 -1,-19 11,-20 -1,-31 -78,-75 -69,-54 -118,-139 -15,1 -22,-6 -36,-7 -27,-2 -57,75 -127,2 -42,-44 -11,-82 -11,-102l-45 -5c-34,-17 -57,12 -91,26 -59,24 -73,-21 -84,-35 -18,-22 -23,-43 -14,-70l-1 -40c-6,-45 33,-35 42,-60 24,-67 69,-29 97,-51l-34 -46c-21,-54 14,-76 24,-95 21,-41 28,-73 78,-47 59,31 51,-27 128,12 28,-56 42,-15 84,-35l39 -6c77,2 128,74 94,141 -21,41 -31,36 -43,83 -6,24 -13,29 26,32 19,2 40,13 58,18 59,14 44,30 41,105 -3,67 -47,67 -56,89l-33 45 14 33c14,35 18,79 43,93l23 -3c35,18 22,39 31,64 15,37 9,54 29,78l53 24c228,26 139,69 277,151 24,14 150,64 178,78l-114 -77c-48,-19 -68,-44 -104,-69l-66 -59c34,19 109,80 175,105l6 -6c236,136 487,241 748,310l18 56 -75 -8 0 0c-42,-9 -99,-17 -118,29 -168,-59 -331,-135 -488,-227l-24 -8c-70,-21 -151,-79 -207,-122 -56,-44 -74,-89 -137,-73l-33 83 28 50c12,17 16,34 24,52 10,20 17,5 50,39 113,123 60,82 106,154l104 128c25,17 58,6 69,35 9,22 -6,39 -13,62l-2 79c-13,24 -42,-5 -52,-10 20,38 -7,30 -12,48 -8,32 -57,-21 -74,-35 2,12 19,34 13,44 -10,21 -34,0 -48,12 -12,10 -20,14 -36,11 -15,-3 -13,1 -22,11 -22,24 -37,9 -60,17 -24,8 -37,-7 -44,-29 -4,-11 0,-7 -10,-12 -12,-5 -6,-6 -15,-11 0,5 -7,23 -11,28 -11,12 -13,7 -23,2 -7,-4 -8,1 -15,5l-66 28c-26,17 -25,-1 -45,-1 -33,0 -97,-57 -119,-89 -8,1 -8,4 -17,2l-54 -5c-9,-2 -24,5 -33,6 -40,4 -29,-18 -36,-38 -13,-43 -33,-40 -44,-62 -24,-48 60,-68 85,-96 -10,-5 -10,-2 -18,-9l-32 -12c-32,-17 -38,-27 -26,-63 8,-25 3,-44 15,-67 9,-18 14,-15 27,-26 8,-8 11,-14 20,-21 7,-5 11,-4 18,-9 11,-9 12,-25 25,-28 21,-5 9,-5 22,-15 22,-15 35,1 53,-7 10,-5 14,-9 24,0 14,-76 34,-86 32,-103 -2,-18 -2,-10 -18,-19 -37,-19 57,-74 69,-87zm41 160c-3,-19 7,-24 -8,-32 4,29 3,43 -4,70 -5,18 26,39 17,62l7 4c5,-13 -3,-29 -4,-35 -6,-30 -5,-39 -8,-69zm-77 -68l-2 -5c1,4 1,5 2,5zm1 4c0,-3 0,-3 -1,-4l1 4zm61 114c-1,-11 -20,-44 1,-85 -15,2 -10,19 -41,18 0,6 -8,29 -12,37l0 -36c5,-19 3,-2 0,-23l-9 -25c0,1 1,2 1,2 0,16 -11,19 -11,31l-13 79c-4,32 -3,27 9,30 4,-19 -7,-6 10,-50 13,11 10,38 1,56 39,20 15,55 21,79l20 -56c-12,-11 -8,-44 -4,-58 9,16 14,36 10,55l20 -2c-2,-7 -2,-3 -4,-9l1 -43zm59 81c-35,16 -24,-7 -59,-4 -23,2 -4,2 -27,58 -4,10 -13,49 -29,41 -24,-12 -8,-99 -15,-111 -8,-14 -56,-13 -50,-42 -8,-2 -4,0 -11,3l-33 0c-14,2 -6,21 -37,21 -18,35 -25,22 -39,29 -7,4 -12,12 -18,18 -17,15 -30,3 -28,53 2,27 -17,49 -7,60l28 12c18,9 17,18 29,22 15,4 23,0 32,3 -9,16 -3,18 -16,34l-75 63c14,20 51,60 44,85l57 -10c27,5 12,1 31,0l27 6c9,-17 12,-15 11,-30l18 -90c32,18 2,56 4,96 1,19 -9,21 -17,30l65 59 47 19 22 2c14,-10 31,-19 48,-22 30,-4 15,-20 33,-20 17,0 22,18 26,23 4,-8 5,-13 8,-21l-1 -18c19,-9 29,14 33,21 5,-10 9,-27 12,-38 41,-129 20,-96 -5,-109 -29,-15 -16,-24 -31,-31 -20,-10 -56,-19 -60,-40 -5,-30 16,-45 24,-54 3,-4 2,-13 10,-30 14,-27 28,-9 20,-68 -7,-2 -14,1 -21,-3 -15,-8 -33,-25 -50,-17zm-89 -367c65,-46 88,-16 104,-23 -4,-4 -2,-3 -4,-7 -8,-2 -8,2 -16,-2l-23 -14 3 -5c-15,-12 -25,-50 -29,-69 -2,-11 -8,-20 -11,-36 -2,-9 -7,-48 -22,-27 -15,15 -12,3 -19,16 -3,4 -10,24 -28,17 0,15 -1,16 -7,27 75,39 35,33 62,47 27,14 48,11 52,41 -23,3 -15,6 -44,12 -29,6 -16,7 -32,12l-100 15c6,5 5,9 1,18 34,13 18,23 31,46 6,0 8,-3 13,-5 14,-5 15,8 37,-27l-23 9c16,-33 43,-35 55,-45zm-306 -299c13,7 28,-31 71,-32 -1,-6 -46,-75 -21,-128l17 98 8 31c44,1 44,28 26,-47 -12,-50 -1,-15 -6,-52l10 -6 -10 -23 25 18c18,14 8,17 16,21 11,6 20,-12 46,22l51 30c6,-12 8,-19 14,-32 16,-32 47,-20 49,-62l3 -74c-14,0 -44,-13 -60,-19 -49,-16 -89,4 -67,-85 11,-49 22,-43 42,-82 9,-18 7,-48 1,-58 -8,-16 -31,-25 -50,-31 -22,-6 -32,2 -52,5 -26,5 -47,-5 -51,4 -32,68 -14,27 -71,14 -25,-7 -28,25 -78,11 -39,-11 -28,-35 -50,17 -12,28 -30,23 -32,73 -1,28 29,21 19,48 -6,18 9,35 -27,38 -68,9 -37,15 -52,45 -11,20 -19,17 -36,29 8,14 11,17 5,35 -19,61 -13,31 10,72 5,9 3,18 27,14 32,-7 56,-42 97,-37l38 13c5,3 22,-13 38,-5 10,5 14,19 16,28 8,33 -30,62 4,89 9,7 5,8 10,5 -7,-25 13,-39 32,-76 4,35 -19,67 -27,82l15 7zm40 498c-15,6 -50,2 -26,-45 23,-46 43,-11 44,-68 -37,-19 -22,-10 -53,-36 -28,22 -32,13 -46,-11 -76,0 -25,79 -68,108 -44,30 -72,-33 -77,-36 -2,-2 -23,6 -35,-10 0,0 5,31 -23,25 -2,4 -5,23 -26,18l16 31c13,3 14,-7 59,16 -18,9 -22,6 -35,6 -44,3 -21,58 -54,65 -30,6 -7,10 -30,49 34,49 47,-3 74,55 5,12 17,-2 20,26 27,12 67,-15 94,-31 16,-9 14,-38 48,-42 -8,16 3,5 -14,40l-16 59c-4,13 5,18 -4,55l53 -14c13,-2 27,-36 47,-32 7,-13 10,-39 16,-51 10,-21 14,-18 14,-35 0,-82 66,-20 89,-67 13,-24 6,-25 1,-44l-4 -40c-9,1 -11,4 -22,4l-42 5zm441 357l-5 -22c-11,-39 0,-58 -6,-69 -5,12 -4,18 -10,28 -12,25 -51,32 21,63zm-209 -748c0,-1 -45,-117 -34,-143 -7,-2 -6,0 -13,-3 -2,10 6,14 2,28 -6,-5 -12,-20 -10,-28 -14,-7 -30,-14 -39,-22l24 64c-4,-5 -7,-5 -10,-11l-40 -81c-7,0 -14,1 -22,-3l33 56 30 55c-38,-23 -40,-41 -49,-50 1,9 1,15 -6,24 8,5 14,12 10,21 -12,-6 -12,-5 -18,-13 -11,7 -9,2 -14,9l94 86c8,10 14,22 25,31l14 -7c-5,-3 -78,-69 -81,-95 57,29 75,91 95,96l5 -10c-22,-28 -51,-53 -52,-107l56 103zm-7 337l-1 -3c-5,4 -9,4 -13,8 3,0 5,1 8,2 4,-8 6,-6 6,-7z"/>
   <path class="fil1" d="M921 2778l-9 10c3,6 5,-6 9,-10zm43 -1042l-1 -1c0,0 1,1 1,1zm261 228l0 -1c0,0 1,1 0,1zm-415 73l0 0c0,0 0,0 0,0zm423 -193c-2,2 -7,-5 -2,-2 0,0 7,-1 2,2zm-24 -242l-4 -1c2,-6 0,-3 5,-6l-1 7zm26 276c4,-9 8,-11 16,-13 4,-2 6,-2 11,-4 25,-12 28,-6 66,0 -3,6 -3,4 -18,10 -47,19 -35,1 -67,6 -4,1 -1,2 -8,1zm0 2c0,1 -11,2 -3,-1 4,-1 4,-2 3,1zm-68 239l-29 -5c-7,0 -4,-2 -7,3l-9 -1c-1,-7 0,-4 -4,-11l-8 -14c0,0 0,-2 -1,-3l-5 -20c14,10 28,9 40,19 5,4 22,25 23,32zm47 -27c-31,-2 -54,2 -75,-43 38,6 41,-2 63,26 6,8 11,8 12,17zm-395 -114c-13,1 -6,7 -19,6 -2,9 -4,8 -25,19 -25,13 -30,11 -42,6 -1,-5 -2,-5 -1,-11 1,-9 29,-19 38,-20 9,-1 17,0 24,-1 5,-1 8,-1 12,-3 5,-1 5,-2 13,0l0 4zm-47 42c1,-9 6,-11 12,-15 19,-8 14,-6 29,-8 18,-3 5,-6 35,-1 -7,18 -19,23 -35,29 -8,3 -44,17 -41,-5zm469 38c-30,-4 -43,12 -77,-30 -3,-4 -3,-4 -2,-14 33,6 45,7 65,29 5,6 11,9 14,15zm-231 51l-1 9c-8,2 -2,-2 -7,6 -3,4 -2,4 -6,8 -5,6 -11,8 -18,11 -34,-26 -4,-53 21,-65 0,3 0,8 1,10l6 13c4,10 -4,3 4,8zm39 -353c-5,1 -5,2 -11,1 -6,-1 -12,-12 -12,-16 2,-8 7,-13 10,-18 0,-1 16,-55 37,-52 14,2 -4,19 -10,36l-8 23c-3,12 -2,16 -6,26zm232 246l-1 4c-11,-1 -49,14 -78,-14l-7 -7c-3,-7 3,4 0,-2l-1 -1c-5,-8 -2,6 -4,-6 16,3 17,-4 51,2 22,3 24,17 40,24zm31 -47l-21 10c-23,9 -51,4 -71,-9l-2 -2c-4,-3 3,1 -4,-3l1 -7c5,0 5,-1 9,-2l13 -2c27,-2 10,-4 41,1 14,2 21,11 34,14zm7 -48c-23,26 -42,19 -72,18 -6,-1 -16,5 -20,-1 -1,-5 -2,1 1,-4 3,-4 1,-1 4,-5 -10,-1 -8,-3 -19,-5l12 -7c8,-5 7,-4 13,-5 1,0 1,-1 2,-1l5 -2c0,0 2,-1 2,-1l12 -3c10,-1 -1,-3 8,-1 19,3 23,2 39,9l13 8zm-467 141c16,-7 9,-12 48,-5 -4,7 -9,50 -45,44 -5,-1 -11,-6 -12,-10 -4,-8 -1,-11 0,-19 -35,13 -33,-25 -12,-32 10,-2 19,0 29,-3 -2,7 -6,19 -8,25zm260 95c-40,-6 -40,-17 -53,-28 0,12 2,2 7,15 3,7 0,7 5,16 -8,1 -8,1 -12,-5l-12 -21c-1,9 1,7 0,16 -8,0 -2,3 -15,-9 -19,-16 0,-32 2,-41 5,5 6,10 9,17 2,3 2,3 4,5l2 -10c2,-5 7,-8 9,-21 8,7 5,3 13,2l4 9c9,11 20,9 29,38 2,7 5,11 8,17zm-148 -45c-2,17 -24,42 -39,21 -3,-4 -4,-9 -5,-15 -10,1 -9,5 -20,4 -8,-11 -11,-24 -1,-36 5,-5 9,-7 16,-9 7,-3 11,-5 19,-6l-2 18c13,-2 20,-19 27,-15 7,4 6,37 5,38zm201 -840c-4,30 -12,41 -16,63 -1,11 -3,22 -4,33l-8 68c-2,19 -1,17 -10,28 -12,-9 -14,-13 -11,-36 6,-41 14,-118 32,-154 4,-9 5,-14 17,-13 0,5 1,5 0,11zm-397 200c-33,-5 -50,-19 -73,-43 -31,-32 -43,-79 -30,-77 12,2 24,18 31,25l56 57c17,18 8,21 16,38zm234 -116c-8,54 -9,27 -18,49 -6,-3 -6,-4 -8,-8 -9,-15 -6,-24 -3,-43 1,-10 4,-130 31,-126 18,3 4,44 3,61 -1,23 -2,42 -5,67zm-75 63c-1,7 -5,10 -12,9 -17,-3 -8,-10 -22,-22 -8,-7 -18,-18 -27,-45 -6,-18 -14,-46 -15,-66 -1,-14 -2,-14 4,-20 7,3 11,7 14,13l20 35c5,6 40,86 38,96zm-280 177c-2,12 -8,6 0,16 -11,-2 -14,-4 -27,-6 -33,-6 -71,-41 -96,-66 -8,-9 -24,-25 -22,-38 12,2 13,4 19,9 30,26 21,10 41,21l36 23c4,3 2,1 4,3 6,5 2,4 13,10 7,5 12,7 19,12 4,3 13,12 13,16zm-123 212l-27 6c-18,4 -18,1 -32,2 -11,1 -4,2 -18,-3 -22,-8 -45,-11 -69,-14 -14,-2 -14,0 -19,-10 5,-10 10,-6 39,-13 34,-8 75,-5 108,8 8,2 8,4 11,10 3,6 6,8 7,14zm99 -155c-7,18 -19,8 -39,5 -37,-5 -22,-5 -35,-9 -32,-10 -4,4 -30,-16 -33,-25 -48,-1 -59,-30 17,-14 76,-6 92,3 21,13 62,28 71,47zm230 -217c-8,-1 -14,-10 -19,-14 -7,-5 -13,-8 -21,-14 -33,-29 -48,-63 -57,-105 -1,-7 -5,-21 7,-14l52 54c14,12 20,27 31,43l18 32c2,8 0,20 -11,18zm-164 133c-10,-1 -14,-6 -18,-12l-10 -12c0,-1 -1,-1 -1,-2 -14,-13 -13,0 -33,-23 -3,-4 -4,-4 -8,-8 -19,-15 -51,-43 -47,-73 17,-2 32,14 45,23 9,6 15,9 23,15 19,16 66,51 66,76 0,10 -7,18 -17,16zm-96 196c-11,13 -24,17 -42,14 -94,-15 -127,-54 -171,-72 4,-16 14,-8 30,-6 15,1 20,-6 35,-4l55 9c8,1 56,27 66,38 4,5 -2,-1 4,5 6,5 17,12 23,16zm45 239c-10,2 1,1 -11,11 -9,8 -39,17 -50,19l-147 27c-7,2 -14,3 -20,3 -7,1 -12,0 -21,1 -25,2 -22,8 -38,6 12,-18 4,-13 26,-20 6,-2 10,-3 16,-5 6,-4 8,-6 15,-8 20,-7 51,-20 67,-23 31,-5 122,-33 144,-30 10,2 16,12 19,19zm-123 -116c-4,9 -4,7 -14,7 -6,1 -13,2 -21,1l29 18c-3,10 -5,10 -24,12 -32,3 -65,4 -98,2l-36 -3c-16,-2 -18,-9 -2,-16 14,-5 38,-18 52,-19l1 -4c-15,-3 -17,-7 -30,-10l-35 -7c7,-17 68,-23 82,-21 45,7 26,7 58,20 8,3 16,5 22,8 9,4 12,5 16,12zm742 -532c-2,13 -5,19 -6,28 -1,9 0,17 -2,29 -7,49 -17,81 -40,117 -4,6 -7,13 -12,18 -7,8 -8,5 -11,19 -2,16 1,15 -7,24 -15,-7 -12,-34 -12,-49 0,-89 29,-148 78,-216 6,-8 6,-13 16,-14 3,10 -1,9 -2,20 -1,7 0,13 -2,24zm-847 807c-26,-4 -19,-29 12,-46 14,-7 24,-13 36,-20l115 -51c8,-4 9,-5 18,-9 35,-14 75,-16 117,-13 -21,23 -45,23 -61,33l-59 30c-3,2 -2,1 -6,3 -8,3 -3,1 -10,3 -4,1 -1,0 -5,1 -1,1 -3,3 -5,4 -9,4 -10,2 -18,7 -3,1 -5,4 -8,5 -11,3 -11,1 -29,8l-60 27c-9,6 -23,20 -37,18zm800 -556c8,-52 16,-47 23,-82l15 -38c5,-29 8,-17 16,-36l4 -10c0,0 0,-1 1,-1l12 -23c5,-14 31,-51 40,-62 20,-22 44,-24 47,-3 1,7 -3,15 -5,23 -8,35 -55,114 -78,144l-68 82c-6,7 2,4 -7,6zm-403 102c-17,-2 -26,-7 -40,-10 -18,-5 -20,-6 -31,-17 -25,-26 -26,-47 -40,-51 -2,17 -8,30 -6,44 1,14 4,27 5,41 16,-1 28,-15 71,-8l-20 9c-7,2 -12,4 -19,6 -6,2 -11,5 -17,8l-8 5c-34,17 -59,-51 -51,-79 6,-24 3,-34 15,-52 11,-16 24,-24 46,-21 17,3 38,39 46,55 7,16 5,3 36,27 11,8 13,10 26,16 8,4 31,7 34,11 7,9 -9,18 -16,19 -10,2 -2,0 -14,-3 -8,-2 -8,2 -17,0zm693 -310c-4,26 -67,87 -83,106l-84 104c-10,13 -18,24 -28,36 -10,12 -18,24 -30,33 1,-15 -6,-2 8,-33 11,-26 5,-1 20,-44 15,-43 52,-111 81,-143l47 -41c7,-5 11,-9 18,-13 19,-12 38,-29 47,-14 1,0 4,9 4,9zm-984 985c-38,-34 105,-158 129,-180l79 -67c8,-6 11,-10 19,-16 28,-20 44,-37 75,-32 -3,22 -13,32 -30,45l-41 34c-38,30 -91,81 -128,116l-3 2c0,0 0,0 -1,1l-23 28c-1,0 -1,1 -2,1 -8,12 0,8 -13,17 -15,10 4,-1 -14,17 -1,1 -2,3 -3,4l-5 6c0,1 -1,1 -1,1 -10,10 -10,5 -20,13 -10,8 -7,10 -18,10zm1006 -45c-2,18 -36,15 -49,13 -52,-8 -115,-61 -153,-97 -18,-16 -57,-61 -64,-83 -3,-8 -4,-13 -7,-20 -6,-13 -21,-25 -23,-37 19,18 11,8 20,15 1,0 4,4 5,4 12,11 63,36 124,91 24,22 45,37 72,57 13,9 27,17 41,25 15,9 36,20 34,32zm171 -759c-4,28 -9,28 -35,47 -15,10 -157,81 -177,89l-57 24c-8,5 -12,2 -36,14 -36,20 -27,9 -50,17 -1,-4 -1,3 4,-8l-33 6c10,-11 38,-21 49,-26l72 -45c8,-4 17,-10 24,-15l61 -36c5,-4 7,-4 12,-7l24 -16c20,-14 48,-24 60,-36 14,-15 7,-5 24,-15 6,-4 5,-5 12,-8 31,-15 49,-4 46,15zm76 57c-2,11 -11,15 -18,20 -27,20 -41,26 -70,43l-59 34c-12,11 7,6 -37,21 -30,10 -26,14 -77,29 -35,10 -70,13 -116,28 -11,3 -27,7 -24,-9 1,-11 38,-17 47,-23 6,-4 11,-13 19,-19 5,-3 6,-3 11,-6 122,-79 119,-42 215,-86 13,-6 92,-41 101,-40 4,1 8,5 8,8zm-807 888l-13 94c-2,11 -13,9 -18,1l-13 -77c-8,-43 -6,-127 0,-171 2,-14 0,-17 2,-29l20 -89c6,-21 11,-33 15,-58 6,3 1,0 5,9 2,-13 2,-18 6,-28l5 1c0,6 0,12 1,19 6,59 8,86 2,148l-6 111c-1,8 -3,16 -4,24 -1,15 1,27 -2,45zm320 39c-2,14 -16,13 -21,10 -9,-4 -22,-21 -29,-28l-48 -62c-1,-2 -2,-3 -3,-5l-13 -22c-1,-1 -1,-1 -1,-2 -9,-18 -15,-26 -27,-54l-19 -52c-4,-9 -5,-17 -9,-27 -6,-19 -8,-34 -18,-51 -8,-14 -45,-64 -3,-61 -2,-5 -3,-5 -3,-11 8,7 8,11 14,20 6,9 11,12 17,20 17,23 13,26 23,46l39 66c17,32 39,82 57,117l34 70c4,7 11,17 10,26zm-456 -452c6,4 9,5 -4,23 -5,6 -4,4 -5,11 -5,29 -68,120 -87,148 -12,16 -6,13 -15,25 0,0 -1,0 -1,1l-10 16c0,0 0,1 -1,1 0,1 0,1 0,2l-6 8c0,1 0,1 -1,1 -7,13 2,4 -13,24 -9,11 -6,11 -13,22l-5 7c0,1 0,1 0,2 -5,8 -12,13 -20,21 -85,91 -25,-75 -1,-109 15,-21 27,-43 44,-67 14,-18 42,-46 52,-60 7,-10 9,-9 14,-13l17 -16c25,-25 32,-26 47,-43 10,-12 8,-4 8,-4zm135 -645c-4,28 -35,73 -37,84 -1,10 5,34 8,45 2,9 -1,9 1,21l2 8c0,1 0,2 1,2l1 35c0,17 4,-4 0,25 -28,-4 -19,-5 -30,-22 -3,-5 -5,-6 -8,-11 -10,-20 -13,-53 -42,-58 -34,-5 -45,22 -90,15 -22,-3 -25,-33 -23,-44 0,-5 10,-23 13,-28 10,-15 50,-44 66,-56 12,-9 24,-15 38,-20l22 -10c32,-16 83,-21 78,14zm282 226c-3,19 -5,35 -34,31 -14,-3 -16,-9 -26,-14 -7,-3 -10,-3 -17,-5l-43 -20c-32,-16 -8,-14 -36,-19 -7,-1 -4,1 -8,3 0,0 -1,1 -1,1l-34 18c-5,2 3,-1 -3,1l-6 2c-5,1 -12,4 -18,0 0,0 -10,1 -2,-19 2,-6 2,-4 5,-9 7,-14 5,-9 15,-16l3 -2c2,-2 0,0 3,-3 17,-17 18,-46 10,-64 -7,-16 -24,-45 1,-58 25,-13 31,-2 35,0 17,11 21,-7 58,45 5,7 4,9 10,15l17 20c10,10 3,5 10,14l23 26c1,0 1,1 2,1 3,3 4,4 7,7 12,12 32,28 29,45zm-149 -255c-3,22 -30,21 -44,46 -22,37 -25,72 -36,109 -6,22 -15,57 -22,74 -5,12 -9,23 -24,21 -8,-2 -7,-8 -8,-16 0,-2 0,-8 0,-10 -1,-17 -6,-37 -3,-52 5,-35 4,-60 8,-93 7,-50 7,-72 34,-115 11,-19 21,-41 51,-36 18,3 27,15 33,27 8,14 14,23 11,45zm661 563c0,6 -1,6 -3,11 -35,2 -12,-4 -32,12 -13,11 -37,16 -56,20 -62,14 -160,16 -222,-1 -70,-18 -67,-46 -120,-43 -9,1 -7,1 -13,-4 4,-7 0,-4 7,-7 2,-1 8,-3 11,-3 9,-2 15,-3 24,-4 9,-2 15,-4 24,-5 26,-3 116,1 139,4 13,2 16,0 29,2l59 6c30,1 51,4 83,1 11,0 73,-9 70,11zm-857 -261c-6,12 -24,14 -35,19 -7,3 -12,4 -19,8 0,1 -2,2 -4,3 -3,2 -1,1 -4,2l-80 46c-26,15 -41,33 -67,48l-33 23c-38,41 8,15 -26,53 -10,11 -14,9 -24,7 -12,-2 -16,-12 -21,-20 -10,-15 -26,-11 -39,-45 -10,-26 -15,-55 22,-67 17,-5 33,-3 51,-7 19,-4 34,-16 65,-24 31,-8 61,-17 89,-33l10 -5c39,-18 70,-27 115,-8zm75 92c-4,28 -43,18 -60,7 -2,15 -7,20 -5,34 2,14 4,18 1,37 29,26 27,7 60,29 18,13 37,26 33,53 -2,11 -22,39 -24,41 -28,21 -72,-35 -79,-41l-3 -2c0,0 -1,0 -1,-1 -14,-7 -31,-13 -43,-21 -20,-15 -16,-3 -41,-16 -33,-17 -47,-7 -68,-34 -10,-13 -8,-21 10,-41 22,-24 44,-5 71,-1 14,2 22,-61 56,-76 0,-5 -5,-35 20,-31 20,3 6,19 35,34 14,6 16,2 25,7 9,3 14,12 13,22zm285 10c-10,-1 -11,2 -20,4 -25,5 -12,5 -32,19l-56 39c-9,5 -15,12 -21,20 4,8 47,56 11,99 -19,22 -57,21 -84,16 -20,-4 -2,-4 -17,-8l1 -6c-13,-3 -11,-17 -12,-33 0,-4 -1,-14 -1,-19l-1 -21c-3,-11 -1,-5 -6,-14 -20,-36 -21,-50 -31,-73l-4 -14c0,-1 -1,-1 -1,-2 0,0 0,-1 0,-1l-6 -28c-1,-6 0,-2 -3,-7 -6,-10 -2,-25 -7,-37 0,0 0,-1 0,-1 0,-1 -6,-7 -5,-16 1,-10 1,1 3,-11 0,-5 -8,-33 0,-33 7,1 19,19 22,25 15,24 22,53 38,77 22,31 47,46 73,72 5,6 6,10 13,12 -2,-19 11,-46 3,-61 -5,-7 -20,-24 -27,-27l-16 -10c0,-1 -1,-1 -1,-1l-11 -13c0,0 -1,-2 -1,-2 -15,-28 30,-19 44,-17 9,1 35,17 78,23 9,2 1,-3 14,-2l1 -6c10,0 7,-1 14,-6l11 -6c9,-5 11,-11 17,-21 7,-11 18,-24 27,-32 7,-7 8,-13 15,-20 11,-12 16,-27 28,-38l57 -60c20,-21 49,-42 75,-55l64 -27c9,-3 25,-6 36,-5 40,7 24,37 -2,50 -37,20 -79,29 -114,52 -1,1 -3,2 -3,3 -24,17 -69,58 -89,78 -5,5 -9,11 -15,14 4,6 9,-4 12,-8l37 -29c15,-11 20,-18 34,-27 11,-7 5,-10 18,-8 2,-13 17,-14 26,-21l26 -14c14,-11 9,-9 29,-16 18,-6 34,-12 53,-4 4,13 4,13 -4,23l-17 18c-4,13 -16,11 -33,22 -16,12 -35,20 -52,29 -7,4 -9,5 -15,9 -6,3 -10,5 -16,8 -18,11 -38,23 -58,31 -32,13 -32,16 -38,18 -12,6 -15,-4 -13,-15 0,0 -1,0 -1,1 -2,5 -23,12 -30,17 -5,4 -9,6 -14,10 -6,4 -12,5 -15,12 36,14 2,54 -12,70 14,-3 -7,3 3,-1l4 -2c17,-12 -4,-19 42,-26 5,-1 8,-2 14,0 -5,5 -8,10 -13,15 -5,7 -6,11 -16,12l6 4c3,3 1,-1 4,5l-21 7c-1,1 -2,2 -3,2 -2,2 -1,1 -3,4l-15 -2c4,-9 9,-12 22,-10l0 -4zm-59 307c6,5 7,12 13,19l153 231c4,8 51,75 53,85 19,-6 25,-3 37,13 8,10 20,16 30,25l13 10c9,9 23,17 34,24l25 12c4,1 9,7 14,9 17,9 71,21 96,28 7,2 12,6 20,7 -3,-6 -7,-10 -11,-14 -6,-6 -2,-2 -5,-8l-16 -31c0,-1 0,-2 0,-2l-3 -6c-1,0 -1,-1 -1,-1l-3 -6c-3,-8 -3,-17 -7,-24 -3,-7 -2,-12 -5,-20l-4 -9c0,-2 -1,-4 -1,-6l-1 -4c-1,-8 -2,-4 4,-7 1,7 7,17 12,22l12 13c0,0 2,3 3,4l9 17c4,5 -4,2 10,5 -1,2 -1,3 -1,4 0,0 0,2 0,2l2 3c3,6 -1,0 3,3 1,0 1,1 2,1l2 2c0,0 3,4 3,4 0,1 0,1 1,2 0,0 1,2 1,2 3,6 3,3 2,11 3,0 2,0 4,1l18 28c0,1 0,1 0,2l10 30c11,-5 3,-19 1,-28 -2,-9 1,-14 0,-22 0,0 -1,-1 -1,-1 0,-1 0,-2 0,-2l-9 -52c-1,-2 -1,-6 -2,-7l-1 -7c0,-4 0,-4 0,-8l-21 -72c-1,-10 -7,-16 -9,-26l-4 -11c0,-1 0,-1 0,-2l-59 -122c-3,-8 -3,-11 -9,-17 -10,-10 -24,-19 -22,-35 2,-11 9,-14 18,-16 5,-1 22,-4 28,-4 2,-10 2,-10 5,-17 -35,2 -50,23 -136,3 -29,-7 -58,-21 -83,-36 -52,-30 -51,-35 -87,-70l-9 -8 34 3c18,3 25,9 43,12l70 14c9,3 9,5 20,7 18,3 29,9 46,12 31,5 69,8 95,16 17,5 31,4 34,19 2,15 -12,16 18,28 2,-3 2,5 1,-6 18,2 14,-3 34,0 43,7 57,5 101,3 6,0 9,-1 14,-2 16,-3 27,-6 41,-13l11 -7c2,-1 3,-2 5,-3 0,0 1,0 1,-1l6 -3c7,-5 15,-10 19,-19 -9,-1 -13,1 -19,1 -18,3 -34,-3 -51,-10 -7,-3 -12,-4 -17,-9 -11,-10 -22,-11 -33,-22 -6,-6 -13,-5 -22,-7l0 -4c15,2 30,6 44,7 6,0 4,0 8,-1 6,-1 22,-1 32,4 0,0 1,0 1,0l3 2c12,6 31,11 42,13 -2,-9 -12,-13 -20,-21 0,0 -1,-1 -1,-1l-5 -5c0,0 -1,-2 -1,-2 -2,-4 -2,0 -2,-7 -9,-3 -6,-5 -12,-10 -8,-7 -9,-4 -9,-14 -10,-2 -4,1 -8,-4 -4,-5 -3,-1 -1,-11 -12,-3 -17,-15 -26,-22l-89 -67c-18,-9 -28,-15 -43,-28 -8,5 -20,8 -29,11l-77 23 -65 11c-17,0 -42,-6 -60,-9 -19,-4 -31,-10 -50,-13 -14,-2 -16,0 -29,-2 -3,-5 -4,-7 -5,-14 20,-17 47,-7 70,-11 50,-8 94,-16 145,-18l56 -2c10,0 13,1 19,-4 -18,-8 -7,-26 2,-35 10,-10 18,-21 30,-30 5,-4 2,0 7,-6 -3,-6 0,-4 -8,-8 6,-5 5,-2 8,-9l-40 9c-6,1 -3,0 -8,4l-16 10c-1,1 -2,2 -3,3l-68 34c-1,1 -2,1 -2,1 0,0 -1,1 -1,1 -4,1 -3,1 -6,2 -5,1 -6,1 -11,2 -34,9 -37,9 -77,12 -20,1 -47,-1 -68,5 -6,2 -34,12 -31,-6 2,-16 44,-24 74,-36 112,-47 99,-39 210,-58 10,-1 36,-7 41,-16 6,3 5,-3 1,7 11,2 10,2 18,5l2 14c2,-12 2,-7 9,-14 8,-9 1,-9 14,-7 3,-11 -1,-4 5,-8 5,-4 -3,-2 8,-1l1 -9c11,1 13,2 15,-9 8,0 4,0 7,-1l14 -11c0,0 1,0 1,-1 3,-1 0,0 4,-2l12 -10c8,-9 28,-24 33,-34 6,-11 8,-23 12,-37 4,-15 7,-23 12,-36 4,-13 3,-31 8,-42l4 -9c1,0 1,-1 1,-1l6 -13c3,-7 0,-2 5,-8 3,-4 2,-1 5,-6 3,-4 -1,3 2,-2l7 -12c6,-5 0,6 6,-5 -25,8 -53,9 -75,23 0,0 -1,1 -1,1l-10 5c-13,6 -52,37 -63,46 -8,6 -13,14 -22,18 -10,4 -23,0 -21,-13 2,-15 33,-45 43,-54 19,-19 47,-29 56,-38 -102,-16 -123,29 -186,28l-31 1c4,-5 6,-6 11,-10 4,-3 8,-7 11,-10 25,-25 48,-31 80,-43 19,-8 43,-7 63,-15 27,-12 78,12 136,7 19,-1 36,-6 56,-8 10,-1 17,-2 27,-3 17,-2 39,-11 57,-5 32,11 8,34 -3,49 -9,12 -41,25 -55,36 -23,18 -61,45 -70,74l-8 43c-3,17 -14,37 -16,42l-15 29c-16,30 -50,46 -74,68 -17,15 -46,38 -66,48 -21,10 -5,-10 -27,21 -4,6 -8,9 -10,15 10,2 49,2 46,23 -1,9 -2,4 -4,13 18,3 24,15 39,23l49 25c8,5 8,9 15,13l14 11c6,5 11,9 17,13 29,22 53,50 79,76 47,45 112,53 -1,113 -12,6 -24,12 -34,19l-36 20c-10,4 -20,3 -30,7 -17,8 -19,3 -34,6l-16 3c-14,2 -46,-5 -54,-5 -15,-1 -35,4 -56,1 -8,-1 -9,-3 -16,-5 -8,10 -16,12 -31,13l0 5c18,4 30,33 40,49 27,45 64,132 78,181 20,68 27,139 40,209 2,13 15,61 13,71 -3,22 -33,23 -44,6 -3,-6 -7,-11 -11,-17 -12,-22 -69,-68 -91,-81 -18,-11 -86,-19 -141,-44 -13,-7 -31,-14 -41,-22 3,29 17,44 11,99 -4,39 -8,145 3,185l14 42c7,15 18,29 5,43 -16,17 -32,5 -43,-11 -25,-33 -66,-50 -97,-76l-48 -41c-25,-19 -45,-40 -74,-55 -23,-11 -36,-20 -56,-34 -18,-13 -31,-27 -43,-44l-15 -25c-6,-10 -11,-17 -15,-27 -8,2 -24,-2 -36,-4l-18 49c-2,10 -2,21 -4,31 -2,12 -7,14 -10,26 -3,13 -15,34 -22,47 -12,20 -27,38 -43,54 -16,17 -36,27 -54,41l-42 37c-8,14 -9,12 -13,19 -12,20 -15,82 -17,106 0,6 -1,15 -4,21 -9,16 -34,6 -38,-16 -1,-11 0,-22 1,-36 2,-14 -3,-19 -7,-29 -4,-12 -10,-87 -21,-124l-42 -144c-3,-22 -5,-41 -6,-65l1 -53c0,-13 0,-22 -13,-14 -5,3 -6,6 -10,9 -10,10 -16,13 -31,11 -25,-4 -35,-43 -43,-61 -38,3 -30,-12 -46,-24 -7,-5 -13,-2 -22,-6 -6,-3 -7,-8 -12,-12l-39 21c-27,12 -52,28 -78,42 -40,21 -78,43 -122,56l-44 14c-9,4 -12,5 -23,6 -6,0 -8,0 -13,2 -3,0 -7,3 -11,2 -12,-2 -21,-13 -20,-23 2,-14 24,-22 34,-28l20 -10c23,-11 38,-20 56,-40 55,-60 68,-104 92,-180 6,-16 18,-33 20,-48 -7,-3 -8,-7 -11,-13 -17,4 -43,-1 -40,-25 3,-20 35,-37 42,-56 -12,1 -31,-1 -29,-18 1,-7 11,-19 15,-25 -9,-1 -21,-4 -25,-4l-18 2c-8,1 3,3 -7,1 -32,-5 -18,-4 -29,-8l-22 -7c-11,-5 -34,0 -82,-25 -54,-28 -69,-28 -128,-28 -17,0 -41,1 -38,-24 3,-16 16,-18 31,-19l28 -2c5,-1 1,0 5,-1 0,0 3,-1 5,-2 10,-3 15,-1 24,-6 5,-3 11,-6 17,-9l31 -21c19,-15 36,-34 57,-46 28,-16 50,-19 84,-13 5,-13 49,-23 61,-28 29,-12 103,-8 113,10 -8,1 -7,3 -14,7 -11,7 -37,18 -49,21 -28,5 -57,3 -85,-2l7 5c5,4 2,2 7,4l-31 6c-8,0 -21,4 -27,7 -27,14 -52,30 -76,48l-18 12c0,0 -1,1 -1,1 -2,1 -1,0 -3,1l-10 8c-9,5 -16,9 -22,15 5,4 37,16 45,19l15 6c3,1 6,3 7,3 40,20 96,4 106,27 5,12 -1,9 13,16 33,17 22,3 43,6 10,2 10,9 11,18 7,-4 39,-31 58,-41 29,-15 56,-33 89,-37 9,-1 17,-5 25,-5 -6,6 -12,9 -18,15 -19,24 -34,28 -60,42 -14,8 -28,15 -44,22 -9,5 -37,19 -45,20 11,11 22,16 19,37 6,-3 13,-11 18,-15l113 -84c38,-27 107,-57 149,-75 7,-2 15,-6 23,-9 5,-1 7,-1 12,-2l13 -4c-1,7 -4,8 -9,13l-17 16c-8,6 -7,10 -16,10 -3,11 1,2 -5,7l-18 14c-7,6 -17,13 -25,19 -8,5 -20,11 -28,15 -13,7 -23,9 -25,19 -19,-2 -1,11 -22,10 -1,5 0,2 -2,4 -4,5 -9,7 -14,10l-130 95c12,3 2,4 15,7l0 -2c1,-6 7,0 2,0 0,0 0,0 0,0 -2,0 -2,2 -2,2l0 0c-3,24 -3,21 -15,43 -29,51 -33,106 -64,165 -5,10 -12,18 -14,29 29,-14 55,-29 86,-39 23,-7 57,-27 80,-23 10,1 6,0 15,0l-3 20c14,-1 31,1 43,10 6,4 11,9 12,15 20,1 18,-6 37,8l7 -67c2,-11 1,-2 5,-9 5,-13 14,-52 25,-79 17,-42 38,-61 58,-98l27 -44c11,-20 27,-36 44,-51 6,-5 1,-5 11,-4 -2,17 -11,42 -16,54 -10,24 -26,76 -36,106 -18,51 -40,100 -65,147 -8,16 -17,28 -25,44 -10,20 -21,29 -12,47 17,-8 29,-22 55,-18 16,2 19,14 28,22 -2,-27 8,-62 11,-90 1,-11 -2,-15 2,-28 11,-39 4,-51 26,-112 11,-32 20,-69 35,-100 9,-18 17,-37 29,-53 4,-5 4,-4 7,-8 9,-9 5,-16 18,-15 -6,41 11,7 -11,97 -8,30 -14,66 -21,92 -2,7 -6,16 -7,23 -7,33 -15,95 -23,121 -9,35 -11,52 -24,90 -9,24 -20,45 -27,69l-1 10c0,0 0,1 0,1 0,0 0,1 0,2l3 27c0,5 0,6 0,12 0,22 0,23 7,42l43 147c1,2 1,1 1,5 7,-3 9,-6 14,-13 0,-1 0,-1 1,-2l18 -17c7,-7 5,-13 19,-11 2,-13 8,-10 15,-17l25 -19c5,-3 -2,-2 8,-2 2,-17 5,-6 18,-22 3,-4 2,-3 4,-5l18 -23c2,-2 1,-1 2,-3l10 -13c21,-31 26,-90 49,-128 3,-5 5,-9 7,-14 11,-24 8,-10 -8,-50 -14,-36 -28,-78 -36,-115 -13,-64 -16,-125 -6,-192 2,-18 5,-28 8,-42 3,-19 10,-22 12,-38 5,5 5,12 8,19l19 69c9,34 34,209 38,246 2,13 4,40 2,54 33,-28 44,15 53,36 2,6 2,-3 2,8 7,2 17,17 24,24l5 4c0,1 0,1 1,1l23 25c4,4 6,9 13,14l12 9c7,5 12,12 19,17l19 16c0,0 1,1 1,1l11 10c3,2 2,1 6,4l19 11c1,0 1,1 1,1 4,2 5,5 8,8l9 5c0,1 1,1 1,1 8,4 3,1 9,7l8 7c1,0 1,0 2,0 3,2 0,0 5,3l87 62c-6,-35 3,-35 -1,-55 -1,-9 -1,-11 1,-22 3,-19 1,-28 2,-45 1,-9 -1,-14 -1,-21 0,-8 2,-16 2,-25 0,0 0,-9 0,-9l-5 -30c-1,-7 -9,-19 -11,-38 -4,-25 -8,-53 -15,-77 -41,-6 -62,-37 -89,-65 -17,-19 -29,-43 -44,-64 -6,-9 -8,-14 -13,-24l-5 -8c-1,-1 -2,-2 -2,-3 -19,-35 -35,-72 -47,-111 -3,-10 -4,-18 -7,-29l-8 -27c-4,-7 -3,-5 -2,-12 2,-14 0,-2 -1,-15 4,-2 2,1 3,-6zm-4 13l-1 -1c0,0 1,0 1,1z"/>
   <path class="fil1" d="M2161 2565l3 0c1,1 3,1 4,2 0,0 0,0 0,0 -2,-1 -3,-1 -5,-1 -1,-1 -1,-1 -2,-1l0 0zm235 -82c7,2 2,2 8,3 0,1 0,1 0,2 2,0 6,3 5,5 1,1 2,1 3,1 0,1 0,1 0,1 1,1 2,1 3,1 -1,1 -1,1 -1,2 1,0 2,0 3,0 0,1 0,1 0,2 1,1 3,1 3,3 3,1 5,3 7,5 0,0 0,0 0,1 1,0 2,0 3,1 0,0 0,1 -1,1 1,0 1,0 2,0 0,1 0,1 -1,2 1,0 2,0 3,0 0,1 0,1 0,2 1,0 2,0 3,0 -1,1 -1,1 -1,2 1,0 2,0 3,0 0,1 0,1 0,2 3,1 5,0 5,3 2,0 5,1 7,1 0,0 0,0 0,-1 2,1 4,1 6,1 0,0 0,0 0,-1 1,0 2,1 3,1 0,-1 0,-1 0,-2 1,1 2,1 3,1 1,-2 10,-8 10,-8 0,-1 0,-1 1,-2 0,1 0,1 1,1 0,-1 0,-1 0,-2 1,1 1,1 2,1 0,-1 0,-1 0,-2 1,1 3,1 4,1 0,0 0,0 0,-1 4,1 8,2 11,3 0,0 0,1 0,1 3,1 5,2 8,2 0,1 0,1 0,2 1,0 2,0 4,1 -1,0 -1,0 -1,1 1,0 2,0 3,1 0,0 0,0 0,1 2,1 6,2 6,4 4,1 6,4 10,5 0,1 -1,1 -1,2 2,0 4,1 6,1 0,1 0,1 0,1 2,1 5,1 5,3 3,1 6,2 9,3 0,0 0,0 -1,1 4,1 8,2 12,3 0,0 0,1 0,1 1,1 3,1 4,1 0,1 0,1 0,2 0,0 1,0 1,0 0,0 0,1 0,1 0,0 1,1 1,1 0,0 0,1 0,1 0,0 1,0 1,0 0,1 0,1 0,2 0,0 1,0 1,0 0,1 0,1 0,1 0,1 1,1 1,1 -1,4 2,0 0,6 1,0 1,0 2,0 -2,5 1,9 -1,14 1,0 1,0 2,0 -1,2 -2,3 0,4 -1,2 -1,4 -2,5 1,0 1,1 2,1 -1,2 -1,3 -2,5 1,0 1,0 2,1 0,1 -1,2 -1,4 0,0 1,0 1,0 0,1 0,2 -1,4 1,0 1,0 2,0 -1,1 -1,3 -1,4 0,0 1,0 1,0 0,1 0,2 -1,3 1,0 1,0 2,0 0,2 -1,3 -1,4 0,1 1,1 1,1 0,1 0,2 -1,4 1,0 1,0 2,0 -1,1 -1,3 -1,4 0,0 1,0 1,0 0,2 -1,4 -1,6 0,0 1,0 1,0 0,2 -1,4 -1,5 1,1 -3,25 -6,26 -1,1 -1,3 -1,5 -1,0 -1,0 -2,0 -1,5 -2,2 -3,6 0,0 -1,-1 -1,-1 0,2 -1,3 -1,4 -1,0 -1,0 -1,0 -1,1 -1,2 -1,3 -1,0 -1,0 -1,-1 -1,1 -1,2 -1,3 -1,0 -1,0 -1,0 -1,1 -1,2 -1,3 -1,-1 -1,-1 -1,-1 -1,1 -1,2 -1,2 -1,0 -1,0 -1,0 -1,1 -1,1 -1,1 0,0 -1,0 -1,0 0,1 -1,2 -1,3 0,0 -1,0 -1,-1 -1,4 0,0 -2,3 0,0 -1,0 -1,0 0,0 0,0 0,1 -4,-1 -2,2 -7,1 0,1 0,1 0,2 -3,-1 0,1 -4,0 0,0 0,1 -1,1 0,0 -1,0 -2,0 0,0 -1,0 -1,1 -5,-1 -10,-3 -16,-4 1,-1 1,-1 1,-2 -2,0 -4,0 -6,-1 0,0 1,-1 1,-1 -2,-1 -3,-1 -4,-1 0,-1 0,-1 0,-2 -1,0 -2,0 -3,0 0,-1 0,-1 0,-2 0,0 -1,0 -2,0 0,-1 0,-1 0,-2 -1,0 -2,0 -3,0 0,-1 1,-1 1,-2 -1,0 -2,0 -3,0 0,-1 1,-1 1,-2 -1,0 -1,0 -2,0 0,-1 1,-1 1,-1 -1,-1 -2,-1 -3,-1 0,-1 0,-1 0,-1 -4,-2 -1,-1 -4,-2 0,-1 1,-2 1,-2 -1,0 -2,-1 -3,-1 0,0 0,-1 0,-1 0,0 -1,-1 -2,-1 -1,4 -1,-1 -2,4 -1,0 -1,0 -2,0 0,0 0,1 0,2 -1,0 -1,0 -2,0 0,0 0,1 0,1 0,0 -1,0 -1,0 0,0 -1,1 -1,1 0,0 -1,0 -1,0 0,0 0,1 0,1 -1,0 -1,0 -2,0 0,0 0,1 0,1 -4,-1 -3,2 -7,1 0,1 0,1 0,2 -1,0 -1,-1 -2,-1 0,1 0,1 0,2 -2,-1 -4,0 -6,-1 0,1 0,1 0,2 -1,-1 -1,-1 -1,-1 -1,1 -1,1 -1,2 -4,-2 -1,0 -4,0 0,0 0,1 -1,1 0,0 0,0 -1,0 -1,3 0,-1 -1,2 -4,0 -11,7 -11,9 -4,0 0,1 -3,0 0,1 -1,2 -1,3 0,0 -1,0 -1,0 0,0 0,1 -1,1 0,0 0,0 -1,0 0,0 0,1 0,1 -1,0 -1,0 -2,0 0,0 0,1 0,1 0,0 -1,0 -1,0 0,0 -1,1 -1,1 0,0 -1,0 -1,0 -1,3 0,-1 -2,2 0,0 -1,0 -1,0 0,0 0,1 0,1 -5,0 -9,5 -14,3 0,1 0,1 0,2 -1,0 -2,-1 -3,-1 0,1 0,1 0,1 -2,0 -3,0 -4,0 0,0 0,0 0,1 -2,-1 -4,-1 -6,-2 0,1 0,1 0,2 -4,-1 -8,-2 -11,-3 0,0 0,1 -1,1 -1,0 -2,0 -3,-1 -1,5 -2,9 -3,14 0,0 1,0 1,0 -1,6 -3,12 -4,18 -1,0 -1,0 -2,0 0,2 -1,4 -1,6 0,-1 -1,-1 -1,-1 -1,4 -4,5 -5,9 -1,-1 -1,-1 -2,-1 0,1 0,2 0,3 -1,0 -1,0 -2,0 0,0 0,1 0,2 -1,0 -1,0 -2,0 0,1 0,3 -1,4 0,0 -1,0 -1,0 0,1 -1,1 -1,2 0,0 -1,0 -1,0 0,1 -1,2 -1,3 0,0 -1,-1 -1,-1 -1,2 -1,3 -2,5 -1,0 -1,0 -2,0 0,0 0,1 0,1 0,0 -1,0 -1,0 -1,2 -1,2 -4,2 0,1 0,2 0,2 -1,0 -2,0 -3,0 0,0 0,1 0,1 -1,0 -1,0 -2,0 0,0 0,1 0,1 -1,0 -2,0 -3,-1 0,1 0,1 0,2 -1,0 -2,-1 -3,-1 0,1 0,1 0,1 -2,0 -3,0 -4,-1 0,1 0,1 -1,2 -1,-1 -3,-1 -5,-1 -1,3 -23,-5 -27,-6 0,0 0,-1 1,-1 -3,-1 -5,-2 -7,-2 0,-1 0,-1 0,-1 -1,-1 -3,-1 -4,-1 0,-1 0,-1 0,-2 -4,-1 -5,-4 -6,-7 -1,0 -2,-1 -3,-1 0,0 0,-1 0,-1 0,0 -1,-1 -1,-1 0,0 0,-1 0,-1 0,0 -1,0 -1,0 0,-1 0,-1 0,-2 0,0 -1,0 -1,0 0,-1 0,-2 1,-3 -4,-1 -8,-12 -8,-14 -1,0 -1,0 -1,-1 0,0 0,-1 0,-2 0,0 -1,0 -1,-1 0,0 0,0 0,-1 0,0 -1,0 -1,0 0,-1 0,-1 0,-2 0,0 -1,0 -1,0 0,0 0,-1 0,-1 -3,-2 1,-1 -2,-2 0,-1 0,-2 0,-3 0,0 -1,0 -1,0 0,-2 -1,-3 -2,-3 0,-1 0,-1 0,-2 0,0 -1,0 -1,0 0,-3 -1,0 0,-4 -4,-2 0,-1 -3,-3 0,0 0,0 0,-1 -2,-1 -2,-2 -1,-4 -1,0 -1,0 -2,-1 1,0 1,-1 1,-1 -3,-2 1,-1 -3,-2 0,0 1,-1 1,-1 -1,0 -1,0 -2,-1 1,0 1,-1 1,-2 0,0 -1,-1 -1,-1 0,0 0,-1 0,-1 0,0 -1,0 -1,0 0,-1 0,-2 0,-3 0,0 -1,0 -1,0 0,-2 1,-3 1,-4 -1,-1 -1,-1 -1,-1 1,-7 3,-10 5,-17 0,0 1,1 1,1 1,-1 1,-2 1,-3 0,0 1,0 1,0 1,-1 1,-2 1,-2 0,0 1,0 1,0 1,-1 1,-2 1,-3 0,0 1,0 1,1 1,-1 1,-2 1,-3 1,0 1,0 1,0 1,-1 1,-2 1,-3 1,0 1,0 2,0 0,-2 1,-5 1,-7 1,0 1,0 2,1 0,-3 1,-5 1,-7 0,0 -1,0 -1,0 0,-2 1,-5 1,-7 0,0 0,0 -1,0 0,-1 0,-2 1,-3 -1,0 -1,0 -2,0 0,-1 1,-1 1,-2 -1,0 -1,0 -2,0 0,-1 1,-1 1,-1 -1,-1 -1,-1 -2,-1 0,0 0,-1 1,-1 -3,-1 -7,-6 -7,-8 0,-1 -1,-1 -1,-1 0,0 0,-1 0,-1 -1,-1 -2,-2 -2,-4 0,0 -1,0 -1,0 0,0 0,-1 0,-1 0,0 -1,0 -1,-1 0,0 0,-1 0,-2 -2,-1 -2,-3 -1,-5 -1,0 -1,0 -2,0 1,-1 1,-2 1,-3 -1,0 -1,0 -1,0 0,-1 0,-2 0,-3 0,0 -1,0 -1,0 0,-1 0,-2 0,-3 0,0 0,0 -1,0 0,-1 0,-1 0,-1 0,-1 0,-1 -1,-1 0,-1 1,-3 1,-4 0,0 -1,0 -1,0 0,-3 1,-7 2,-10 0,0 1,0 1,1 1,-1 1,-2 1,-3 0,0 1,0 1,0 1,-5 2,0 3,-4 0,0 1,0 1,0 0,0 0,-1 1,-1 0,0 0,0 1,0 0,-1 0,-2 1,-3 0,0 1,0 1,1 0,-1 0,-2 1,-3 0,0 1,0 1,0 0,-1 0,-2 1,-2 0,0 1,0 1,0 0,-1 0,-2 1,-3 0,0 1,0 1,1 0,-2 1,-3 1,-4 0,0 1,0 1,0 1,-4 3,-6 4,-10 1,0 1,0 2,0 1,-7 -1,-10 1,-16 -1,-1 -1,-1 -2,-1 1,-1 1,-3 1,-5 0,0 0,0 -1,0 1,-2 1,-5 2,-7 0,0 1,0 1,0 0,-1 1,-2 1,-4 1,1 1,1 1,1 1,-2 1,-3 1,-4 1,0 1,0 2,0 0,0 0,-1 0,-1 1,0 1,0 1,0 1,0 1,-1 1,-1 0,0 1,0 1,0 1,-3 5,-5 8,-5 0,0 0,-1 0,-1 1,0 1,0 2,0 0,-1 0,-2 0,-2 1,0 1,0 2,0 0,0 0,-1 0,-1 1,0 1,0 1,0 1,-1 1,-1 1,-1 0,0 1,0 1,0 0,-1 0,-1 0,-1 1,0 1,0 2,0 0,-1 0,-1 0,-1 1,0 1,0 2,0 0,-2 2,-4 4,-4 1,-3 0,-3 3,-3 1,-3 1,1 2,-3 0,0 1,0 1,0 0,0 0,-1 0,-1 1,0 1,0 2,0 0,-1 0,-2 0,-3 1,1 1,1 2,1 0,-1 0,-2 0,-3 1,0 1,0 2,0 0,-1 0,-1 0,-2 1,0 1,0 2,0 0,0 0,-1 0,-1 1,0 1,0 2,0 0,-1 0,-1 0,-2 1,0 1,0 1,0 1,0 1,-1 1,-1 1,0 2,0 3,0 0,0 0,-1 0,-1 2,0 3,0 5,0 0,0 0,-1 0,-1 4,0 7,1 10,2 0,0 0,-1 0,-1 3,0 6,1 8,2 0,-1 0,-1 0,-2 3,1 6,2 9,2 0,0 0,0 0,-1 2,1 5,1 7,2 0,-1 0,-1 0,-2 2,1 3,1 5,2 0,-1 0,-1 0,-2 2,1 4,1 6,2 0,-1 0,-1 0,-2 2,1 3,1 4,1 0,0 1,0 1,-1 7,1 15,3 23,5 0,0 0,0 -1,1zm135 -96c1,0 2,0 3,0 0,1 0,2 -1,3 1,0 1,0 2,1 0,0 -1,0 -1,1 1,0 1,0 2,0 0,1 -1,1 -1,2 1,0 1,0 2,0 0,0 0,1 -1,1 1,0 1,1 2,1 0,0 0,1 -1,1 1,0 1,0 2,0 -1,4 2,4 1,7 0,1 1,1 1,1 0,3 1,-1 1,3 0,0 1,0 1,0 0,2 0,4 2,5 0,3 1,-1 1,3 0,0 0,0 1,0 0,1 -1,2 -1,3 1,0 1,0 2,0 0,1 -1,1 -1,2 4,1 -1,0 3,1 0,1 0,1 -1,2 1,0 1,0 2,0 0,0 0,1 -1,1 1,0 1,1 2,1 0,1 1,2 2,3 0,1 0,2 -1,3 1,0 1,0 2,0 0,1 -1,1 -1,1 1,1 1,1 2,1 -1,3 0,2 -1,5 1,0 1,0 2,0 -2,6 1,1 0,7 0,1 0,1 1,1 0,1 -1,3 -1,4 0,0 1,0 1,0 0,2 0,3 -1,4 1,0 1,1 2,1 -1,2 -1,4 -2,6 1,0 1,0 2,0 -1,2 -1,3 -1,4 0,1 0,1 1,1 -1,2 -1,3 -1,5 0,0 1,0 1,1 -1,2 -1,4 -2,6 1,0 1,1 2,1 -1,2 -1,5 -2,7 0,0 1,1 1,1 -2,7 -3,15 -5,22 -1,0 -1,0 -2,0 0,1 0,2 0,3 -1,0 -1,-1 -2,-1 0,1 0,1 0,2 0,0 -1,-1 -1,-1 0,1 0,1 -1,2 0,0 0,-1 -1,-1 0,1 0,1 0,2 -1,0 -1,-1 -2,-1 0,1 0,1 0,2 0,0 -1,-1 -1,-1 0,1 -1,1 -1,2 0,0 -1,-1 -1,-1 0,1 0,1 0,2 -1,-1 -2,-1 -3,-1 0,0 0,1 0,1 -1,0 -1,0 -2,0 0,0 0,1 0,1 -5,-1 0,2 -7,0 0,1 0,1 0,1 -2,0 -5,-1 -7,-1 0,0 0,1 0,1 -2,0 -4,-1 -6,-1 0,-1 0,-1 1,-2 -5,-1 -12,-3 -11,-8 0,0 -1,0 -1,0 0,-1 0,-1 0,-2 -1,0 -2,0 -3,-1 0,0 0,0 1,-1 -1,0 -1,0 -2,0 0,-1 1,-2 1,-3 -1,0 -1,0 -2,0 1,-1 1,-1 1,-2 -1,0 -1,0 -2,0 1,0 1,-1 1,-1 -1,0 -1,-1 -2,-1 1,-1 1,-2 1,-2 0,-1 -1,-1 -1,-1 0,-1 0,-1 0,-2 0,0 -1,0 -1,0 0,-1 0,-1 0,-2 0,0 -1,0 -1,0 0,-1 0,-3 1,-4 -2,-1 -2,-5 -1,-8 -1,0 -1,0 -2,0 1,-3 1,-5 1,-8 0,0 -1,0 -1,0 0,-2 1,-4 1,-6 0,0 -1,0 -1,0 0,-2 1,-4 1,-5 0,-1 -1,-1 -1,-1 0,-2 1,-5 2,-7 -1,-1 -1,-1 -2,-1 1,-2 1,-4 2,-7 -1,0 -1,0 -2,0 1,-3 2,-5 2,-8 0,0 -1,0 -1,0 1,-3 2,-6 2,-9 1,0 1,0 2,0 0,-2 1,-5 1,-7 1,0 1,0 2,0 0,-1 0,-2 1,-4 0,1 1,1 1,1 0,-1 0,-2 1,-3 0,0 1,0 1,0 0,0 0,-1 0,-1 1,0 1,0 2,0l1 -6c1,0 1,0 2,0 0,-2 0,-3 1,-5 1,0 8,-10 8,-12 0,0 1,0 1,0 1,0 1,-1 1,-2 1,0 1,0 1,0 1,-2 1,-3 2,-5 0,0 1,0 1,0 0,0 0,-1 0,-1 2,0 3,0 4,1 1,2 2,1 1,3zm-361 204c0,1 0,1 0,2 1,0 3,0 5,1 -1,0 -1,1 -1,1 2,1 4,1 6,2 0,2 5,0 5,3 1,1 3,1 5,1 0,1 -1,1 -1,2 2,0 4,1 6,1 0,1 0,1 -1,2 3,0 5,1 7,1 0,1 0,1 0,2 2,0 5,0 5,2 6,2 11,3 17,5 0,-1 0,-1 0,-2 1,1 2,1 3,1 0,0 0,-1 0,-1 1,0 2,0 3,0 0,0 0,0 0,-1 0,0 8,-1 9,2 1,0 2,1 3,1 0,1 0,1 0,1 0,1 1,1 1,1 0,1 0,2 0,2 0,1 1,1 1,1 0,0 0,1 0,1 0,0 1,0 1,1 0,2 1,2 0,4 1,0 1,0 2,0 0,1 -1,2 -1,3 1,0 1,0 2,0 -1,2 -1,3 -1,4 0,0 1,0 1,0 0,1 0,2 -1,3 1,0 1,0 2,0 -2,7 -4,14 -5,21 -1,0 -1,-1 -2,-1 0,3 0,4 -2,4 0,1 0,2 -1,4 0,0 -1,-1 -1,-1 0,1 0,1 0,2 -1,0 -1,-1 -2,-1 0,1 0,2 0,3 -1,0 -2,0 -3,-1 0,1 0,1 -1,2 0,-1 -1,-1 -2,-1 0,0 0,1 -1,1 -5,-1 -10,-2 -15,-4 -1,0 -1,-1 -1,-1 -2,4 -32,-7 -37,-8 0,0 0,1 0,1 -4,-1 -7,-2 -11,-2 0,0 0,0 0,1 -2,-1 -4,-1 -5,-2 -1,1 -1,1 -1,2 -2,-1 -4,-1 -6,-2 -2,3 -25,-3 -28,-4 0,1 0,1 0,1 0,0 -1,0 -1,0 0,0 0,-1 0,-1 -1,0 -1,0 -1,-1 -1,1 -1,1 -1,2 0,0 -1,-1 -1,-1 0,0 0,-1 0,-1 -2,-1 -13,-2 -13,-5 -2,0 -3,-1 -5,-1 0,-1 0,-1 0,-1 -1,-1 -3,-1 -4,-1 0,-1 0,-1 0,-2 -1,0 -3,-1 -5,-1 0,-1 0,-1 0,-2 -2,0 -2,0 -2,-2 -1,0 -3,0 -4,-1 0,0 0,0 1,-1 -1,0 -1,0 -2,0 0,-1 0,-1 1,-2 -1,0 -2,0 -3,0 0,-1 0,-1 0,-2 0,0 -1,0 -1,0 0,0 0,-1 0,-1 0,-1 -1,-1 -1,-1 0,0 0,-1 0,-1 -1,0 -2,-1 -3,-1 0,0 0,-1 1,-1 -3,-1 -4,-6 -5,-8 -1,0 -1,0 -2,0 0,-1 1,-1 1,-2 -4,-1 1,-1 -4,-2 0,-1 0,-1 0,-2 -1,0 -2,0 -4,-1 0,0 0,-1 0,-1 0,0 -1,0 -2,-1 0,0 0,-1 0,-1 0,0 -1,0 -1,0 0,-1 0,-1 0,-2 -1,0 -2,0 -3,0 1,-4 0,0 0,-3 -1,-1 -2,-1 -3,-1 0,-1 1,-1 1,-1 -3,-1 0,-1 -4,-2 0,-1 0,-1 0,-2 -1,0 -2,0 -3,0 1,-2 -1,-5 -3,-6 1,-3 -2,2 0,-5 0,0 -1,-1 -1,-1 1,-3 1,1 2,-3 1,0 1,0 1,0 1,0 1,-1 1,-1 1,0 2,0 3,0 0,0 0,-1 0,-1 2,1 4,1 7,2 0,-1 0,-1 0,-2 3,1 5,2 8,2 0,0 0,-1 0,-1 2,0 4,1 6,1 0,0 0,-1 0,-1 2,0 3,1 5,1 1,-2 2,-1 5,0 0,0 0,-1 0,-1 6,1 4,-2 8,-1 1,0 1,-1 1,-1 2,0 3,1 4,0 2,0 3,1 5,1 0,0 0,-1 0,-1 3,0 6,1 9,2 0,-1 0,-1 0,-2l58 15zm184 -362c0,0 1,1 1,1 0,0 0,1 0,1 0,0 1,0 1,0 0,1 0,1 0,2 0,0 1,0 1,0 0,1 0,1 0,2 3,1 -1,0 2,1 0,1 0,1 0,1 1,1 1,1 2,1 -1,0 -1,1 -1,1 1,0 1,0 2,1 -1,1 0,2 2,3 -1,1 -1,2 -1,3 0,0 1,0 1,0 0,2 1,3 2,3 0,1 0,1 0,2 1,0 1,0 1,0 0,1 0,1 0,1 1,1 1,1 2,1 -1,3 0,-1 0,3 0,0 1,0 1,0 0,1 0,1 0,1 0,1 1,1 1,1 0,0 0,1 0,1 0,0 1,0 1,0 0,2 -1,4 -1,5 1,1 2,1 3,1 0,1 0,1 -1,2 1,0 2,0 3,0 0,1 0,1 0,2 0,0 1,0 1,0 0,0 0,1 0,1 1,1 2,1 3,1 -1,4 0,-1 0,3 3,1 3,4 3,6 0,1 1,1 1,1 0,0 0,1 0,2 0,0 0,0 1,0 0,1 0,2 -1,2 1,0 1,0 2,0 0,1 -1,2 -1,3 1,0 1,0 2,1 -1,3 1,6 0,9 1,0 1,1 1,1 1,3 2,7 1,11 0,0 1,0 1,0 -1,3 0,4 -1,7 1,0 1,0 2,0 -1,2 -1,4 -1,5 0,1 0,1 1,1 0,1 -1,2 -1,4 0,0 1,0 1,0 -1,4 0,7 -1,10 1,0 1,0 2,0 -1,2 -1,4 -1,5 0,0 0,1 1,1 0,1 -1,2 -1,4 0,0 1,0 1,0 0,2 -1,4 -1,6 0,0 1,0 1,0 0,2 0,3 -1,5 1,0 1,1 1,1 0,1 0,3 -1,5 1,0 1,0 2,0 -1,2 -1,4 -2,5 2,2 1,4 0,6 1,0 1,0 2,0 0,1 -1,2 -1,3 1,0 1,0 1,1 0,3 0,8 0,12 0,0 1,0 1,0 0,2 0,3 -1,4 1,0 1,1 2,1 -1,4 1,0 0,6 0,0 0,1 1,1 -1,1 -1,3 -1,5 0,0 1,0 1,0 0,1 0,1 0,2 0,0 1,0 1,0 0,1 0,2 -1,3 1,0 1,0 2,0 0,1 0,1 -1,2 1,0 1,0 2,0 0,1 -1,2 -1,3 1,0 1,0 1,0 -1,5 5,10 4,15 0,0 1,0 1,0 0,1 0,2 -1,3 1,0 1,0 2,0 0,1 0,1 -1,1 1,1 1,1 2,1 -1,2 -1,4 -2,6 1,0 1,0 2,1 -1,0 -1,1 -1,2 0,0 1,0 1,1 0,1 0,2 -1,4 1,0 1,0 2,0 -1,3 -2,5 -2,8 -1,0 -1,0 -2,0 0,0 0,1 0,1 0,0 -1,0 -1,0 0,0 0,1 -1,1 0,0 -1,0 -2,-1 0,1 0,1 -1,2 0,0 0,0 -1,-1 0,0 0,0 0,-1 -4,-1 -8,-2 -13,-3 0,0 0,1 0,1 -2,-1 -5,-1 -7,-2 0,1 0,1 0,2 -2,-1 -4,-1 -5,-2 -2,3 -3,1 -6,0 0,1 0,1 0,2 -3,-1 -6,-2 -9,-2 0,0 0,1 0,1 -1,0 -3,-1 -4,-1 0,-1 0,-1 0,-1 -4,-2 -7,-3 -6,-8 -1,0 -1,0 -2,0 1,-1 1,-2 1,-3 0,0 -1,0 -1,0 0,-1 0,-3 1,-4 -1,0 -1,0 -2,0 1,-4 0,-4 1,-9 -1,0 -1,0 -2,0 1,-1 1,-3 1,-4 0,0 -1,0 -1,0 0,-2 1,-3 1,-4 0,-1 -1,-1 -1,-1 0,-3 -1,-6 -1,-10 0,0 -1,0 -1,0 1,-5 -2,-1 0,-6 -1,0 -1,0 -2,0 1,-1 1,-3 1,-4 0,0 -1,0 -1,0 0,-2 0,-4 0,-6 0,0 -1,0 -1,0 0,-1 0,-2 0,-3 0,0 0,0 -1,0 0,-1 1,-2 1,-3 -1,0 -1,0 -2,0 1,-1 1,-2 1,-3 0,0 -1,0 -1,0 0,-1 0,-2 0,-3 0,0 -1,0 -1,0 0,-1 0,-2 1,-3 -1,0 -1,0 -2,0 0,-1 1,-2 1,-3 -1,0 -1,0 -1,0 0,-3 -2,-6 -1,-9 -1,0 -1,0 -2,0 1,-5 -2,-8 -1,-12 -1,0 -1,0 -2,0 1,-2 0,-4 1,-6 -1,0 -1,0 -2,0 1,-1 1,-2 1,-3 -1,0 -1,0 -1,0 0,-1 0,-2 0,-3 0,0 -1,0 -1,0 0,-1 0,-2 1,-3 -1,0 -1,0 -2,0 0,-1 1,-2 1,-3 -1,0 -1,0 -2,0 2,-5 -1,0 0,-6 0,0 -1,0 -1,0 1,-5 -1,-1 0,-6 -1,0 -1,0 -2,0 1,-1 1,-3 1,-4 0,0 0,0 -1,0 0,-2 0,-4 0,-6 0,0 0,0 -1,0 0,-2 1,-3 1,-4 -1,0 -1,0 -1,0 1,-5 -1,-3 0,-9 0,0 -1,0 -1,0 0,-2 1,-4 1,-6 0,0 -1,0 -1,0 2,-8 4,-17 6,-25 0,0 1,0 1,0 1,-2 1,-3 1,-5 1,0 1,0 2,0 1,-3 4,-4 4,-7 1,0 1,0 2,0 1,-2 0,-1 1,-1 0,0 0,-1 1,-2 -4,-2 5,-23 6,-27 2,0 1,-1 3,0 0,-2 1,-3 1,-4 0,0 1,0 1,0 0,0 1,-1 1,-1 0,0 1,0 1,0 0,0 0,-1 0,-1 1,0 3,0 4,0 -1,4 0,0 0,3zm-250 188c3,1 5,1 8,2 0,1 0,1 0,1 1,1 2,1 3,1 0,1 0,1 0,2 3,1 5,2 8,3 0,1 0,0 0,2 1,0 1,0 2,0 0,1 0,1 0,2 2,0 4,1 6,2 0,1 0,1 0,2 1,0 2,0 3,0 -1,1 -1,1 -1,2 1,0 2,0 3,0 0,1 0,1 0,2 1,0 2,0 4,1 0,0 0,1 -1,1 1,0 2,0 3,1 0,0 0,1 0,1 5,1 3,2 5,3 0,0 0,1 0,1 1,0 2,1 3,1 0,1 0,1 0,1 1,1 2,1 3,1 0,1 -1,1 -1,2 1,0 2,0 3,0 0,1 0,1 0,2 3,1 5,5 8,5 0,3 1,3 4,4 -1,1 -1,1 -1,2 1,0 2,0 3,0 0,1 0,1 0,2 0,0 0,0 1,0 0,0 0,1 0,1 0,0 1,1 1,1 0,0 0,1 0,1 1,0 1,1 2,1 0,0 0,1 0,1 1,0 1,0 1,0 0,1 0,1 0,2 1,0 1,0 1,0 0,1 0,1 0,1 1,1 1,1 2,1 -1,1 -1,2 -1,3 1,0 3,0 4,1 0,0 0,1 0,1 5,2 10,8 15,9 0,1 0,1 0,2 1,0 3,0 4,1 0,0 0,1 0,1 1,0 2,1 4,1 0,0 0,1 0,1 1,1 2,1 4,1 0,1 -1,1 -1,2 2,0 3,0 4,1 0,0 0,1 0,1 1,1 2,1 4,1 0,1 -1,1 -1,1 3,1 6,2 9,3 -1,0 -1,0 -1,1 2,0 3,1 4,1 0,0 0,1 0,1 1,1 3,1 4,1 0,1 0,1 0,2 1,0 1,0 2,0 0,1 0,1 0,2 2,0 3,1 5,2 0,0 0,1 0,1 1,1 3,1 5,2 0,-1 0,-1 0,-2 3,1 5,2 8,2 0,1 0,1 0,2 2,0 4,1 5,1 0,1 0,1 0,1 1,1 1,1 1,1 0,0 0,1 0,1 1,0 1,0 1,0 0,1 0,2 0,3 0,0 1,0 1,1 0,1 -1,2 -1,4 1,0 1,0 2,0 -1,3 -2,13 -5,13 -1,4 -2,7 -3,11 0,-1 0,-1 -1,-1 0,2 -1,4 -1,6 -1,0 -1,-1 -2,-1 -1,5 -2,3 -3,7 0,0 0,-1 -1,-1 0,1 0,2 0,3 -1,0 -1,-1 -2,-1 0,1 0,1 0,2 -1,0 -1,-1 -2,-1 0,1 0,1 0,2 -4,-2 0,1 -4,0 0,0 -1,1 -1,1 -7,-1 -14,-3 -21,-5 0,-1 0,-1 0,-1 -2,-1 -3,-1 -5,-2 0,0 0,-1 0,-1 -2,-1 -3,-1 -5,-1 0,-1 0,-1 0,-2 -1,0 -2,-1 -4,-1 0,0 1,-1 1,-1 -2,-1 -3,-1 -4,-1 0,-1 0,-1 0,-2 -2,-1 -9,-3 -9,-6 -1,0 -3,-1 -5,-1 0,0 0,-1 1,-1 -2,-1 -4,-1 -6,-2 0,0 0,-1 0,-1 -4,-1 -9,-1 -9,-4 -2,-1 -5,-1 -8,-2 1,0 1,-1 1,-1 -3,-1 -5,-2 -8,-2 0,-1 0,-1 0,-2 -2,0 -5,-1 -8,-2 0,0 0,-1 0,-1 -1,0 -3,-1 -5,-1 0,-1 0,-1 0,-2 -1,0 -2,0 -4,-1 0,0 0,-1 0,-1 -1,-1 -3,-1 -5,-1 1,-1 1,-1 1,-2 -2,0 -3,0 -4,-1 0,0 0,-1 0,-1 -1,-1 -3,-1 -4,-1 0,-1 0,-1 0,-2 -3,0 -5,-1 -7,-2 0,-1 0,-1 0,-2 -1,0 -3,-1 -4,-1 0,0 0,-1 0,-1 -2,-1 -9,-3 -9,-5 -2,-1 -4,-1 -6,-2 0,0 0,-1 0,-1 -2,-1 -3,-1 -5,-2 0,0 0,-1 0,-1 -2,-1 -3,-1 -5,-1 0,-1 0,-1 0,-2 -1,0 -2,0 -4,-1 0,0 1,-1 1,-1 -2,-1 -5,-2 -7,-3 0,-1 0,-1 1,-2 -3,-1 -4,-2 -7,-3 0,0 0,-1 0,-1 -1,0 -1,0 -2,-1 0,0 0,-1 0,-1 -1,0 -1,0 -1,0 0,-1 0,-1 0,-2 -4,-1 -1,0 -4,-2 1,0 1,-1 1,-1 -1,0 -1,0 -2,0 1,-1 1,-1 1,-2 -1,0 -1,0 -2,0 0,0 1,-1 1,-1 -1,0 -1,-1 -2,-1 0,0 1,-1 1,-1 -1,0 -1,0 -2,0 0,-1 1,-1 1,-2 -1,0 -1,0 -2,0 0,-1 1,-1 1,-1 -1,-1 -1,-1 -2,-1 0,0 0,-1 1,-1 -1,0 -1,0 -2,-1 0,0 1,-1 1,-2 -1,0 -1,0 -2,-1 1,0 1,-1 1,-1 -3,-1 -3,-2 -2,-5 -2,0 -2,-2 -1,-4 -1,0 -1,0 -2,0 1,-2 1,-3 1,-4 0,0 -1,-1 -1,-1 0,-1 1,-3 1,-5 0,0 -1,0 -1,0 0,-2 0,-3 1,-4 -6,0 -15,-4 -14,-12 -1,0 -1,-1 -2,-1 0,0 1,0 1,-1 -1,0 -1,0 -2,0 0,-1 0,-1 1,-2 -1,0 -1,0 -2,0 0,0 0,-1 1,-1 -1,0 -1,-1 -2,-1 0,0 0,-1 0,-1 0,0 0,0 -1,0 0,-1 0,-1 0,-2 0,0 0,0 -1,0 0,-1 0,-1 0,-1 -1,-1 -1,-1 -2,-1 0,-1 0,-1 0,-2 -9,-3 7,-5 11,-4 0,0 0,-1 1,-1 2,0 4,1 6,1 2,-3 14,2 19,4 0,0 0,1 0,1l4 1c0,0 0,-1 0,-1 4,1 2,0 4,0 0,0 1,-1 1,-1 0,0 1,0 1,0 1,-2 4,-2 6,-1 0,-1 0,-1 0,-2 1,0 2,1 3,1 0,-1 0,-1 0,-1 2,0 5,1 7,1 0,0 0,-1 0,-1 4,1 8,2 11,3 0,0 0,1 0,1zm49 -152c0,0 0,1 0,1 1,1 2,1 4,1 0,1 -1,1 -1,2 2,0 4,1 6,1 0,1 0,1 -1,2 8,1 4,2 9,3 0,1 0,1 0,2 1,0 2,0 3,0 0,1 -1,1 -1,2 1,0 1,0 2,0 0,0 -1,1 -1,1 1,0 1,1 2,1 0,0 0,1 -1,1 1,0 1,0 2,0 0,1 -1,2 -1,3 1,0 3,1 4,1 0,0 0,-1 0,-1 1,0 2,0 3,0 0,0 0,-1 0,-1 3,1 7,2 10,2 0,1 0,1 -1,2 2,0 4,1 6,1 0,1 0,1 0,2 3,1 4,3 8,4 0,1 0,1 0,1 1,1 2,1 3,1 -1,1 -1,1 -1,2 5,1 0,1 5,2 0,1 0,1 0,2 1,0 2,0 3,0 0,1 0,1 -1,2 1,0 2,0 3,0 0,4 1,0 0,3 1,1 2,1 3,1 0,0 0,1 0,1 4,2 -1,2 4,3 0,0 -1,1 -1,1 1,0 1,0 2,0 0,1 -1,1 -1,2 1,0 1,0 2,0 0,1 -1,1 -1,2 3,1 0,0 4,1 0,3 2,7 4,7 -1,4 1,2 0,5 1,0 1,0 2,0 0,0 -1,1 -1,1 1,0 1,1 2,1 0,0 0,1 -1,1 1,0 1,0 2,0 0,1 0,1 0,2 0,0 0,0 1,0 0,1 -1,2 -1,3 1,0 1,0 2,0 -1,1 -1,1 -1,1 1,1 1,1 2,1 -1,0 -1,1 -1,1 1,0 1,0 2,1 -1,0 -1,1 -1,2 1,0 1,0 1,0 0,1 0,1 0,1 1,1 1,1 2,1 -1,2 2,6 4,7 -1,2 1,0 0,4 0,0 1,0 1,0 0,1 0,1 0,2 3,1 -1,0 2,1 0,3 1,0 1,4 3,1 -1,0 2,1 0,1 0,1 0,2 0,0 1,0 1,0 0,1 0,1 0,1 0,1 1,1 1,1 0,0 0,1 0,1 1,0 1,0 1,0 0,1 0,1 0,2 1,0 1,0 1,0 0,4 1,0 1,3 2,1 1,1 1,3 0,0 1,1 1,1 0,0 0,1 0,1 0,0 1,0 1,0 0,2 0,2 2,3 0,1 0,1 0,2 0,0 1,0 1,0 0,2 -1,4 2,5 0,0 0,1 0,1 0,0 0,0 1,0 0,1 0,1 0,2 0,0 0,0 1,0 0,1 -1,2 -1,3 1,0 1,0 2,0 0,1 -1,1 -1,1 1,1 1,1 2,1 0,0 -1,1 -1,1 1,0 1,0 2,1 -1,4 0,1 0,4 0,0 1,0 1,0 0,1 0,1 0,2 0,0 1,0 1,0 0,3 2,3 2,6 0,0 1,0 1,0 0,0 0,1 0,1 0,0 1,0 1,1 0,0 0,1 0,1 0,0 1,0 1,0 0,1 0,2 -1,3 1,0 1,0 2,0 0,1 0,1 -1,2 1,0 1,0 2,0 0,1 0,1 -1,1 1,1 1,1 2,1 0,0 0,1 0,1 0,0 0,0 1,0 0,1 0,1 0,2 0,0 1,0 1,0 0,1 -1,2 -1,3 3,1 4,5 5,8 1,0 1,0 2,0 -1,1 -1,1 -1,2 1,0 1,0 2,0 -1,0 -1,1 -1,1 1,0 1,0 2,1 -1,0 -1,1 -1,1 1,0 1,0 2,0 0,1 -1,1 -1,2 1,0 1,0 2,0 0,0 -1,1 -1,1 1,1 1,1 2,1 0,0 0,1 -1,1 1,0 1,0 2,0 0,1 0,1 -1,2 1,0 1,0 2,0 0,1 0,1 -1,2 1,0 1,0 2,0 0,0 0,1 0,1 0,0 0,0 1,1 0,0 0,0 0,1 4,1 0,1 3,2 0,0 0,1 0,1 0,0 1,0 1,0 0,1 0,1 0,2 0,0 1,0 1,0 0,1 0,2 -1,3 1,0 1,0 2,0 0,1 0,1 -1,2 1,0 1,0 2,0 0,0 0,1 0,1 0,0 1,1 2,1 0,1 0,2 0,3 0,0 1,0 1,0 0,1 0,2 -1,3 1,0 1,0 2,0 -1,3 -2,6 -2,8 -1,0 -1,0 -2,0 -1,5 -2,2 -3,6 0,0 0,0 -1,-1 0,1 0,1 0,2 -1,0 -1,0 -2,0 0,0 0,0 0,1 -1,0 -2,-1 -3,-1 0,1 0,1 0,1 0,0 -1,0 -1,0 0,1 -1,1 -1,2 0,-1 -1,-1 -1,-1 0,1 0,1 0,2 -1,-1 -2,-1 -3,-1 0,0 0,1 0,1 0,0 -1,0 -1,0 0,0 -1,1 -1,1 -1,0 -3,1 -3,2 -1,0 -1,0 -1,0 -1,0 -1,1 -1,1 -2,0 -4,1 -5,3 0,0 -1,0 -1,0 0,0 0,1 0,1 -4,0 0,1 -3,1 -1,0 -1,1 -1,1 0,0 -1,0 -1,0 0,0 0,0 0,1 -3,-1 -6,-1 -9,-2 0,-1 1,-1 1,-1 -1,-1 -2,-1 -3,-1 0,-1 0,-1 0,-2 -2,0 -2,-2 -1,-4 -1,0 -1,0 -2,0 1,-1 1,-1 1,-1 -1,-1 -1,-1 -2,-1 1,0 1,-1 1,-1 -1,0 -1,0 -2,0 0,-1 1,-1 1,-2 -1,0 -1,0 -2,0 0,-1 1,-1 1,-2 -1,0 -1,0 -2,0 0,0 1,-1 1,-1 -1,0 -1,-1 -2,-1 0,0 0,0 1,-1 -1,0 -1,0 -2,0 0,-1 0,-1 1,-2 -1,0 -2,0 -3,0 0,-1 0,-1 0,-2 0,0 -1,0 -1,0 0,-1 0,-1 0,-1 -1,-1 -2,-1 -3,-1 0,-1 1,-1 1,-1 -1,-1 -1,-1 -2,-1 0,0 1,-1 1,-1 -1,0 -2,-1 -3,-1 0,0 1,-1 1,-1 -3,-1 0,-1 -4,-2 0,-1 0,-1 0,-1 0,-1 -1,-1 -1,-1 0,0 0,-1 0,-1 0,0 -1,0 -1,0 0,-1 0,-1 0,-2 -1,0 -2,0 -3,-1 0,0 1,0 1,-1 -1,0 -1,0 -2,0 0,-1 0,-1 1,-2 -1,0 -1,0 -2,0 0,0 0,-1 1,-1 -1,0 -1,-1 -2,-1 0,0 0,-1 1,-1 -1,0 -2,0 -3,-1 0,0 0,-1 0,-1 0,0 -1,0 -1,0 0,-1 0,-1 0,-2 -1,0 -1,0 -2,0 0,-1 0,-1 0,-2 0,0 -1,0 -1,0 0,0 0,-1 0,-1 0,-1 -1,-1 -1,-1 0,0 0,-1 0,-1 -1,0 -2,-1 -3,-1 0,0 1,-1 1,-1 -3,-2 -5,-7 -8,-7 0,-1 0,-1 0,-2 -4,-1 1,-1 -4,-2 0,-1 0,-1 1,-2 -1,0 -2,0 -3,0 0,-1 0,-1 0,-2 0,0 -1,0 -1,0 0,0 0,-1 0,-1 -1,-1 -2,-1 -3,-1 0,0 1,-1 1,-1 -1,0 -1,-1 -2,-1 0,0 1,-1 1,-1 -1,0 -2,-1 -3,-1 0,0 0,-1 0,-1 -1,0 -2,-1 -2,-1 -1,-2 -3,-6 -7,-7 0,0 0,-1 0,-1 0,0 -1,0 -1,0 0,-1 0,-1 0,-2 -1,0 -2,0 -2,-1 0,0 0,0 0,-1 -1,0 -2,0 -3,-1 0,0 0,0 0,-1 0,0 0,0 -1,0 0,-1 0,-1 0,-2 0,0 -1,0 -2,0 0,-1 0,-1 0,-2 -1,0 -2,0 -2,0 0,-1 0,-1 0,-2 0,0 -1,0 -1,0 0,0 0,-1 0,-1 -2,-1 -3,-3 -5,-4 0,-3 -1,-3 -3,-4 0,-1 0,-1 0,-2 -2,0 -6,-7 -6,-9 0,0 -1,0 -1,-1 0,0 0,0 0,-1 0,0 -1,0 -1,0 0,-1 0,-1 0,-2 0,0 -1,0 -1,0 0,0 0,-1 0,-1 0,0 -1,-1 -1,-1 0,0 0,-1 0,-1 0,0 -1,0 -1,0 0,-1 0,-1 0,-2 -3,-1 -7,-11 -7,-14 0,0 -1,0 -1,0 1,-4 0,-2 0,-5 -1,0 -1,0 -1,0 0,-1 0,-2 0,-3 0,0 -1,0 -1,0 0,-1 0,-1 0,-2 0,0 -1,0 -1,-1 0,-3 -1,1 0,-4 -1,0 -1,0 -2,0 0,-1 1,-2 1,-3 -1,0 -1,0 -1,0 0,-1 0,-2 0,-3 0,0 -1,0 -1,0 0,-1 0,-2 0,-3 0,0 0,0 -1,-1 0,0 1,-1 1,-2 -1,0 -1,0 -2,-1 1,0 1,-1 1,-2 0,0 -1,-1 -1,-1 0,-2 0,-4 0,-6 0,0 -1,0 -1,-1 0,-1 1,-2 1,-4 -1,0 -1,0 -2,0 1,-4 2,-8 3,-12 -2,0 -4,-1 -7,-1 1,-1 1,-2 1,-3 0,0 -1,0 -1,-1 0,-2 1,-5 2,-8 -1,0 -1,0 -2,0 1,-2 1,-3 2,-5 -2,-1 -2,-6 -1,-9 -1,0 -1,0 -2,0 1,-2 1,-4 2,-6 -1,0 -1,0 -2,0l3 -11c4,1 7,1 11,3z"/>
  </g>
 </g>
</svg>
