<?xml version="1.0" encoding="UTF-8"?>
<!DOCTYPE svg PUBLIC "-//W3C//DTD SVG 1.1//EN" "http://www.w3.org/Graphics/SVG/1.1/DTD/svg11.dtd">
<!-- Creator: CorelDRAW X7 -->
<svg xmlns="http://www.w3.org/2000/svg" xml:space="preserve" width="16.9334mm" height="16.9334mm" version="1.1" style="shape-rendering:geometricPrecision; text-rendering:geometricPrecision; image-rendering:optimizeQuality; fill-rule:evenodd; clip-rule:evenodd"
viewBox="0 0 136 136"
 xmlns:xlink="http://www.w3.org/1999/xlink">
 <defs>
  <style type="text/css">
   <![CDATA[
    .fil2 {fill:none}
    .fil1 {fill:white;fill-opacity:0.211765}
    .fil0 {fill:url(#id3)}
   ]]>
  </style>
   <clipPath id="id0">
    <path d="M0 0l136 0 0 136 -136 0 0 -136z"/>
   </clipPath>
     <mask id="id1">
  <linearGradient id="id2" gradientUnits="userSpaceOnUse" x1="75.8333" y1="89.8566" x2="75.8333" y2="45.1064">
   <stop offset="0" style="stop-opacity:1; stop-color:white"/>
   <stop offset="0.639216" style="stop-opacity:-101.4; stop-color:white"/>
   <stop offset="1" style="stop-opacity:0; stop-color:white"/>
  </linearGradient>
      <rect style="fill:url(#id2)" x="-32" y="-3" width="215" height="141"/>
     </mask>
  <linearGradient id="id3" gradientUnits="userSpaceOnUse" x1="75.8333" y1="28.325" x2="75.8333" y2="106.638">
   <stop offset="0" style="stop-opacity:1; stop-color:#622522"/>
   <stop offset="1" style="stop-opacity:1; stop-color:black"/>
  </linearGradient>
 </defs>
 <g id="Capa_x0020_1">
  <metadata id="CorelCorpID_0Corel-Layer"/>
  <g>
  </g>
  <g style="clip-path:url(#id0)">
   <g>
    <polygon class="fil0" style="mask:url(#id1)" points="-31,137 183,137 183,-2 -31,-2 "/>
    <g id="_2699856785072">
     <path class="fil1" d="M119 89l1 -6c1,-1 2,-1 2,-2 0,1 -2,0 -3,0l-2 0c0,1 0,0 -1,1 1,0 1,0 1,0 0,1 -1,1 -1,1 2,-1 2,-1 3,-1l0 1c0,4 -2,4 -2,7l0 3c1,-1 1,0 2,0 0,-1 1,0 0,0 0,1 0,0 0,1 0,1 0,3 0,4l2 0 -1 -5 1 5c0,2 1,3 -1,5 1,1 1,2 2,3l0 3c3,0 1,5 0,7l1 2c1,-1 1,0 3,-1 0,0 0,0 1,0 -1,-2 -1,-1 -1,-7 0,1 0,0 0,1 1,2 1,3 1,6 1,0 1,-1 3,-1l0 0c-1,0 -1,-1 -1,-1l0 -3c-1,-1 -2,-2 -2,-3l-1 -4 2 4c1,2 0,3 2,4 1,1 2,2 3,3 0,-1 1,-1 1,-1 0,0 0,0 0,0 -1,-1 -2,-2 -1,-3 1,1 2,2 3,2l0 -3 -5 -3 -2 -3 7 6c0,-1 1,-2 1,-2 -1,-1 -2,-1 -2,-1 -2,-1 -3,-2 -5,-4l-4 -5 -3 -6c-1,0 -1,0 -2,0l3 4 2 4 -2 -3 -3 -5c0,0 0,0 0,0l2 4 1 3c0,0 -1,-1 -1,-1l-2 -6c-1,0 -1,0 -2,0 1,-1 1,-1 1,-1 1,0 1,0 2,0l-2 -3 0 0 0 2c-1,0 -1,-1 -1,-2zm5 21l-2 -7 2 4 0 3zm-9 0c1,0 1,1 2,2 0,1 2,3 2,3l0 0 -3 -3c0,1 0,1 0,2 0,-1 -2,-3 -2,-5 1,1 1,0 1,1zm-18 -58c0,0 0,0 1,0 -1,0 -1,0 -1,0zm5 6l-1 1c-1,1 -2,4 -3,4 -1,-2 0,-3 1,-4l-3 -2c-1,0 -2,0 -3,0 -1,-1 -1,-1 -1,-2l5 2c3,2 1,2 3,0l-4 -6 -3 -3c3,1 3,0 4,4 0,-1 0,-3 0,-3l1 4 3 4 1 -1c0,0 0,-1 0,-2 -1,-4 -2,-3 -2,-5 1,0 1,1 1,2l1 -3 0 3 0 5 3 0c-1,-1 -2,-2 0,-6 0,-1 0,-2 0,-2l0 3 2 -3c0,1 -2,4 -2,5l0 3c0,0 0,0 1,0l1 1c2,1 1,0 3,1 0,0 0,0 0,0l0 1c-2,1 -3,-2 -4,-2 0,0 -1,0 -1,0l-1 0c0,1 1,1 1,2 -1,0 -2,0 -3,-1zm-4 35c0,1 0,1 0,1 1,0 1,1 1,2l-1 3c-1,-1 1,-3 0,-4l-1 2 -1 3c0,0 0,-1 0,-1l-1 1 1 -2 1 -2c0,-1 1,-1 1,-1 -1,0 -1,0 -1,-1 0,1 -1,1 -1,2l0 0c0,-1 1,-2 1,-2l0 -1 -1 0c0,1 -4,4 -5,4 0,0 0,-1 0,-1l-2 0 1 0 2 -1 3 -2c0,0 0,0 1,0 -1,0 -1,-1 -1,-1 -2,0 -5,3 -6,1 0,0 0,0 0,0l2 -1c0,0 -1,1 -2,0l0 0c0,0 1,0 1,0 1,0 1,0 2,0l2 0c0,-1 -2,-1 -3,-2 0,0 0,0 0,-1 -1,0 -3,1 -3,-1l3 1c1,0 1,0 1,0 1,0 1,0 2,0 0,1 1,1 1,2 1,-1 1,-1 1,-2 0,-1 0,-1 1,-2 0,0 0,2 0,2l-1 2c0,0 0,1 1,1 0,0 0,1 1,1 1,-1 1,0 3,-1l-3 1zm16 13c2,1 2,-1 3,-1 -1,1 -1,1 -2,1 1,1 1,1 2,2 1,0 1,1 0,1 1,1 2,2 2,2 -1,0 -1,0 -1,0 -1,-1 -2,-2 -2,-2 -1,-2 -2,-1 -3,-1l-1 -1 0 0c-1,1 1,2 -1,5 0,-2 -1,-2 0,-5 0,0 0,1 -1,0l-2 -1c-1,0 -1,0 -1,0l0 1c0,1 0,3 -2,4l-1 1 2 -4 -1 0 1 -1c0,0 -1,-1 0,-2 -2,0 -3,-3 -3,-3l2 2c1,1 1,1 1,1 0,-1 0,-1 -1,-2l0 -1c1,1 2,3 2,3l1 0c0,0 0,-1 0,-2l1 -3c0,1 0,2 0,2l0 3c0,0 0,0 1,0 2,1 1,1 2,1 1,-1 1,-1 1,-2l2 -3c0,1 0,3 -2,4 0,1 0,0 0,1 1,0 1,0 1,-1 1,-1 3,-2 3,-2 0,0 0,0 0,0 -1,3 -2,2 -3,3zm3 -19c1,-1 1,-1 1,-3 0,0 1,-1 1,-1 0,0 0,0 0,0 -4,2 -3,2 -3,5 -1,4 0,3 -1,4l1 5c1,0 0,0 2,0 0,-1 1,-3 0,-4 -1,0 -1,1 -1,1 -1,-1 -1,-3 -1,-3 1,-2 0,-2 1,-4zm-2 0c0,-1 1,0 0,-3l-4 4c1,0 2,1 2,2 0,0 0,-1 2,1l0 -3c0,1 0,1 -1,2l1 -3zm-2 -2l3 -3c-2,0 -3,1 -4,2 -2,3 -2,2 -3,2 0,0 0,0 -1,0 0,0 0,-1 0,-1l-4 3c1,-2 2,-3 4,-4l-1 0 -1 -1c-1,0 -2,2 -3,2l-1 1 0 0 3 -1c-1,1 -4,3 -5,4 2,0 3,0 3,0 1,-1 2,-3 5,-3l-1 1c-1,1 -2,1 -2,3 -1,1 2,5 -2,6 -1,0 -2,0 -3,0 0,1 0,1 0,2 1,1 0,1 0,1 0,1 0,3 -1,3 -2,0 -1,0 -2,1l-3 1c-2,1 -2,-1 -2,-2 0,-1 0,-1 1,-3 -1,0 -3,3 -5,2l-2 -3c-1,1 -3,-2 -3,-2 1,-1 1,-1 1,-1 0,-2 1,-2 1,-2 0,-1 0,-2 1,-3l0 0c-2,-2 -1,-3 0,-3 1,0 1,-1 1,-1 0,-1 1,-1 1,-1 0,0 0,0 1,0 1,1 1,0 2,1 0,0 1,2 2,1 1,0 0,-3 2,-4 2,-1 2,0 3,0 0,0 0,0 0,0 1,0 2,1 3,1 1,1 3,-2 5,-1l0 0c0,-1 0,-1 -1,-1 0,0 1,-1 1,-1 2,-1 4,0 6,-1 0,0 1,0 1,0 -2,-1 -1,-2 -2,-2 -1,0 -2,-1 -2,-2 0,-1 0,-1 0,-1 -4,-3 -3,-3 -6,-6 0,0 -1,-1 -1,-1 -2,0 -3,4 -6,0 -2,-2 -1,-3 -1,-4l-2 0c-1,-1 -2,0 -4,1 -2,1 -3,-1 -4,-2 0,-1 -1,-2 0,-3l0 -2c-1,-2 1,-2 2,-3 1,-3 3,-1 4,-2l-1 -2c-1,-3 0,-4 1,-4 1,-2 1,-4 3,-3 3,2 3,-1 6,1 1,-3 2,-1 4,-2l2 0c3,0 5,3 4,7 -1,1 -1,1 -2,3 0,1 -1,2 1,2 1,0 2,0 3,1 3,0 2,1 2,4 0,3 -2,3 -3,4l-1 3 0 1c1,2 1,4 2,4l1 0c2,1 1,2 2,3 0,2 0,3 1,4l2 1c11,1 7,3 13,7 1,0 7,3 8,3l-5 -3c-2,-1 -3,-2 -5,-3l-3 -3c2,1 5,3 8,5l0 -1c11,7 23,11 35,14l0 3 -3 0 0 0c-2,-1 -4,-1 -5,1 -8,-3 -15,-6 -23,-10l-1 -1c-3,-1 -7,-3 -9,-5 -3,-2 -4,-4 -6,-4l-2 4 1 2c1,1 1,2 1,3 1,1 1,0 3,2 5,5 2,3 5,7l4 5c1,1 3,1 3,2 1,1 0,2 0,3l0 4c-1,1 -2,-1 -3,-1 1,2 0,1 0,2 0,2 -3,-1 -4,-1 1,0 1,1 1,2 0,1 -1,0 -2,0 -1,1 -1,1 -2,1 0,0 0,0 -1,0 -1,1 -1,1 -2,1 -2,0 -2,0 -3,-1 0,-1 0,-1 0,-1 0,0 0,0 -1,0 0,0 0,1 0,1 -1,0 -1,0 -1,0 -1,0 -1,0 -1,0l-3 1c-1,1 -1,0 -2,0 -1,0 -4,-2 -5,-4 -1,0 -1,1 -1,0l-3 0c0,0 -1,0 -1,1 -2,0 -1,-1 -2,-2 0,-2 -1,-2 -2,-3 -1,-2 3,-3 4,-4 0,-1 0,-1 -1,-1l-1 0c-2,-1 -2,-2 -1,-3 0,-1 0,-2 0,-3 1,-1 1,-1 2,-2 0,0 0,0 0,0 1,-1 1,-1 1,-1 1,0 1,-1 1,-1 1,0 1,0 1,-1 1,-1 2,0 3,0 0,0 0,-1 1,0 1,-4 1,-4 1,-5 0,-1 0,0 0,-1 -2,-1 2,-3 3,-4zm2 8c-1,-1 0,-2 -1,-2 0,1 0,2 0,3 0,1 1,2 1,3l0 0c0,0 0,-1 0,-1 0,-2 0,-2 0,-3zm-4 -4l0 0c0,0 0,0 0,0zm0 1c0,0 0,0 0,-1l0 1zm3 5c0,-1 -1,-2 0,-4 -1,0 0,1 -2,1 0,0 0,1 0,1l0 -1c0,-1 0,0 0,-1l-1 -1c0,0 0,0 0,0 0,0 0,1 0,1l-1 4c0,1 0,1 0,1 1,-1 0,0 1,-2 1,0 0,2 0,2 2,1 1,3 1,4l1 -3c-1,0 -1,-2 0,-2 0,1 0,1 0,2l1 0c0,0 0,0 0,0l0 -2zm3 4c-2,0 -2,-1 -3,-1 -1,1 0,0 -1,3 -1,1 -1,2 -2,2 -1,-1 0,-5 0,-5 -1,-1 -3,-1 -3,-2 0,0 0,0 0,0l-2 0c0,0 0,1 -1,1 -1,2 -1,1 -2,1 0,1 -1,1 -1,1 -1,1 -1,0 -1,3 0,1 -1,2 -1,2l2 1c1,0 1,1 1,1 1,0 1,0 2,0 -1,1 -1,1 -1,2l-4 2c1,1 3,3 2,4l3 0c1,0 1,0 1,0l2 0c0,-1 0,-1 0,-1l1 -4c1,0 0,2 0,4 0,1 0,1 -1,1l3 3 2 1 2 0c0,0 1,-1 2,-1 1,0 0,-1 1,-1 1,0 1,1 1,1 1,0 1,0 1,-1l0 -1c1,0 1,1 1,1 0,0 1,-1 1,-1 2,-6 1,-5 0,-5 -2,-1 -1,-1 -2,-2 -1,0 -2,-1 -3,-2 0,-1 1,-2 1,-2 1,0 1,-1 1,-1 1,-2 1,-1 1,-4 0,0 -1,1 -1,0 -1,0 -2,-1 -2,0zm-4 -17c2,-2 4,-1 4,-1 0,0 0,0 0,-1 0,0 0,1 -1,0l-1 0 0 0c0,-1 -1,-3 -1,-4 0,0 0,-1 0,-1 0,-1 -1,-3 -1,-2 -1,1 -1,1 -1,1 0,0 -1,1 -2,1 0,1 0,1 0,1 4,2 2,2 3,2 1,1 2,1 2,2 -1,0 0,0 -2,1 -1,0 0,0 -1,0l-5 1c1,0 1,0 0,1 2,0 1,1 2,2 0,0 0,0 0,0 1,-1 1,0 2,-2l-1 1c1,-2 2,-2 3,-2zm-14 -14c0,0 1,-1 3,-1 0,-1 -2,-4 -1,-6l1 4 0 2c2,0 2,1 1,-2 0,-3 0,-1 0,-3l0 0 0 -1 1 1c1,0 0,0 1,1 0,0 1,-1 2,1l2 1c0,-1 1,-1 1,-1 1,-2 2,-1 2,-3l0 -4c0,0 -2,0 -3,0 -2,-1 -4,0 -3,-4 1,-3 1,-2 2,-4 1,-1 1,-2 0,-3 0,0 -1,-1 -2,-1 -1,0 -1,0 -2,0 -1,0 -2,0 -3,0 -1,3 0,1 -3,1 -1,0 -1,1 -3,0 -2,0 -2,-1 -3,1 0,1 -1,1 -1,3 0,2 1,1 1,3 -1,0 0,1 -2,1 -3,1 -1,1 -2,2 0,1 -1,1 -2,2 1,0 1,1 1,1 -1,3 -1,2 0,4 0,0 0,1 1,0 2,0 3,-2 5,-1l2 0c0,0 1,0 1,0 1,0 1,1 1,1 0,2 -1,3 0,4 1,1 0,1 1,1 -1,-2 0,-2 1,-4 0,2 -1,3 -1,4l1 0zm1 23c0,0 -2,0 -1,-2 1,-2 2,-1 2,-3 -1,-1 -1,-1 -2,-2 -1,1 -2,1 -2,0 -4,0 -1,3 -3,5 -2,1 -4,-2 -4,-2 0,0 -1,0 -2,-1 0,0 1,2 -1,2 0,0 0,1 -1,0l1 2c1,0 1,-1 3,1 -1,0 -1,0 -2,0 -2,0 -1,2 -2,3 -2,0 -1,0 -2,2 2,2 2,0 4,3 0,0 0,-1 1,1 1,0 3,-1 4,-2 1,0 0,-1 2,-2 0,1 0,1 -1,2l0 3c-1,0 0,1 -1,2l3 0c0,0 1,-2 2,-2 0,0 0,-1 1,-2 0,-1 0,-1 0,-2 0,-3 3,-1 4,-3 1,-1 1,-1 1,-2l-1 -2c0,1 0,1 -1,1l-2 0zm21 16l-1 -1c0,-2 0,-2 0,-3 0,1 0,1 0,1 -1,1 -3,2 1,3zm-10 -34c0,0 -2,-5 -2,-6 0,-1 0,0 0,-1 0,1 0,1 0,2 0,-1 -1,-1 -1,-2 0,0 -1,0 -1,-1l1 3c0,0 -1,0 -1,0l-2 -4c0,0 0,0 0,0l1 3 1 2c-1,-1 -1,-2 -2,-2 0,0 0,0 0,1 0,0 0,0 0,1 0,0 0,0 -1,-1 0,1 0,0 0,1l4 4c0,0 1,1 1,1l1 0c0,-1 -4,-4 -4,-5 3,2 4,4 5,5l0 -1c-1,-1 -3,-2 -3,-5l3 5zm0 15l0 0c-1,0 -1,0 -1,1 0,0 0,0 0,0 1,-1 1,-1 1,-1z"/>
     <path class="fil1" d="M6 121l-1 0c0,1 1,0 1,0zm2 -48l0 0c0,0 0,0 0,0zm12 11l0 0c0,0 0,0 0,0zm-19 3l0 0c0,0 0,0 0,0zm19 -9c0,0 0,0 0,0 0,0 0,0 0,0zm-1 -11l0 0c0,0 0,0 0,0l0 0zm1 13c0,-1 0,-1 1,-1 0,0 0,0 0,0 1,0 2,0 3,0 0,0 0,0 -1,1 -2,0 -1,0 -3,0 0,0 0,0 0,0zm0 0c0,0 0,0 0,0 0,0 0,0 0,0zm-3 11l-1 0c-1,0 -1,0 -1,0l0 0c0,-1 0,0 0,-1l-1 0c0,0 0,-1 0,-1l0 0c1,0 1,0 2,0 0,1 1,2 1,2zm2 -1c-1,0 -2,0 -3,-2 1,0 2,0 3,1 0,0 0,0 0,1zm-18 -6c-1,0 0,1 -1,1 0,0 0,0 -1,1 -1,0 -1,0 -2,0 0,0 0,0 0,-1 0,0 1,-1 2,-1 0,0 1,0 1,0 0,0 0,0 0,0 1,0 1,0 1,0l0 0zm-2 2c0,0 0,0 0,0 1,-1 1,-1 2,-1 1,0 0,0 1,0 0,1 -1,1 -1,2 -1,0 -2,0 -2,-1zm21 2c-1,0 -2,1 -3,-1 0,0 0,0 0,-1 1,0 2,0 3,1 0,1 0,1 0,1zm-10 2l0 1c-1,0 0,0 -1,0 0,0 0,0 0,0 0,1 0,1 -1,1 -1,-1 0,-2 1,-3 0,0 0,0 0,0l1 1c0,1 -1,0 0,0zm2 -16c-1,0 -1,0 -1,0 0,0 -1,0 -1,0 1,-1 1,-1 1,-1 0,0 1,-3 2,-3 0,0 -1,1 -1,2l0 1c0,1 0,1 0,1zm10 12l0 0c0,0 -2,0 -3,-1l-1 0c0,-1 0,0 0,0l0 0c0,-1 0,0 0,-1 1,0 1,0 2,0 1,1 1,1 2,2zm2 -3l-1 1c-1,0 -3,0 -4,-1l0 0c0,0 0,0 0,0l0 0c0,0 0,0 1,0l0 0c1,0 1,-1 2,0 1,0 1,0 2,0zm0 -2c-1,1 -2,1 -3,1 -1,0 -1,0 -1,0 0,0 0,0 0,0 0,0 0,0 0,0 -1,-1 0,-1 -1,-1l1 0c0,0 0,0 0,0 0,0 0,0 0,0l0 0c0,0 1,0 1,0l0 -1c1,0 0,0 1,0 0,1 1,0 1,1l1 0zm-21 7c0,-1 0,-1 2,-1 0,1 -1,3 -2,2 -1,0 -1,0 -1,0 0,0 0,-1 0,-1 -1,1 -1,-1 0,-1 0,-1 0,0 1,-1 0,1 0,1 0,2zm11 4c-1,0 -1,-1 -2,-1 0,0 0,0 0,0 0,1 0,1 1,1 -1,0 -1,0 -1,0l-1 -1c0,0 0,0 0,1 0,0 0,0 0,-1 -1,-1 0,-1 0,-2 0,1 0,1 0,1 0,0 0,0 0,0l1 0c0,0 0,0 0,-1 0,0 0,0 1,0l0 0c0,1 1,1 1,2 0,1 0,1 0,1zm-6 -2c0,1 -1,2 -2,1 0,0 0,-1 0,-1 -1,0 -1,0 -1,0 -1,0 -1,-1 0,-1 0,-1 0,-1 0,-1 1,0 1,0 1,0l0 1c1,0 1,-1 1,-1 1,0 1,2 1,2zm9 -38c0,1 -1,1 -1,2 0,1 0,1 0,2l0 3c-1,1 0,1 -1,1 0,0 -1,0 0,-1 0,-2 0,-6 1,-7 0,-1 0,-1 1,-1 0,0 0,0 0,1zm-18 9c-2,-1 -3,-1 -4,-2 -1,-2 -2,-4 -1,-4 1,0 1,1 1,1l3 3c1,1 0,1 1,2zm10 -6c0,3 0,2 0,3 -1,-1 -1,-1 -1,-1 0,0 0,-1 0,-2 0,0 0,-6 1,-5 1,0 1,2 1,2 0,1 0,2 -1,3zm-3 3c0,1 0,1 -1,1 0,0 0,-1 -1,-1 0,-1 0,-1 -1,-2 0,-1 0,-3 -1,-3 0,-1 0,-1 1,-1 0,0 0,0 0,0l1 2c0,0 2,4 2,4zm-13 8c0,1 0,1 0,1 0,0 0,0 -1,0 -2,0 -3,-2 -4,-3 -1,-1 -2,-1 -1,-2 0,0 0,0 0,0 2,2 1,1 2,1l2 1c0,1 0,1 0,1 0,0 0,0 1,0 0,0 0,0 1,1 0,0 0,0 0,0zm-5 10l-2 0c0,0 -1,0 -1,0 -1,0 0,0 -1,0 -1,0 -2,0 -3,0 -1,-1 -1,0 -1,-1 0,0 0,0 2,0 1,-1 3,-1 5,0 0,0 0,0 0,0 0,1 1,1 1,1zm4 -7c0,1 -1,0 -2,0 -1,0 -1,0 -1,0 -2,-1 0,0 -2,-1 -1,-1 -2,0 -2,-1 0,-1 3,-1 4,0 1,0 3,1 3,2zm11 -10c-1,0 -1,0 -1,-1 -1,0 -1,0 -1,0 -2,-2 -2,-3 -3,-5 0,0 0,-1 0,-1l3 3c0,0 1,1 1,2l1 1c0,1 0,1 0,1zm-8 6c0,0 -1,0 -1,0l0 -1c0,0 0,0 0,0 -1,-1 -1,0 -2,-1 0,0 0,0 0,0 -1,-1 -2,-2 -2,-4 1,0 1,1 2,1 0,0 0,1 1,1 1,1 3,2 3,3 0,1 0,1 -1,1zm-4 9c-1,1 -1,1 -2,1 -5,-1 -6,-3 -8,-4 0,0 1,0 1,0 1,0 1,0 2,0l2 0c1,0 3,2 3,2 1,0 0,0 1,0 0,1 0,1 1,1zm2 11c-1,0 0,0 -1,0 0,1 -2,1 -2,1l-7 2c0,0 0,0 -1,0 0,0 0,0 -1,0 -1,0 -1,0 -1,0 0,-1 0,-1 1,-1 0,0 0,0 1,0 0,0 0,0 0,0 1,-1 3,-1 3,-2 2,0 6,-1 7,-1 0,0 1,1 1,1zm-6 -5c0,0 0,0 -1,0 0,0 0,0 0,0l1 1c0,0 0,0 -1,0 -2,1 -3,1 -5,0l-1 0c-1,0 -1,0 0,0 0,-1 1,-1 2,-1l0 0c-1,-1 -1,-1 -1,-1l-2 0c0,-1 3,-1 4,-1 2,0 1,0 2,1 1,0 1,0 1,0 1,0 1,0 1,1zm34 -25c0,1 0,1 0,2 0,0 0,0 0,1 -1,2 -1,4 -2,5 0,1 0,1 -1,1 0,0 0,0 0,1 0,1 0,1 -1,1 0,0 0,-1 0,-2 0,-4 1,-7 3,-10 1,0 1,-1 1,-1 0,1 0,1 0,1 0,1 0,1 0,1zm-39 37c-1,0 -1,-1 1,-2 1,0 1,0 2,-1l5 -2c0,0 0,0 1,-1 1,0 3,0 5,0 -1,1 -2,1 -3,1l-3 2c0,0 0,0 0,0 0,0 0,0 0,0 0,0 0,0 0,0 -1,0 -1,0 -1,0 0,0 0,0 -1,1 0,0 0,0 0,0 0,0 0,0 -1,0l-3 1c0,1 -1,1 -2,1zm37 -25c0,-3 1,-2 1,-4l1 -2c0,-1 0,0 0,-1l1 -1c0,0 0,0 0,0l0 -1c0,0 2,-2 2,-3 1,-1 2,-1 2,0 0,0 0,1 0,1 0,2 -3,5 -4,7l-3 4c0,0 0,0 0,0zm-19 5c0,-1 -1,-1 -1,-1 -1,0 -1,0 -2,-1 -1,-1 -1,-2 -2,-2 0,1 0,1 0,2 0,1 0,1 0,2 1,0 2,-1 4,-1l-1 1c-1,0 -1,0 -1,0 0,0 -1,0 -1,0l0 1c-2,1 -3,-3 -3,-4 1,-1 1,-1 1,-2 1,-1 1,-1 2,-1 1,0 2,2 2,2 1,1 0,0 2,2 0,0 0,0 1,0 0,0 1,1 2,1 0,0 -1,1 -1,1 -1,0 0,0 -1,-1 0,0 0,1 -1,1zm32 -15c0,1 -3,4 -4,5l-3 5c-1,1 -1,1 -2,2 0,0 -1,1 -1,1 0,-1 0,0 0,-1 1,-2 0,0 1,-2 1,-2 3,-5 4,-7l2 -2c0,0 0,0 1,0 1,-1 2,-2 2,-1 0,0 0,0 0,0zm-45 45c-2,-1 5,-7 6,-8l4 -3c0,0 0,0 1,-1 1,-1 2,-1 3,-1 0,1 -1,1 -1,2l-2 1c-2,2 -4,4 -6,6l0 0c0,0 0,0 0,0l-1 1c0,0 0,0 0,0 -1,1 0,1 -1,1 -1,0 0,0 -1,1 0,0 0,0 0,0l0 0c0,0 0,0 0,0 -1,1 -1,1 -1,1 0,0 0,0 -1,0zm46 -2c0,1 -1,1 -2,1 -2,-1 -5,-3 -7,-5 -1,0 -3,-2 -3,-3 0,-1 0,-1 0,-1 -1,-1 -1,-1 -1,-2 1,1 0,0 1,1 0,0 0,0 0,0 0,0 3,2 5,4 2,1 2,2 4,3 0,0 1,0 2,1 0,0 1,1 1,1zm8 -34c0,1 0,1 -2,2 0,0 -7,3 -8,4l-2 1c-1,0 -1,0 -2,1 -2,0 -1,0 -2,0 0,0 0,0 0,0l-2 0c1,0 2,-1 3,-1l3 -2c0,0 1,0 1,-1l3 -1c0,-1 0,-1 0,-1l1 0c1,-1 3,-1 3,-2 1,-1 1,0 1,-1 1,0 1,0 1,0 1,-1 2,0 2,1zm3 2c0,1 0,1 0,1 -2,1 -2,1 -4,2l-2 2c-1,0 0,0 -2,1 -1,0 -1,0 -4,1 -1,0 -3,1 -5,1 0,0 -1,0 -1,0 0,-1 2,-1 2,-1 1,0 1,-1 1,-1 0,0 0,0 1,0 5,-4 5,-2 9,-4 1,-1 5,-2 5,-2 0,0 0,0 0,0zm-36 41l-1 4c0,1 -1,0 -1,0l0 -3c-1,-2 -1,-6 0,-8 0,-1 0,-1 0,-2l1 -4c0,-1 0,-1 0,-2 1,0 0,0 0,0 1,0 1,-1 1,-1l0 0c0,0 0,0 0,1 0,2 0,4 0,7l0 5c0,0 0,0 0,1 0,0 0,1 0,2zm14 2c0,0 -1,0 -1,0 0,0 -1,-1 -1,-1l-2 -3c0,0 0,0 0,0l-1 -1c0,0 0,0 0,0 0,-1 -1,-2 -1,-3l-1 -2c0,-1 0,-1 -1,-1 0,-1 0,-2 0,-3 -1,0 -2,-3 -1,-3 0,0 0,0 0,0 1,0 1,0 1,1 0,0 0,0 1,1 1,1 0,1 1,2l2 3c0,1 1,4 2,5l2 3c0,1 0,1 0,2zm-21 -21c1,0 1,0 0,1 0,0 0,0 0,0 0,2 -3,6 -4,7 -1,1 0,1 -1,1 0,0 0,0 0,0l0 1c0,0 0,0 0,0 0,0 0,0 0,0l-1 1c0,0 0,0 0,0 0,0 1,0 0,1 -1,0 0,0 -1,1l0 0c0,0 0,0 0,0 0,1 -1,1 -1,1 -4,4 -1,-3 0,-5 1,-1 1,-2 2,-3 1,-1 2,-2 2,-3 1,0 1,0 1,0l1 -1c1,-1 1,-1 2,-2 0,0 0,0 0,0zm7 -30c-1,2 -2,4 -2,4 0,1 0,2 0,2 0,1 0,1 0,1l0 1c0,0 0,0 0,0l0 1c0,1 1,0 0,1 -1,0 0,0 -1,-1 0,0 0,0 0,0 -1,-1 -1,-2 -2,-3 -2,0 -2,1 -4,1 -1,0 -1,-1 -1,-2 0,0 0,-1 0,-1 1,-1 2,-2 3,-3 1,0 1,-1 2,-1l1 0c1,-1 4,-1 4,0zm12 11c0,1 0,1 -1,1 -1,0 -1,0 -1,0 -1,-1 -1,-1 -1,-1l-2 -1c-2,0 0,0 -2,0 0,-1 0,0 0,0 0,0 0,0 0,0l-2 1c0,0 0,-1 0,0l0 0c0,0 -1,0 -1,0 0,0 0,0 0,-1 0,0 0,0 0,-1 1,0 0,0 1,0l0 0c0,-1 0,0 0,-1 1,0 1,-2 1,-2 -1,-1 -1,-3 0,-3 1,-1 1,0 1,0 1,0 1,0 3,2 0,0 0,0 0,1l1 1c1,0 0,0 1,0l1 1c0,0 0,0 0,0 0,1 0,1 0,1 1,0 2,1 1,2zm-6 -12c-1,1 -2,1 -2,2 -1,2 -2,3 -2,5 0,1 -1,3 -1,4 0,0 0,1 -1,1 -1,-1 -1,-1 -1,-1 0,0 0,-1 0,-1 0,0 0,-1 0,-2 1,-2 0,-3 1,-4 0,-3 0,-4 1,-6 1,0 1,-1 3,-1 0,0 1,1 1,1 0,1 1,1 1,2zm30 26c0,0 0,0 0,0 -2,0 -1,0 -2,1 0,0 -2,1 -2,1 -3,0 -8,1 -10,0 -4,-1 -4,-2 -6,-2 0,0 0,0 -1,0 1,-1 0,-1 1,-1 0,0 0,0 0,0 1,0 1,0 1,0 1,0 1,0 1,0 2,0 6,0 7,0 0,0 1,0 1,0l3 0c1,0 2,0 4,0 0,0 3,0 3,1zm-39 -12c-1,0 -1,1 -2,1 0,0 -1,0 -1,0 0,0 0,0 0,0 0,0 0,0 0,0l-4 2c-1,1 -2,2 -3,3l-1 1c-2,2 0,0 -2,2 0,1 0,1 -1,0 0,0 0,0 -1,0 0,-1 -1,-1 -1,-2 -1,-2 -1,-3 1,-4 0,0 1,0 2,0 1,0 1,-1 3,-1 1,0 3,-1 4,-1l0 -1c2,-1 4,-1 6,0zm3 4c0,1 -2,1 -3,0 0,1 0,1 0,2 0,1 0,1 0,2 1,1 1,0 3,1 1,1 2,1 1,2 0,1 -1,2 -1,2 -1,1 -3,-1 -3,-2l0 0c0,0 0,0 -1,0 0,0 -1,0 -1,-1 -1,0 -1,0 -2,0 -2,-1 -3,-1 -3,-2 -1,-1 -1,-1 0,-2 1,-1 2,0 3,0 1,0 1,-3 3,-3 0,-1 0,-2 1,-2 1,0 0,1 1,2 1,0 1,0 1,0 1,0 1,1 1,1zm13 1c0,0 0,0 -1,0 -1,0 0,0 -1,1l-3 1c0,1 -1,1 -1,1 0,1 2,3 1,5 -1,1 -3,1 -4,1 -1,-1 0,-1 -1,-1l0 0c0,0 0,-1 0,-2 0,0 0,0 0,0l-1 -1c0,-1 0,-1 0,-1 -1,-2 -1,-2 -1,-3l0 -1c0,0 0,0 0,0 0,0 0,0 0,0l-1 -1c0,-1 0,-1 0,-1 0,0 0,-1 0,-1 0,0 0,0 0,-1 0,0 0,0 0,0 0,-1 0,0 0,-1 0,0 -1,-1 0,-1 0,0 1,1 1,1 0,1 1,2 1,3 1,2 3,3 4,4 0,0 0,0 0,0 0,-1 1,-2 1,-3 -1,0 -1,-1 -2,-1l0 0c0,0 0,0 0,0l-1 -1c0,0 0,0 0,0 -1,-1 1,-1 2,-1 0,0 2,1 4,1 0,0 0,0 0,0l0 0c1,0 1,0 1,0l0 -1c1,0 1,0 1,-1 0,0 1,-1 1,-1 1,0 1,-1 1,-1 1,0 1,-1 1,-2l3 -2c1,-1 2,-2 3,-3l3 -1c1,0 1,0 2,0 2,0 1,1 0,2 -2,1 -4,1 -5,2 0,0 0,0 0,0 -2,1 -4,3 -5,4 0,0 0,0 0,1 0,0 0,-1 0,-1l2 -1c1,-1 1,-1 2,-1 0,-1 0,-1 0,-1 0,0 1,0 2,-1l1 0c0,-1 0,-1 1,-1 1,0 2,-1 3,0 0,0 0,0 -1,1l0 1c-1,0 -1,0 -2,1 -1,0 -2,1 -2,1 -1,0 -1,0 -1,0 0,1 0,1 -1,1 -1,0 -1,1 -2,1 -2,1 -2,1 -2,1 -1,0 -1,0 -1,-1 0,0 0,0 0,0 0,1 -1,1 -1,1 0,0 -1,0 -1,1 0,0 0,0 0,0 1,1 0,3 -1,3 1,0 0,1 0,0l0 0c1,0 0,-1 2,-1 0,0 1,0 1,0 0,0 -1,0 -1,1 0,0 0,0 0,0l0 0c0,1 0,0 0,1l-1 0c0,0 0,0 0,0 0,0 0,0 0,0l-1 0c0,0 1,0 1,0l0 0zm-3 14c1,0 1,0 1,0l7 11c0,0 2,3 2,4 1,0 2,0 2,0 0,1 1,1 1,2l1 0c0,0 1,1 2,1l1 1c0,0 0,0 0,0 1,1 4,1 5,1 0,1 0,1 1,1 0,-1 -1,-1 -1,-1 0,0 0,0 0,0l-1 -2c0,0 0,0 0,0l0 0c0,0 0,0 0,0l0 0c0,-1 0,-1 0,-1 -1,-1 -1,-1 -1,-1l0 -1c0,0 0,0 0,0l0 0c0,-1 0,0 0,-1 0,1 1,1 1,1l0 1c0,0 0,0 0,0l1 1c0,0 0,0 0,0 0,0 0,0 0,0 0,0 0,0 0,0l0 1c1,0 0,0 1,0 0,0 0,0 0,0l0 0c0,0 0,0 0,0 0,0 0,0 0,0 0,0 0,0 0,0 0,1 0,0 0,1 0,0 0,0 0,0l1 1c0,0 0,0 0,0l1 2c0,-1 0,-1 0,-2 -1,0 0,0 0,-1 0,0 0,0 0,0 0,0 0,0 0,0l-1 -2c0,0 0,-1 0,-1l0 0c0,0 0,0 0,0l-1 -4c0,0 0,0 0,-1l-1 0c0,0 0,0 0,0l-2 -6c0,0 0,0 -1,-1 0,0 -1,-1 -1,-1 0,-1 1,-1 1,-1 0,0 1,0 1,0 0,-1 0,-1 1,-1 -2,0 -3,1 -7,0 -1,0 -2,-1 -3,-1 -3,-2 -3,-2 -4,-4l-1 0 2 0c1,0 1,1 2,1l3 0c0,0 0,1 1,1 1,0 1,0 2,0 1,0 3,1 4,1 1,0 2,0 2,1 0,0 -1,1 1,1 0,0 0,0 0,0 1,0 0,0 1,0 2,0 3,0 5,0 0,0 0,0 1,0 0,0 1,0 1,-1l1 0c0,0 0,0 0,0 0,0 0,0 0,0l0 0c1,-1 1,-1 1,-1 0,0 0,0 -1,0 0,0 -1,0 -2,-1 0,0 0,0 -1,0 0,-1 -1,-1 -1,-1 0,0 -1,0 -1,0l0 -1c1,0 1,1 2,1 0,0 0,0 0,0 1,0 1,0 2,0 0,0 0,0 0,0l0 0c0,0 1,0 2,1 0,-1 -1,-1 -1,-1 0,0 0,0 0,0l0 -1c0,0 0,0 0,0 -1,0 -1,0 -1,0 0,0 0,0 0,-1 0,0 -1,0 -1,0 0,0 0,0 0,0 0,-1 0,0 0,-1 0,0 -1,-1 -1,-1l-4 -3c-1,0 -1,-1 -2,-1 -1,0 -1,0 -1,0l-4 1 -3 1c-1,0 -2,0 -3,-1 -1,0 -1,0 -2,0 -1,0 -1,0 -1,0 0,-1 0,-1 -1,-1 1,-1 3,0 4,0 2,-1 4,-1 6,-1l3 0c0,0 0,0 1,-1 -1,0 -1,-1 0,-1 0,-1 1,-1 1,-1 0,-1 0,0 1,-1 -1,0 -1,0 -1,0 0,0 0,0 1,-1l-2 1c-1,0 0,0 -1,0l0 1c0,0 -1,0 -1,0l-3 1c0,0 0,0 0,0 0,0 0,0 0,0 0,0 0,0 0,0 0,0 0,0 -1,0 -1,1 -1,1 -3,1 -1,0 -2,0 -3,0 -1,0 -2,1 -2,0 0,-1 2,-1 4,-2 5,-2 4,-1 9,-2 1,0 2,-1 2,-1 0,0 0,0 0,0 1,0 1,0 1,1l0 0c0,0 0,0 1,-1 0,0 0,0 0,0 0,0 0,0 0,0 1,0 0,0 1,0l0 -1c0,0 0,0 1,0 0,0 0,0 0,0l1 -1c0,0 0,0 0,0 0,0 0,0 0,0l0 0c1,-1 2,-1 2,-2 0,0 0,-1 0,-1 1,-1 1,-1 1,-2 0,-1 0,-1 0,-2l0 0c0,0 0,0 1,0l0 -1c0,0 0,0 0,0 0,-1 0,0 0,-1 0,0 0,0 0,0l1 0c0,-1 0,0 0,-1 -1,1 -3,1 -4,1 0,1 0,1 0,1l0 0c-1,0 -2,1 -3,2 0,0 0,0 -1,1 0,0 -1,0 -1,-1 0,-1 2,-2 2,-2 1,-1 2,-2 3,-2 -5,-1 -6,1 -9,1l-1 0c0,0 0,0 0,0 0,0 1,-1 1,-1 1,-1 2,-1 3,-2 1,0 2,0 3,0 2,-1 4,0 6,0 1,0 2,0 3,0 1,0 1,0 1,-1 1,0 2,0 3,0 1,1 0,2 0,2 -1,1 -2,2 -3,2 -1,1 -3,2 -3,3l0 2c0,1 -1,2 -1,2l-1 2c0,1 -2,2 -3,3 -1,0 -2,2 -3,2 -1,0 0,0 -1,1 -1,0 -1,0 -1,1 1,0 2,0 2,1 0,0 0,0 0,0 1,0 1,1 2,1l2 1c0,1 0,1 1,1l0 1c1,0 1,0 1,0 2,1 3,2 4,4 2,2 5,2 0,5 -1,0 -1,0 -2,1l-1 1c-1,0 -1,0 -2,0 -1,0 -1,0 -1,0l-1 0c-1,0 -2,0 -3,0 0,0 -1,0 -2,0 0,0 0,0 -1,0 0,0 -1,0 -1,1l0 0c1,0 1,1 2,2 1,2 3,6 3,8 1,3 1,7 2,10 0,0 1,3 1,3 -1,1 -2,1 -2,0 -1,0 -1,0 -1,0 0,-1 -3,-4 -4,-4 -1,-1 -4,-1 -7,-2 0,0 -1,-1 -1,-1 0,1 0,2 0,4 0,2 0,7 0,9l1 2c0,0 1,1 0,2 -1,0 -1,0 -2,-1 -1,-1 -3,-2 -4,-3l-2 -2c-2,-1 -3,-2 -4,-3 -1,0 -2,-1 -2,-1 -1,-1 -2,-1 -2,-2l-1 -1c0,-1 -1,-1 -1,-2 0,0 -1,0 -1,0l-1 2c0,1 0,1 0,2 -1,0 -1,1 -1,1 0,1 -1,2 -1,2 0,1 -1,2 -2,3 -1,0 -1,1 -2,2l-2 1c-1,1 -1,1 -1,1 0,1 -1,4 -1,5 0,0 0,1 0,1 0,1 -1,0 -2,-1 0,0 0,-1 1,-2 0,0 -1,0 -1,-1 0,0 0,-4 -1,-5l-2 -7c0,-1 0,-2 0,-3l0 -2c0,-1 0,-1 -1,-1 0,0 0,0 0,0 0,1 -1,1 -1,1 -2,0 -2,-2 -2,-3 -2,0 -2,0 -2,-1 -1,0 -1,0 -1,0 -1,0 -1,-1 -1,-1l-2 1c-1,1 -2,1 -3,2 -2,1 -4,2 -6,3l-2 0c0,0 0,0 -1,0 0,0 0,0 -1,1 0,0 0,0 0,0 -1,0 -1,-1 -1,-1 0,-1 1,-1 2,-2l1 0c1,-1 1,-1 2,-2 3,-3 3,-5 4,-8 1,-1 1,-2 1,-2 0,-1 0,-1 0,-1 -1,0 -2,0 -2,-1 0,-1 1,-2 2,-3 -1,0 -2,0 -2,0 0,-1 1,-1 1,-2 0,0 -1,0 -1,0l-1 0c0,0 0,0 0,0 -2,0 -1,0 -1,0l-1 0c-1,-1 -2,0 -4,-1 -3,-2 -3,-2 -6,-2 -1,0 -2,0 -2,-1 0,-1 1,-1 2,-1l1 0c0,0 0,0 0,0 0,0 0,0 0,0 1,0 1,0 1,0 1,0 1,-1 1,-1l2 -1c0,0 1,-1 2,-2 1,0 2,-1 4,0 0,-1 2,-1 3,-2 1,0 5,0 5,1 0,0 0,0 -1,0 0,0 -1,1 -2,1 -1,0 -2,0 -4,0l1 0c0,0 0,0 0,0l-2 1c0,0 0,0 -1,0 -1,1 -2,1 -3,2l-1 1c0,0 0,0 0,0 0,0 0,0 0,0l-1 0c0,0 0,1 -1,1 1,0 2,1 2,1l1 0c0,0 0,0 0,0 2,1 5,0 5,1 0,1 0,1 1,1 1,1 1,0 2,0 0,1 0,1 0,1 1,0 2,-1 3,-2 1,0 2,-1 4,-1 0,0 1,0 1,-1 0,1 0,1 -1,1 -1,1 -1,1 -2,2 -1,0 -2,1 -2,1 -1,0 -2,1 -3,1 1,0 2,1 1,2 1,0 1,-1 1,-1l5 -4c2,-1 5,-2 7,-3 0,0 1,-1 1,-1 0,0 0,0 1,0l0 0c0,0 0,0 0,1l-1 0c0,1 0,1 -1,1 0,0 0,0 0,0l-1 1c0,0 0,0 -1,1 0,0 -1,0 -1,0 -1,1 -1,1 -1,1 -1,0 0,1 -1,1 0,0 0,0 0,0 0,0 -1,0 -1,0l-6 5c1,0 0,0 1,0l0 0c0,0 0,0 0,0 0,0 0,0 0,0 0,0 0,0 0,0l0 0c0,1 0,1 -1,2 -1,2 -1,5 -3,7 0,1 0,1 0,2 1,-1 2,-2 4,-2 1,0 2,-1 3,-1 1,0 0,0 1,0l0 1c0,0 1,0 2,0 0,1 0,1 0,1 1,0 1,0 2,0l0 -3c0,0 0,0 0,0 1,-1 1,-2 2,-4 0,-2 1,-2 2,-4l1 -2c1,-1 2,-2 2,-3 1,0 1,0 1,0 0,1 -1,2 -1,3 0,1 -1,3 -1,5 -1,2 -2,4 -3,6 -1,1 -1,2 -1,2 -1,1 -1,2 -1,3 1,-1 1,-2 2,-1 1,0 1,0 2,1 0,-2 0,-3 0,-4 0,-1 0,-1 0,-2 1,-2 1,-2 2,-5 0,-1 0,-3 1,-4 1,-1 1,-2 1,-3 1,0 1,0 1,0 0,-1 0,-1 1,-1 -1,2 0,0 -1,5 0,1 -1,3 -1,4 0,0 0,1 0,1 -1,1 -1,4 -1,5 -1,2 -1,3 -1,4 -1,2 -1,3 -2,4l0 0c0,0 0,0 0,0 0,0 0,0 0,0l1 1c0,1 0,1 0,1 0,1 0,1 0,2l2 7c0,0 0,0 0,0 0,0 0,0 0,-1 0,0 1,0 1,0l0 -1c1,0 1,0 1,0 0,-1 1,-1 1,-1l1 -1c0,0 0,0 0,0 1,-1 1,0 1,-1 0,0 0,0 0,0l1 -1c0,0 0,0 0,0l1 -1c1,-1 1,-4 2,-6 0,0 0,0 0,0 1,-1 1,-1 0,-3 -1,-1 -1,-3 -2,-5 0,-3 0,-6 0,-9 0,0 0,-1 0,-2 1,0 1,-1 1,-1 0,0 0,0 0,1l1 3c1,1 2,9 2,11 0,1 0,2 0,2 2,-1 2,1 2,2 1,0 1,0 1,0 0,1 0,1 1,1l0 1c0,0 0,0 0,0l1 1c0,0 0,0 1,1l0 0c0,0 1,0 1,1l1 0c0,0 0,0 0,0l0 1c1,0 0,0 1,0l1 1c0,0 0,0 0,0 0,0 0,0 0,0l0 0c0,0 0,0 0,0 1,1 1,0 1,1l0 0c0,0 0,0 0,0 0,0 0,0 1,0l3 3c0,-2 1,-2 0,-3 0,0 0,0 0,-1 1,0 1,-1 1,-2 0,0 0,0 0,-1 0,0 0,0 0,-1 0,0 0,0 0,0l-1 -2c0,0 0,0 0,-1 0,-1 0,-3 -1,-4 -2,0 -3,-1 -4,-3 -1,-1 -1,-2 -2,-3 0,0 0,0 0,-1l-1 0c0,0 0,0 0,0 -1,-2 -1,-4 -2,-5 0,-1 0,-1 0,-2l-1 -1c0,0 0,0 0,0 0,-1 0,-1 0,-1 0,0 0,0 0,0zm0 0l0 0c0,0 0,0 0,0z"/>
     <path class="fil1" d="M62 111l0 0c1,0 1,0 1,0 0,0 0,0 0,0 0,0 -1,0 -1,0 0,0 0,0 0,0l0 0zm11 -4c0,1 0,1 0,1 0,0 0,0 0,0 1,0 1,0 1,0 0,0 0,0 0,0 0,0 0,0 0,0 0,0 0,0 0,0 0,0 0,0 0,0 0,0 0,0 0,0 0,0 0,0 0,0 0,0 0,0 0,0 0,0 0,1 0,1 0,0 0,0 0,0 1,0 1,0 1,0 0,0 0,0 0,0 0,0 0,0 0,0 0,0 0,0 0,0 0,0 0,0 0,0 0,0 0,0 0,0 0,0 0,0 0,0 0,0 0,0 0,0 0,0 0,0 0,0 0,0 0,0 0,0 0,0 0,0 0,0 0,0 0,0 1,0 0,0 0,0 0,0 0,0 0,0 0,0 0,0 0,0 0,0 0,0 0,0 0,0 0,0 0,0 0,0 0,0 0,0 0,0 0,0 1,0 1,0 0,0 0,0 0,0 0,0 0,0 0,0 0,0 0,0 0,0 0,0 0,0 0,0 0,0 0,0 0,0 0,0 0,0 0,0 0,0 0,0 0,0 0,0 0,0 0,0 0,0 0,0 0,0 1,0 1,0 1,0 0,0 0,0 0,0 0,0 0,0 0,0 0,0 0,0 0,0 0,0 0,0 0,0 0,0 0,0 0,0 0,0 0,0 0,0 0,1 1,1 1,1 0,0 0,0 0,0 0,0 0,0 0,0 0,0 0,0 0,0 0,0 0,0 0,0 0,0 0,0 1,0 0,0 0,0 0,0 0,0 0,0 0,0 0,0 0,0 0,0 0,0 0,0 0,0 0,0 0,0 0,0 0,0 0,0 0,0 0,1 0,1 0,1 0,0 0,0 0,0 0,0 0,0 0,0 0,0 0,0 0,0 0,0 0,0 0,0 0,0 1,0 1,0 0,0 0,0 0,0 0,0 0,0 0,0 0,0 0,0 0,0 0,0 0,0 0,0 0,0 0,0 0,1 0,0 0,0 0,0 0,0 0,0 0,0 0,0 0,0 0,0 0,0 0,0 0,0 0,0 0,0 0,0 0,0 0,0 0,0 0,1 0,1 0,1 0,0 0,0 0,0 0,0 0,0 0,0 0,0 0,0 0,0 0,0 0,0 0,0 0,0 0,0 0,0 0,0 0,0 0,0 0,0 0,0 0,0 0,0 0,0 0,0 0,0 0,0 0,0 0,0 0,0 0,1 0,0 0,0 0,0 0,0 0,0 0,0 0,0 0,0 0,0 0,0 0,0 0,0 0,0 0,0 0,0 0,0 0,0 0,0 0,0 0,1 0,1 -1,0 -1,1 -1,1 0,0 0,0 0,0 0,0 0,0 0,0 0,0 0,0 0,0 0,0 0,0 0,0 0,0 0,0 0,0 0,0 0,0 0,0 0,0 0,0 0,0 0,0 0,0 0,0 0,0 0,0 0,0 0,0 0,0 0,0 0,0 0,0 0,0 0,0 0,0 0,1 0,-1 0,-1 0,-1 0,1 0,1 0,1 0,0 0,0 0,0 0,0 0,0 0,0 0,0 0,0 0,0 -1,0 0,0 -1,0 0,0 0,0 0,0 0,0 0,0 0,0 0,0 0,0 0,0 0,0 0,0 0,0 0,0 0,0 0,0 0,0 0,0 0,0 0,0 0,0 0,0 0,0 0,0 0,0 0,0 -1,0 -1,0 0,0 0,0 0,0 0,0 0,0 0,0 0,0 0,0 0,0 0,0 0,0 0,0 0,0 0,0 0,0 0,0 0,0 -1,0 1,-1 1,-1 1,-1 -1,0 -1,0 -1,0 0,0 0,0 0,0 0,0 0,0 0,0 0,0 0,0 0,0 0,0 0,0 0,0 0,0 0,0 0,0 0,0 0,0 0,0 0,0 0,0 0,0 0,0 0,0 0,0 0,0 0,0 0,0 0,0 0,0 0,0 0,0 0,0 0,0 0,0 0,0 0,0 0,0 0,0 0,0 0,0 0,0 0,0 0,0 0,0 0,0 0,0 0,0 0,0 -1,0 -1,0 -1,0 0,0 0,0 0,0 0,0 0,0 0,0 0,0 0,0 0,0 0,0 0,0 0,0 0,0 0,0 0,0 0,0 0,0 0,0 0,0 0,0 0,0 0,0 0,0 0,0 0,0 0,0 0,0 0,0 0,0 0,0 0,0 0,0 0,0 0,0 0,0 0,0 0,0 0,0 -1,0 0,0 0,0 0,0 0,0 0,0 0,0 0,0 0,0 0,0 0,0 0,0 0,0 0,0 0,0 0,0 0,0 0,0 0,0 0,1 0,0 0,1 0,0 0,0 0,0 -1,0 0,0 -1,0 0,0 0,0 0,0 0,0 0,0 0,0 0,0 0,0 0,0 0,0 0,0 0,0 0,0 0,0 0,0 0,0 0,0 0,0 0,0 0,0 0,0 0,0 0,0 0,0 0,0 0,0 0,0 0,0 0,0 0,0 0,0 0,0 0,0 0,0 0,0 0,0 0,0 0,0 0,0 0,0 -1,1 -1,1 0,0 0,0 0,0 0,0 0,0 0,0 0,0 0,0 0,0 0,0 0,0 0,0 0,0 0,0 0,0 0,0 0,0 0,0 0,0 0,0 0,0 -1,0 -1,0 -1,0 0,0 0,0 0,0 0,0 0,0 0,0 0,0 0,0 0,0 0,0 0,0 0,0 0,0 0,1 0,1 0,0 0,0 0,0 0,0 0,0 0,0 0,0 0,0 -1,0 0,0 0,0 0,1 0,0 0,0 0,0 0,0 0,0 0,0 0,0 0,0 0,0 0,0 0,0 0,0 0,0 0,0 0,0 0,0 0,0 0,0 0,0 0,0 0,0 0,0 0,0 0,0 0,0 0,0 0,0 0,0 0,0 0,0 0,0 0,0 0,0 0,0 0,0 0,0 0,0 0,0 0,0 0,0 0,0 0,1 0,0 0,-1 -1,-1 0,1 0,1 0,1 0,0 0,0 0,0 0,0 0,0 0,0 0,0 0,0 0,0 0,0 0,0 0,0 0,0 0,0 0,0 0,0 0,0 0,0 0,0 0,0 0,0 0,0 0,0 0,0 0,0 0,0 0,0 0,0 0,0 0,0 0,0 0,0 0,0 0,0 -1,0 -1,0 0,0 -1,0 -1,0 0,0 0,0 0,-1 0,0 0,0 0,0 0,0 0,0 0,0 0,0 0,0 0,0 0,0 0,0 0,0 0,0 -1,0 -1,0 0,0 0,0 0,0 0,0 0,0 0,0 0,0 0,0 0,0 0,0 0,0 0,0 0,0 0,0 0,0 0,0 0,0 0,0 0,0 0,0 0,0 0,0 0,0 0,0 0,-1 0,-1 0,-1 0,0 0,0 0,0 0,0 0,0 0,0 0,0 0,0 0,0 0,0 0,0 0,0 0,0 0,0 0,0 0,0 0,0 0,0 0,0 0,0 0,0 0,0 0,-1 0,-1 -1,0 0,0 0,0 0,0 0,0 0,0 0,0 0,0 -1,0 0,0 0,0 0,0 0,0 0,0 0,0 0,0 0,0 0,0 0,0 0,0 0,0 0,0 0,0 0,0 0,0 0,0 0,0 0,0 0,0 0,-1 0,0 0,0 0,0 0,0 0,0 0,0 0,0 0,0 0,0 0,0 0,0 0,0 0,0 0,0 0,0 0,0 0,0 0,0 0,0 0,0 0,0 0,0 0,0 0,0 0,0 0,0 0,0 0,0 0,0 0,0 0,0 0,0 0,0 0,0 0,0 0,0 0,0 0,0 0,0 0,-1 0,-1 0,-1 0,0 0,0 0,0 0,0 0,0 0,0 0,0 0,0 0,0 0,0 0,0 0,0 0,0 0,0 0,0 0,0 0,0 0,0 0,0 0,0 0,0 0,0 0,0 0,-1 0,0 0,0 1,0 0,0 0,0 0,0 0,0 0,0 0,0 0,0 0,0 0,0 0,0 0,0 0,0 0,0 0,0 0,0 0,0 0,0 0,0 0,0 0,0 0,-1 0,0 0,0 0,0 0,0 0,0 0,0 0,0 0,0 0,0 0,0 0,0 0,0 0,0 0,0 0,0 0,0 0,0 0,0 0,0 0,0 0,0 0,0 0,0 0,0 0,0 -1,0 -1,0 0,0 0,0 0,0 0,0 0,0 0,0 0,0 0,0 0,-1 0,0 0,0 0,0 0,0 0,0 0,0 0,0 0,0 0,0 0,0 0,0 0,0 0,0 0,0 0,0 0,0 0,0 0,0 0,0 0,0 0,0 0,0 0,0 0,0 0,0 0,0 0,0 0,0 0,0 0,0 0,0 0,0 0,0 0,0 0,0 0,0 0,0 0,0 0,0 0,0 0,0 0,0 0,-1 0,-1 0,-1 0,0 0,0 0,0 0,0 0,0 0,0 0,0 0,0 0,0 0,0 0,0 0,0 0,0 0,0 0,0 0,0 0,0 0,0 0,0 0,0 0,0 0,0 0,0 0,0 0,0 0,0 0,0 0,0 0,-1 0,-1 0,0 0,0 0,0 0,0 0,0 0,0 0,0 1,0 1,0 0,0 0,0 0,0 0,0 0,0 0,0 0,0 0,0 0,0 0,0 0,0 0,0 0,0 0,0 0,0 0,0 0,0 0,0 0,0 0,0 0,-1 0,0 0,0 0,1 0,-1 0,-1 0,-1 0,0 0,0 0,0 0,0 0,0 0,0 0,0 0,-1 0,-1 0,0 0,0 0,0 0,0 0,0 0,0 0,0 0,0 0,0 0,0 0,0 0,0 0,0 0,0 0,0 0,0 0,0 0,0 0,0 0,0 0,0 0,0 0,0 0,0 0,0 0,0 0,0 1,0 1,0 1,0 0,0 0,0 0,0 0,0 0,0 0,-1 0,0 0,0 0,1 0,-1 0,-1 0,-1 0,0 0,0 0,0 0,0 0,0 0,0 0,0 0,0 0,0 0,0 0,0 0,0 0,0 0,0 0,0 0,0 0,0 0,0 0,0 0,0 0,0 0,0 0,0 0,0 0,0 0,0 0,0 0,0 0,0 1,0 0,0 0,0 0,0 0,0 0,0 0,0 0,0 0,0 0,0 0,0 0,0 0,0 0,0 0,0 0,0 0,0 0,0 0,0 0,0 0,0 0,0 0,0 0,0 0,-1 0,0 0,0 0,1 0,-1 0,-1 0,-1 0,0 0,0 0,0 0,0 0,0 0,0 0,0 0,0 0,0 0,0 0,0 0,0 0,0 0,0 0,0 0,0 0,0 0,0 0,0 0,0 1,0 0,0 0,0 0,0 0,0 0,0 0,0 0,0 0,0 0,0 0,0 0,0 0,0 0,0 0,0 0,0 0,0 0,0 1,0 0,0 0,0 0,0 0,0 0,0 0,0 0,0 0,0 0,0 0,0 0,0 0,0 0,0 0,0 0,0 0,0 0,0 1,0 0,0 0,0 0,0 0,0 0,0 0,0 0,0 0,0 0,0 0,0 0,0 0,0 0,0 0,0 0,0 0,0 1,0 1,0 0,0 0,0 0,0zm6 -4c0,0 0,0 0,0 0,0 0,0 0,0 0,0 0,0 0,0 0,0 0,0 0,0 0,0 0,0 0,0 0,0 0,0 0,0 0,0 0,0 0,0 0,0 0,0 0,0 1,0 1,0 1,0 0,1 0,1 0,1 0,0 0,0 0,0 0,0 0,0 0,0 0,0 0,0 0,0 0,0 0,0 0,0 0,0 0,0 0,0 0,0 0,0 0,0 0,0 0,0 0,0 0,0 0,0 0,0 0,0 0,1 0,1 0,0 0,0 0,0 0,0 0,0 0,0 0,0 0,0 0,0 0,0 0,0 0,0 0,0 0,0 0,0 0,0 0,0 0,0 0,0 0,0 0,0 0,0 0,0 0,0 0,0 0,0 0,0 0,0 0,0 0,0 0,0 0,0 0,0 0,0 0,0 0,0 0,0 0,0 0,0 0,0 0,0 0,0 0,1 0,1 0,1 0,0 0,0 0,0 0,0 0,0 0,0 0,0 0,0 0,0 0,0 0,0 0,0 0,0 0,0 0,0 0,0 0,0 0,1 0,0 0,0 0,0 0,0 0,0 0,0 0,0 0,0 1,0 -1,0 -1,0 -1,0 0,0 0,0 1,0 -1,0 -1,0 -1,0 0,0 0,0 0,0 0,0 0,1 0,1 0,0 0,0 0,0 0,0 0,0 0,1 0,0 0,0 0,0 0,0 0,0 0,0 0,0 0,0 0,0 0,0 0,0 0,0 0,0 0,0 0,0 0,0 0,0 0,0 0,0 0,0 0,0 0,0 0,0 0,0 0,0 0,0 0,0 0,0 0,0 0,0 0,0 0,0 0,0 0,0 0,0 0,0 0,0 0,0 0,0 0,0 0,0 0,0 0,0 0,0 0,0 0,0 0,0 0,0 0,0 -1,0 -1,0 0,0 0,0 0,0 0,0 0,0 0,0 0,0 0,0 0,0 0,0 0,0 0,0 0,0 0,0 0,0 0,0 0,0 0,0 0,0 0,0 0,0 -1,0 -1,0 -1,0 0,0 0,0 0,0 0,0 0,0 0,0 0,0 0,0 0,0 0,0 0,0 0,0 0,0 0,0 0,0 0,-1 0,-1 0,-1 0,0 0,0 0,0 0,0 0,0 0,0 0,0 0,0 0,0 0,0 0,0 0,0 0,0 0,0 0,0 0,0 0,0 0,0 0,0 0,0 0,0 0,0 0,0 0,0 0,0 0,0 0,0 0,0 0,0 0,0 0,0 0,0 0,0 0,0 0,0 0,0 0,0 0,-1 0,-1 0,0 0,0 0,0 0,0 0,0 0,0 0,0 0,0 0,0 0,0 0,0 0,0 0,0 0,0 0,0 0,0 0,0 0,-1 0,0 0,0 0,0 0,0 0,0 0,0 0,0 0,0 0,0 0,0 0,0 0,0 0,0 0,0 0,0 0,0 0,0 0,-1 0,0 0,0 0,0 0,0 0,0 0,0 0,0 0,0 0,0 0,0 0,0 0,0 0,0 0,0 0,0 0,0 0,0 0,-1 0,0 0,0 0,1 0,-1 0,-1 0,-1 0,0 0,0 0,0 0,0 0,0 0,0 0,0 0,0 0,0l0 0c0,0 0,0 0,0 0,0 0,0 0,0 0,0 1,-1 1,-1 0,0 0,0 0,0 0,0 0,0 0,0 0,0 0,0 0,0 0,0 0,0 0,0 0,0 0,0 0,0 0,0 0,0 0,0 0,0 0,0 0,0 0,0 0,0 0,0zm-16 9c0,0 0,0 0,0 0,1 0,1 0,1 0,0 0,0 0,0 0,0 0,0 0,0 0,0 0,0 0,0 0,0 1,0 1,0 0,0 0,0 0,0 0,0 0,0 0,0 0,0 0,0 0,0 0,0 0,0 0,0 0,0 0,0 0,0 0,0 0,0 0,0 1,0 1,0 1,1 0,0 0,0 0,-1 0,0 0,1 0,1 0,-1 0,-1 0,-1 0,0 0,0 0,0 0,0 0,0 0,0 0,0 1,0 1,1 0,0 0,0 0,0 0,0 0,0 0,0 0,0 0,0 0,0 0,0 0,0 0,0 0,0 0,0 0,0 0,0 0,0 0,0 0,0 0,0 0,0 0,0 0,0 0,0 0,0 0,0 0,0 0,0 0,0 0,0 0,0 0,0 0,0 0,0 0,0 0,0 0,0 0,0 0,0 0,0 0,0 0,1 0,0 0,0 0,0 0,0 0,0 0,0 0,0 0,0 0,0 0,1 0,1 0,1 0,0 0,0 0,0 0,0 0,0 0,0 0,0 0,0 0,0 0,0 0,0 0,0 0,0 0,0 0,0 0,0 0,0 0,0 0,0 0,0 0,0 0,0 -1,0 -1,0 0,0 0,0 0,0 0,0 0,0 0,0 0,0 0,0 0,0 0,0 -2,-1 -2,-1 0,0 0,0 0,0 0,0 0,0 -1,0 0,0 0,0 0,0 0,0 0,0 0,0 0,0 0,0 0,0 0,0 0,0 0,0 0,0 -1,0 -1,0 0,0 0,0 0,0 0,0 0,0 0,0 0,0 0,0 0,0 0,0 0,0 0,0 0,0 0,0 0,0 -1,0 -1,0 -1,0 0,0 0,0 0,0 0,0 0,0 0,0 0,0 0,0 0,0 0,0 0,0 0,0 0,0 0,0 -1,0 0,0 0,0 0,0 0,0 0,0 0,0 0,0 0,0 0,-1 0,0 0,0 0,0 0,0 0,0 0,0 0,0 0,0 0,0 0,0 0,0 0,0 0,0 0,0 0,0 0,0 0,0 0,0 0,0 0,0 0,0 0,0 0,0 0,0 0,0 0,0 0,0 0,0 0,0 0,0 0,0 0,0 0,0 0,0 0,0 0,0 0,0 0,0 0,0 -1,0 -1,0 -1,0 0,0 0,-1 0,-1 0,0 0,0 0,0 0,0 0,0 0,0 0,0 0,0 0,0 0,0 0,0 0,0 0,0 0,0 0,0 0,0 0,0 0,0 0,0 0,0 0,0 0,0 0,0 0,0 0,0 0,0 0,0 0,0 0,0 0,0 0,0 0,0 0,0 0,0 0,0 0,0 0,0 0,0 0,0 -1,0 0,0 -1,0 0,0 0,0 0,0 0,0 0,0 0,0 0,-1 0,-1 0,-1 0,0 0,0 0,0 0,0 0,0 0,0 0,0 0,0 0,0 0,0 0,0 0,0 0,0 0,0 0,0 0,0 0,0 0,0 0,0 0,0 0,0 1,0 1,0 1,0 0,0 0,0 0,0 0,0 0,0 0,0 0,0 0,0 0,0 0,0 0,0 0,0 0,0 0,0 0,0 0,0 1,0 1,0 0,0 0,0 0,0 0,0 0,0 0,0 0,0 0,0 0,0 0,0 0,0 0,0 0,0 0,0 0,0 1,0 1,0 1,0 0,0 0,0 0,0 0,0 0,0 0,0 0,0 0,0 0,0l3 0zm8 -16c0,0 0,0 0,0 0,0 0,0 0,0 0,0 0,0 0,0 0,0 0,0 0,0 0,0 0,0 0,0 0,0 0,0 0,0 0,0 0,0 0,0 0,0 0,0 0,0 0,0 0,0 0,0 0,0 0,0 0,0 0,0 0,0 0,0 0,0 1,0 1,1 0,0 0,0 0,0 0,0 0,0 0,0 0,0 0,0 0,0 0,0 0,0 0,0 0,0 0,0 0,0 0,0 0,0 0,0 0,0 0,0 0,0 0,0 0,0 0,0 0,0 0,0 0,0 0,0 0,0 0,0 0,0 0,0 0,0 0,0 0,0 0,0 0,0 0,0 0,0 0,0 0,0 0,1 0,0 0,0 0,0 0,0 0,0 0,0 0,0 0,0 0,0 0,0 0,0 0,0 0,0 0,0 0,0 0,0 0,0 0,0 0,0 0,0 0,0 0,0 0,0 0,0 0,0 0,0 0,0 0,0 0,0 1,0 0,0 0,0 -1,0 1,0 1,0 1,0 0,0 0,0 0,0 0,0 0,0 0,0 0,1 0,1 0,1 0,0 0,0 0,0 0,0 0,0 0,0 0,0 0,0 0,0 0,0 0,0 0,1 0,0 0,0 0,0 0,0 0,0 0,0 0,0 0,0 0,0 0,0 0,0 0,0 0,0 0,0 0,0 0,0 0,0 0,0 0,0 0,0 0,0 0,1 0,1 0,1 0,0 0,0 0,0 0,0 0,0 0,0 0,0 0,0 0,0 0,0 0,0 0,0 0,0 0,0 0,0 0,0 0,0 0,1 0,0 0,0 0,0 0,0 0,0 0,0 0,0 0,0 0,0 0,0 0,0 0,0 0,0 0,0 0,0 0,0 0,0 0,0 0,0 0,0 0,1 0,0 0,0 0,0 0,0 0,0 0,0 0,0 0,0 0,0 0,0 0,0 0,0 0,0 0,0 0,0 0,0 0,0 0,0 0,0 0,0 0,0 0,1 0,1 0,1 0,0 0,0 0,0 0,0 0,0 0,0 0,0 0,0 0,0 0,0 0,0 0,0 0,0 0,0 0,0 0,0 0,0 0,0 0,0 0,0 0,0 0,0 0,0 0,0 0,0 0,0 0,0 0,0 0,0 0,0 0,1 0,1 0,1 0,0 0,0 0,0 0,0 0,0 0,0 0,0 0,0 0,0 0,0 0,0 0,0 0,0 0,0 0,0 0,0 0,0 1,0 -1,1 -1,1 -1,1 0,0 0,0 1,0 -1,0 -1,0 -1,0 0,0 1,0 1,0 0,0 0,0 -1,0 1,0 1,0 1,0 0,0 -1,0 -1,0 0,0 0,0 0,0 0,0 0,0 0,0 0,0 0,0 0,0 0,0 0,1 0,1 0,0 0,0 0,-1 0,1 0,1 0,1 0,0 0,0 0,0 0,0 0,0 0,-1 0,0 0,0 0,0 0,0 0,0 0,0 -1,0 -1,0 -1,0 0,0 0,0 0,0 0,0 0,0 0,0 0,0 0,0 0,0 0,0 0,0 0,0 0,0 -1,0 -1,0 0,0 0,0 0,0 0,0 0,0 0,0 0,0 0,0 0,0 0,0 0,0 0,0 0,0 0,0 0,0 0,0 0,0 0,0 0,0 0,0 0,0 0,0 0,0 0,0 0,0 0,0 0,0 0,-1 0,-1 0,-1 0,0 0,0 0,0 0,0 0,0 0,0 0,0 0,0 0,0 0,0 0,0 0,0 0,0 0,0 0,0 0,0 0,-1 0,-1 0,0 0,0 0,0 0,0 -1,0 0,0 0,0 -1,0 -1,0 0,0 1,0 1,0 -1,0 -1,0 -1,0 0,0 0,0 0,0 0,0 0,0 0,0 0,0 0,-1 0,-1 0,0 0,0 0,0 0,0 0,0 0,0 0,0 0,0 0,0 0,0 0,0 0,0 0,0 0,0 0,0 0,0 0,0 0,0 0,0 0,0 0,0 0,0 0,0 0,0 0,0 0,0 0,0 0,0 0,0 0,0 0,0 0,0 0,0 0,0 0,-1 0,-1 0,0 0,0 0,0 0,0 0,0 0,0 0,0 0,0 0,0 0,0 0,0 0,0 0,0 0,0 0,0 0,-1 0,-1 0,-1 0,0 0,0 0,0 0,0 0,0 0,0 0,0 0,0 0,0 0,0 0,0 0,0 0,0 0,0 0,0 0,0 0,0 0,0 0,0 0,0 0,0 0,0 0,0 0,0 0,0 0,0 0,0 0,-1 0,0 0,-1 0,0 0,0 0,0 0,0 0,0 0,0 0,0 0,0 0,0 0,0 0,0 0,0 0,0 0,0 0,0 0,0 0,0 0,0 0,0 0,0 0,0 0,0 0,0 0,-1 0,0 0,0 0,0 0,0 0,0 0,0 0,0 0,0 0,0 0,0 0,-1 0,-1 0,0 0,0 0,0 0,0 0,0 0,0 0,0 0,0 0,0 0,0 0,0 0,-1 0,0 0,0 0,0 0,0 0,0 0,0 0,0 0,0 0,0 0,0 1,-1 1,-1 0,0 0,0 0,0 0,0 0,0 0,0 0,0 0,0 0,0 0,0 0,0 0,0 0,0 0,0 0,0 0,0 0,0 0,0 0,0 0,0 0,0 0,0 0,0 0,0zm-11 8c0,1 0,1 0,1 0,0 0,0 0,0 0,0 0,0 0,0 0,0 0,0 0,0 0,0 0,0 1,0 0,0 0,0 0,0 0,0 0,0 0,0 0,0 0,0 0,0 0,0 0,0 0,0 0,0 0,0 0,0 0,0 0,0 0,0 0,0 0,0 0,0 0,0 0,0 0,0 0,0 0,0 0,0 0,0 0,0 0,0 0,0 0,0 0,1 0,0 0,0 0,0 0,0 0,0 0,0 1,0 1,0 1,0 0,0 0,0 0,0 0,0 0,0 0,0 0,0 0,0 0,0 0,0 0,0 0,0 0,0 0,0 0,0 0,0 0,0 0,0 0,0 0,0 0,0 0,0 0,0 0,0 0,0 0,1 1,1 0,0 0,0 0,0 0,0 0,0 0,0 0,0 0,0 0,0 0,0 0,0 0,0 0,0 0,0 0,0 0,0 0,0 0,0 0,0 0,0 0,0 0,0 0,0 0,0 0,0 0,0 0,0 0,0 0,0 0,0 0,0 0,0 0,0 0,0 0,0 0,0 0,0 0,0 0,0 0,0 0,0 0,0 0,0 0,0 0,0 0,0 0,0 0,0 0,0 0,0 0,0 0,0 1,1 1,1 0,0 0,0 0,0 0,0 0,0 0,0 0,0 0,0 0,0 0,0 0,0 0,0 0,0 0,0 0,0 0,0 0,0 0,0 0,0 0,0 0,0 0,0 1,0 1,0 0,0 0,0 0,0 0,0 0,0 0,0 0,0 0,0 0,0 0,0 0,0 0,0 0,0 0,1 0,1 0,0 0,0 0,0 0,0 0,0 0,0 0,0 0,0 0,0 0,0 0,0 0,0 0,0 0,0 1,0 0,0 0,0 0,0 0,0 0,0 0,0 0,0 0,0 0,0 0,0 0,0 0,0 0,0 0,0 0,0 0,0 0,0 0,0 0,0 0,0 0,0 0,0 1,0 1,0 0,0 0,0 0,0 0,0 0,0 0,0 0,0 0,0 0,0 0,0 0,0 0,0 0,0 0,0 0,1 0,0 0,0 0,0 0,0 0,0 0,0 0,0 0,0 0,0 0,0 0,0 0,0 -1,0 -1,1 -1,1 0,0 0,0 0,0 0,0 0,0 0,0 0,0 0,0 0,0 0,0 0,0 0,0 0,0 0,0 0,0 0,0 0,0 0,0 0,0 0,0 0,0 0,0 0,0 0,0 0,0 0,0 0,0 0,0 0,0 0,0 0,0 0,1 0,1 0,0 0,0 0,0 -1,-1 -1,-1 -1,-1 0,0 0,0 0,0 0,0 0,0 -1,0 0,0 0,0 0,0 0,0 0,0 0,0 0,0 0,0 0,0 0,0 0,0 0,0 0,0 0,0 0,0 0,0 0,0 0,0 0,0 0,0 0,0 0,0 -1,0 -1,0 0,-1 0,-1 0,-1 0,0 0,0 0,0 0,0 0,0 0,0 0,0 0,0 0,0 0,0 0,0 0,0 -1,0 -1,0 -1,0 0,0 0,0 0,0 0,0 0,0 0,0 0,0 0,0 0,0 0,0 0,0 0,0 0,0 0,0 0,0 -1,0 -1,0 -1,0 0,0 0,0 0,0 0,-1 0,-1 0,-1 0,0 0,0 0,0 0,0 0,0 0,0 0,0 0,0 0,0 0,0 0,0 0,0 0,0 0,0 0,0 0,0 0,0 0,0 0,0 0,0 0,0 -1,0 -1,0 -1,0 0,0 0,0 0,0 0,0 0,0 0,0 0,0 0,0 0,0 0,0 0,0 0,0 0,-1 0,-1 -1,-1 0,0 0,0 0,0 0,0 0,0 0,0 0,0 0,0 0,0 0,0 0,0 0,0 0,0 0,0 0,0 0,0 0,0 0,0 0,0 0,0 0,0 0,0 0,0 0,0 0,0 0,0 0,0 -1,0 -1,0 -1,0 0,0 0,0 0,0 0,0 0,0 0,0 0,0 0,0 0,0 0,0 0,0 0,0 0,-1 0,-1 0,-1 0,0 0,0 0,0 0,0 0,0 0,0 0,0 0,0 0,0 0,0 0,0 0,0 0,0 0,0 0,0 0,0 0,0 0,0 0,0 0,0 0,0 0,0 0,0 0,0 0,0 0,0 0,0 0,0 0,0 0,0 0,0 0,0 0,0 0,0 0,0 0,0 0,0 0,0 0,0 0,0 0,0 0,0 0,0 0,0 0,0 0,0 0,0 0,0 0,0 0,0 0,0 0,0 0,0 0,0 -1,0 -1,0 -1,-1 0,0 0,0 0,0 0,0 0,0 0,0 0,0 0,0 0,0 0,0 0,0 0,0 0,0 0,0 0,0 0,0 0,0 0,0 0,0 0,0 0,0 0,0 0,-1 0,-1 0,0 0,0 0,0 0,0 0,0 0,0 0,0 0,0 0,0 0,0 0,0 0,0 0,0 0,0 0,0 0,0 0,0 0,0 0,0 0,0 0,0 0,0 0,0 0,0 0,0 0,0 -1,0 0,0 0,0 1,0 -1,0 -1,0 -1,0 0,0 0,0 0,0 0,0 0,0 0,0 0,-1 0,-1 0,-1 0,0 1,0 1,0 0,0 0,0 0,0 0,0 0,0 0,0 0,0 1,0 1,0 0,0 0,0 0,0l0 1c0,0 0,-1 0,-1 0,1 0,0 0,0 0,0 0,0 0,0 0,0 0,0 0,0 1,0 1,0 1,0 0,0 0,0 0,0 0,0 0,0 0,0 0,0 0,0 0,0 0,0 0,0 0,0 0,0 0,0 0,0 0,0 1,0 1,0 0,0 0,0 0,0zm2 -6c0,0 0,0 0,0 0,0 0,0 0,0 0,0 0,0 0,0 0,0 0,0 0,0 0,0 0,0 0,0 1,0 1,0 1,0 0,0 0,0 0,0 0,0 0,0 0,0 0,0 0,0 0,0 0,0 0,0 0,0 0,0 0,0 0,0 0,0 0,0 0,0 0,0 0,0 0,0 0,0 0,0 0,0 0,0 0,0 0,0 0,0 0,0 0,0 0,0 0,0 0,0 0,0 0,0 0,0 0,0 0,0 0,0 0,0 1,0 1,1 0,0 0,0 0,0 0,0 0,0 0,0 0,0 0,0 0,0 0,0 0,0 0,0 0,0 0,0 0,0 0,0 0,0 0,0 0,0 0,0 0,0 1,0 0,0 1,0 0,0 0,0 0,0 0,0 0,0 0,0 0,0 0,0 0,0 0,0 0,0 0,0 0,1 0,0 0,1 0,0 0,0 0,0 0,0 0,0 0,0 0,0 0,0 0,0 0,0 0,0 0,0 0,0 0,0 0,0 0,0 0,0 0,0 0,0 0,0 0,0 0,0 0,0 0,0 0,0 0,0 0,0 0,0 1,0 1,0 0,1 0,0 0,1 0,0 0,0 0,0 0,0 0,0 0,0 0,0 0,0 0,0 0,0 0,0 0,0 0,0 0,0 0,0 0,0 0,0 0,0 0,0 0,0 0,0 0,0 0,0 0,0 0,0 0,0 0,0 0,0 0,0 0,0 0,0 0,0 0,0 0,0 0,0 0,0 0,0 0,0 0,0 0,0 0,0 0,0 0,0 0,0 0,0 0,0 0,0 0,0 0,0 0,0 0,0 0,0 0,1 0,1 0,0 0,0 0,0 0,0 0,0 0,0 0,0 0,0 0,0 0,0 0,0 0,0 0,0 0,0 0,0 1,0 0,0 1,0 0,0 0,0 0,0 0,0 0,0 0,0 0,0 0,0 0,0 0,0 0,0 0,0 0,0 0,0 0,0 0,0 0,0 0,0 0,0 0,0 0,0 0,0 0,0 0,0 0,1 0,0 0,1 0,0 0,0 0,0 0,0 0,0 0,0 0,0 0,0 0,0 0,0 0,0 0,0 0,0 0,0 0,0 0,0 0,0 0,0 0,0 0,0 0,0 0,0 0,0 0,0 0,0 0,0 0,0 0,0 0,0 0,0 0,0 0,0 0,0 0,0 0,0 0,0 0,0 0,1 0,1 0,0 0,0 0,0 0,0 0,0 0,0 0,0 0,0 0,0 0,0 0,0 0,0 0,0 0,0 0,0 0,0 0,0 0,0 0,0 0,0 0,0 0,0 0,0 0,0 0,0 0,0 0,0 0,0 1,0 1,0 0,0 0,0 0,0 0,0 0,0 0,0 0,0 0,0 0,0 0,0 0,0 0,0 0,0 0,0 0,0 0,0 0,1 0,1 0,0 0,0 0,0 0,0 0,0 0,0 0,0 0,0 0,0 0,0 0,0 0,0 0,0 0,0 0,0 0,0 0,0 0,0 0,0 0,0 0,0 0,0 0,0 0,0 0,0 0,0 0,0 0,0 0,0 0,0 0,0 0,0 0,0 0,0 0,0 0,0 0,0 0,0 0,0 0,0 0,0 0,0 0,0 0,1 0,1 0,0 0,0 0,0 0,0 0,0 0,0 0,0 0,0 0,0 0,0 0,0 0,0 0,0 0,0 0,0 0,0 0,0 0,0 0,0 0,0 0,0 0,0 0,0 0,0 0,0 0,0 0,0 0,0 0,0 0,0 0,0 0,0 0,0 0,0 0,0 0,0 0,0 1,0 1,0 0,0 0,0 0,0 0,0 0,0 0,0 0,0 0,0 0,0 0,0 0,0 0,0 0,0 0,0 0,0 0,0 0,0 0,0 0,0 0,0 0,0 0,0 0,0 0,0 0,0 0,0 0,1 0,0 0,0 0,0 0,0 0,0 0,0 0,0 0,0 0,0 0,0 0,0 0,0 0,0 0,0 0,0 0,0 0,0 0,0 0,0 0,0 0,0 0,0 0,0 0,0 0,0 0,0 0,0 0,0 0,0 0,0 0,0 0,0 0,0 0,1 0,0 0,1 0,0 0,0 0,0 0,0 0,0 0,0 0,0 0,0 0,0 0,0 0,0 0,0 0,0 0,0 0,0 0,0 0,0 -1,0 0,0 0,0 0,0 0,0 0,0 0,0 0,0 0,0 0,0 0,0 0,0 0,0 0,0 0,0 0,0 0,0 0,0 0,0 0,0 0,0 0,0 0,0 0,0 0,0 0,0 0,0 0,0 0,0 0,0 0,0 0,0 0,0 0,0 0,0 0,0 0,0 0,0 0,0 0,0 0,0 0,0 0,0 -1,0 0,0 -1,0 0,0 0,0 0,0 0,0 0,0 0,0 0,0 0,0 0,0 0,0 0,0 0,0 0,0 0,0 0,0 0,0 0,0 0,0 0,0 0,0 0,0 0,0 0,0 0,0 0,0 0,0 0,0 0,0 0,0 0,0 0,0 0,0 0,0 0,0 0,0 0,0 0,0 0,0 0,0 0,0 0,0 0,0 0,0 0,0 0,0 0,0 0,0 0,0 0,0 0,0 0,0 0,0 0,0 0,0 0,0 0,0 0,0 0,-1 0,-1 0,-1 0,0 0,0 -1,0 1,0 1,0 1,0 -1,0 -1,0 -1,0 0,0 0,0 0,0 0,0 0,0 0,0 0,0 0,0 0,0 0,0 0,0 0,0 0,0 0,0 0,0 0,0 0,0 0,0 0,0 0,0 0,0 0,0 0,0 0,0 0,0 0,0 0,0 0,0 0,0 0,0 0,0 0,0 0,0 0,0 0,0 0,0 0,0 0,0 0,0 0,0 0,0 0,0 0,0 0,0 0,0 0,0 0,0 0,0 0,0 0,0 0,0 0,0 0,0 0,0 0,-1 0,-1 0,-1 0,0 0,0 0,0 0,0 0,0 0,0 0,0 0,0 0,0 0,0 0,0 0,0 0,0 0,0 -1,0 0,0 0,0 0,0 0,0 0,0 0,0 0,0 0,0 0,0 0,0 0,0 0,0 0,0 0,0 0,0 0,0 0,0 0,0 0,0 0,0 0,0 0,0 0,0 0,0 0,0 0,0 0,0 0,0 0,0 0,0 0,0 0,0 0,0 0,0 0,-1 0,-1 0,0 0,0 0,0 0,0 0,0 0,0 0,0 0,0 0,0 0,0 0,0 0,0 0,0 0,0 0,0 0,0 -1,0 -1,0 0,0 0,0 0,0 0,0 0,0 0,0 0,0 0,0 0,0 0,0 0,0 0,0 0,0 0,0 0,0 0,0 0,0 0,0 0,0 0,0 0,0 0,0 0,0 0,0 0,0 0,-1 0,-1 0,0 0,0 0,0 0,0 0,0 0,0 0,0 0,0 0,0 0,0 0,0 0,0 0,0 0,0 0,0 0,0 0,0 0,0 0,0 0,0 0,0 0,0 -1,0 -1,0 0,0 0,0 0,0 0,0 0,0 0,0 0,0 0,0 0,0 0,0 0,0 0,0 0,0 0,0 0,0 0,0 0,0 0,0 0,0 0,0 0,0 0,0 0,0 0,0 0,-1 0,-1 0,-1 0,0 0,0 0,0 0,0 0,0 0,0 0,0 0,0 0,0 0,0 0,0 0,0 0,0 0,0 0,0 0,0 0,0 0,0 -1,0 -1,0 -1,0 0,0 0,0 0,0 0,0 0,0 0,0 0,0 0,0 0,0 0,0 0,0 0,0 0,0 0,0 0,0 0,-1 0,-1 0,-1 0,0 0,0 0,0 0,0 0,0 0,0 0,0 0,0 0,0 0,0 0,0 0,0 0,0 0,0 0,0 0,-1 0,-1 0,-1 0,0 0,0 0,0 0,0 0,0 0,0 0,0 0,0 0,0 0,0 0,0 0,0 0,0 0,0 0,0 0,0 0,0 0,0 0,0 0,0 0,0 0,0 0,0 0,0 0,0 0,0 0,0 0,0 0,0 0,0 0,0 0,0 0,0 0,0 0,0 0,-1 0,0 0,0 0,0 0,0 0,0 0,0 0,0 0,0 0,0 0,0 0,0 0,0 0,0 0,0 0,0 0,0 0,0 0,-1 0,0 -1,0 -1,0 0,0 0,0 0,0 0,0 0,0 0,0 0,0 0,0 0,0 0,0 0,0 0,0 0,0 0,0 0,0 0,0 0,-1 0,-1 0,0 0,0 0,0 0,0 0,0 0,0 0,0 0,0 0,0l0 -1c1,0 1,0 1,1z"/>
    </g>
   </g>
  </g>
  <polygon class="fil2" points="0,0 136,0 136,136 0,136 "/>
 </g>
</svg>
