<?xml version="1.0" encoding="UTF-8"?>
<!DOCTYPE svg PUBLIC "-//W3C//DTD SVG 1.1//EN" "http://www.w3.org/Graphics/SVG/1.1/DTD/svg11.dtd">
<!-- Creator: CorelDRAW X7 -->
<svg xmlns="http://www.w3.org/2000/svg" xml:space="preserve" width="33.8666mm" height="33.8666mm" version="1.1" style="shape-rendering:geometricPrecision; text-rendering:geometricPrecision; image-rendering:optimizeQuality; fill-rule:evenodd; clip-rule:evenodd"
viewBox="0 0 502 502"
 xmlns:xlink="http://www.w3.org/1999/xlink">
 <defs>
  <style type="text/css">
   <![CDATA[
    .fil2 {fill:none}
    .fil1 {fill:white;fill-opacity:0.211765}
    .fil0 {fill:url(#id3)}
   ]]>
  </style>
   <clipPath id="id0">
    <path d="M0 0l502 0 0 502 -502 0 0 -502z"/>
   </clipPath>
     <mask id="id1">
  <linearGradient id="id2" gradientUnits="userSpaceOnUse" x1="280.85" y1="332.788" x2="280.85" y2="167.053">
   <stop offset="0" style="stop-opacity:1; stop-color:white"/>
   <stop offset="0.639216" style="stop-opacity:-101.4; stop-color:white"/>
   <stop offset="1" style="stop-opacity:0; stop-color:white"/>
  </linearGradient>
      <rect style="fill:url(#id2)" x="-117" y="-11" width="795" height="521"/>
     </mask>
  <linearGradient id="id3" gradientUnits="userSpaceOnUse" x1="280.85" y1="104.903" x2="280.85" y2="394.937">
   <stop offset="0" style="stop-opacity:1; stop-color:#622522"/>
   <stop offset="1" style="stop-opacity:1; stop-color:black"/>
  </linearGradient>
 </defs>
 <g id="Capa_x0020_1">
  <metadata id="CorelCorpID_0Corel-Layer"/>
  <g>
  </g>
  <g style="clip-path:url(#id0)">
   <g>
    <polygon class="fil0" style="mask:url(#id1)" points="-115,509 677,509 677,-9 -115,-9 "/>
    <g id="_2699856344592">
     <path class="fil1" d="M441 329l4 -22c2,-4 7,-4 6,-5 -1,0 -7,-1 -9,-1l-9 0c-1,3 1,0 -2,4 2,0 1,0 2,0 -1,1 -2,2 -3,4 5,-4 7,-6 12,-5l-1 5c1,15 -8,13 -7,24l1 10c2,-3 3,1 4,1 2,-2 4,0 3,1 -1,3 -1,1 -1,4 1,3 1,9 0,13l7 1 -5 -17 5 17c1,8 4,10 -3,18 2,3 5,6 6,10l1 11c11,0 3,20 0,29l4 6c4,-3 5,2 10,-4 1,-1 1,0 3,-1 -1,-7 -3,-1 -3,-23 0,0 0,0 0,1 4,9 6,12 4,22 6,3 5,-4 10,-2l1 0c-2,-2 -2,-4 -3,-6l-1 -8c-3,-4 -5,-8 -7,-13l-4 -13 8 14c3,9 1,10 6,14 3,3 10,9 13,10 1,-1 2,-1 2,-2 0,-1 0,0 0,-1 -2,-4 -6,-7 -2,-10 4,2 7,6 10,8l0 -11 -16 -12 -10 -13 27 23c0,-2 2,-6 2,-8 -1,-1 -6,-2 -7,-3 -8,-4 -11,-8 -16,-13l-15 -20 -14 -21c-2,0 -2,0 -4,-1l9 14 8 15 -8 -11 -10 -18c-1,1 -1,1 -2,2l8 12 5 13c-2,-2 -3,-4 -5,-6l-9 -20c-2,0 -3,0 -4,-2 1,-1 2,-1 4,-1 1,-2 1,-2 4,0l-7 -13 0 1 1 7c-3,-2 -3,-5 -3,-8zm20 79l-9 -27 7 14 2 13zm-35 -2c2,1 4,6 7,10 1,1 8,8 9,9l0 0 -13 -9c0,1 2,3 2,5 -1,-1 -9,-10 -7,-16 1,1 1,0 2,1zm-65 -214c0,0 0,0 0,0 0,0 0,0 0,0zm19 23l-5 3c-4,3 -8,15 -13,14 -3,-5 2,-10 4,-13l-11 -6c-3,-2 -7,-1 -10,-3 -4,-2 -3,-4 -6,-6l19 7c11,8 5,9 14,1l-16 -22 -10 -13c10,5 8,2 15,15 -1,-2 -1,-10 -1,-12l4 17 9 15 6 -3c0,-3 -2,-5 -2,-8 -2,-14 -6,-13 -7,-21 3,2 5,5 6,8l1 -10 2 11 0 19 8 -1c0,-4 -5,-7 0,-22 1,-3 2,-6 3,-8l-1 10 6 -8c1,3 -7,15 -7,17l-1 11c2,0 3,0 5,0l4 3c8,7 6,2 10,5 2,0 1,1 2,1l-1 1c-7,5 -12,-5 -15,-6 -1,-1 -2,0 -4,-1l-4 3c3,1 5,4 6,6 -4,-2 -7,-1 -10,-4zm-17 130c-1,1 -1,2 -1,3 4,1 5,3 4,6l-2 12c-3,-3 2,-11 -1,-14l-4 8 -5 11c0,-1 1,-3 1,-5l-4 3 4 -8 5 -7c1,-1 2,-1 3,-2 -2,-1 -3,-2 -4,-3 -1,3 -2,4 -4,6l-1 -1c1,-2 4,-4 5,-5l-1 -3 -2 -1c-2,3 -15,15 -20,13 0,0 1,-1 2,-2l-9 1 3 -3 10 -2 9 -6c1,-1 2,-1 3,-2 -2,-1 -3,-3 -4,-4 -6,0 -17,12 -21,5 0,0 -1,0 1,0l7 -3c0,0 -5,2 -9,-2l0 0c2,0 4,0 6,0 2,0 4,2 6,2l10 -3c-1,-4 -9,-2 -11,-6 -1,-1 0,-1 -2,-2 -2,0 -11,1 -10,-5l12 4c1,1 1,0 2,0 2,0 4,1 6,1 3,1 5,2 6,4 1,-1 1,-3 2,-5 1,-4 2,-5 4,-9 1,2 1,7 0,9l-5 6c2,2 2,3 4,5 3,1 3,2 4,4 6,-4 6,-2 13,-3l-12 3zm60 48c7,2 7,-3 10,-2 -2,1 -4,2 -6,3 3,1 4,3 6,4 4,2 5,4 1,7 3,1 6,5 6,8 -2,-2 -3,-1 -5,-3 -1,-1 -5,-5 -6,-7 -5,-6 -5,-2 -10,-4l-3 -1 -2 0c-2,4 4,5 -4,18 0,-7 -2,-9 3,-18 -2,-1 -1,0 -5,-1l-8 -3c-2,0 -3,0 -4,-1l1 4c1,2 -1,11 -7,15l-5 2 8 -14 -4 1 3 -5c0,0 -2,-3 -1,-6 -4,-3 -8,-11 -8,-12l6 5c5,4 2,5 5,5 0,-1 -3,-4 -4,-5l-2 -6c6,4 8,10 9,11l4 1c1,-1 0,-5 0,-9l2 -9c0,2 1,7 1,8l-2 10c1,1 2,1 4,1 7,3 4,2 10,1 2,-2 2,-4 3,-7l7 -8c-1,1 -1,9 -7,14 -1,1 -1,1 -1,1 5,3 4,3 6,-1 3,-5 8,-8 9,-10 1,0 1,0 1,1 -6,11 -8,9 -11,12zm11 -71c2,-4 4,-3 4,-10 0,-2 1,-4 3,-6 -2,0 -1,0 -2,1 -12,10 -9,6 -10,20 -2,12 1,11 -2,13l2 20c3,1 -1,-2 9,0 0,-4 1,-12 -2,-16 -1,2 -2,3 -4,3 -2,-2 -1,-8 -1,-11 1,-7 0,-7 3,-14zm-10 1c3,-5 4,0 3,-11l-15 14c5,1 6,5 5,9 3,0 3,-4 8,0l1 -8c-1,2 -2,2 -3,5l1 -9zm-7 -7l12 -13c-6,0 -9,3 -14,8 -7,10 -7,6 -10,7 -1,0 -2,1 -4,0 -1,-1 -1,-3 -2,-4l-15 11c3,-7 9,-10 14,-13l0 -1 -4 -3c-6,1 -8,5 -11,7l-4 2 1 3 10 -6c-3,6 -16,12 -18,16 6,-2 8,1 11,-1 3,-3 8,-9 15,-11l-2 4c-2,4 -6,5 -9,10 -1,3 8,20 -6,24 -3,1 -7,0 -9,1 0,2 0,4 0,6 1,3 -1,3 -1,4 -2,3 -1,10 -6,11 -5,2 -2,1 -5,4l-12 5c-9,0 -6,-6 -6,-9 0,-4 -1,-5 2,-10 -3,0 -13,8 -18,5l-8 -10c-3,3 -11,-6 -9,-8 1,-3 1,-1 1,-5 0,-5 4,-6 4,-7 1,-2 0,-5 5,-8l-2 -3c-6,-8 -1,-11 3,-10 0,-2 2,-3 3,-2 0,-5 1,-5 3,-6 1,1 2,1 3,2 3,2 5,0 7,1 2,1 4,8 7,6 3,-2 0,-13 10,-16 8,-3 8,-1 9,2 1,-1 1,-1 3,-2 3,-1 6,3 11,5 4,2 10,-9 18,-5l0 -1c-1,-1 -2,-1 -4,-2 0,-2 1,-3 2,-4 7,-4 16,-1 21,-4 3,-1 5,-1 6,-1 -8,-3 -6,-5 -8,-6 -3,-2 -8,-3 -8,-6 0,-3 2,-3 0,-5 -13,-13 -12,-10 -20,-24 -3,0 -4,-1 -6,-1 -5,0 -10,13 -22,0 -7,-7 -2,-14 -1,-17l-8 -1c-6,-3 -10,2 -15,5 -11,4 -13,-4 -15,-6 -3,-4 -4,-8 -2,-12l0 -7c-1,-8 5,-6 7,-10 4,-11 11,-5 16,-9l-5 -7c-4,-10 2,-13 4,-17 3,-6 4,-12 13,-8 10,6 8,-4 21,3 5,-10 7,-3 15,-6l6 -1c13,0 22,12 16,23 -3,7 -5,7 -7,14 -1,4 -2,5 4,6 4,0 7,2 10,3 10,2 7,5 7,18 0,11 -8,11 -9,15l-6 7 2 6c3,6 3,13 8,16l3 -1c6,3 4,7 6,11 2,6 1,9 5,13l9 4c38,5 23,12 46,26 5,2 26,11 31,13l-20 -13c-8,-3 -11,-7 -17,-12l-11 -10c5,3 18,14 29,18l1 -1c40,23 83,41 127,52l3 10 -13 -1 0 0c-7,-2 -17,-3 -20,5 -28,-10 -56,-23 -82,-39l-5 -1c-11,-4 -25,-14 -35,-21 -9,-7 -12,-15 -23,-12l-5 14 4 8c2,3 3,6 5,9 1,3 2,1 8,7 19,20 10,14 18,26l17 21c5,3 10,1 12,6 2,4 -1,7 -2,11l0 13c-3,4 -7,-1 -9,-2 3,7 -1,5 -2,9 -2,5 -10,-4 -13,-6 1,2 3,5 3,7 -2,4 -6,0 -9,2 -2,2 -3,3 -6,2 -2,-1 -2,0 -4,2 -3,4 -6,1 -10,3 -4,1 -6,-1 -7,-5 -1,-2 0,-1 -2,-2 -2,-1 -1,-1 -2,-2 0,1 -1,4 -2,5 -2,2 -2,1 -4,0 -1,-1 -1,0 -3,1l-11 5c-4,2 -4,-1 -7,-1 -6,0 -17,-9 -21,-15 -1,1 -1,1 -2,1l-10 -1c-1,-1 -4,1 -5,1 -7,0 -5,-3 -6,-7 -2,-7 -6,-6 -8,-10 -4,-8 11,-12 15,-16 -2,-1 -2,-1 -3,-2l-6 -2c-5,-3 -6,-4 -4,-11 1,-4 0,-7 2,-11 2,-3 3,-2 5,-4 1,-2 2,-3 3,-4 2,-1 2,0 3,-1 2,-2 3,-5 5,-5 3,-1 1,-1 3,-3 4,-2 6,1 9,-1 2,-1 3,-1 4,0 3,-13 6,-14 6,-17 0,-3 -1,-2 -3,-3 -7,-4 9,-13 11,-15zm7 27c0,-3 2,-4 -1,-5 1,4 1,7 -1,11 0,3 5,7 3,11l1 0c1,-2 0,-4 0,-5 -1,-5 -1,-7 -2,-12zm-13 -12l0 0c0,0 0,0 0,0zm1 1c0,0 -1,0 -1,-1l1 1zm10 19c0,-1 -4,-7 0,-14 -2,0 -2,3 -7,3 0,1 -1,5 -2,6l0 -6c1,-3 1,0 0,-4l-1 -4c0,0 0,0 0,1 0,2 -2,3 -2,5l-2 13c-1,5 -1,5 1,5 1,-3 -1,-1 2,-8 2,2 2,6 0,9 7,3 3,9 4,13l3 -9c-2,-2 -1,-7 -1,-10 2,3 3,6 2,9l3 0c0,-1 0,0 0,-1l0 -8zm10 14c-6,3 -4,-1 -10,-1 -4,1 -1,1 -5,10 0,2 -2,9 -5,7 -4,-2 -1,-17 -2,-19 -1,-2 -10,-2 -9,-7 -1,0 0,0 -2,1l-5 0c-2,0 -1,3 -6,3 -3,6 -5,4 -7,5 -1,1 -2,2 -3,3 -3,3 -5,1 -5,9 1,5 -3,9 -1,10l5 2c3,2 3,4 5,4 2,1 4,0 5,1 -1,2 0,3 -3,5l-12 11c2,3 8,10 7,14l10 -1c4,1 2,0 5,0l5 1c1,-3 2,-3 1,-5l4 -15c5,2 0,9 0,16 0,3 -1,3 -3,5l11 10 8 3 4 0c2,-1 5,-3 8,-3 5,-1 3,-4 6,-4 3,0 3,3 4,4 1,-1 1,-2 1,-4l0 -2c4,-2 5,2 6,3 1,-2 1,-4 2,-6 7,-22 3,-17 -1,-19 -5,-2 -3,-4 -5,-5 -4,-2 -10,-3 -10,-7 -1,-5 2,-7 4,-9 0,-1 0,-2 2,-5 2,-5 4,-2 3,-12 -1,0 -3,1 -4,0 -2,-1 -5,-4 -8,-3zm-15 -62c11,-8 15,-3 17,-4 0,-1 0,0 0,-1 -2,0 -2,0 -3,0l-4 -3 1 -1c-3,-2 -5,-8 -5,-11 -1,-2 -2,-4 -2,-6 0,-2 -1,-9 -4,-5 -2,3 -2,1 -3,3 -1,0 -2,4 -5,3 0,2 0,2 -1,4 13,7 6,6 10,8 5,2 9,2 9,7 -4,1 -2,1 -7,2 -5,1 -3,1 -6,2l-17 3c1,1 1,1 1,3 5,2 3,4 5,8 1,-1 1,-1 2,-1 3,-1 3,1 6,-5l-4 2c3,-6 8,-6 10,-8zm-52 -51c2,2 5,-5 12,-5 0,-1 -8,-13 -4,-22l3 17 2 5c7,0 7,5 4,-8 -2,-8 0,-2 -1,-9l2 -1 -2 -4 4 4c3,2 2,2 3,3 2,1 3,-2 8,4l8 5c1,-2 2,-3 3,-5 3,-6 8,-4 8,-11l1 -12c-3,-1 -8,-3 -11,-4 -8,-2 -15,1 -11,-14 2,-8 4,-7 7,-14 2,-3 1,-8 0,-10 -1,-2 -5,-4 -8,-5 -4,-1 -6,0 -9,1 -4,1 -8,-1 -8,0 -6,12 -3,5 -12,3 -5,-1 -5,4 -14,2 -6,-2 -4,-6 -8,3 -2,4 -5,3 -6,12 0,5 5,3 4,8 -1,3 1,6 -5,7 -11,1 -6,2 -9,7 -2,4 -3,3 -6,5 2,2 2,3 1,6 -3,10 -2,5 2,12 0,2 0,3 4,2 6,-1 10,-7 17,-6l6 2c1,1 4,-2 6,0 2,0 3,3 3,4 2,6 -5,11 1,15 2,2 1,2 2,1 -2,-4 2,-6 5,-13 1,6 -3,12 -4,14l2 1zm7 85c-3,1 -9,0 -5,-8 4,-8 8,-2 8,-11 -6,-4 -4,-2 -9,-6 -5,3 -6,2 -8,-2 -13,0 -4,13 -11,18 -8,5 -13,-6 -13,-6 -1,0 -4,1 -6,-2 0,0 1,5 -4,4 -1,1 -1,4 -5,3l3 6c2,0 2,-2 10,2 -3,2 -4,1 -6,1 -7,1 -3,10 -9,11 -5,1 -1,2 -5,9 6,8 8,-1 12,9 1,2 3,0 4,4 4,2 11,-2 16,-5 2,-1 2,-6 8,-7 -2,3 0,1 -3,7l-2 10c-1,2 1,3 -1,9l9 -2c2,-1 5,-6 8,-6 1,-2 2,-6 3,-8 1,-4 2,-3 2,-6 0,-14 11,-4 15,-12 2,-4 1,-4 0,-7l0 -7c-2,0 -2,1 -4,1l-7 1zm74 60l0 -4c-2,-6 -1,-10 -1,-11 -1,2 -1,3 -2,4 -2,5 -9,6 3,11zm-35 -126c0,-1 -8,-20 -6,-25 -1,0 -1,0 -2,0 0,1 1,2 0,5 -1,-1 -2,-4 -1,-5 -3,-1 -5,-3 -7,-4l4 11c0,-1 -1,-1 -2,-2l-6 -14c-1,0 -3,1 -4,0l6 9 5 10c-7,-4 -7,-7 -9,-9 1,2 0,3 -1,4 2,1 3,2 2,4 -2,-1 -2,-1 -3,-2 -2,1 -2,0 -2,1l16 15c1,1 2,3 4,5l2 -1c-1,-1 -13,-12 -14,-16 10,5 13,15 16,16l1 -2c-3,-4 -8,-9 -9,-18l10 18zm-1 56l0 0c-1,1 -2,1 -2,1 0,0 0,1 1,1 1,-2 1,-1 1,-2z"/>
     <path class="fil1" d="M21 448l-1 2c0,1 0,-1 1,-2zm7 -176l0 0c0,0 0,0 0,0zm45 38l-1 0c0,0 1,0 1,0zm-71 13l0 0c0,0 0,0 0,0zm72 -33c-1,0 -1,-1 -1,0 0,0 2,-1 1,0zm-4 -41l-1 0c0,-1 0,-1 1,-1l0 1zm4 47c1,-2 2,-2 3,-3 1,0 1,0 2,0 4,-2 4,-1 11,0 -1,1 -1,0 -3,2 -8,3 -6,0 -12,1 0,0 0,0 -1,0zm0 0c0,0 -2,0 0,0 0,0 0,0 0,0zm-11 40l-5 0c-1,0 -1,-1 -1,0l-2 0c0,-1 0,-1 -1,-2l-1 -2c0,0 0,-1 0,-1l-1 -3c2,2 5,1 7,3 1,1 4,4 4,5zm8 -4c-6,0 -10,0 -13,-7 6,1 7,-1 11,4 1,1 1,1 2,3zm-67 -19c-2,0 -1,1 -3,1 -1,1 -1,1 -5,3 -4,2 -5,2 -7,1 0,-1 0,-1 0,-2 0,-1 5,-3 7,-3 1,-1 2,0 4,-1 0,0 1,0 2,0 0,0 0,0 2,0l0 1zm-8 7c0,-2 1,-2 2,-3 3,-1 2,-1 5,-1 3,-1 1,-1 6,0 -2,3 -3,4 -6,5 -2,0 -8,2 -7,-1zm79 6c-5,-1 -7,2 -13,-5 0,-1 0,-1 0,-2 5,1 7,1 11,5 1,1 2,1 2,2zm-39 9l0 1c-1,1 0,0 -1,1 -1,1 -1,1 -1,2 -1,1 -2,1 -3,1 -6,-4 -1,-8 3,-10 0,0 0,1 0,1l1 2c1,2 0,1 1,2zm7 -60c-1,0 -1,0 -2,0 -1,0 -2,-2 -2,-2 0,-2 1,-3 1,-4 1,0 3,-9 7,-8 2,0 -1,3 -2,6l-1 4c-1,2 -1,2 -1,4zm39 42l0 0c-2,0 -8,3 -13,-2l-2 -1c0,-1 1,0 0,0l0 -1c-1,-1 0,1 0,-1 2,1 2,0 8,1 4,0 4,3 7,4zm5 -8l-3 1c-4,2 -9,1 -12,-1l-1 0c0,-1 1,0 0,-1l0 -1c1,0 1,0 1,-1l2 0c5,0 2,0 8,0 2,1 3,2 5,3zm1 -8c-4,4 -7,3 -12,3 -1,0 -3,1 -3,-1 0,0 -1,1 0,0 1,-1 0,0 1,-1 -2,0 -2,-1 -4,-1l2 -1c2,-1 2,-1 3,-1 0,0 0,0 0,0l1 0c0,0 0,-1 0,-1l2 0c2,0 0,-1 2,0 3,0 4,0 6,1l2 2zm-79 24c3,-2 2,-2 8,-1 0,1 -1,8 -7,7 -1,0 -2,-1 -2,-2 -1,-1 0,-1 0,-3 -6,2 -6,-4 -2,-5 1,-1 3,0 5,-1 -1,1 -1,3 -2,5zm44 16c-6,-1 -6,-3 -9,-5 0,2 1,0 2,2 0,2 0,2 0,3 -1,0 -1,0 -2,-1l-2 -3c0,1 0,1 0,2 -1,0 0,1 -2,-1 -3,-3 0,-6 0,-7 1,1 1,2 2,3 0,0 0,0 0,1l1 -2c0,-1 1,-1 1,-4 2,2 1,1 2,1l1 1c2,2 3,2 5,7 0,1 1,2 1,3zm-25 -8c0,3 -4,7 -6,3 -1,0 -1,-1 -1,-2 -2,0 -2,1 -4,1 -1,-2 -1,-5 0,-6 1,-1 2,-2 3,-2 1,0 2,-1 3,-1l0 3c2,0 3,-3 5,-2 1,0 0,6 0,6zm34 -142c0,5 -2,7 -2,10 -1,2 -1,4 -1,6l-1 12c-1,3 -1,2 -2,4 -2,-1 -3,-2 -2,-6 1,-7 2,-20 5,-26 1,-1 1,-2 3,-2 0,1 1,1 0,2zm-67 34c-5,-1 -8,-4 -12,-8 -5,-5 -7,-13 -5,-13 2,1 4,3 5,5l10 9c2,3 1,4 2,7zm40 -20c-2,9 -2,5 -3,8 -1,0 -1,0 -2,-1 -1,-3 -1,-4 0,-7 0,-2 0,-22 5,-22 3,1 1,8 1,11 -1,4 -1,7 -1,11zm-13 11c0,1 -1,1 -2,1 -3,0 -1,-1 -4,-4 -1,-1 -3,-3 -4,-7 -1,-3 -3,-8 -3,-11 0,-3 0,-3 1,-4 1,1 2,2 2,3l4 5c1,1 6,15 6,17zm-47 30c-1,2 -2,1 0,2 -2,0 -3,0 -5,-1 -5,-1 -12,-7 -16,-11 -2,-1 -4,-4 -4,-6 2,0 2,0 3,1 5,5 4,2 7,4l6 4c1,0 1,0 1,0 1,1 0,1 2,2 2,1 2,1 3,2 1,0 3,2 3,3zm-21 36l-5 1c-3,0 -3,0 -5,0 -2,0 -1,0 -3,-1 -4,-1 -8,-1 -12,-2 -2,0 -2,0 -3,-2 1,-1 2,-1 7,-2 5,-1 12,-1 18,1 1,1 1,1 2,2 0,1 1,1 1,3zm17 -27c-2,3 -4,2 -7,1 -6,-1 -4,-1 -6,-1 -5,-2 -1,0 -5,-3 -6,-4 -8,0 -10,-5 3,-3 13,-1 16,0 3,3 10,5 12,8zm38 -36c-1,-1 -2,-2 -3,-3 -1,-1 -2,-1 -3,-2 -6,-5 -8,-11 -10,-18 0,-1 -1,-3 1,-2l9 9c3,2 3,4 5,7l3 5c1,2 0,4 -2,4zm-27 22c-2,0 -3,-1 -3,-2l-2 -2c0,0 0,0 0,0 -3,-3 -2,0 -6,-4 0,-1 0,-1 -1,-1 -3,-3 -9,-8 -8,-13 3,0 5,2 8,4 1,1 2,1 4,3 3,2 11,8 11,12 0,2 -2,3 -3,3zm-16 33c-2,2 -5,3 -8,3 -15,-3 -21,-10 -28,-13 0,-2 2,-1 5,-1 2,1 3,-1 5,0l10 1c1,0 9,5 11,7 1,1 0,0 1,1 1,0 3,1 4,2zm7 41c-1,0 0,0 -2,2 -1,1 -6,2 -8,3l-25 4c-1,1 -2,1 -3,1 -2,0 -2,0 -4,0 -4,0 -4,1 -6,1 2,-3 0,-2 4,-3 1,-1 2,-1 3,-1 1,-1 1,-1 2,-2 4,-1 9,-3 12,-3 5,-1 20,-6 24,-6 2,1 3,2 3,4zm-21 -20c0,1 0,1 -2,1 -1,0 -2,1 -4,0l5 3c0,2 -1,2 -4,2 -5,1 -11,1 -16,1l-6 -1c-3,0 -3,-1 -1,-2 3,-1 7,-3 9,-4l0 0c-2,-1 -3,-1 -5,-2l-6 -1c1,-3 12,-4 14,-4 8,1 5,1 10,4 1,0 3,1 4,1 1,1 2,1 2,2zm126 -90c0,2 -1,3 -1,5 0,1 0,3 0,5 -2,8 -3,13 -7,19 -1,2 -1,3 -2,4 -1,1 -2,0 -2,3 0,2 0,2 -1,4 -3,-1 -2,-6 -2,-8 0,-15 5,-26 13,-37 1,-1 1,-2 3,-2 0,1 -1,1 -1,3 0,1 0,2 0,4zm-143 137c-5,-1 -4,-5 2,-8 2,-1 4,-2 6,-4l19 -8c2,-1 2,-1 3,-2 6,-2 13,-2 20,-2 -4,4 -8,4 -10,6l-10 5c-1,0 -1,0 -1,0 -2,1 -1,0 -2,1 -1,0 0,0 -1,0 0,0 0,0 -1,1 -1,0 -1,0 -3,1 0,0 -1,0 -1,1 -2,0 -2,0 -5,1l-10 5c-2,1 -4,3 -6,3zm135 -94c1,-9 3,-8 4,-14l2 -7c1,-5 2,-3 3,-6l1 -2c0,0 0,0 0,0l2 -4c1,-2 5,-8 7,-10 3,-4 7,-4 8,-1 0,2 -1,3 -1,4 -2,6 -10,20 -13,25l-12 14c-1,1 1,0 -1,1zm-68 17c-3,-1 -5,-1 -7,-2 -3,-1 -3,-1 -5,-3 -4,-4 -5,-8 -7,-8 0,2 -1,5 -1,7 0,2 1,5 1,7 3,0 5,-3 12,-1l-4 1c-1,0 -2,1 -3,1 -1,1 -2,1 -3,1l-1 1c-6,3 -10,-8 -9,-13 1,-4 1,-6 3,-9 2,-3 4,-4 8,-3 3,0 6,6 7,9 2,3 1,0 7,4 1,2 2,2 4,3 1,1 5,1 6,2 1,2 -2,3 -3,3 -2,1 0,0 -2,0 -2,-1 -2,0 -3,0zm117 -53c-1,5 -11,15 -14,18l-14 18c-2,2 -3,4 -5,6 -2,2 -3,4 -5,5 0,-2 -1,0 1,-5 2,-4 1,0 4,-8 2,-7 9,-18 13,-24l8 -7c1,0 2,-1 3,-2 4,-2 7,-5 8,-2 0,0 1,1 1,1zm-166 167c-7,-6 17,-27 21,-31l14 -11c1,-1 2,-2 3,-3 5,-3 7,-6 13,-5 -1,4 -3,6 -5,8l-7 5c-7,5 -16,14 -22,20l0 0c-1,0 -1,0 -1,1l-4 4c0,0 0,0 0,0 -1,2 0,2 -2,3 -3,2 0,0 -2,3 -1,0 -1,1 -1,1l-1 1c0,0 0,0 0,0 -2,2 -2,1 -3,2 -2,2 -2,2 -3,2zm170 -8c-1,3 -6,3 -9,2 -8,-1 -19,-10 -26,-16 -2,-3 -9,-10 -10,-14 -1,-1 -1,-2 -2,-3 0,-2 -3,-4 -3,-7 3,3 2,2 3,3 0,0 1,1 1,1 2,1 11,6 21,15 4,4 7,6 12,10 2,1 5,3 7,4 2,1 6,3 6,5zm29 -128c-1,5 -2,5 -6,8 -3,2 -27,14 -30,15l-10 4c-1,1 -2,0 -6,2 -6,4 -5,2 -8,3 -1,0 -1,1 0,-1l-5 1c1,-2 6,-4 8,-5l12 -7c1,-1 3,-2 4,-3l11 -6c0,0 1,0 2,-1l4 -3c3,-2 8,-4 10,-6 2,-2 1,-1 4,-2 1,-1 1,-1 2,-2 5,-2 8,0 8,3zm12 10c0,1 -1,2 -3,3 -4,3 -6,4 -11,7l-10 6c-2,2 1,1 -7,4 -5,1 -4,2 -13,4 -6,2 -12,3 -19,5 -2,1 -5,1 -4,-1 0,-2 6,-3 8,-4 1,-1 1,-3 3,-3 1,-1 1,-1 2,-1 20,-14 20,-7 36,-15 2,-1 16,-7 17,-7 1,0 2,1 1,2zm-136 150l-2 16c-1,2 -2,1 -3,0l-2 -13c-2,-7 -1,-22 0,-29 0,-2 0,-3 0,-5l3 -15c1,-4 2,-6 3,-10 1,1 0,0 1,2 0,-3 0,-3 1,-5l0 0c1,1 1,2 1,3 1,10 1,15 0,25l-1 19c0,1 -1,3 -1,4 0,3 0,5 0,8zm54 6c0,3 -3,3 -3,2 -2,-1 -4,-3 -5,-5l-8 -10c-1,0 -1,-1 -1,-1l-2 -4c0,0 0,0 0,0 -2,-3 -3,-4 -5,-9l-3 -9c-1,-1 -1,-3 -2,-4 -1,-4 -1,-6 -3,-9 -1,-3 -7,-11 0,-10 -1,-1 -1,-1 -1,-2 2,1 2,2 3,3 1,2 1,2 3,3 2,4 2,5 3,8l7 11c3,6 7,14 10,20l5 12c1,1 2,3 2,4zm-77 -76c1,1 1,1 -1,4 -1,1 0,1 -1,2 0,5 -11,20 -14,25 -2,2 -1,2 -3,4 0,0 0,0 0,0l-2 3c0,0 0,0 0,0 0,0 0,0 0,0l-1 2c0,0 0,0 0,0 -1,2 0,1 -2,4 -2,2 -1,2 -2,4l-1 1c0,0 0,0 0,0 -1,1 -2,2 -4,4 -14,15 -4,-13 0,-19 3,-3 5,-7 8,-11 2,-3 7,-8 9,-10 1,-2 1,-2 2,-2l3 -3c4,-4 5,-4 8,-7 1,-2 1,-1 1,-1zm23 -109c-1,4 -6,12 -6,14 -1,2 0,6 1,8 0,1 0,1 0,3l0 2c0,0 1,0 1,0l0 6c0,3 0,-1 0,4 -5,-1 -4,-1 -5,-4 -1,0 -1,-1 -2,-2 -1,-3 -2,-9 -7,-9 -5,-1 -7,3 -15,2 -4,0 -4,-5 -4,-7 0,-1 2,-4 2,-5 2,-3 9,-8 12,-10 1,-1 4,-2 6,-3l4 -2c5,-2 14,-3 13,3zm48 38c-1,3 -1,6 -6,5 -3,0 -3,-1 -5,-2 -1,-1 -1,-1 -3,-1l-7 -3c-5,-3 -1,-3 -6,-3 -1,-1 -1,0 -1,0 0,0 0,0 0,0l-6 3c-1,1 0,0 -1,0l-1 1c0,0 -2,0 -3,0 0,0 -1,0 0,-3 0,-2 0,-1 1,-2 1,-2 1,-1 2,-3l1 0c0,0 0,0 0,-1 3,-2 3,-7 2,-10 -1,-3 -4,-8 0,-10 4,-2 5,-1 6,0 3,2 4,-1 10,7 1,2 1,2 2,3l2 3c2,2 1,1 2,3l4 4c0,0 0,0 0,0 1,1 1,1 2,1 2,2 5,5 5,8zm-26 -43c0,4 -5,3 -7,8 -4,6 -4,12 -6,18 -1,4 -3,10 -4,13 -1,2 -1,4 -4,3 -1,0 -1,-1 -1,-3 0,0 0,-1 0,-1 -1,-3 -1,-6 -1,-9 1,-6 1,-10 2,-16 1,-8 1,-12 5,-19 2,-3 4,-7 9,-6 3,0 4,2 5,4 2,3 3,4 2,8zm112 95c0,1 0,1 0,2 -6,0 -2,-1 -6,2 -2,2 -6,3 -9,3 -11,3 -27,3 -38,0 -12,-3 -11,-7 -20,-7 -2,0 -1,0 -2,-1 0,-1 0,0 1,-1 0,0 1,0 2,0 1,-1 2,-1 4,-1 1,0 2,-1 4,-1 4,0 19,0 23,1 3,0 3,0 5,0l10 1c5,0 9,1 14,0 2,0 13,-1 12,2zm-145 -44c-1,2 -4,2 -6,3 -1,1 -2,1 -3,2 0,0 0,0 -1,0 0,0 0,0 0,0l-14 8c-4,3 -7,6 -11,8l-6 4c-6,7 2,3 -4,9 -2,2 -2,2 -4,1 -2,0 -3,-2 -4,-3 -2,-3 -4,-2 -6,-8 -2,-4 -3,-9 3,-11 3,-1 6,-1 9,-1 3,-1 6,-3 11,-4 5,-2 10,-3 15,-6l2 -1c6,-3 12,-4 19,-1zm13 16c-1,4 -7,3 -10,1 -1,2 -1,3 -1,6 0,2 1,3 0,6 5,4 5,1 10,5 3,2 6,4 6,9 -1,1 -4,6 -4,7 -5,3 -12,-6 -14,-7l0 -1c0,0 0,0 0,0 -3,-1 -6,-2 -8,-3 -3,-3 -2,-1 -6,-3 -6,-3 -9,-1 -12,-6 -2,-2 -1,-3 2,-7 3,-4 7,-1 12,0 2,0 3,-10 9,-13 0,-1 -1,-6 4,-5 3,0 1,3 5,6 3,1 3,0 5,1 1,0 2,2 2,4zm48 1c-2,0 -2,1 -3,1 -5,1 -2,1 -6,3l-9 7c-2,1 -3,2 -4,3 1,2 8,10 2,17 -3,4 -9,3 -14,3 -3,-1 -1,-1 -3,-2l0 -1c-2,0 -2,-3 -2,-5 0,-1 0,-3 0,-4l0 -3c-1,-2 0,-1 -1,-3 -4,-6 -4,-8 -5,-12l-1 -2c0,0 0,0 0,-1 0,0 0,0 0,0l-1 -4c-1,-1 0,-1 -1,-2 -1,-1 0,-4 -1,-6 0,0 0,0 0,0 0,0 -1,-1 -1,-3 0,-1 0,0 1,-2 0,-1 -2,-5 0,-5 1,0 3,3 3,4 3,4 4,9 7,13 4,5 8,8 12,12 1,1 1,2 2,2 0,-3 2,-7 1,-10 -1,-1 -3,-4 -5,-5l-2 -1c0,0 -1,-1 -1,-1l-1 -2c0,0 -1,0 -1,0 -2,-5 6,-3 8,-3 1,0 6,3 13,4 2,0 0,-1 2,0l1 -1c1,0 1,-1 2,-1l2 -1c1,-1 2,-2 3,-4 1,-2 3,-4 4,-5 1,-1 2,-3 3,-4 2,-2 2,-4 4,-6l10 -10c4,-4 8,-7 13,-10l11 -4c1,-1 4,-1 6,-1 6,1 4,6 -1,8 -6,4 -13,5 -19,9 0,0 0,1 0,1 -4,3 -12,9 -15,13 -1,1 -2,2 -3,2 1,1 2,0 2,-1l6 -5c3,-2 4,-3 6,-5 2,-1 1,-1 3,-1 0,-2 3,-2 4,-3l5 -3c2,-2 1,-1 5,-3 3,-1 6,-2 9,0 1,2 0,2 -1,4l-3 3c0,2 -3,2 -5,4 -3,1 -6,3 -9,4 -1,1 -2,1 -3,2 -1,0 -1,1 -2,1 -3,2 -7,4 -10,6 -6,2 -6,2 -7,3 -2,0 -2,-1 -2,-3 0,0 0,0 0,0 0,1 -4,2 -5,3 -1,1 -2,1 -2,2 -1,0 -2,1 -3,2 6,2 0,9 -2,12 2,-1 -1,0 1,-1l0 0c3,-2 -1,-3 7,-4 1,0 2,-1 3,0 -1,1 -2,1 -2,2 -1,1 -2,2 -3,2l1 1c0,0 0,0 0,1l-3 1c0,0 0,0 -1,0 0,1 0,0 0,1l-3 0c1,-2 2,-2 4,-2l0 -1zm-10 52c1,1 1,2 2,3l26 40c1,1 9,12 9,14 3,-1 4,-1 6,2 2,2 4,3 5,4l3 2c1,1 4,3 5,4l5 2c0,0 1,1 2,2 3,1 12,3 16,4 1,1 2,1 4,2 -1,-2 -2,-2 -2,-3 -1,-1 -1,0 -1,-1l-3 -6c0,0 0,0 0,0l0 -1c0,0 0,0 0,0l-1 -1c0,-1 0,-3 -1,-4 -1,-1 -1,-2 -1,-3l-1 -2c0,0 0,-1 0,-1l0 -1c0,-1 0,0 1,-1 0,1 1,3 2,4l2 2c0,0 0,1 0,1l2 3c0,0 -1,0 1,0 0,1 0,1 0,1 0,0 0,0 0,1l1 0c0,1 -1,0 0,1 0,0 0,0 0,0l1 0c0,0 0,1 0,1 0,0 0,0 0,0 0,0 1,0 1,0 0,1 0,1 0,2 0,0 0,0 1,0l3 5c0,0 0,0 0,0l1 6c2,-1 1,-4 1,-5 -1,-2 0,-2 0,-4 0,0 -1,0 -1,0 0,0 0,0 0,0l-1 -9c0,-1 0,-1 0,-1l-1 -2c0,0 0,0 0,-1l-3 -12c0,-2 -1,-3 -2,-4l0 -2c0,0 0,-1 0,-1l-10 -20c-1,-2 -1,-2 -2,-3 -2,-2 -4,-3 -4,-6 1,-2 2,-2 3,-3 1,0 4,-1 5,-1 0,-1 0,-1 1,-2 -6,0 -8,3 -23,0 -5,-1 -10,-3 -14,-6 -9,-5 -9,-6 -15,-12l-1 -1 5 0c4,1 5,2 8,2l12 3c1,0 1,1 3,1 3,0 5,1 8,2 5,1 11,1 16,3 3,0 5,0 6,3 0,2 -2,3 3,5 0,-1 0,0 0,-1 3,0 2,-1 5,0 8,1 10,0 18,0 1,0 1,0 2,0 3,-1 5,-1 7,-2l2 -2c0,0 0,0 1,0 0,0 0,0 0,0l1 -1c1,-1 2,-1 3,-3 -1,0 -2,0 -3,0 -3,1 -6,0 -9,-2 -1,0 -2,0 -3,-1 -2,-2 -3,-2 -5,-4 -1,-1 -3,-1 -4,-1l0 -1c3,1 5,1 8,2 1,0 0,-1 1,-1 1,0 4,0 5,1 0,0 0,0 0,0l1 0c2,1 5,2 7,3 0,-2 -2,-3 -3,-4 0,0 0,0 -1,0l0 -1c0,0 -1,0 -1,0 0,-1 0,0 0,-2 -1,0 -1,0 -2,-1 -1,-1 -2,-1 -1,-3 -2,0 -1,1 -2,0 0,-1 0,0 0,-2 -2,-1 -3,-3 -4,-4l-15 -11c-3,-2 -5,-3 -8,-5 -1,1 -3,1 -5,2l-13 4 -11 2c-2,0 -7,-1 -10,-2 -3,0 -5,-1 -8,-2 -3,0 -3,0 -5,0 -1,-1 -1,-2 -1,-3 3,-3 8,-1 12,-2 8,-1 16,-2 24,-3l10 0c2,0 2,0 3,-1 -3,-1 -1,-4 0,-6 2,-1 3,-3 5,-5 1,0 1,0 2,-1 -1,-1 0,0 -2,-1 1,-1 1,0 2,-2l-7 2c-1,0 -1,0 -1,1l-3 1c0,1 -1,1 -1,1l-11 6c0,0 0,0 0,0 -1,0 -1,0 -1,0 0,0 0,0 -1,0 0,1 -1,0 -1,1 -6,1 -7,1 -13,2 -4,0 -8,0 -12,1 -1,0 -6,2 -5,-1 0,-3 7,-4 12,-7 19,-8 17,-6 36,-9 1,-1 6,-2 7,-3 1,0 1,-1 0,1 2,0 2,0 3,1l0 2c1,-2 1,-1 2,-2 1,-2 0,-2 2,-1 1,-2 0,-1 1,-2 1,0 -1,0 1,0l1 -1c1,0 2,0 2,-2 1,0 1,0 1,0l3 -2c0,0 0,0 0,0 0,0 0,0 0,0l3 -2c1,-2 4,-4 5,-6 1,-2 1,-4 2,-6 1,-3 1,-4 2,-6 1,-2 1,-5 1,-7l1 -2c0,0 0,0 0,0l1 -2c1,-1 0,-1 1,-1 1,-1 0,-1 1,-1 1,-1 0,0 0,-1l2 -2c1,-1 0,1 1,-1 -5,2 -9,2 -13,4 0,0 0,0 0,0l-2 1c-2,1 -9,6 -11,8 -1,1 -2,2 -3,3 -2,1 -4,0 -4,-2 0,-3 6,-8 7,-9 3,-4 8,-5 10,-7 -17,-3 -21,5 -32,5l-5 0c1,-1 1,-1 2,-1 1,-1 1,-2 2,-2 4,-5 8,-5 13,-8 4,-1 8,-1 11,-2 5,-2 13,2 23,1 3,0 6,-1 10,-1 1,0 2,-1 4,-1 3,0 7,-2 10,-1 5,2 1,6 -1,9 -1,2 -7,4 -9,6 -4,3 -10,7 -12,12l-1 8c-1,2 -3,6 -3,7l-3 5c-2,5 -8,7 -12,11 -3,3 -8,7 -11,8 -4,2 -1,-1 -5,4 0,1 -1,1 -2,2 2,1 9,1 8,4 0,2 0,1 0,2 3,1 4,3 6,4l9 4c1,1 1,2 2,3l2 2c1,0 2,1 3,2 5,4 9,8 14,13 8,7 19,9 -1,19 -2,1 -4,2 -5,3l-6 3c-2,1 -4,1 -5,2 -3,1 -4,0 -6,1l-3 0c-2,0 -8,-1 -9,-1 -3,0 -6,1 -10,0 -1,0 -1,0 -2,0 -2,1 -3,2 -5,2l-1 1c4,0 6,5 7,8 5,8 11,22 14,30 3,12 4,24 6,36 1,2 3,10 3,12 -1,4 -6,4 -8,1 -1,-1 -1,-2 -2,-3 -2,-4 -11,-12 -15,-14 -3,-1 -15,-3 -24,-7 -2,-1 -5,-3 -7,-4 0,5 3,8 2,17 -1,6 -2,24 0,31l3 7c1,3 3,5 1,8 -3,2 -6,0 -8,-2 -4,-6 -11,-9 -16,-13l-8 -7c-4,-3 -8,-7 -13,-9 -4,-2 -6,-4 -9,-6 -3,-2 -5,-5 -7,-8l-3 -4c-1,-1 -2,-3 -3,-4 -1,0 -4,-1 -6,-1l-3 8c0,2 0,4 0,5 -1,2 -2,3 -2,5 -1,2 -3,6 -4,8 -2,3 -4,6 -7,9 -3,3 -6,5 -9,7l-7 6c-2,3 -2,2 -3,3 -2,4 -2,14 -2,18 0,1 -1,3 -1,4 -2,3 -6,1 -6,-3 -1,-2 -1,-4 0,-6 0,-2 -1,-3 -1,-5 -1,-2 -2,-15 -4,-21l-7 -24c-1,-4 -1,-7 -1,-11l0 -9c0,-2 0,-4 -2,-2 -1,0 -1,0 -2,1 -2,2 -3,2 -5,2 -4,-1 -6,-7 -8,-10 -6,0 -5,-2 -7,-4 -1,-1 -2,-1 -4,-1 -1,-1 -1,-2 -2,-3l-7 4c-4,2 -8,5 -13,7 -7,4 -13,7 -20,9l-8 3c-1,1 -2,1 -4,1 -1,0 -1,0 -2,0 0,0 -1,1 -2,1 -2,-1 -3,-3 -3,-4 0,-3 4,-4 6,-5l3 -2c4,-2 6,-3 9,-6 10,-11 12,-18 16,-31 1,-3 3,-5 3,-8 -1,-1 -1,-1 -2,-2 -2,1 -7,0 -6,-4 0,-4 6,-7 7,-10 -2,0 -5,0 -5,-3 0,-1 2,-3 2,-4 -1,0 -3,-1 -4,-1l-3 0c-1,1 1,1 -1,1 -5,-1 -3,-1 -5,-2l-4 -1c-1,-1 -5,0 -14,-4 -9,-5 -11,-5 -21,-5 -3,0 -7,0 -6,-4 0,-3 2,-3 5,-3l4 0c1,-1 1,0 1,-1 0,0 1,0 1,0 2,-1 3,0 4,-1 1,-1 2,-1 3,-2l5 -3c4,-3 6,-6 10,-8 5,-3 8,-3 14,-2 1,-2 8,-4 11,-5 4,-2 17,-1 19,2 -2,0 -2,0 -3,1 -2,1 -6,3 -8,4 -5,0 -10,0 -14,-1l1 1c1,1 0,0 1,1l-5 1c-2,0 -4,1 -5,1 -4,2 -9,5 -13,8l-3 2c0,0 0,0 0,0 0,0 0,0 -1,1l-1 1c-2,1 -3,1 -4,2 1,1 6,3 8,4l2 1c1,0 1,0 1,0 7,3 17,1 18,5 1,2 0,1 3,2 5,3 3,1 7,1 2,1 2,2 2,3 1,0 6,-5 9,-6 5,-3 10,-6 16,-7 1,0 2,-1 4,-1 -1,1 -2,2 -3,3 -3,4 -6,5 -10,7 -3,1 -5,3 -8,4 -1,1 -6,3 -8,3 2,2 4,3 4,6 1,0 2,-1 3,-2l19 -14c6,-5 18,-10 25,-13 1,0 3,-1 4,-1 1,-1 1,-1 2,-1l2 0c0,1 0,1 -1,2l-3 2c-1,1 -1,2 -3,2 0,2 0,0 -1,1l-3 3c-1,1 -3,2 -4,3 -1,1 -3,2 -5,2 -2,1 -4,2 -4,3 -3,0 0,2 -4,2 0,1 0,1 0,1 -1,1 -2,1 -2,2l-22 16c2,0 0,0 2,1l0 -1c0,-1 1,1 1,1 0,0 -1,0 -1,0 0,0 0,0 0,0l0 0c0,4 0,3 -2,7 -5,9 -6,18 -11,28 -1,2 -2,3 -3,5 5,-2 10,-5 15,-7 4,-1 10,-4 14,-4 1,1 0,0 2,1l0 3c2,0 5,0 7,2 1,0 2,1 2,2 3,0 3,-1 6,1l1 -11c1,-2 1,0 1,-1 1,-3 2,-9 4,-14 3,-7 7,-10 10,-16l5 -8c2,-3 4,-6 7,-8 1,-1 0,-1 2,-1 0,3 -2,7 -3,9 -1,4 -4,13 -6,18 -3,9 -7,17 -11,25 -1,2 -3,5 -4,7 -2,4 -3,5 -2,8 3,-1 5,-4 9,-3 3,1 4,3 5,4 0,-5 1,-11 2,-15 0,-2 0,-3 0,-5 2,-7 1,-9 5,-19 2,-5 3,-12 6,-17 1,-3 2,-6 4,-9 1,-1 1,-1 2,-1 1,-2 0,-3 3,-3 -1,7 2,1 -2,17 -1,5 -2,11 -4,15 0,1 -1,3 -1,4 -1,6 -2,16 -4,21 -1,5 -2,8 -4,15 -1,4 -3,7 -4,11l-1 2c0,0 0,0 0,0 0,0 0,1 0,1l1 4c0,1 0,1 0,2 0,4 0,4 1,7l7 25c1,1 1,0 1,1 1,0 1,-1 2,-2 0,0 0,0 0,0l3 -3c1,-1 1,-3 3,-2 1,-2 2,-2 3,-3l4 -3c1,-1 0,-1 1,-1 1,-2 1,-1 4,-3 0,-1 0,-1 0,-1l3 -4c1,0 0,0 1,-1l1 -2c4,-5 5,-15 8,-21 1,-1 1,-2 2,-3 2,-4 1,-2 -2,-8 -2,-6 -4,-13 -6,-20 -2,-10 -2,-21 -1,-32 1,-3 1,-5 2,-7 0,-4 1,-4 2,-7 1,1 1,2 1,4l3 11c2,6 6,36 7,42 0,2 0,6 0,9 6,-5 7,2 9,6 0,1 0,0 0,1 1,1 3,3 4,4l1 1c0,0 0,0 0,0l4 4c1,1 1,2 3,3l2 1c1,1 2,2 3,3l3 3c0,0 0,0 0,0l2 2c1,0 0,0 1,0l3 2c0,0 0,0 0,0 1,1 1,1 2,2l1 1c0,0 0,0 1,0 1,1 0,0 1,1l1 1c0,0 1,0 1,0 0,1 0,0 0,1l15 10c-1,-6 1,-6 0,-9 0,-2 0,-2 0,-4 1,-3 0,-4 1,-7 0,-2 -1,-3 -1,-4 0,-1 1,-3 1,-4 0,0 0,-2 0,-2l-1 -5c0,-1 -2,-3 -2,-6 -1,-4 -1,-9 -3,-13 -6,-1 -10,-6 -15,-11 -3,-3 -5,-8 -7,-11 -1,-2 -1,-2 -2,-4l-1 -1c0,-1 0,-1 0,-1 -4,-6 -6,-12 -8,-19 -1,-1 -1,-3 -2,-5l-1 -4c-1,-1 0,-1 0,-2 0,-3 0,-1 0,-3 0,0 0,0 0,-1zm-1 2l0 0c0,0 0,0 0,0z"/>
     <path class="fil1" d="M231 412l0 0c1,0 1,0 1,0 0,0 0,0 0,0 0,0 -1,0 -1,0 0,0 0,0 0,0l0 0zm40 -14c1,0 0,0 1,1 0,0 0,0 0,0 0,0 1,0 1,1 0,0 0,0 0,0 0,0 0,0 0,0 0,0 1,0 1,0 0,0 0,0 0,1 0,0 0,0 0,0 0,0 0,0 0,0 0,0 1,0 1,1 0,0 0,0 1,0 0,0 0,0 0,0 0,0 0,1 0,1 0,0 0,0 0,0 0,0 0,0 0,0 0,0 0,0 0,0 1,0 1,0 1,0 0,0 0,0 0,0 0,0 0,1 0,1 0,0 0,0 0,0 0,0 1,0 1,0 0,0 0,0 0,0 0,0 1,0 1,1 0,0 0,0 1,0 0,0 0,0 0,0 0,0 0,0 1,0 0,0 0,0 0,0 0,0 0,0 0,0 0,0 0,0 0,0 0,0 1,0 1,0 0,-1 1,-2 1,-2 1,0 1,0 1,0 0,0 0,0 0,0 0,0 0,0 0,0 0,0 0,0 0,0 0,0 0,0 0,0 0,0 1,0 1,0 0,0 0,0 0,0 0,0 1,0 2,0 0,0 0,0 0,0 0,0 1,1 1,1 0,0 0,0 0,0 0,0 0,0 1,0 0,0 0,0 0,0 0,0 0,0 0,0 0,1 0,1 0,1 0,0 1,0 1,0 1,1 1,1 2,1 0,0 0,0 0,0 0,1 0,1 1,1 0,0 0,0 0,0 0,0 0,0 0,0 1,1 1,1 2,1 0,0 0,0 0,0 1,0 1,0 2,1 0,0 0,0 0,0 0,0 0,0 1,0 -1,0 -1,0 -1,0 1,0 1,0 1,0 0,0 0,0 0,0 0,0 0,1 0,1 0,0 0,0 0,0 0,0 0,0 0,0 0,0 0,0 0,0 0,0 0,0 0,0 0,0 0,0 0,0 0,0 0,0 0,0 0,1 1,0 0,1 0,0 1,0 1,0 -1,1 0,2 0,3 0,0 0,0 0,0 0,0 0,0 0,0 0,1 0,1 0,1 0,0 0,0 0,0 0,1 0,1 0,1 0,0 0,0 0,0 0,1 0,1 0,1 0,0 0,0 0,0 0,0 0,1 0,1 0,0 0,0 0,0 0,0 0,0 0,1 0,0 0,0 0,0 0,0 0,0 0,0 0,0 0,0 0,0 0,0 0,1 0,1 0,0 0,0 0,0 0,0 0,0 0,1 0,0 0,0 0,0 0,0 0,0 0,0 0,0 0,0 0,0 0,1 0,1 0,1 0,0 0,0 0,0 0,1 0,1 0,1 0,0 0,4 -1,4 0,1 0,1 0,1 0,0 0,0 0,0 -1,1 -1,1 -1,1 0,0 0,0 0,0 0,0 0,1 0,1 0,0 0,0 0,0 0,0 0,0 -1,0 0,0 0,0 0,0 0,0 0,1 0,1 0,0 0,0 0,0 0,0 0,0 0,0 0,0 0,0 0,0 0,0 -1,0 -1,0 0,0 0,0 0,0 0,0 0,1 0,1 0,0 0,0 0,0 0,0 0,0 0,0 0,0 0,0 0,0 -1,1 0,0 -1,0 0,0 0,0 0,0 0,0 0,0 0,1 -1,-1 0,0 -1,0 0,0 0,0 0,0 -1,0 0,0 -1,0 0,0 0,0 0,0 0,0 0,0 0,0 0,0 0,0 0,0 -1,0 -2,0 -3,0 0,0 0,0 0,0 0,-1 -1,-1 -1,-1 0,0 0,0 0,0 0,0 0,0 -1,0 0,0 0,0 0,0 0,0 0,0 0,0 0,-1 0,-1 0,-1 0,0 0,0 0,0 0,0 0,0 0,0 0,0 -1,0 -1,0 0,0 0,0 0,0 0,0 0,0 0,-1 0,0 0,0 0,0 0,0 0,0 0,0 0,0 0,0 0,0 0,0 -1,0 -1,0 0,0 0,0 0,0 0,-1 0,-1 0,-1 0,0 0,0 0,0 0,0 -1,0 -1,0 0,0 0,0 0,0 0,0 0,0 0,0 0,0 0,-1 0,0 0,0 -1,0 -1,0 0,0 0,0 0,1 0,0 0,0 0,0 0,0 0,0 0,0 0,0 0,0 0,0 0,0 0,0 0,0 0,0 0,0 -1,0 0,0 0,0 0,0 0,0 0,0 0,0 0,0 0,0 0,0 -1,0 0,1 -1,0 0,1 0,1 0,1 0,0 0,0 0,0 0,0 0,0 0,0 -1,0 -1,0 -1,0 0,0 0,0 0,0 -1,0 -1,0 -1,0 0,0 0,0 0,0 -1,0 0,0 0,0 -1,0 -1,0 -1,0 0,0 0,0 0,0 0,1 0,0 0,1 -1,0 -2,1 -2,1 0,0 0,0 0,0 0,0 0,1 0,1 -1,0 -1,0 -1,0 0,0 0,0 0,0 0,0 0,0 0,0 0,0 0,0 0,0 0,0 0,0 0,0 0,0 0,0 0,0 0,0 0,0 -1,0 0,0 0,0 0,0 0,0 0,0 0,0 0,1 0,0 0,1 0,0 0,0 0,0 0,0 0,0 0,0 -1,0 -2,1 -3,1 0,0 0,0 0,0 0,0 0,0 0,0 0,0 0,0 0,0 -1,0 -1,0 -1,0 0,0 0,0 0,0 0,0 -1,0 -1,0 0,0 0,0 0,0 -1,0 -1,0 -2,-1 0,1 0,1 0,1 0,0 0,0 0,0 -1,0 -1,1 -1,2 0,0 0,0 0,0 0,1 0,2 -1,3 0,0 0,0 0,0 0,0 0,1 0,1 0,0 0,0 0,0 0,0 -1,1 -1,1 0,0 0,0 0,0 0,0 0,0 0,1 0,0 -1,0 -1,0 0,0 0,0 0,0 0,0 0,0 0,0 0,0 0,0 0,1 0,0 0,0 0,0 0,0 0,0 0,0 -1,0 -1,0 -1,0 0,0 0,0 0,0 0,0 0,0 0,0 0,1 0,1 0,1 0,0 -1,0 -1,0 0,0 0,0 0,0 0,0 0,0 0,0 0,1 0,1 0,1 -1,0 -1,0 -1,0 0,0 0,0 0,0 0,0 0,0 0,0 0,0 0,0 0,0 0,0 0,0 0,0 -1,0 -1,0 -1,0 0,0 0,0 0,0 0,0 0,0 0,0 0,0 0,0 0,1 -1,-1 -1,-1 -1,-1 0,0 0,1 0,1 0,0 -1,-1 -1,-1 0,1 -4,0 -5,-1 0,0 0,0 0,0 0,0 0,0 -1,0 0,0 0,0 0,0 0,0 0,0 0,0 0,-1 0,-1 0,-1 -1,0 -1,0 -1,-1 -1,0 -1,0 -1,0 0,0 0,0 0,0 0,0 0,0 0,0 0,0 0,-1 0,-1 0,0 0,0 0,0 0,0 0,0 0,0 0,0 0,0 0,0 0,0 0,0 0,0 -1,-1 -2,-2 -2,-3 0,0 0,0 0,0 0,0 0,0 0,0 0,0 0,0 0,0 0,0 0,-1 0,-1 0,0 0,0 0,0 0,0 0,0 0,0 0,0 0,0 0,0 0,0 0,0 0,0 -1,0 0,0 -1,0 0,-1 0,-1 0,-1 0,0 0,0 0,0 0,0 0,0 0,-1 0,0 0,0 0,0 0,0 0,0 0,0 0,0 0,0 0,-1 -1,0 0,0 -1,0 0,0 0,0 0,0 0,0 0,-1 0,-1 0,0 0,0 0,0 0,0 0,0 0,0 -1,0 0,0 -1,-1 0,0 0,0 0,0 0,0 0,0 0,0 0,0 0,0 0,0 0,0 0,0 0,0 0,0 0,0 0,-1 0,0 0,0 0,0 0,0 0,0 0,0 0,0 0,0 0,0 0,0 0,-1 0,-1 0,0 0,0 0,0 0,-1 0,-2 1,-3 0,0 0,0 0,0 0,0 0,0 0,0 0,0 0,0 0,0 0,0 0,0 0,-1 0,0 1,0 1,1 0,-1 0,-1 0,-1 0,0 0,0 0,0 0,0 0,0 0,0 0,0 0,0 0,0 0,0 0,-1 0,-1 1,0 1,0 1,0 0,0 0,-1 0,-1 0,0 0,0 0,0 0,0 0,-1 0,-1 0,0 0,0 0,0 0,0 0,-1 0,-1 0,0 0,0 0,0 0,0 0,-1 0,-1 0,0 0,0 0,0 0,0 0,0 0,0 0,0 0,0 0,0 0,0 0,0 0,0 0,0 0,0 0,0 0,0 0,-1 0,-1 -1,0 -1,-1 -1,-1 0,0 0,0 0,0 0,0 0,0 0,0 -1,0 -1,-1 -1,-1 0,0 0,0 0,0 0,0 0,0 0,0 0,0 0,0 0,0 0,0 0,-1 0,-1 0,0 0,0 0,0 0,0 0,-1 -1,-1 0,0 0,0 1,0 -1,0 -1,0 -1,0 0,0 0,0 0,0 0,0 0,0 0,0 0,-1 0,-1 0,-1 0,0 0,0 0,0 0,0 0,0 0,0 0,0 0,0 0,0 0,-1 0,-1 0,-1 0,0 0,0 0,0 0,-1 0,-1 0,-2 0,0 0,0 0,0 0,0 0,0 1,0 0,0 0,0 0,0 0,-1 0,0 0,-1 0,0 0,0 0,0 0,0 0,0 0,0 1,0 1,0 1,0 0,0 0,0 0,0 0,0 0,0 0,0 0,0 0,-1 0,-1 0,0 0,0 0,0 0,0 0,0 1,0 0,0 0,0 0,0 0,0 0,0 0,-1 0,0 0,1 0,1 0,-1 0,-1 0,-1 0,0 0,0 0,0 1,-1 1,-1 1,-2 0,0 0,0 0,0 1,-1 0,-1 1,-3 -1,0 -1,0 -1,0 0,0 0,0 1,0 -1,0 -1,0 -1,-1 0,0 0,0 1,-1 0,0 0,0 0,0 0,0 0,0 0,0 0,0 0,0 0,0 0,0 0,-1 0,-1 0,0 0,0 1,0 0,0 0,0 0,0 0,0 0,0 0,0 0,0 0,0 0,0 0,0 0,0 0,0 0,-1 1,-1 1,-1 1,0 1,0 1,0 0,0 0,0 0,0 0,0 0,0 0,-1 0,0 0,0 0,0 0,0 0,0 0,0 0,0 0,0 0,0 0,0 0,0 0,0 1,0 1,0 1,0 0,0 0,0 0,0 0,0 0,0 0,0 0,0 0,0 0,0 0,0 0,0 0,0 0,-1 1,-1 1,-1 0,0 0,0 1,0 0,-1 0,0 0,-1 0,0 0,0 0,0 0,0 0,0 0,0 0,0 0,0 0,0 0,0 0,0 0,-1 1,1 1,1 1,1 0,-1 0,-1 0,-1 0,0 0,0 0,0 0,0 0,0 0,0 0,0 0,0 0,0 0,0 0,0 0,0 0,0 1,0 1,0 0,-1 0,-1 0,-1 0,0 0,0 0,0 0,0 0,0 0,0 0,0 0,0 0,0 1,0 1,0 1,0 0,0 0,0 0,0 0,0 0,0 0,0 1,0 2,0 2,0 0,0 0,0 0,0 1,0 1,0 1,0 1,0 1,0 1,0 0,0 0,0 1,0 0,0 0,0 0,0 0,0 1,0 1,0 0,0 0,0 0,0 0,0 1,0 1,0 0,0 0,0 0,0 0,0 1,0 1,0 0,0 0,0 0,0 0,0 1,0 1,0 0,0 0,0 0,0 1,0 2,0 4,1 0,0 0,0 0,0zm22 -16c1,0 1,0 1,0 0,0 0,0 0,0 0,0 0,0 0,0 0,1 0,1 0,1 0,0 0,0 0,0 0,0 0,0 0,0 0,0 0,0 0,0 0,0 0,0 0,0 0,0 1,0 1,0 0,0 0,0 0,1 0,0 0,0 0,0 0,0 0,0 0,1 0,0 0,0 0,0 0,0 0,0 0,0 0,0 0,0 0,0 0,1 0,1 1,1 0,1 0,0 0,1 0,0 0,0 0,0 0,0 0,0 0,0 0,0 0,0 0,0 0,0 0,0 0,1 1,0 0,0 1,0 0,0 0,0 0,0 0,0 0,0 0,0 0,0 0,0 0,0 0,0 0,0 0,0 0,1 0,1 0,1 0,0 0,0 0,0 0,0 0,0 0,0 0,1 0,1 0,1 0,0 1,0 1,0 -1,0 0,0 0,1 0,0 0,0 0,0 0,1 0,0 0,1 0,0 0,0 0,0 0,0 0,0 0,1 0,0 0,0 0,0 0,0 0,0 0,0 0,0 0,0 0,0 0,1 0,1 0,2 0,0 0,0 0,0 0,0 0,0 0,0 0,0 0,0 0,0 0,1 0,1 0,1 0,0 0,0 0,0 0,1 0,1 0,1 0,0 0,0 0,1 0,0 0,0 0,1 0,0 0,0 0,0 0,1 -1,2 -1,4 0,0 0,0 0,0 0,0 0,0 0,0 0,0 0,0 0,0 0,0 0,0 0,0 -1,0 -1,0 -1,0 0,0 0,0 0,0 0,0 0,0 0,0 0,0 0,1 0,1 0,0 0,0 0,0 0,0 0,0 0,0 0,0 -1,0 -1,0 0,0 0,0 0,0 0,0 0,0 0,0 0,0 0,0 0,0 0,0 0,0 0,0 0,0 0,0 0,0 -1,0 -1,0 -1,0 0,0 0,0 0,0 -1,0 0,1 -1,0 0,0 0,0 0,1 0,-1 -1,-1 -1,-1 0,0 0,0 0,1 0,-1 -1,-1 -1,-1 0,0 0,0 0,0 -1,0 -2,-1 -2,-1 0,0 0,0 0,0 0,-1 0,-1 0,-1 0,0 0,0 0,0 0,0 0,0 0,0 0,0 -1,0 -1,0 0,0 0,0 1,-1 -1,0 -1,0 -1,0 0,0 0,0 0,0 0,0 0,0 0,0 0,0 0,0 0,0 0,0 0,0 0,0 0,0 0,0 0,-1 0,0 0,0 0,0 0,0 0,0 0,0 0,0 0,0 0,0 0,0 0,0 0,0 0,0 0,0 -1,0 1,-1 1,-1 1,-1 -1,0 -1,-1 -1,-1 0,0 0,0 0,0 0,-1 0,-1 0,-2 0,0 0,0 0,0 0,0 0,0 0,-1 0,0 0,0 0,0 0,0 0,0 0,-1 0,0 0,0 0,0 0,0 0,-1 0,-1 0,0 0,0 0,0 0,-1 0,-1 0,-1 0,0 0,0 0,0 0,-1 0,-1 1,-2 0,0 -1,0 -1,0 0,0 1,-1 1,-1 0,0 0,0 0,0 0,-1 0,-1 0,-1 0,0 0,0 0,0 1,-1 1,-1 1,-1 0,0 0,0 0,0 0,0 0,0 0,0 0,0 0,0 0,0 0,0 0,-1 0,-1 0,0 0,0 0,0l1 -1c0,0 0,0 0,0 0,0 0,0 0,0 0,-1 2,-2 2,-2 0,0 0,0 0,0 0,-1 0,-1 0,-1 0,0 0,0 0,0 0,0 0,0 0,-1 0,0 1,0 1,0 0,0 0,0 0,0 0,0 0,0 0,0 0,1 1,0 0,1zm-61 34c0,0 0,1 0,1 1,0 1,0 1,0 0,0 0,0 0,0 0,0 1,0 1,0 0,1 1,0 1,1 0,0 0,0 1,0 0,0 0,0 0,0 0,0 0,1 1,1 0,0 0,0 -1,0 1,0 1,0 2,0 0,0 0,0 0,0 0,0 0,0 0,1 1,0 2,0 3,1 0,-1 0,-1 0,-1 1,0 1,0 1,0 0,0 0,0 0,0 0,0 0,0 0,0 0,0 0,0 0,0 0,0 2,0 2,0 0,0 0,1 0,1 0,0 0,0 0,0 0,0 1,0 1,0 0,0 0,0 -1,0 1,0 1,0 1,0 0,0 0,1 0,1 0,0 0,0 0,0 0,0 0,0 0,0 0,0 0,0 0,0 0,1 0,1 0,1 0,0 0,0 0,0 0,0 0,0 0,1 0,0 0,0 0,0 0,0 0,0 0,0 0,0 0,0 1,0 -1,1 -1,2 -1,4 0,0 0,0 -1,0 0,0 0,0 0,0 0,0 0,1 0,1 0,0 0,0 0,0 0,0 0,0 0,0 0,0 -1,0 -1,0 0,0 0,0 0,0 0,0 0,0 0,0 0,0 0,0 0,0 0,0 -1,0 -1,0 0,0 0,1 0,1 -1,-1 -2,-1 -2,-1 0,0 -1,0 -1,0 0,0 -5,-1 -6,-2 0,0 0,0 0,1 0,-1 -1,-1 -2,-1 0,0 0,0 0,0 0,0 0,0 -1,0 0,0 0,0 0,0 0,0 0,0 -1,0 0,1 -4,-1 -4,-1 0,0 0,0 0,1 -1,0 -1,0 -1,0 0,-1 0,-1 0,-1 0,0 0,0 0,0 0,0 0,0 0,0 0,0 0,0 0,0 0,0 0,0 0,0 0,0 -2,0 -2,-1 -1,0 -1,0 -1,0 0,0 0,0 0,0 0,0 -1,0 -1,0 0,0 0,0 0,-1 0,0 0,0 -1,0 0,0 0,0 0,0 0,0 0,0 0,0 0,0 0,0 -1,0 0,-1 0,-1 0,-1 0,0 0,0 0,0 0,0 0,0 0,0 0,0 0,0 0,0 0,0 0,0 0,0 0,0 0,0 0,0 0,0 0,-1 0,-1 0,0 -1,0 -1,0 0,0 0,0 0,0 0,0 0,0 0,0 0,0 0,0 0,0 0,0 -1,-1 -1,-2 0,0 0,0 0,0 0,0 0,0 0,0 -1,0 0,0 -1,0 0,0 0,0 0,-1 0,0 0,0 0,0 0,0 0,0 0,0 0,0 0,0 -1,0 0,0 0,0 0,0 0,0 0,0 0,0 0,0 0,-1 0,-1 0,0 0,0 0,0 0,0 0,0 0,0 0,0 -1,0 -1,0 0,0 0,0 0,-1 0,0 0,0 0,0 0,0 0,0 0,0 0,0 -1,0 -1,0 0,-1 0,-1 0,-1 0,-1 -1,0 0,-1 0,0 0,0 0,0 0,-1 0,0 0,-1 0,0 0,0 0,0 0,0 0,0 0,0 0,0 1,0 1,0 0,0 0,0 0,0 0,0 0,0 1,0 0,0 0,0 0,0 0,0 1,0 1,0 0,0 0,0 0,0 1,0 1,0 1,0 0,0 0,0 0,0 1,0 1,0 1,0 0,0 0,0 1,0 0,0 0,0 0,0 1,0 1,0 1,0 0,0 0,0 0,0 1,0 1,0 1,0 0,0 1,0 1,0 0,0 0,0 0,0 1,0 1,0 1,0 1,0 1,0 1,0l9 2zm31 -61c1,0 1,0 1,0 0,0 0,0 0,0 0,0 0,0 0,1 0,0 0,0 0,0 0,0 0,0 0,0 0,0 0,0 0,0 1,0 0,0 0,0 0,0 0,0 0,1 0,0 1,0 1,0 0,0 0,0 0,0 0,0 0,0 0,0 0,0 0,0 0,0 0,1 0,1 0,1 0,0 0,0 0,0 0,0 0,0 1,1 0,0 0,0 0,0 0,0 0,0 0,0 0,0 0,0 0,0 0,0 0,0 0,0 0,1 0,0 0,1 0,0 0,0 0,0 0,0 0,0 0,0 0,0 0,0 0,0 0,0 0,0 0,0 0,0 1,0 1,0 0,1 -1,1 -1,1 1,0 1,0 1,0 0,0 0,0 0,0 0,0 0,1 0,1 0,0 0,0 0,0 0,0 0,0 0,0 0,0 0,0 0,0 1,0 1,0 1,0 0,1 0,0 0,1 0,0 0,0 0,1 0,0 0,0 1,0 0,0 0,0 -1,0 1,0 1,0 1,0 0,0 0,0 0,1 0,0 0,0 0,0 0,0 0,0 0,0 0,0 0,0 0,0 0,1 0,1 0,2 0,0 0,0 0,0 0,1 1,1 0,2 0,0 1,0 1,0 -1,0 0,1 -1,1 1,0 1,0 1,0 0,0 0,1 0,1 0,0 0,0 0,0 0,0 0,0 0,1 0,0 0,0 0,0 0,0 0,1 0,1 0,0 0,0 0,0 0,1 0,1 0,1 0,0 0,0 0,0 0,1 0,1 0,1 0,0 0,0 0,0 0,0 0,1 0,1 0,0 0,0 0,0 0,0 0,1 0,1 0,0 0,0 0,0 0,0 0,1 0,1 0,0 0,0 0,0 0,0 0,1 0,1 0,0 0,0 0,1 0,0 0,0 0,0 0,0 0,0 0,0 0,0 0,0 0,0 0,1 0,2 0,2 0,1 0,1 0,1 0,0 0,0 0,0 0,0 0,0 0,0 0,1 1,0 0,1 0,0 1,0 1,0 0,1 -1,1 -1,1 0,0 1,0 1,0 0,1 0,1 0,1 0,0 0,0 0,0 0,0 0,0 0,0 0,0 0,0 0,0 0,0 0,0 0,0 0,1 0,1 0,1 0,0 0,0 0,0 0,0 0,0 0,0 0,1 1,2 1,3 0,0 0,0 0,0 0,0 0,0 0,0 0,0 0,0 0,0 0,0 0,0 0,0 0,0 0,0 0,0 0,1 0,1 0,1 0,1 0,1 0,1 0,0 0,0 0,0 0,0 0,0 0,0 0,0 0,1 0,1 0,0 0,0 0,0 0,0 0,1 0,1 0,0 0,0 0,0 0,0 0,0 0,0 0,0 0,0 0,0 0,0 0,0 0,1 -1,0 -1,-1 -1,-1 0,1 0,1 0,1 0,0 0,0 0,0 0,0 0,-1 0,-1 -1,0 -2,0 -2,0 0,0 0,0 0,0 -1,0 -1,0 -2,0 0,0 0,0 0,0 0,0 0,0 -1,0 0,0 0,0 -1,0 0,0 0,0 0,0 0,0 0,0 -1,0 0,0 0,0 0,0 0,0 0,0 -1,0 0,0 0,0 0,-1 0,0 -1,0 -1,-1 0,0 0,0 0,0 0,0 0,0 0,0 0,0 0,0 0,0 0,-1 0,-1 0,-1 0,0 0,0 0,0 0,-1 0,-1 0,-1 0,-1 0,-1 0,-1 0,0 0,0 0,0 0,0 0,0 0,0 0,-1 0,-1 0,-1 0,0 0,0 0,0 0,-1 0,-1 -1,-2 0,0 0,0 0,0 0,-1 0,0 0,-1 0,0 0,0 0,0 0,0 0,0 0,0 0,0 0,-1 0,-1 0,0 0,0 0,0 0,0 0,0 0,0 0,-1 0,-1 0,-1 0,0 0,0 0,0 0,0 0,0 0,0 0,0 0,0 0,-1 0,0 0,0 0,0 0,0 -1,0 -1,0 0,0 0,0 0,0 0,-1 0,-1 0,-1 0,0 0,0 0,0 0,0 0,0 0,0 0,0 0,0 0,-1 0,0 0,0 0,0 0,0 0,0 0,-1 0,0 0,0 0,0 0,-1 -1,-1 -1,-2 0,0 0,0 0,0 0,0 0,-1 0,-1 0,0 0,0 0,0 0,0 0,0 0,-1 0,0 0,0 0,0 0,0 0,0 0,0 0,0 0,0 0,0 0,0 0,0 0,-1 0,0 0,0 0,0 0,0 0,0 0,0 0,0 0,0 -1,0 1,-1 0,0 0,-1 0,0 0,0 0,0 0,-1 0,0 0,-1 0,0 0,0 0,0 0,0 0,-1 0,-1 0,0 0,0 0,0 0,0 0,0 0,-1 0,0 0,0 0,0 0,0 0,0 0,-1 0,0 0,0 0,0 0,0 0,0 0,-1 0,0 0,0 0,0 0,0 0,-1 0,-1 0,0 0,0 0,0 0,-1 0,-3 1,-4 0,0 0,0 0,0 0,-1 0,-1 0,-1 0,0 0,0 0,0 0,-1 1,-1 1,-1 0,0 0,0 0,0 0,-1 0,0 0,0 0,-1 1,-1 1,-1 -1,0 0,-4 1,-4 0,0 0,0 0,0 0,-1 0,-1 0,-1 0,0 0,0 1,0 0,0 0,0 0,0 0,0 0,0 0,0 0,0 0,0 0,0 0,0 0,0 0,0 0,0 1,0 0,0zm-42 32c1,0 1,0 2,0 0,0 0,0 0,0 0,1 0,1 0,1 0,0 0,0 0,0 1,0 1,0 1,0 0,1 0,0 0,1 0,0 1,0 1,0 0,0 0,0 0,0 0,0 0,0 1,0 0,1 0,1 0,1 0,0 0,0 0,0 0,0 0,0 0,0 0,0 0,0 1,0 0,0 0,0 0,0 0,0 0,1 0,1 0,0 0,0 0,0 0,0 0,0 1,0 0,0 0,0 0,0 0,0 0,0 0,1 0,0 0,0 0,0 1,0 1,0 1,0 0,0 0,0 0,0 0,0 0,0 0,0 0,0 0,1 0,1 1,0 1,0 1,0 0,0 0,0 0,0 0,0 1,1 1,1 0,0 0,0 1,1 0,0 0,0 0,0 0,0 0,0 0,0 0,0 0,0 0,0 0,0 0,0 0,0 0,0 0,0 0,0 0,0 0,0 1,0 0,1 -1,1 -1,1 1,0 1,0 1,0 0,0 0,0 0,0 0,0 0,0 0,0 0,0 0,0 0,0 0,0 0,0 0,0 0,0 0,1 0,1 0,0 0,0 0,0 0,0 0,0 0,0 1,0 1,0 1,0 0,0 0,0 0,1 1,0 2,1 3,1 0,0 0,0 0,0 0,0 0,0 0,1 0,0 0,0 0,0 0,0 1,0 1,0 0,0 0,0 0,0 0,0 0,0 1,0 0,0 0,1 0,1 0,0 0,0 0,0 0,0 0,0 0,0 0,0 1,0 1,0 0,0 0,0 0,0 0,0 1,1 1,1 0,0 0,0 0,0 0,0 0,0 1,0 0,0 0,0 0,0 0,0 0,0 0,1 0,0 0,0 0,0 0,0 1,0 1,0 0,0 0,0 0,0 0,0 0,0 1,0 0,1 -1,1 -1,1 1,0 1,0 1,0 0,0 0,0 0,0 1,0 1,0 2,0 0,0 0,0 0,0 0,0 0,0 1,1 0,0 0,0 0,0 0,0 0,0 0,0 0,0 0,0 0,0 0,0 0,0 0,0 0,0 0,0 0,1 0,0 0,0 0,0 0,0 0,0 0,0 0,0 0,0 0,0 0,1 0,3 -1,3 0,0 0,1 0,1 0,0 0,0 0,0 0,1 0,1 0,1 -1,0 -1,0 -1,0 0,1 0,1 0,1 0,0 0,0 0,0 0,0 -1,0 -1,1 0,0 0,0 0,0 0,0 0,0 0,0 0,0 0,0 0,0 0,0 0,0 0,0 -1,0 0,0 -1,0 0,0 0,0 0,0 -1,0 -2,0 -4,-1 0,0 0,0 1,0 -1,0 -1,0 -1,0 0,0 0,0 0,0 -1,-1 -1,-1 -1,-1 0,0 0,0 0,0 0,0 -1,0 -1,0 0,0 0,0 0,0 0,0 0,0 0,0 0,-1 0,-1 0,-1 -1,0 -2,0 -2,-1 0,0 0,0 -1,0 0,0 0,0 0,0 0,0 0,0 -1,0 0,0 0,-1 0,-1 0,0 -1,0 -1,0 -1,0 -1,0 -1,-1 0,0 0,0 0,0 -1,0 -1,0 -2,0 0,0 0,0 0,0 0,-1 -1,-1 -1,-1 0,0 0,0 0,0 0,0 -1,0 -1,0 0,0 0,0 0,0 0,-1 0,-1 -1,-1 0,0 1,0 1,0 -1,0 -1,0 -1,0 0,0 0,0 0,0 0,0 -1,0 -1,0 0,-1 0,-1 0,-1 0,0 0,0 -1,0 0,0 0,0 0,0 0,0 0,0 -1,-1 0,0 0,0 0,0 0,0 0,0 0,0 0,0 0,0 0,0 -1,0 -2,-1 -2,-1 0,0 -1,0 -1,0 0,0 0,-1 0,-1 0,0 -1,0 -1,0 0,0 0,0 0,0 0,0 0,0 -1,0 0,0 0,0 0,-1 0,0 0,0 0,0 0,0 0,0 0,0 -1,0 -1,0 -1,0 0,-1 0,-1 0,-1 -1,0 -1,0 -1,0 0,0 0,0 0,0 0,0 -1,-1 -1,-1 0,0 0,0 0,0 0,0 0,0 0,0 0,0 0,0 0,0 -1,0 0,0 0,0 0,0 0,-1 0,-1 -1,0 -1,0 -1,0 0,0 0,0 0,0 0,0 0,0 0,0 0,0 0,0 0,0 0,0 0,0 0,0 0,0 0,0 0,0 0,0 0,-1 0,-1 0,0 0,0 0,0 0,0 0,0 0,0 0,0 0,0 0,0 0,0 0,0 -1,0 0,0 0,0 1,0 -1,0 -1,0 -1,0 0,-1 0,-1 0,-1 0,0 0,0 0,0 0,0 0,0 0,0 0,0 0,-1 0,-1 0,0 0,0 0,-1 0,0 0,0 -1,0 0,0 1,0 1,0 0,0 -1,0 -1,0 0,-1 1,-1 1,-1 0,0 -1,0 -1,0 0,-1 0,-1 1,-1 -1,0 -3,-1 -3,-2 0,0 0,0 0,0 0,0 0,0 0,0 0,0 0,0 0,0 0,-1 0,-1 0,-1 0,0 0,0 0,0 0,0 0,0 0,0 0,0 -1,0 -1,0 0,0 0,0 0,0 0,0 0,0 0,0 0,0 0,0 0,-1 0,0 0,0 0,0 0,0 0,0 0,0 0,0 0,0 0,0 0,0 0,0 0,0 -2,-1 1,-1 2,-1 0,0 0,0 0,0 0,0 0,0 1,0 0,0 2,0 3,1 0,0 0,0 0,0l1 0c0,0 0,0 0,0 0,0 0,0 0,0 0,0 0,0 0,0 0,0 1,0 1,0 0,-1 0,-1 1,0 0,-1 0,-1 0,-1 0,0 0,0 0,0 0,0 0,0 0,0 1,0 1,0 1,0 0,0 0,0 0,0 1,0 2,1 2,1 0,0 0,0 0,0zm8 -26c0,0 0,0 0,0 1,0 1,1 1,1 0,0 0,0 0,0 0,0 1,0 1,0 0,0 0,0 0,0 1,1 0,1 1,1 0,0 0,0 0,0 1,0 1,0 1,0 0,0 0,0 0,0 0,1 0,1 0,1 0,0 0,0 0,0 0,0 0,0 0,0 0,0 0,0 0,0 0,0 0,0 0,0 0,0 0,0 0,1 0,0 1,0 1,0 0,0 0,0 0,0 0,0 0,0 0,0 0,0 0,-1 0,-1 1,1 1,1 2,1 0,0 0,0 0,0 0,0 1,0 1,0 0,0 0,0 0,1 0,0 1,0 1,0 0,0 0,0 0,1 0,0 1,0 1,0 0,0 0,0 0,0 0,0 0,0 1,0 0,0 -1,0 -1,1 1,0 1,0 1,0 0,0 0,0 0,0 0,0 0,0 0,0 0,1 0,0 0,1 1,0 1,0 1,0 0,0 0,0 0,0 0,0 0,0 0,0 0,0 0,0 0,1 0,0 1,0 1,0 0,0 0,0 0,0 0,0 0,0 0,0 0,0 0,0 0,0 0,0 0,0 0,0 0,1 1,1 1,2 0,0 0,0 0,0 0,0 0,0 0,0 0,0 0,1 0,1 0,0 0,0 0,0 0,0 0,0 0,0 1,0 1,0 1,0 0,0 0,0 0,0 0,0 0,0 0,0 0,0 0,1 0,1 0,0 0,0 0,0 0,0 0,0 0,0 0,0 0,0 0,0 0,0 0,0 0,0 0,0 0,0 0,0 0,0 0,1 0,1 0,0 0,0 0,0 0,0 0,0 0,0 0,0 1,0 1,0 0,0 0,1 0,1 0,1 0,0 0,1 0,0 0,0 1,0 0,0 0,0 0,0 0,0 -1,0 0,0 0,1 0,0 0,1 1,0 0,0 0,0 0,0 0,0 0,1 0,0 1,0 1,0 0,0 0,0 0,0 0,0 0,0 0,0 0,0 0,0 0,0 0,0 0,0 0,0 0,0 0,0 0,0 0,0 0,0 0,0 0,1 0,0 0,1 1,0 0,0 0,1 0,0 1,0 1,0 0,0 0,0 0,0 0,0 0,0 0,0 0,0 0,0 0,0 0,0 0,1 0,1 0,0 0,0 0,0 0,0 0,0 1,0 0,1 0,1 0,1 0,0 0,0 0,0 0,0 0,0 0,0 0,0 0,0 0,0 0,0 0,0 0,0 0,1 0,1 0,1 0,0 0,0 0,0 0,0 0,0 0,0 0,0 0,0 0,0 0,0 0,0 0,0 0,1 0,0 0,1 0,0 1,0 1,0 0,0 0,0 0,0 0,0 0,0 0,0 0,1 0,1 0,1 0,0 0,0 0,0 0,0 0,0 0,0 0,0 0,0 0,1 0,0 0,0 0,0 0,0 1,0 1,0 0,0 0,0 0,0 0,0 0,0 0,0 0,0 0,0 0,1 0,0 0,0 0,0 0,0 0,0 0,0 0,0 0,0 0,0 0,0 0,0 0,0 0,0 0,0 0,0 0,0 0,0 0,0 0,0 0,0 0,0 0,1 0,1 0,1 1,0 1,1 1,1 0,0 0,0 0,0 0,0 0,0 0,1 0,0 1,0 1,0 0,0 0,0 0,0 0,0 0,0 0,0 0,0 0,0 0,0 0,0 0,0 0,0 0,0 0,0 0,0 0,0 0,0 0,0 0,1 0,1 0,1 0,0 0,0 0,0 0,0 0,0 0,0 0,0 0,0 0,0 0,0 0,0 0,0 0,0 1,0 1,0 0,0 0,0 0,1 0,0 0,0 0,0 0,0 0,0 0,0 0,0 0,0 0,0 0,0 0,0 0,0 1,0 0,0 1,0 0,1 -1,1 -1,1 1,0 1,0 1,0 0,0 0,0 0,0 0,0 0,0 0,0 0,0 0,0 0,0 0,1 0,1 0,1 0,0 0,0 0,0 0,0 0,0 0,0 0,0 0,0 0,0 0,0 0,0 1,0 0,0 0,0 -1,1 1,0 1,0 1,0 0,0 0,0 0,0 0,0 0,0 0,0 0,1 0,1 -1,2 0,0 0,0 0,0 0,0 0,0 0,1 0,0 0,0 0,-1 0,1 0,1 -1,1 0,0 0,0 0,0 0,0 0,0 0,0 0,0 0,0 0,0 0,0 0,0 0,0 0,0 0,0 -1,0 0,0 0,0 0,0 0,0 0,0 0,0 0,0 0,0 0,0 0,0 0,0 0,0 0,0 0,0 0,0 0,0 0,0 -1,0 0,1 0,1 0,1 0,0 0,0 0,0 0,0 0,0 0,0 0,0 0,0 0,0 -1,0 -1,0 -1,1 0,0 0,0 -1,0 0,0 0,0 0,0 0,0 0,0 0,0 0,0 0,0 0,0 0,0 0,0 0,0 0,0 0,0 0,0 -1,0 -1,0 -2,0 0,0 0,0 0,0 0,0 0,0 0,0 0,0 0,-1 0,-1 -1,0 -1,0 0,0 -1,0 -1,0 -1,0 0,0 0,-1 0,-1 0,0 0,0 0,0 0,0 0,0 0,0 0,0 0,0 0,0 0,0 0,0 0,0 0,0 0,0 0,0 0,0 0,0 0,-1 0,0 0,0 0,0 0,0 0,0 0,0 0,0 0,0 -1,0 0,0 0,0 1,0 -1,0 -1,0 -1,0 0,0 0,0 0,0 0,0 0,0 0,0 0,-1 0,-1 0,-1 0,0 0,0 0,0 0,0 0,0 0,0 0,0 -1,0 -1,0 0,0 0,0 0,0 0,0 0,0 0,0 0,0 0,-1 0,-1 0,0 0,0 0,0 0,0 0,0 0,0 -1,0 0,0 -1,0 0,0 0,0 0,-1 0,0 0,0 0,0 0,0 0,0 0,0 0,0 0,0 0,0 0,0 0,0 0,0 0,0 0,0 -1,0 0,0 0,0 0,0 0,0 0,-1 0,-1 0,0 0,0 0,0 0,0 0,0 0,0 0,0 0,0 0,0 0,0 0,0 0,0 0,0 0,0 0,0 0,0 0,0 -1,0 0,-1 1,-1 1,-1 -1,0 -1,0 -1,0 0,0 0,0 0,0 0,0 0,0 0,0 0,0 0,0 0,0 0,0 0,0 0,0 0,0 0,0 0,-1 0,0 0,0 0,0 0,0 0,0 0,0 0,0 -1,0 -1,0 0,0 0,0 0,0 0,-1 -1,-1 -1,-1 0,-1 0,-1 0,-1 -1,0 0,0 -1,0 0,0 0,0 0,0 0,0 0,0 0,0 0,-1 0,-1 0,-1 0,0 0,0 0,0 0,0 0,0 0,0 0,0 0,0 -1,0 0,0 0,0 0,0 0,0 0,0 0,0 0,0 0,-1 0,-1 0,0 0,0 0,0 0,0 0,0 0,0 0,0 0,0 -1,0 0,0 0,-1 -1,-1 0,0 0,0 0,0 0,0 0,0 0,-1 0,0 0,0 0,0 0,0 0,0 0,0 0,0 0,0 0,0 0,0 -1,0 -1,0 0,0 0,0 0,0 0,0 0,0 0,0 0,-1 0,-1 0,-1 0,0 0,0 0,0 0,0 0,0 0,0 0,0 -1,0 -1,0 0,0 0,0 0,0 0,0 0,0 0,0 0,-1 0,-1 0,-1 0,0 0,0 -1,0 0,-1 0,-1 0,-1 0,0 0,0 0,0 -1,0 -1,-1 -1,-2 0,0 0,0 0,0 0,0 0,0 0,0 0,0 0,0 -1,0 0,0 1,0 1,0 -1,0 -1,0 -1,-1 0,0 0,0 0,0 0,0 0,0 0,0 0,0 0,0 0,0 0,0 0,0 0,0 0,0 0,0 0,0 -1,-1 -1,-2 -1,-3 0,0 0,0 0,0 0,0 0,0 0,-1 0,0 -1,0 -1,0 0,0 0,0 1,0 -1,0 -1,0 -1,0 0,0 0,0 0,0 0,0 0,-1 0,-1 0,0 0,0 0,0 0,0 0,0 0,0 0,0 0,-1 0,-1 0,0 0,0 0,0 0,0 0,0 0,0 0,0 0,0 0,0 0,-1 0,-1 0,-1 0,0 0,0 -1,0 1,0 1,0 1,0 0,0 -1,0 -1,0 0,-1 0,-1 0,-1 0,0 0,0 0,0 0,0 0,-1 0,-1 0,0 0,0 0,0 0,0 0,-1 0,-1 0,0 0,0 0,0 0,-1 0,-1 0,-2 0,0 0,0 -1,0 0,0 0,0 0,-1 0,0 0,0 0,0 0,0 0,-1 1,-1 0,0 -1,0 -1,0 0,0 0,-1 1,-1 -1,0 -1,-1 -1,-1 0,0 0,0 0,0 0,-1 0,-1 0,-1 0,0 0,0 0,0l1 -2c0,0 1,0 1,0z"/>
    </g>
   </g>
  </g>
  <polygon class="fil2" points="0,0 502,0 502,502 0,502 "/>
 </g>
</svg>
