<?xml version="1.0" encoding="UTF-8"?>
<!DOCTYPE svg PUBLIC "-//W3C//DTD SVG 1.1//EN" "http://www.w3.org/Graphics/SVG/1.1/DTD/svg11.dtd">
<!-- Creator: CorelDRAW X7 -->
<svg xmlns="http://www.w3.org/2000/svg" xml:space="preserve" width="14.3007mm" height="14.3096mm" version="1.1" style="shape-rendering:geometricPrecision; text-rendering:geometricPrecision; image-rendering:optimizeQuality; fill-rule:evenodd; clip-rule:evenodd"
viewBox="0 0 114 114"
 xmlns:xlink="http://www.w3.org/1999/xlink">
 <defs>
  <style type="text/css">
   <![CDATA[
    .fil0 {fill:#FFFFE7}
   ]]>
  </style>
 </defs>
 <g id="Capa_x0020_1">
  <metadata id="CorelCorpID_0Corel-Layer"/>
  <path class="fil0" d="M14 101c1,-4 3,-11 4,-15 1,-4 -5,-6 -8,-22 -2,-16 4,-30 11,-38 1,-1 2,-2 3,-3 9,-8 18,-13 31,-13 14,-1 26,4 35,13 18,17 19,46 4,64 -15,18 -40,23 -61,11 -3,-2 -2,-2 -9,0 -3,1 -7,2 -10,3zm22 -70c-2,0 -3,2 -4,3 -10,11 4,30 12,36 3,3 4,4 8,7 10,6 27,13 33,0 0,-1 1,-5 1,-6 0,-2 -3,-2 -4,-3 -12,-5 -10,-6 -15,0 -1,2 -1,4 -4,3 -4,-2 -7,-4 -10,-6 -3,-2 -11,-10 -10,-13 0,-1 3,-4 4,-4 2,-3 2,-3 0,-6l-4 -11c-2,-1 -6,-1 -7,0zm-36 83l24 -6c8,-2 5,-1 11,2 4,1 8,3 12,3 19,4 36,-3 47,-12 10,-8 19,-22 20,-41 1,-9 -1,-18 -4,-25 -3,-7 -6,-12 -11,-17 -5,-5 -11,-10 -20,-14 -8,-3 -16,-4 -26,-4 -11,1 -25,6 -32,13 -2,2 -3,3 -4,4 -13,14 -20,32 -16,51 2,7 3,11 6,17 1,2 0,3 0,5 -2,8 -5,17 -7,24z"/>
 </g>
</svg>
